<svg width="564" height="415" viewBox="0 0 564 415" fill="none" xmlns="http://www.w3.org/2000/svg">
<g clip-path="url(#clip0_8059_63237)">
<path d="M533.086 414.011L533.728 412.824C525.116 408.166 514.398 402.37 508.8 392.857C503.281 383.48 503.157 370.747 508.477 359.626C513.003 350.162 521.319 341.683 532.524 335.105C534.734 333.808 537.054 332.578 539.298 331.389C544.722 328.515 550.33 325.542 554.954 321.325C561.323 315.517 566.142 305.77 562.55 297.089C561.369 294.318 559.434 291.933 556.966 290.207C554.498 288.48 551.595 287.479 548.587 287.319L548.511 288.668C551.267 288.814 553.926 289.73 556.188 291.311C558.449 292.892 560.223 295.076 561.306 297.614C564.644 305.682 560.064 314.837 554.044 320.327C549.546 324.429 544.015 327.36 538.666 330.195C536.409 331.391 534.076 332.628 531.84 333.94C520.402 340.655 511.902 349.335 507.258 359.043C501.748 370.564 501.892 383.783 507.636 393.543C513.425 403.379 524.326 409.274 533.086 414.011Z" fill="#F1F1F1"/>
<path d="M540.027 294.437C546.554 294.437 551.845 291.867 551.845 288.697C551.845 285.527 546.554 282.957 540.027 282.957C533.501 282.957 528.21 285.527 528.21 288.697C528.21 291.867 533.501 294.437 540.027 294.437Z" fill="#F1F1F1"/>
<path d="M530.573 332.253C537.1 332.253 542.391 329.683 542.391 326.513C542.391 323.343 537.1 320.773 530.573 320.773C524.047 320.773 518.756 323.343 518.756 326.513C518.756 329.683 524.047 332.253 530.573 332.253Z" fill="#F1F1F1"/>
<path d="M552.183 338.33C558.709 338.33 564 335.76 564 332.59C564 329.42 558.709 326.851 552.183 326.851C545.656 326.851 540.365 329.42 540.365 332.59C540.365 335.76 545.656 338.33 552.183 338.33Z" fill="#F1F1F1"/>
<path d="M518.419 370.069C524.945 370.069 530.236 367.499 530.236 364.329C530.236 361.159 524.945 358.589 518.419 358.589C511.892 358.589 506.602 361.159 506.602 364.329C506.602 367.499 511.892 370.069 518.419 370.069Z" fill="#F1F1F1"/>
<path d="M494.784 370.069C501.311 370.069 506.601 367.499 506.601 364.329C506.601 361.159 501.311 358.589 494.784 358.589C488.258 358.589 482.967 361.159 482.967 364.329C482.967 367.499 488.258 370.069 494.784 370.069Z" fill="#F1F1F1"/>
<path d="M92.7062 296.773H50.775C49.6396 296.772 48.551 296.32 47.7481 295.517C46.9452 294.715 46.4935 293.626 46.4922 292.491V154.33C46.4935 153.195 46.9452 152.106 47.7481 151.304C48.551 150.501 49.6396 150.049 50.775 150.048H92.7062C93.8416 150.049 94.9302 150.501 95.7331 151.304C96.536 152.106 96.9877 153.195 96.9891 154.33V292.491C96.9877 293.626 96.536 294.715 95.7331 295.517C94.9302 296.32 93.8416 296.772 92.7062 296.773Z" fill="#1BD47B"/>
<path d="M169.173 296.773H127.242C126.106 296.772 125.018 296.32 124.215 295.517C123.412 294.715 122.96 293.626 122.959 292.491V99.5052C122.96 98.3697 123.412 97.2812 124.215 96.4784C125.018 95.6755 126.106 95.2239 127.242 95.2227H169.173C170.308 95.2239 171.397 95.6755 172.2 96.4784C173.003 97.2812 173.454 98.3697 173.456 99.5052V292.491C173.454 293.626 173.003 294.715 172.2 295.517C171.397 296.32 170.308 296.772 169.173 296.773Z" fill="#1BD47B"/>
<path d="M245.64 296.773H203.709C202.573 296.772 201.485 296.32 200.682 295.517C199.879 294.715 199.427 293.626 199.426 292.491V154.33C199.427 153.195 199.879 152.106 200.682 151.304C201.485 150.501 202.573 150.049 203.709 150.048H245.64C246.775 150.049 247.864 150.501 248.667 151.304C249.47 152.106 249.921 153.195 249.923 154.33V292.491C249.921 293.626 249.47 294.715 248.667 295.517C247.864 296.32 246.775 296.772 245.64 296.773Z" fill="#1BD47B"/>
<path d="M322.107 296.773H280.175C279.066 296.797 277.992 296.38 277.189 295.614C276.386 294.847 275.92 293.794 275.893 292.684V77.6695C275.92 76.5601 276.386 75.5068 277.189 74.7404C277.992 73.9741 279.066 73.5572 280.175 73.5811H322.107C323.216 73.5572 324.29 73.9741 325.093 74.7404C325.896 75.5068 326.362 76.5601 326.389 77.6695V292.684C326.362 293.794 325.896 294.847 325.093 295.614C324.29 296.38 323.216 296.797 322.107 296.773Z" fill="#1BD47B"/>
<path d="M398.572 296.773H356.641C355.506 296.771 354.417 296.32 353.614 295.517C352.811 294.714 352.36 293.626 352.358 292.49V38.9085C352.36 37.7731 352.811 36.6845 353.614 35.8817C354.417 35.0788 355.506 34.6272 356.641 34.626H398.572C399.708 34.6272 400.796 35.0788 401.599 35.8817C402.402 36.6845 402.854 37.7731 402.855 38.9085V292.49C402.854 293.626 402.402 294.714 401.599 295.517C400.796 296.32 399.708 296.771 398.572 296.773Z" fill="#1BD47B"/>
<path d="M71.7406 132.735C76.5215 132.735 80.3972 128.859 80.3972 124.078C80.3972 119.298 76.5215 115.422 71.7406 115.422C66.9597 115.422 63.084 119.298 63.084 124.078C63.084 128.859 66.9597 132.735 71.7406 132.735Z" fill="#3F3D56"/>
<path d="M148.207 76.4665C152.988 76.4665 156.864 72.5908 156.864 67.8099C156.864 63.029 152.988 59.1533 148.207 59.1533C143.426 59.1533 139.551 63.029 139.551 67.8099C139.551 72.5908 143.426 76.4665 148.207 76.4665Z" fill="#3F3D56"/>
<path d="M224.674 132.735C229.455 132.735 233.331 128.859 233.331 124.078C233.331 119.298 229.455 115.422 224.674 115.422C219.893 115.422 216.018 119.298 216.018 124.078C216.018 128.859 219.893 132.735 224.674 132.735Z" fill="#3F3D56"/>
<path d="M301.14 49.0535C305.921 49.0535 309.797 45.1778 309.797 40.3968C309.797 35.6159 305.921 31.7402 301.14 31.7402C296.359 31.7402 292.483 35.6159 292.483 40.3968C292.483 45.1778 296.359 49.0535 301.14 49.0535Z" fill="#3F3D56"/>
<path d="M377.607 17.3132C382.388 17.3132 386.263 13.4375 386.263 8.65661C386.263 3.8757 382.388 0 377.607 0C372.826 0 368.95 3.8757 368.95 8.65661C368.95 13.4375 372.826 17.3132 377.607 17.3132Z" fill="#3F3D56"/>
<path d="M447.708 298.381H0.675277C0.496182 298.381 0.324422 298.31 0.197783 298.183C0.0711445 298.056 0 297.885 0 297.706C0 297.526 0.0711445 297.355 0.197783 297.228C0.324422 297.101 0.496182 297.03 0.675277 297.03H447.708C447.888 297.03 448.059 297.101 448.186 297.228C448.313 297.355 448.384 297.526 448.384 297.706C448.384 297.885 448.313 298.056 448.186 298.183C448.059 298.31 447.888 298.381 447.708 298.381Z" fill="#CBCBCB"/>
<path d="M559.129 413.853H340.339C340.16 413.853 339.988 413.781 339.862 413.655C339.735 413.528 339.664 413.356 339.664 413.177C339.664 412.998 339.735 412.826 339.862 412.7C339.988 412.573 340.16 412.502 340.339 412.502H559.129C559.308 412.502 559.48 412.573 559.607 412.7C559.733 412.826 559.804 412.998 559.804 413.177C559.804 413.356 559.733 413.528 559.607 413.655C559.48 413.781 559.308 413.853 559.129 413.853Z" fill="#CBCBCB"/>
<path d="M418.628 287.405C419.183 286.853 419.61 286.186 419.88 285.451C420.15 284.717 420.255 283.931 420.188 283.151C420.122 282.371 419.885 281.615 419.495 280.937C419.104 280.258 418.57 279.674 417.929 279.224L420.584 267.278L413.718 263.895L410.206 280.816C409.522 281.943 409.275 283.281 409.511 284.578C409.748 285.874 410.452 287.039 411.49 287.851C412.528 288.664 413.828 289.067 415.144 288.984C416.459 288.902 417.699 288.34 418.628 287.405Z" fill="#FFB7B7"/>
<path d="M493.708 287.667C494.218 287.074 494.593 286.376 494.805 285.622C495.017 284.868 495.061 284.078 494.934 283.305C494.808 282.533 494.513 281.797 494.071 281.151C493.63 280.504 493.052 279.963 492.378 279.564L494.101 267.449L486.994 264.606L484.801 281.749C484.206 282.925 484.064 284.279 484.4 285.553C484.736 286.828 485.528 287.934 486.626 288.664C487.724 289.393 489.051 289.695 490.356 289.511C491.661 289.327 492.854 288.671 493.708 287.667L493.708 287.667Z" fill="#FFB7B7"/>
<path d="M440.187 406.569L433.186 406.569L429.855 379.564L440.189 379.565L440.187 406.569Z" fill="#FFB7B7"/>
<path d="M441.973 413.356L419.398 413.355V413.07C419.399 410.739 420.324 408.505 421.972 406.857C423.62 405.209 425.855 404.283 428.185 404.283H428.186L441.974 404.284L441.973 413.356Z" fill="#2F2E41"/>
<path d="M463.601 406.569L456.6 406.569L453.27 379.564L463.603 379.565L463.601 406.569Z" fill="#FFB7B7"/>
<path d="M465.387 413.356L442.812 413.355V413.07C442.813 410.739 443.738 408.505 445.386 406.857C447.034 405.209 449.269 404.283 451.599 404.283H451.6L465.388 404.284L465.387 413.356Z" fill="#2F2E41"/>
<path d="M477.697 179.374L485.247 176.649C485.247 176.649 488.451 177.33 488.451 186.02C488.451 194.709 496.961 275.752 496.961 275.752L482.068 279.673L473.65 202.784L477.697 179.374Z" fill="#2F2E41"/>
<path d="M427.25 179.374L419.7 176.649C419.7 176.649 416.496 177.33 416.496 186.02C416.496 194.709 407.986 275.752 407.986 275.752L422.879 279.673L431.297 202.784L427.25 179.374Z" fill="#2F2E41"/>
<path d="M427.347 271.804L425.283 332.681L429.852 400.022L441.623 400.294L443.337 337.477L453.045 306.068L452.065 398.643L465.395 398.484L473.65 334.793C473.65 334.793 484.553 282.083 478.507 271.804L450.664 262.545L427.347 271.804Z" fill="#2F2E41"/>
<path d="M427.574 264.468L426.902 279.112C426.902 279.112 436.296 283.787 452.809 280.94C469.321 278.092 480.297 279.969 480.297 279.969L479.029 261.301L427.574 264.468Z" fill="#E5E5E5"/>
<path d="M419.401 176.866L441.114 167.351L442.409 162.368L463.531 162.98L464.444 168.071L485.248 176.649L476.082 208.521L477.022 230.941L488.452 271.804C488.452 271.804 478.811 279.991 455.649 276.468L451.653 268.415L449.208 276.932C449.208 276.932 428.898 284.403 423.269 274.677L427.348 204.417L419.401 176.866Z" fill="#2F2E41"/>
<path d="M452.777 157.687C460.523 157.687 466.803 151.407 466.803 143.661C466.803 135.914 460.523 129.635 452.777 129.635C445.031 129.635 438.751 135.914 438.751 143.661C438.751 151.407 445.031 157.687 452.777 157.687Z" fill="#FFB7B7"/>
<path d="M469.443 138.226C469.192 137.085 468.709 136.007 468.025 135.059C467.753 132.439 466.878 129.917 465.471 127.69C464.92 126.646 464.137 125.742 463.182 125.048C462.09 124.419 460.842 124.108 459.582 124.151C459.353 124.147 458.942 124.216 458.572 124.233C458.335 124.16 458.096 124.094 457.856 124.033C457.717 123.721 457.439 122.815 457.362 122.876L456.317 123.706C455.876 123.629 455.431 123.57 454.986 123.522C454.824 123.059 454.661 122.597 454.499 122.134C454.236 122.548 454.005 122.982 453.809 123.431C453.365 123.409 452.921 123.402 452.477 123.408L451.589 122.555C451.537 122.793 451.416 123.011 451.242 123.181C451.068 123.351 450.848 123.467 450.609 123.515C450.201 123.557 449.794 123.612 449.388 123.677C449.355 123.677 449.322 123.677 449.289 123.676C447.102 123.621 444.749 123.523 442.921 124.724C442.065 125.311 441.368 126.102 440.893 127.025C440.669 127.177 440.445 127.328 440.227 127.49C439.494 127.99 438.858 128.62 438.351 129.349C437.983 129.978 437.704 130.655 437.521 131.36C436.824 133.484 436.5 135.713 436.566 137.947C436.641 140.196 437.489 142.351 438.969 144.047C439.907 145.055 441.099 145.799 442.038 146.806C443.972 148.878 444.335 151.769 445.989 153.962C447.738 156.281 450.931 157.807 453.735 158.245C455.421 158.499 457.141 158.417 458.795 158.005C460.45 157.592 462.006 156.857 463.375 155.841C464.032 155.383 464.591 154.798 465.017 154.12C465.99 152.436 465.577 150.32 465.939 148.41C466.616 144.828 470.034 141.823 469.443 138.226Z" fill="#2F2E41"/>
<path d="M71.2789 124.619L70.4727 123.536L148.208 65.663L224.427 122.515L301.689 38.629L301.828 38.5723L376.811 7.625L377.326 8.87359L302.481 39.7634L224.595 124.325L148.207 67.3471L71.2789 124.619Z" fill="#3F3D56"/>
</g>
<defs>
<clipPath id="clip0_8059_63237">
<rect width="564" height="414.011" fill="white"/>
</clipPath>
</defs>
</svg>
