<?xml version="1.0" standalone="no"?>
<!DOCTYPE svg PUBLIC "-//W3C//DTD SVG 20010904//EN"
 "http://www.w3.org/TR/2001/REC-SVG-20010904/DTD/svg10.dtd">
<svg version="1.0" xmlns="http://www.w3.org/2000/svg"
 width="1440.000000pt" height="334.000000pt" viewBox="0 0 1440.000000 334.000000"
 preserveAspectRatio="xMidYMid meet">

<g transform="translate(0.000000,334.000000) scale(0.100000,-0.100000)"
fill="#000000" stroke="none">
<path d="M0 1720 l0 -1620 3379 0 3379 0 118 61 c66 34 155 80 199 102 44 22
87 46 95 53 8 6 39 25 68 40 30 16 79 43 110 61 32 17 68 37 82 45 14 7 27 15
30 18 3 3 27 19 54 35 28 17 66 40 85 52 20 13 46 28 59 35 12 6 22 15 22 20
0 4 4 8 10 8 11 0 76 43 112 76 15 13 30 24 33 24 3 0 15 8 26 18 10 11 32 25
47 33 34 18 274 201 269 206 -5 5 -259 -67 -272 -78 -6 -4 -35 -10 -65 -13
-30 -3 -47 -3 -37 0 9 3 17 9 17 14 0 8 58 20 98 20 12 0 22 4 22 9 0 5 16 12
36 16 20 3 44 10 53 15 9 5 48 18 86 30 39 11 88 29 110 38 69 29 270 195 259
214 -3 4 -2 23 2 43 7 38 24 38 24 -1 0 -13 3 -24 6 -24 12 0 71 45 115 89 26
25 55 51 65 57 10 6 22 18 28 28 16 27 148 157 154 152 6 -6 38 27 122 124 36
41 69 78 73 81 5 4 10 25 11 47 2 46 16 70 16 29 0 -15 2 -27 6 -27 8 0 72 72
102 115 15 22 31 43 35 46 5 3 -15 42 -42 85 -38 59 -51 89 -51 117 0 33 3 37
26 37 17 0 28 6 31 19 5 20 45 24 72 7 10 -6 16 -5 19 2 9 29 22 8 22 -35 0
-43 4 -52 43 -88 53 -51 80 -90 98 -140 8 -22 20 -45 27 -50 15 -12 31 -106
25 -154 -5 -44 11 -75 27 -51 9 13 10 13 10 0 0 -8 -9 -21 -20 -28 -11 -7 -20
-18 -20 -24 0 -8 6 -6 17 4 15 16 17 16 28 1 10 -13 15 -14 35 -3 l24 13 -18
-27 c-16 -25 -16 -29 -2 -45 9 -10 16 -25 16 -34 0 -9 11 -28 25 -43 14 -15
39 -52 56 -81 17 -29 47 -70 67 -91 19 -20 58 -63 85 -95 27 -32 61 -66 76
-75 16 -10 25 -24 23 -34 -4 -23 79 -102 121 -115 40 -12 57 -7 57 18 0 12 7
19 19 19 25 0 31 30 15 69 -7 17 -10 31 -6 31 4 0 8 21 10 47 3 46 17 68 35
56 5 -3 7 -21 5 -39 -2 -19 -1 -34 4 -34 4 0 5 -7 2 -15 -4 -11 0 -15 16 -15
19 0 20 -2 6 -15 -8 -8 -20 -15 -28 -15 -7 0 -3 -7 9 -15 12 -8 24 -28 28 -45
4 -16 11 -32 16 -35 5 -4 9 -15 9 -26 0 -10 5 -19 10 -19 6 0 16 -12 23 -27 6
-15 27 -43 45 -61 17 -19 32 -40 32 -48 0 -8 5 -14 10 -14 6 0 10 -6 10 -12 0
-7 14 -22 30 -33 17 -11 33 -28 36 -38 8 -25 43 -59 53 -53 4 3 17 -12 29 -32
11 -20 41 -57 66 -82 25 -25 46 -50 46 -56 0 -7 7 -14 14 -17 8 -3 23 -21 32
-39 9 -18 21 -36 26 -39 12 -8 42 -60 77 -134 29 -62 42 -122 45 -210 l2 -50
488 -3 487 -2 -15 22 c-22 31 -20 41 4 26 11 -7 20 -21 20 -30 0 -17 65 -18
1285 -18 l1285 0 0 1620 0 1620 -1922 -2 -1923 -3 3 -95 c2 -52 10 -117 17
-145 13 -48 19 -156 16 -315 -1 -70 -2 -73 -16 -53 -9 13 -16 42 -17 66 0 33
-4 43 -17 43 -18 -1 -21 4 -21 37 0 16 3 19 9 8 12 -18 41 -7 41 16 0 10 -10
38 -21 63 -37 81 -61 191 -63 285 l-1 90 -100 3 c-132 4 -142 1 -152 -46 l-7
-37 -6 40 -5 40 -5107 3 -5108 2 0 -1620z m9970 1409 c0 -63 13 -72 25 -18 9
39 16 32 21 -22 3 -34 -1 -49 -21 -75 -14 -18 -25 -36 -25 -39 0 -12 -64 -115
-71 -115 -14 0 1 81 22 123 18 33 22 57 20 115 -1 40 1 77 4 83 15 24 25 4 25
-52z m298 -15 c21 -6 21 -7 5 -20 -24 -18 -73 -18 -73 -1 0 27 21 33 68 21z
m-568 -199 c0 -19 -4 -35 -10 -35 -5 0 -10 16 -10 35 0 19 5 35 10 35 6 0 10
-16 10 -35z m556 -75 c4 -25 12 -48 18 -52 7 -5 6 -8 -4 -8 -12 0 -12 -2 -2
-9 7 -4 14 -18 15 -29 2 -26 6 -27 35 -6 29 20 28 12 -2 -21 -17 -18 -25 -42
-30 -86 -11 -98 -22 -114 -31 -46 -4 31 -11 60 -16 63 -5 3 -9 28 -9 55 0 28
-5 82 -12 120 -9 59 -9 72 3 79 18 12 27 -4 35 -60z m-995 -103 c-8 -8 -11 -3
-11 19 1 25 2 27 11 11 8 -14 8 -22 0 -30z m484 -97 c-2 -22 -13 -53 -24 -69
-12 -16 -21 -34 -21 -40 0 -6 -4 -11 -10 -11 -5 0 -10 -7 -10 -15 0 -8 -5 -15
-10 -15 -6 0 -15 -11 -22 -25 -6 -13 -15 -22 -19 -19 -12 7 -1 52 20 84 8 14
20 33 26 42 17 28 70 107 72 108 1 0 0 -18 -2 -40z m-925 -21 c0 -5 -4 -9 -10
-9 -5 0 -10 7 -10 16 0 8 5 12 10 9 6 -3 10 -10 10 -16z m47 -121 c-3 -8 -6
-5 -6 6 -1 11 2 17 5 13 3 -3 4 -12 1 -19z m729 -114 c-9 -6 -16 -14 -16 -18
0 -9 -39 -64 -72 -101 -28 -30 -33 -26 -28 19 1 11 17 40 36 64 19 25 34 49
34 54 0 5 12 20 28 35 l27 25 3 -33 c2 -22 -2 -37 -12 -45z m687 -2 c14 -17
12 -168 -2 -205 -7 -18 -8 -35 -2 -45 5 -9 12 -63 16 -119 l7 -102 59 -55 c32
-31 62 -56 66 -56 17 -1 64 -49 126 -132 47 -62 64 -92 60 -107 -3 -12 -10
-21 -15 -21 -11 0 -46 36 -97 98 -19 23 -41 42 -50 42 -9 0 -27 -20 -41 -47
-29 -56 -84 -112 -122 -125 -21 -8 -28 -17 -28 -37 0 -15 -9 -37 -20 -49 -11
-12 -20 -32 -20 -46 0 -19 -5 -24 -20 -23 -18 1 -20 6 -14 52 3 27 12 70 20
95 22 74 47 451 54 825 1 61 5 101 7 90 3 -11 10 -26 16 -33z m-1339 23 c3 -8
1 -15 -4 -15 -6 0 -10 7 -10 15 0 8 2 15 4 15 2 0 6 -7 10 -15z m636 -282 c21
-26 27 -63 11 -63 -5 0 -12 8 -15 17 -5 12 -10 13 -18 5 -8 -8 -15 -5 -25 15
-16 32 -17 65 -1 81 10 10 14 8 20 -9 5 -11 17 -32 28 -46z m-73 35 c-3 -8 -6
-5 -6 6 -1 11 2 17 5 13 3 -3 4 -12 1 -19z m-407 -78 c0 -47 -4 -80 -10 -80
-6 0 -10 33 -10 80 0 47 4 80 10 80 6 0 10 -33 10 -80z m2460 -54 c0 -2 -7 -9
-15 -16 -12 -10 -15 -10 -15 4 0 9 7 16 15 16 8 0 15 -2 15 -4z m-2700 -16 c0
-5 -7 -10 -15 -10 -8 0 -15 5 -15 10 0 6 7 10 15 10 8 0 15 -4 15 -10z m885
-130 c-16 -16 -30 -28 -32 -26 -6 5 41 56 51 56 6 0 -3 -13 -19 -30z m-3397
-22 c-6 -18 -28 -21 -28 -4 0 9 7 16 16 16 9 0 14 -5 12 -12z m-68 -118 c0 -5
-4 -10 -10 -10 -5 0 -10 5 -10 10 0 6 5 10 10 10 6 0 10 -4 10 -10z m-63 -106
c-3 -3 -12 -4 -19 -1 -8 3 -5 6 6 6 11 1 17 -2 13 -5z m2603 -60 c0 -2 -7 -4
-15 -4 -8 0 -15 4 -15 10 0 5 7 7 15 4 8 -4 15 -8 15 -10z m-3420 -104 c0 -33
-4 -60 -10 -60 -6 0 -10 27 -10 60 0 33 4 60 10 60 6 0 10 -27 10 -60z m2451
-27 c-2 -81 -11 -80 -11 2 0 38 3 65 7 62 3 -4 5 -32 4 -64z m-295 21 c-3 -9
-6 -20 -6 -25 0 -5 -4 -9 -10 -9 -5 0 -10 11 -10 25 0 16 6 25 16 25 11 0 14
-5 10 -16z m-1196 -69 c0 -8 -7 -15 -16 -15 -14 0 -14 3 -4 15 7 8 14 15 16
15 2 0 4 -7 4 -15z m310 -80 c0 -80 -17 -86 -22 -7 -4 61 -2 72 13 72 5 0 9
-29 9 -65z m587 22 c-6 -20 -27 -19 -27 2 0 14 5 19 15 14 9 -3 14 -10 12 -16z
m-1527 -13 c0 -14 -4 -23 -10 -19 -5 3 -10 15 -10 26 0 10 5 19 10 19 6 0 10
-12 10 -26z m575 -84 c-10 -11 -20 -18 -23 -15 -7 6 18 35 31 35 5 0 2 -9 -8
-20z m384 -58 c-19 -8 -42 -14 -53 -13 -10 2 -23 -3 -28 -11 -8 -10 -9 -10 -6
2 3 8 22 18 44 23 21 4 43 12 48 17 5 5 14 7 19 3 5 -3 -6 -13 -24 -21z m-337
-44 c-6 -22 14 -24 26 -2 8 15 10 15 15 0 7 -19 -13 -31 -72 -45 -48 -10 -62
0 -25 20 15 7 24 20 21 29 -3 10 3 15 18 15 16 0 21 -5 17 -17z m-1672 -3 c0
-8 -4 -15 -10 -15 -5 0 -10 7 -10 15 0 8 5 15 10 15 6 0 10 -7 10 -15z m437
-47 c-2 -13 -4 -3 -4 22 0 25 2 35 4 23 2 -13 2 -33 0 -45z m933 27 c0 -19 -4
-35 -10 -35 -5 0 -10 16 -10 35 0 19 5 35 10 35 6 0 10 -16 10 -35z m2180 15
c0 -11 -4 -20 -10 -20 -5 0 -10 9 -10 20 0 11 5 20 10 20 6 0 10 -9 10 -20z
m-1785 0 c3 -5 -1 -10 -10 -10 -9 0 -13 5 -10 10 3 6 8 10 10 10 2 0 7 -4 10
-10z m-198 -46 c-3 -3 -12 -4 -19 -1 -8 3 -5 6 6 6 11 1 17 -2 13 -5z m733
-76 c0 -57 -3 -78 -10 -68 -13 20 -13 150 0 150 6 0 10 -34 10 -82z m-930 32
c0 -5 -4 -10 -10 -10 -5 0 -10 5 -10 10 0 6 5 10 10 10 6 0 10 -4 10 -10z
m-1683 -242 c-2 -24 -4 -5 -4 42 0 47 2 66 4 43 2 -24 2 -62 0 -85z m1983 42
c0 -10 -7 -23 -15 -30 -13 -11 -15 -7 -15 30 0 37 2 41 15 30 8 -7 15 -20 15
-30z m-1983 -282 c-2 -18 -4 -4 -4 32 0 36 2 50 4 33 2 -18 2 -48 0 -65z
m-290 -110 c-2 -13 -4 -3 -4 22 0 25 2 35 4 23 2 -13 2 -33 0 -45z m873 27 c0
-24 -5 -35 -15 -35 -15 0 -22 50 -8 63 15 15 23 5 23 -28z m-1398 -78 c-3 -52
-5 -56 -18 -40 -17 23 -19 120 -1 126 18 6 24 -20 19 -86z m-302 19 c0 -14 -4
-28 -10 -31 -6 -4 -10 7 -10 24 0 17 5 31 10 31 6 0 10 -11 10 -24z m560 -101
c0 -8 -7 -15 -15 -15 -9 0 -12 6 -9 15 4 8 10 15 15 15 5 0 9 -7 9 -15z m-790
-114 c0 -39 -4 -73 -10 -76 -6 -4 -10 22 -10 69 0 44 4 76 10 76 6 0 10 -30
10 -69z"/>
<path d="M9278 1960 c-1 -5 -37 -44 -79 -87 -42 -43 -84 -90 -94 -105 -9 -16
-21 -28 -25 -28 -9 0 -200 -191 -200 -201 0 -12 -124 -129 -137 -129 -7 0 -13
-7 -13 -15 0 -8 -4 -15 -9 -15 -5 0 -55 -45 -112 -101 -57 -55 -119 -113 -138
-130 -37 -31 -31 -37 15 -15 16 8 47 17 69 21 l40 7 -30 -21 c-16 -12 -37 -21
-45 -21 -8 0 -27 -6 -41 -14 -14 -7 -38 -16 -54 -20 -33 -8 -116 -62 -160
-104 -16 -15 -59 -48 -95 -73 -192 -135 -228 -160 -263 -186 -21 -15 -43 -33
-51 -40 -7 -6 -36 -23 -64 -38 -28 -14 -56 -33 -63 -41 -6 -8 -18 -14 -25 -14
-8 0 -14 -4 -14 -10 0 -5 -5 -10 -10 -10 -6 0 -43 -22 -83 -49 -40 -26 -121
-77 -180 -112 -60 -35 -123 -72 -140 -82 -41 -25 -219 -119 -337 -179 l-95
-48 1937 0 1937 0 -8 28 c-12 42 -72 167 -82 170 -5 2 -9 10 -9 17 0 8 -6 18
-13 22 -7 4 -20 21 -30 36 -10 15 -46 49 -79 75 -34 26 -119 103 -188 172 -70
69 -146 143 -171 164 -87 78 -222 202 -258 237 -37 36 -44 47 -88 128 -43 78
-96 165 -109 179 -7 6 -16 21 -19 32 -3 11 -11 20 -16 20 -5 0 -9 5 -9 10 0
13 -110 174 -122 178 -12 5 -78 107 -78 121 0 6 -4 11 -10 11 -5 0 -13 12 -16
27 -4 15 -13 38 -20 52 -8 14 -14 33 -14 42 0 8 -7 24 -15 35 -8 10 -15 27
-15 36 0 18 -46 78 -60 78 -5 0 -10 -4 -12 -10z m-458 -555 c0 -24 -5 -35 -15
-35 -10 0 -15 11 -15 35 0 24 5 35 15 35 10 0 15 -11 15 -35z m-10 -185 c11
-7 2 -9 -30 -9 -37 1 -41 2 -20 9 34 11 33 11 50 0z m-80 -4 c0 -2 -7 -6 -15
-10 -8 -3 -15 -1 -15 4 0 6 7 10 15 10 8 0 15 -2 15 -4z m-70 -30 c0 -2 -13
-9 -30 -15 -16 -5 -30 -6 -30 -1 0 5 8 11 18 13 24 7 42 8 42 3z m107 -228
c-3 -8 -6 -5 -6 6 -1 11 2 17 5 13 3 -3 4 -12 1 -19z"/>
</g>
</svg>
