<svg width="41" height="41" viewBox="0 0 41 41" fill="none" xmlns="http://www.w3.org/2000/svg">
<path d="M34.1132 34.1266H28.1865V24.8448C28.1865 22.6314 28.147 19.7822 25.104 19.7822C22.0171 19.7822 21.5448 22.1937 21.5448 24.6836V34.126H15.618V15.0388H21.3077V17.6472H21.3874C21.9568 16.6736 22.7796 15.8727 23.7682 15.3298C24.7567 14.7868 25.8741 14.5222 27.0011 14.564C33.0082 14.564 34.1157 18.5153 34.1157 23.6557L34.1132 34.1266ZM8.93071 12.4297C8.25047 12.4298 7.58545 12.2282 7.01978 11.8504C6.45411 11.4725 6.01321 10.9354 5.75278 10.307C5.49235 9.67856 5.4241 8.98701 5.55669 8.31979C5.68928 7.65257 6.01675 7.03966 6.49767 6.55855C6.97858 6.07744 7.59136 5.74975 8.25851 5.61692C8.92566 5.48409 9.6172 5.55207 10.2457 5.81229C10.8742 6.0725 11.4114 6.51325 11.7895 7.0788C12.1675 7.64436 12.3693 8.30931 12.3695 8.98958C12.3695 9.44126 12.2807 9.88853 12.1079 10.3059C11.9351 10.7232 11.6819 11.1024 11.3625 11.4218C11.0432 11.7413 10.6641 11.9947 10.2468 12.1676C9.82959 12.3405 9.38237 12.4296 8.93071 12.4297ZM11.8941 34.1266H5.96116V15.0388H11.8941V34.1266ZM37.068 0.0466706H2.98298C2.20935 0.0379398 1.46386 0.336718 0.910398 0.877349C0.356935 1.41798 0.0407733 2.15623 0.0313315 2.92988V37.1574C0.0404502 37.9314 0.356426 38.6702 0.909871 39.2114C1.46331 39.7526 2.20897 40.0519 2.98298 40.0437H37.068C37.8435 40.0534 38.5912 39.7549 39.1469 39.2138C39.7025 38.6726 40.0206 37.933 40.0313 37.1574V2.92742C40.0203 2.15223 39.702 1.41314 39.1463 0.872519C38.5907 0.3319 37.8431 0.0339763 37.068 0.0442" fill="#333946"/>
</svg>
