<svg width="34" height="28" viewBox="0 0 34 28" fill="none" xmlns="http://www.w3.org/2000/svg">
<path d="M10.6472 27.6105C23.2256 27.6105 30.1083 17.1797 30.1083 8.1494C30.1083 7.85595 30.1083 7.5625 30.095 7.26905C31.4288 6.30867 32.5893 5.09485 33.5097 3.72097C32.2825 4.26785 30.962 4.628 29.5748 4.8014C30.9887 3.96106 32.0691 2.61386 32.5893 1.01322C31.2688 1.8002 29.8015 2.36042 28.2409 2.66721C26.9871 1.33334 25.213 0.506348 23.2522 0.506348C19.4774 0.506348 16.4095 3.57424 16.4095 7.34908C16.4095 7.88263 16.4762 8.40284 16.5829 8.90971C10.9006 8.6296 5.85862 5.89517 2.48394 1.76018C1.89703 2.77392 1.56357 3.94772 1.56357 5.20156C1.56357 7.57584 2.77739 9.67001 4.60478 10.8972C3.48434 10.8572 2.43058 10.5504 1.51021 10.0435C1.51021 10.0702 1.51021 10.0969 1.51021 10.1369C1.51021 13.4449 3.87116 16.2193 6.99241 16.8462C6.41884 17.0063 5.8186 17.0863 5.19169 17.0863C4.75151 17.0863 4.32467 17.0463 3.91117 16.9663C4.77819 19.6874 7.31253 21.6615 10.3004 21.7148C7.95279 23.5556 5.00494 24.6493 1.80366 24.6493C1.25678 24.6493 0.709893 24.6227 0.176346 24.556C3.19089 26.4767 6.79233 27.6105 10.6472 27.6105Z" fill="#333946"/>
</svg>
