<svg width="24" height="24" viewBox="0 0 24 24" fill="none" xmlns="http://www.w3.org/2000/svg">
<path d="M5.004 7.00007H4.975C4.66795 7.01926 4.36024 6.97485 4.07114 6.86963C3.78204 6.7644 3.51778 6.60061 3.2949 6.38854C3.07203 6.17646 2.89534 5.92065 2.7759 5.63712C2.65645 5.3536 2.59683 5.04847 2.60077 4.74084C2.6047 4.43321 2.67211 4.12971 2.79876 3.84933C2.92541 3.56896 3.10859 3.31775 3.33681 3.11144C3.56504 2.90513 3.8334 2.74816 4.1251 2.65036C4.41679 2.55256 4.72554 2.51603 5.032 2.54307C5.33906 2.52162 5.64724 2.56383 5.93723 2.66705C6.22722 2.77027 6.49275 2.93227 6.7172 3.14291C6.94165 3.35355 7.12017 3.60828 7.24157 3.89114C7.36298 4.17399 7.42464 4.47888 7.42271 4.78668C7.42078 5.09448 7.35528 5.39857 7.23034 5.67987C7.10539 5.96118 6.92368 6.21365 6.69661 6.42145C6.46953 6.62925 6.20198 6.78791 5.91072 6.88748C5.61946 6.98705 5.31077 7.02538 5.004 7.00007ZM3.018 10.0001H7.018V22.0001H3.018V10.0001ZM17.518 10.0001C16.844 10.0019 16.1791 10.156 15.5731 10.4509C14.967 10.7458 14.4354 11.1739 14.018 11.7031V10.0001H10.018V22.0001H14.018V16.5001C14.018 15.9696 14.2287 15.4609 14.6038 15.0859C14.9789 14.7108 15.4876 14.5001 16.018 14.5001C16.5484 14.5001 17.0571 14.7108 17.4322 15.0859C17.8073 15.4609 18.018 15.9696 18.018 16.5001V22.0001H22.018V14.5001C22.018 13.3066 21.5439 12.162 20.7 11.3181C19.8561 10.4742 18.7115 10.0001 17.518 10.0001Z" fill="#1BD47B"/>
</svg>
