<svg width="1028" height="274" viewBox="0 0 1028 274" fill="none" xmlns="http://www.w3.org/2000/svg">
<rect width="1028" height="274" rx="8" fill="#1BD47B"/>
<path d="M42.56 48.72C44.64 47.52 45.94 45.24 45.94 42.62C45.94 38.54 42.74 35.2 37.92 35.2H26.8V64H38.84C43.92 64 47.34 60.92 47.34 55.92C47.34 52.58 45.56 50.02 42.56 48.72ZM37.9 37.98C40.8 37.98 42.9 39.86 42.9 42.58C42.9 45.46 40.66 47.48 37.9 47.48H29.76V37.98H37.9ZM29.76 61.18V50.26H38.66C41.9 50.26 44.3 52.78 44.3 55.96C44.3 59.24 41.62 61.18 38.12 61.18H29.76ZM67.7113 46.12C66.5713 43.32 63.6913 41.8 59.7513 41.8C54.9913 41.8 51.9513 44.04 50.9513 47.9L53.8112 48.74C54.6313 45.86 56.7513 44.58 59.7113 44.58C63.8113 44.58 65.4313 46.46 65.4713 50.36C62.5913 50.76 58.5513 51.22 55.6313 51.92C52.4113 52.78 50.1313 54.66 50.1313 58.2C50.1313 61.64 52.6113 64.6 57.5113 64.6C61.1913 64.6 64.0513 63.16 65.7313 60.42V64H68.3513V50.58C68.3513 48.98 68.2313 47.38 67.7113 46.12ZM57.8513 62.06C54.3713 62.06 53.0713 60.08 53.0713 58.2C53.0713 55.86 54.9713 54.82 56.8113 54.28C59.1913 53.62 62.5913 53.28 65.4313 52.94C65.4313 53.92 65.3913 55.32 65.1513 56.38C64.5913 59.64 61.9713 62.06 57.8513 62.06ZM81.6178 64.58C86.9178 64.58 90.1378 62.1 90.1378 58.02C90.1378 54.68 88.2778 53.14 82.3178 51.62C77.2178 50.34 75.9978 49.54 75.9978 47.82C75.9978 45.78 78.1178 44.42 81.1778 44.48C84.4178 44.54 86.6778 46.1 87.0978 48.64L90.0978 48.1C89.6578 44.34 86.0978 41.8 81.2178 41.8C76.3378 41.8 73.0178 44.28 73.0178 47.96C73.0178 50.98 74.8178 52.4 80.6778 53.98C86.1578 55.46 87.0778 56.06 87.0778 58.06C87.0778 60.42 85.0578 61.9 81.7778 61.9C78.4178 61.9 75.9778 60.34 75.3578 57.88L72.3578 58.38C73.0978 62.28 76.5578 64.58 81.6178 64.58ZM96.4334 38.68C97.5934 38.68 98.4934 37.8 98.4934 36.66C98.4934 35.5 97.5934 34.62 96.4334 34.62C95.2734 34.62 94.3934 35.5 94.3934 36.66C94.3934 37.8 95.2734 38.68 96.4334 38.68ZM97.9134 64V42.4H94.9734V64H97.9134ZM112.869 64.6C117.149 64.6 120.309 62.54 121.929 58.7L118.969 57.82C117.889 60.42 115.789 61.78 112.869 61.78C108.229 61.78 105.889 58.38 105.829 53.2C105.889 48.16 108.089 44.62 112.869 44.62C115.689 44.62 118.029 46.12 119.049 48.7L121.929 47.78C120.729 44.08 117.249 41.8 112.889 41.8C106.429 41.8 102.789 46.4 102.709 53.2C102.789 59.86 106.329 64.6 112.869 64.6Z" fill="white"/>
<path d="M26.792 112V107.08H30.984V105.4H26.792V102.152H31.944V100.48H25.12V112H26.792ZM37.4033 112.24C39.9793 112.24 41.6433 110.376 41.6433 107.672C41.6433 105 39.9953 103.12 37.4033 103.12C34.8593 103.12 33.1713 104.968 33.1713 107.672C33.1713 110.352 34.8113 112.24 37.4033 112.24ZM37.4033 110.664C35.7873 110.664 34.9473 109.496 34.9473 107.672C34.9473 105.912 35.7233 104.696 37.4033 104.696C39.0353 104.696 39.8673 105.864 39.8673 107.672C39.8673 109.44 39.0513 110.664 37.4033 110.664ZM46.1893 103.848C45.8613 104.064 45.5893 104.376 45.3893 104.736V103.36H43.9013V112H45.5893V107.64C45.5893 106.624 45.8613 105.712 46.6773 105.192C47.2533 104.824 48.0053 104.776 48.5653 104.928V103.36C47.7893 103.216 46.8373 103.368 46.1893 103.848ZM58.3159 103.12C57.3479 103.12 56.5639 103.424 55.9639 103.952V100.48H54.2839V112H55.7719V111.208C56.3959 111.856 57.2599 112.24 58.3479 112.24C60.7559 112.24 62.2599 110.264 62.2599 107.672C62.2599 105.064 60.7479 103.12 58.3159 103.12ZM58.1159 110.728C56.4679 110.728 55.7719 109.464 55.7719 107.672C55.7719 105.88 56.4839 104.632 58.0599 104.632C59.7239 104.632 60.4839 105.976 60.4839 107.672C60.4839 109.384 59.7239 110.728 58.1159 110.728ZM71.2543 104.768C70.7183 103.632 69.5183 103.12 67.9743 103.12C65.9743 103.12 64.7743 104.064 64.3583 105.544L65.9183 106.024C66.2143 105.064 67.0463 104.664 67.9583 104.664C69.3103 104.664 69.8543 105.224 69.9103 106.416C68.5103 106.608 67.0863 106.792 66.0863 107.088C64.7503 107.512 64.0463 108.344 64.0463 109.648C64.0463 111.056 65.0543 112.24 66.9663 112.24C68.3663 112.24 69.3663 111.76 70.0783 110.744V112H71.5583V106.68C71.5583 105.96 71.5263 105.336 71.2543 104.768ZM67.2623 110.872C66.1903 110.872 65.7023 110.304 65.7023 109.632C65.7023 108.952 66.2063 108.584 66.8943 108.352C67.6223 108.136 68.5903 108 69.8943 107.808C69.8863 108.208 69.8543 108.76 69.7183 109.16C69.5263 110 68.6863 110.872 67.2623 110.872ZM77.4396 112.232C79.6236 112.232 80.9436 111.208 80.9436 109.496C80.9436 108.16 80.1996 107.496 78.0236 106.936C75.9996 106.424 75.6076 106.2 75.6076 105.624C75.6076 104.968 76.2956 104.552 77.3116 104.592C78.3676 104.632 79.0636 105.144 79.1836 105.968L80.8956 105.656C80.7036 104.12 79.2796 103.12 77.2956 103.12C75.2636 103.12 73.9356 104.144 73.9356 105.712C73.9356 106.984 74.6716 107.6 76.9036 108.184C78.9356 108.728 79.2236 108.904 79.2236 109.56C79.2236 110.312 78.5916 110.76 77.5516 110.76C76.3996 110.76 75.5836 110.216 75.3676 109.312L73.6556 109.576C73.9516 111.264 75.3356 112.232 77.4396 112.232ZM84.2138 102.176C84.8138 102.176 85.2538 101.712 85.2538 101.136C85.2538 100.552 84.8138 100.096 84.2138 100.096C83.6138 100.096 83.1658 100.552 83.1658 101.136C83.1658 101.712 83.6138 102.176 84.2138 102.176ZM85.0458 112V103.36H83.3738V112H85.0458ZM91.6441 112.24C93.5001 112.24 94.8441 111.32 95.4121 109.624L93.7161 109.224C93.3641 110.152 92.7161 110.664 91.6441 110.664C90.0601 110.664 89.2521 109.464 89.2441 107.68C89.2521 105.952 90.0041 104.696 91.6441 104.696C92.6121 104.696 93.4201 105.264 93.7481 106.232L95.4121 105.752C94.9801 104.128 93.5561 103.12 91.6681 103.12C89.0521 103.12 87.4841 105.008 87.4681 107.68C87.4841 110.312 88.9961 112.24 91.6441 112.24ZM107.157 107.856C107.157 109.904 106.165 110.648 104.965 110.648C103.125 110.648 102.781 108.952 102.781 107.608V103.36H101.085V108.16C101.085 109.496 101.525 112.232 104.501 112.232C105.749 112.232 106.725 111.768 107.357 110.968V112H108.845V103.36H107.157V107.856ZM114.893 112.232C117.077 112.232 118.397 111.208 118.397 109.496C118.397 108.16 117.653 107.496 115.477 106.936C113.453 106.424 113.061 106.2 113.061 105.624C113.061 104.968 113.749 104.552 114.765 104.592C115.821 104.632 116.517 105.144 116.637 105.968L118.349 105.656C118.157 104.12 116.733 103.12 114.749 103.12C112.717 103.12 111.389 104.144 111.389 105.712C111.389 106.984 112.125 107.6 114.357 108.184C116.389 108.728 116.677 108.904 116.677 109.56C116.677 110.312 116.045 110.76 115.005 110.76C113.853 110.76 113.037 110.216 112.821 109.312L111.109 109.576C111.405 111.264 112.789 112.232 114.893 112.232ZM128.419 108.152C128.595 105.056 127.059 103.12 124.419 103.12C121.891 103.12 120.187 104.92 120.187 107.752C120.187 110.424 121.915 112.24 124.499 112.24C126.171 112.24 127.635 111.352 128.307 109.808L126.667 109.288C126.243 110.176 125.459 110.664 124.419 110.664C122.963 110.664 122.115 109.76 121.979 108.152H128.419ZM124.483 104.6C125.811 104.6 126.531 105.32 126.707 106.848H122.019C122.235 105.384 123.059 104.6 124.483 104.6ZM133.002 103.848C132.674 104.064 132.402 104.376 132.202 104.736V103.36H130.714V112H132.402V107.64C132.402 106.624 132.674 105.712 133.49 105.192C134.066 104.824 134.818 104.776 135.378 104.928V103.36C134.602 103.216 133.65 103.368 133.002 103.848ZM140.393 112.232C142.577 112.232 143.897 111.208 143.897 109.496C143.897 108.16 143.153 107.496 140.977 106.936C138.953 106.424 138.561 106.2 138.561 105.624C138.561 104.968 139.249 104.552 140.265 104.592C141.321 104.632 142.017 105.144 142.137 105.968L143.849 105.656C143.657 104.12 142.233 103.12 140.249 103.12C138.217 103.12 136.889 104.144 136.889 105.712C136.889 106.984 137.625 107.6 139.857 108.184C141.889 108.728 142.177 108.904 142.177 109.56C142.177 110.312 141.545 110.76 140.505 110.76C139.353 110.76 138.537 110.216 138.321 109.312L136.609 109.576C136.905 111.264 138.289 112.232 140.393 112.232Z" fill="white"/>
<path d="M1004 141H24V143H1004V141Z" fill="white" mask="url(#path-2-inside-1_3930_48491)"/>
<circle cx="44" cy="186" r="10" fill="white"/>
<path d="M40.25 186.625L43.25 188.5L47.75 183.5" stroke="#1BD47B" stroke-width="1.25" stroke-linecap="round" stroke-linejoin="round"/>
<path d="M70.12 192.24C72.528 192.24 74.328 191 74.328 188.856C74.328 186.672 72.464 186.104 71.528 185.84L69.272 185.176C68.376 184.92 67.224 184.528 67.224 183.36C67.224 182.216 68.368 181.36 69.912 181.368C71.52 181.384 72.8 182.336 73.032 183.832L74.264 183.608C73.888 181.536 72.224 180.256 69.92 180.248C67.648 180.24 65.984 181.464 65.984 183.408C65.984 184.952 67.032 185.752 68.44 186.168L71.36 187.04C72.16 187.28 73.128 187.72 73.128 188.904C73.128 190.264 71.872 191.112 70.168 191.112C68.448 191.112 67.12 190.216 66.736 188.72L65.536 188.92C65.928 190.968 67.712 192.24 70.12 192.24ZM80.7794 184.368V183.36H78.1314V180.96H76.9634V183.36H75.1154V184.368H76.9634V188.872C76.9634 189.72 76.9234 190.336 77.2354 190.968C77.8034 192.12 79.3154 192.304 80.7794 192V190.968C79.5394 191.168 78.6914 191.096 78.3074 190.376C78.0994 190.008 78.1314 189.552 78.1314 188.824V184.368H80.7794ZM85.8731 192.24C88.4331 192.24 89.9691 190.392 89.9691 187.672C89.9691 185 88.4651 183.12 85.8731 183.12C83.3451 183.12 81.7851 184.952 81.7851 187.672C81.7851 190.352 83.2971 192.24 85.8731 192.24ZM85.8731 191.112C84.0011 191.112 83.0331 189.752 83.0331 187.672C83.0331 185.656 83.9371 184.248 85.8731 184.248C87.7771 184.248 88.7211 185.592 88.7211 187.672C88.7211 189.712 87.7931 191.112 85.8731 191.112ZM95.4139 192.24C97.1259 192.24 98.3899 191.416 99.0379 189.88L97.8539 189.528C97.4219 190.568 96.5819 191.112 95.4139 191.112C93.5579 191.112 92.6219 189.752 92.5979 187.68C92.6219 185.664 93.5019 184.248 95.4139 184.248C96.5419 184.248 97.4779 184.848 97.8859 185.88L99.0379 185.512C98.5579 184.032 97.1659 183.12 95.4219 183.12C92.8379 183.12 91.3819 184.96 91.3499 187.68C91.3819 190.344 92.7979 192.24 95.4139 192.24ZM107.561 192L103.537 187.024L107.353 183.36H105.889L101.913 187.12V180.48H100.785L100.777 192H101.913V188.584L102.737 187.792L106.161 192H107.561ZM113.454 192V180.48H112.278V192H113.454ZM119.908 183.144C118.668 183.144 117.644 183.624 117.004 184.56V183.36H115.94V192H117.124V187.392C117.124 185.44 118.02 184.264 119.684 184.264C121.492 184.264 122.188 185.688 122.188 187.592V192H123.372V187.248C123.372 185.304 122.5 183.144 119.908 183.144ZM129.936 181.232V180.24H128.832C128.168 180.24 127.456 180.304 126.936 180.872C126.464 181.384 126.4 182.056 126.4 182.72V183.36H124.904V184.368H126.4V192H127.576V184.368H129.936V183.36H127.576V182.592C127.576 181.656 128.016 181.232 128.912 181.232H129.936ZM134.608 192.24C137.168 192.24 138.704 190.392 138.704 187.672C138.704 185 137.2 183.12 134.608 183.12C132.08 183.12 130.52 184.952 130.52 187.672C130.52 190.352 132.032 192.24 134.608 192.24ZM134.608 191.112C132.736 191.112 131.768 189.752 131.768 187.672C131.768 185.656 132.672 184.248 134.608 184.248C136.512 184.248 137.456 185.592 137.456 187.672C137.456 189.712 136.528 191.112 134.608 191.112ZM149.18 183.128C148.028 183.128 147.068 183.672 146.564 184.584C146.1 183.64 145.18 183.128 144.044 183.128C143.02 183.128 142.148 183.568 141.612 184.272V183.36H140.556V192H141.74V186.424C141.74 185.072 142.54 184.184 143.74 184.184C144.932 184.184 145.732 185.032 145.732 186.408L145.724 192H146.884L146.892 186.424C146.892 184.816 147.924 184.184 148.908 184.184C150.044 184.184 150.876 184.992 150.876 186.328L150.868 192H152.044L152.052 186.104C152.052 184.28 150.924 183.128 149.18 183.128ZM160.775 184.848C160.319 183.728 159.167 183.12 157.591 183.12C155.687 183.12 154.471 184.016 154.071 185.56L155.215 185.896C155.543 184.744 156.391 184.232 157.575 184.232C159.215 184.232 159.863 184.984 159.879 186.544C158.727 186.704 157.111 186.888 155.943 187.168C154.655 187.512 153.743 188.264 153.743 189.68C153.743 191.056 154.735 192.24 156.695 192.24C158.167 192.24 159.311 191.664 159.983 190.568V192H161.031V186.632C161.031 185.992 160.983 185.352 160.775 184.848ZM156.831 191.224C155.439 191.224 154.919 190.432 154.919 189.68C154.919 188.744 155.679 188.328 156.415 188.112C157.367 187.848 158.727 187.712 159.863 187.576C159.863 187.968 159.847 188.528 159.751 188.952C159.527 190.256 158.479 191.224 156.831 191.224ZM167.914 184.368V183.36H165.266V180.96H164.098V183.36H162.25V184.368H164.098V188.872C164.098 189.72 164.058 190.336 164.37 190.968C164.938 192.12 166.45 192.304 167.914 192V190.968C166.674 191.168 165.826 191.096 165.442 190.376C165.234 190.008 165.266 189.552 165.266 188.824V184.368H167.914ZM170.456 181.872C170.92 181.872 171.28 181.52 171.28 181.064C171.28 180.6 170.92 180.248 170.456 180.248C169.992 180.248 169.64 180.6 169.64 181.064C169.64 181.52 169.992 181.872 170.456 181.872ZM171.048 192V183.36H169.872V192H171.048ZM177.15 192.24C179.71 192.24 181.246 190.392 181.246 187.672C181.246 185 179.742 183.12 177.15 183.12C174.622 183.12 173.062 184.952 173.062 187.672C173.062 190.352 174.574 192.24 177.15 192.24ZM177.15 191.112C175.278 191.112 174.31 189.752 174.31 187.672C174.31 185.656 175.214 184.248 177.15 184.248C179.054 184.248 179.998 185.592 179.998 187.672C179.998 189.712 179.07 191.112 177.15 191.112ZM187.067 183.144C185.827 183.144 184.803 183.624 184.163 184.56V183.36H183.099V192H184.283V187.392C184.283 185.44 185.179 184.264 186.843 184.264C188.651 184.264 189.347 185.688 189.347 187.592V192H190.531V187.248C190.531 185.304 189.659 183.144 187.067 183.144Z" fill="white"/>
<circle cx="44" cy="230" r="10" fill="white"/>
<path d="M40.25 230.625L43.25 232.5L47.75 227.5" stroke="#1BD47B" stroke-width="1.25" stroke-linecap="round" stroke-linejoin="round"/>
<path d="M69.12 236.24C71.528 236.24 73.328 235 73.328 232.856C73.328 230.672 71.464 230.104 70.528 229.84L68.272 229.176C67.376 228.92 66.224 228.528 66.224 227.36C66.224 226.216 67.368 225.36 68.912 225.368C70.52 225.384 71.8 226.336 72.032 227.832L73.264 227.608C72.888 225.536 71.224 224.256 68.92 224.248C66.648 224.24 64.984 225.464 64.984 227.408C64.984 228.952 66.032 229.752 67.44 230.168L70.36 231.04C71.16 231.28 72.128 231.72 72.128 232.904C72.128 234.264 70.872 235.112 69.168 235.112C67.448 235.112 66.12 234.216 65.736 232.72L64.536 232.92C64.928 234.968 66.712 236.24 69.12 236.24ZM79.0354 227.144C77.7954 227.144 76.7714 227.624 76.1314 228.56V224.48H75.0674V236H76.2514V231.392C76.2514 229.44 77.1474 228.264 78.8114 228.264C80.6194 228.264 81.3154 229.688 81.3154 231.592V236H82.4994V231.248C82.4994 229.304 81.6274 227.144 79.0354 227.144ZM91.2234 228.848C90.7674 227.728 89.6154 227.12 88.0394 227.12C86.1354 227.12 84.9194 228.016 84.5194 229.56L85.6634 229.896C85.9914 228.744 86.8394 228.232 88.0234 228.232C89.6634 228.232 90.3114 228.984 90.3274 230.544C89.1754 230.704 87.5594 230.888 86.3914 231.168C85.1034 231.512 84.1914 232.264 84.1914 233.68C84.1914 235.056 85.1834 236.24 87.1434 236.24C88.6154 236.24 89.7594 235.664 90.4314 234.568V236H91.4794V230.632C91.4794 229.992 91.4314 229.352 91.2234 228.848ZM87.2794 235.224C85.8874 235.224 85.3674 234.432 85.3674 233.68C85.3674 232.744 86.1274 232.328 86.8634 232.112C87.8154 231.848 89.1754 231.712 90.3114 231.576C90.3114 231.968 90.2954 232.528 90.1994 232.952C89.9754 234.256 88.9274 235.224 87.2794 235.224ZM95.386 227.928C95.138 228.12 94.898 228.4 94.714 228.728V227.36H93.658V236H94.834V231.688C94.834 230.656 94.978 229.536 95.842 228.856C96.466 228.344 97.266 228.312 97.906 228.464V227.36C97.146 227.168 96.066 227.336 95.386 227.928ZM106.947 232.008C107.035 228.96 105.531 227.12 102.971 227.12C100.475 227.12 98.8834 228.888 98.8834 231.72C98.8834 234.456 100.499 236.24 103.019 236.24C104.691 236.24 106.091 235.384 106.779 233.872L105.683 233.448C105.147 234.528 104.203 235.112 102.971 235.112C101.251 235.112 100.235 233.984 100.139 232.008H106.947ZM103.003 228.2C104.611 228.2 105.531 229.16 105.715 231.024H100.163C100.347 229.208 101.339 228.2 103.003 228.2ZM118.67 228.848C118.214 227.728 117.062 227.12 115.486 227.12C113.582 227.12 112.366 228.016 111.966 229.56L113.11 229.896C113.438 228.744 114.286 228.232 115.47 228.232C117.11 228.232 117.758 228.984 117.774 230.544C116.622 230.704 115.006 230.888 113.838 231.168C112.55 231.512 111.638 232.264 111.638 233.68C111.638 235.056 112.63 236.24 114.59 236.24C116.062 236.24 117.206 235.664 117.878 234.568V236H118.926V230.632C118.926 229.992 118.878 229.352 118.67 228.848ZM114.726 235.224C113.334 235.224 112.814 234.432 112.814 233.68C112.814 232.744 113.574 232.328 114.31 232.112C115.262 231.848 116.622 231.712 117.758 231.576C117.758 231.968 117.742 232.528 117.646 232.952C117.422 234.256 116.374 235.224 114.726 235.224ZM127.628 236.232C129.748 236.232 131.036 235.24 131.036 233.608C131.036 232.272 130.292 231.656 127.908 231.048C125.868 230.536 125.38 230.216 125.38 229.528C125.38 228.712 126.228 228.168 127.452 228.192C128.748 228.216 129.652 228.84 129.82 229.856L131.02 229.64C130.844 228.136 129.42 227.12 127.468 227.12C125.516 227.12 124.188 228.112 124.188 229.584C124.188 230.792 124.908 231.36 127.252 231.992C129.444 232.584 129.812 232.824 129.812 233.624C129.812 234.568 129.004 235.16 127.692 235.16C126.348 235.16 125.372 234.536 125.124 233.552L123.924 233.752C124.22 235.312 125.604 236.232 127.628 236.232ZM137.61 228.368V227.36H134.962V224.96H133.794V227.36H131.946V228.368H133.794V232.872C133.794 233.72 133.754 234.336 134.066 234.968C134.634 236.12 136.146 236.304 137.61 236V234.968C136.37 235.168 135.522 235.096 135.138 234.376C134.93 234.008 134.962 233.552 134.962 232.824V228.368H137.61ZM142.704 236.24C145.264 236.24 146.8 234.392 146.8 231.672C146.8 229 145.296 227.12 142.704 227.12C140.176 227.12 138.616 228.952 138.616 231.672C138.616 234.352 140.128 236.24 142.704 236.24ZM142.704 235.112C140.832 235.112 139.864 233.752 139.864 231.672C139.864 229.656 140.768 228.248 142.704 228.248C144.608 228.248 145.552 229.592 145.552 231.672C145.552 233.712 144.624 235.112 142.704 235.112ZM152.244 236.24C153.956 236.24 155.22 235.416 155.868 233.88L154.684 233.528C154.252 234.568 153.412 235.112 152.244 235.112C150.388 235.112 149.452 233.752 149.428 231.68C149.452 229.664 150.332 228.248 152.244 228.248C153.372 228.248 154.308 228.848 154.716 229.88L155.868 229.512C155.388 228.032 153.996 227.12 152.252 227.12C149.668 227.12 148.212 228.96 148.18 231.68C148.212 234.344 149.628 236.24 152.244 236.24ZM164.392 236L160.368 231.024L164.184 227.36H162.72L158.744 231.12V224.48H157.616L157.608 236H158.744V232.584L159.568 231.792L162.992 236H164.392Z" fill="white"/>
<circle cx="546" cy="186" r="10" fill="white"/>
<path d="M542.25 186.625L545.25 188.5L549.75 183.5" stroke="#1BD47B" stroke-width="1.25" stroke-linecap="round" stroke-linejoin="round"/>
<path d="M572.784 192.24C575.456 192.24 577.176 190.76 577.808 188.456L576.608 188.144C576.12 189.96 574.848 191.112 572.784 191.112C570.08 191.112 568.704 189.12 568.72 186.24C568.744 183.36 570.08 181.368 572.784 181.368C574.848 181.368 576.12 182.52 576.608 184.336L577.808 184.024C577.176 181.72 575.456 180.24 572.784 180.24C569.344 180.24 567.48 182.696 567.48 186.24C567.48 189.784 569.344 192.24 572.784 192.24ZM583.277 192.24C585.837 192.24 587.373 190.392 587.373 187.672C587.373 185 585.869 183.12 583.277 183.12C580.749 183.12 579.189 184.952 579.189 187.672C579.189 190.352 580.701 192.24 583.277 192.24ZM583.277 191.112C581.405 191.112 580.437 189.752 580.437 187.672C580.437 185.656 581.341 184.248 583.277 184.248C585.181 184.248 586.125 185.592 586.125 187.672C586.125 189.712 585.197 191.112 583.277 191.112ZM597.85 183.128C596.698 183.128 595.738 183.672 595.234 184.584C594.77 183.64 593.85 183.128 592.714 183.128C591.69 183.128 590.818 183.568 590.282 184.272V183.36H589.226V192H590.41V186.424C590.41 185.072 591.21 184.184 592.41 184.184C593.602 184.184 594.402 185.032 594.402 186.408L594.394 192H595.554L595.562 186.424C595.562 184.816 596.594 184.184 597.578 184.184C598.714 184.184 599.546 184.992 599.546 186.328L599.538 192H600.714L600.722 186.104C600.722 184.28 599.594 183.128 597.85 183.128ZM606.82 183.12C605.54 183.12 604.572 183.656 603.94 184.552V183.36H602.884V195.84H604.068V190.968C604.692 191.76 605.604 192.24 606.772 192.24C609.196 192.24 610.604 190.264 610.604 187.672C610.604 185.096 609.188 183.12 606.82 183.12ZM606.652 191.144C604.812 191.144 603.94 189.672 603.94 187.672C603.94 185.64 604.828 184.216 606.628 184.216C608.484 184.216 609.356 185.72 609.356 187.672C609.356 189.64 608.452 191.144 606.652 191.144ZM619.009 184.848C618.553 183.728 617.401 183.12 615.825 183.12C613.921 183.12 612.705 184.016 612.305 185.56L613.449 185.896C613.777 184.744 614.625 184.232 615.809 184.232C617.449 184.232 618.097 184.984 618.113 186.544C616.961 186.704 615.345 186.888 614.177 187.168C612.889 187.512 611.977 188.264 611.977 189.68C611.977 191.056 612.969 192.24 614.929 192.24C616.401 192.24 617.545 191.664 618.217 190.568V192H619.265V186.632C619.265 185.992 619.217 185.352 619.009 184.848ZM615.065 191.224C613.673 191.224 613.153 190.432 613.153 189.68C613.153 188.744 613.913 188.328 614.649 188.112C615.601 187.848 616.961 187.712 618.097 187.576C618.097 187.968 618.081 188.528 617.985 188.952C617.761 190.256 616.713 191.224 615.065 191.224ZM625.404 183.144C624.164 183.144 623.14 183.624 622.5 184.56V183.36H621.436V192H622.62V187.392C622.62 185.44 623.516 184.264 625.18 184.264C626.988 184.264 627.684 185.688 627.684 187.592V192H628.868V187.248C628.868 185.304 627.996 183.144 625.404 183.144ZM631.119 183.36H629.871L633.383 191.984L631.959 195.84H633.135L637.775 183.36H636.575L633.951 190.464L631.119 183.36ZM643.736 192V186.824H648.216V185.656H643.736V181.656H649.176V180.48H642.56V192H643.736ZM656.806 187.968C656.806 189.92 655.91 191.096 654.246 191.096C652.438 191.096 651.742 189.672 651.742 187.768V183.36H650.558V188.112C650.558 190.056 651.43 192.216 654.022 192.216C655.262 192.216 656.286 191.736 656.926 190.8V192H657.982V183.36H656.806V187.968ZM664.274 183.144C663.034 183.144 662.01 183.624 661.37 184.56V183.36H660.306V192H661.49V187.392C661.49 185.44 662.386 184.264 664.05 184.264C665.858 184.264 666.554 185.688 666.554 187.592V192H667.738V187.248C667.738 185.304 666.866 183.144 664.274 183.144ZM675.904 184.376C675.272 183.592 674.352 183.12 673.152 183.12C670.784 183.12 669.368 185.096 669.368 187.672C669.368 190.264 670.776 192.24 673.2 192.24C674.456 192.24 675.408 191.688 676.032 190.792V192H677.088V180.48H675.904V184.376ZM673.32 191.144C671.52 191.144 670.616 189.64 670.616 187.672C670.616 185.72 671.488 184.216 673.344 184.216C675.144 184.216 676.032 185.64 676.032 187.672C676.032 189.672 675.16 191.144 673.32 191.144ZM685.98 184.848C685.524 183.728 684.372 183.12 682.796 183.12C680.892 183.12 679.676 184.016 679.276 185.56L680.42 185.896C680.748 184.744 681.596 184.232 682.78 184.232C684.42 184.232 685.068 184.984 685.084 186.544C683.932 186.704 682.316 186.888 681.148 187.168C679.86 187.512 678.948 188.264 678.948 189.68C678.948 191.056 679.94 192.24 681.9 192.24C683.372 192.24 684.516 191.664 685.188 190.568V192H686.236V186.632C686.236 185.992 686.188 185.352 685.98 184.848ZM682.036 191.224C680.644 191.224 680.124 190.432 680.124 189.68C680.124 188.744 680.884 188.328 681.62 188.112C682.572 187.848 683.932 187.712 685.068 187.576C685.068 187.968 685.052 188.528 684.956 188.952C684.732 190.256 683.684 191.224 682.036 191.224ZM697.031 183.128C695.879 183.128 694.919 183.672 694.415 184.584C693.951 183.64 693.031 183.128 691.895 183.128C690.871 183.128 689.999 183.568 689.463 184.272V183.36H688.407V192H689.591V186.424C689.591 185.072 690.391 184.184 691.591 184.184C692.783 184.184 693.583 185.032 693.583 186.408L693.575 192H694.735L694.743 186.424C694.743 184.816 695.775 184.184 696.759 184.184C697.895 184.184 698.727 184.992 698.727 186.328L698.719 192H699.895L699.903 186.104C699.903 184.28 698.775 183.128 697.031 183.128ZM709.595 188.008C709.683 184.96 708.179 183.12 705.619 183.12C703.123 183.12 701.531 184.888 701.531 187.72C701.531 190.456 703.147 192.24 705.667 192.24C707.339 192.24 708.739 191.384 709.427 189.872L708.331 189.448C707.795 190.528 706.851 191.112 705.619 191.112C703.899 191.112 702.883 189.984 702.787 188.008H709.595ZM705.651 184.2C707.259 184.2 708.179 185.16 708.363 187.024H702.811C702.995 185.208 703.987 184.2 705.651 184.2ZM715.192 183.144C713.952 183.144 712.928 183.624 712.288 184.56V183.36H711.224V192H712.408V187.392C712.408 185.44 713.304 184.264 714.968 184.264C716.776 184.264 717.472 185.688 717.472 187.592V192H718.656V187.248C718.656 185.304 717.784 183.144 715.192 183.144ZM725.532 184.368V183.36H722.884V180.96H721.716V183.36H719.868V184.368H721.716V188.872C721.716 189.72 721.676 190.336 721.988 190.968C722.556 192.12 724.068 192.304 725.532 192V190.968C724.292 191.168 723.444 191.096 723.06 190.376C722.852 190.008 722.884 189.552 722.884 188.824V184.368H725.532ZM733.882 184.848C733.426 183.728 732.274 183.12 730.698 183.12C728.794 183.12 727.578 184.016 727.178 185.56L728.322 185.896C728.65 184.744 729.498 184.232 730.682 184.232C732.322 184.232 732.97 184.984 732.986 186.544C731.834 186.704 730.218 186.888 729.05 187.168C727.762 187.512 726.85 188.264 726.85 189.68C726.85 191.056 727.842 192.24 729.802 192.24C731.274 192.24 732.418 191.664 733.09 190.568V192H734.138V186.632C734.138 185.992 734.09 185.352 733.882 184.848ZM729.938 191.224C728.546 191.224 728.026 190.432 728.026 189.68C728.026 188.744 728.786 188.328 729.522 188.112C730.474 187.848 731.834 187.712 732.97 187.576C732.97 187.968 732.954 188.528 732.858 188.952C732.634 190.256 731.586 191.224 729.938 191.224ZM737.653 192V180.24H736.477V192H737.653ZM743.371 192.232C745.491 192.232 746.779 191.24 746.779 189.608C746.779 188.272 746.035 187.656 743.651 187.048C741.611 186.536 741.123 186.216 741.123 185.528C741.123 184.712 741.971 184.168 743.195 184.192C744.491 184.216 745.395 184.84 745.563 185.856L746.763 185.64C746.587 184.136 745.163 183.12 743.211 183.12C741.259 183.12 739.931 184.112 739.931 185.584C739.931 186.792 740.651 187.36 742.995 187.992C745.187 188.584 745.555 188.824 745.555 189.624C745.555 190.568 744.747 191.16 743.435 191.16C742.091 191.16 741.115 190.536 740.867 189.552L739.667 189.752C739.963 191.312 741.347 192.232 743.371 192.232Z" fill="white"/>
<circle cx="546" cy="230" r="10" fill="white"/>
<path d="M542.25 230.625L545.25 232.5L549.75 227.5" stroke="#1BD47B" stroke-width="1.25" stroke-linecap="round" stroke-linejoin="round"/>
<path d="M566.32 236H567.544L568.512 233.208H573.624L574.592 236H575.816L571.848 224.48H570.288L566.32 236ZM571.056 225.8L573.24 232.104H568.888L571.056 225.8ZM580.941 236.24C582.653 236.24 583.917 235.416 584.565 233.88L583.381 233.528C582.949 234.568 582.109 235.112 580.941 235.112C579.085 235.112 578.149 233.752 578.125 231.68C578.149 229.664 579.029 228.248 580.941 228.248C582.069 228.248 583.005 228.848 583.413 229.88L584.565 229.512C584.085 228.032 582.693 227.12 580.949 227.12C578.365 227.12 576.909 228.96 576.877 231.68C576.909 234.344 578.325 236.24 580.941 236.24ZM589.662 236.24C591.374 236.24 592.638 235.416 593.286 233.88L592.102 233.528C591.67 234.568 590.83 235.112 589.662 235.112C587.806 235.112 586.87 233.752 586.846 231.68C586.87 229.664 587.75 228.248 589.662 228.248C590.79 228.248 591.726 228.848 592.134 229.88L593.286 229.512C592.806 228.032 591.414 227.12 589.67 227.12C587.086 227.12 585.63 228.96 585.598 231.68C585.63 234.344 587.046 236.24 589.662 236.24ZM602.383 232.008C602.471 228.96 600.967 227.12 598.407 227.12C595.911 227.12 594.319 228.888 594.319 231.72C594.319 234.456 595.935 236.24 598.455 236.24C600.127 236.24 601.527 235.384 602.215 233.872L601.119 233.448C600.583 234.528 599.639 235.112 598.407 235.112C596.687 235.112 595.671 233.984 595.575 232.008H602.383ZM598.439 228.2C600.047 228.2 600.967 229.16 601.151 231.024H595.599C595.783 229.208 596.775 228.2 598.439 228.2ZM607.478 236.232C609.598 236.232 610.886 235.24 610.886 233.608C610.886 232.272 610.142 231.656 607.758 231.048C605.718 230.536 605.23 230.216 605.23 229.528C605.23 228.712 606.078 228.168 607.302 228.192C608.598 228.216 609.502 228.84 609.67 229.856L610.87 229.64C610.694 228.136 609.27 227.12 607.318 227.12C605.366 227.12 604.038 228.112 604.038 229.584C604.038 230.792 604.758 231.36 607.102 231.992C609.294 232.584 609.662 232.824 609.662 233.624C609.662 234.568 608.854 235.16 607.542 235.16C606.198 235.16 605.222 234.536 604.974 233.552L603.774 233.752C604.07 235.312 605.454 236.232 607.478 236.232ZM615.98 236.232C618.1 236.232 619.388 235.24 619.388 233.608C619.388 232.272 618.644 231.656 616.26 231.048C614.22 230.536 613.732 230.216 613.732 229.528C613.732 228.712 614.58 228.168 615.804 228.192C617.1 228.216 618.004 228.84 618.172 229.856L619.372 229.64C619.196 228.136 617.772 227.12 615.82 227.12C613.868 227.12 612.54 228.112 612.54 229.584C612.54 230.792 613.26 231.36 615.604 231.992C617.796 232.584 618.164 232.824 618.164 233.624C618.164 234.568 617.356 235.16 616.044 235.16C614.7 235.16 613.724 234.536 613.476 233.552L612.276 233.752C612.572 235.312 613.956 236.232 615.98 236.232ZM629.262 228.368V227.36H626.614V224.96H625.446V227.36H623.598V228.368H625.446V232.872C625.446 233.72 625.406 234.336 625.718 234.968C626.286 236.12 627.798 236.304 629.262 236V234.968C628.022 235.168 627.174 235.096 626.79 234.376C626.582 234.008 626.614 233.552 626.614 232.824V228.368H629.262ZM634.355 236.24C636.915 236.24 638.451 234.392 638.451 231.672C638.451 229 636.947 227.12 634.355 227.12C631.827 227.12 630.267 228.952 630.267 231.672C630.267 234.352 631.779 236.24 634.355 236.24ZM634.355 235.112C632.483 235.112 631.515 233.752 631.515 231.672C631.515 229.656 632.419 228.248 634.355 228.248C636.259 228.248 637.203 229.592 637.203 231.672C637.203 233.712 636.275 235.112 634.355 235.112ZM647.219 236.24C649.779 236.24 651.315 234.392 651.315 231.672C651.315 229 649.811 227.12 647.219 227.12C644.691 227.12 643.131 228.952 643.131 231.672C643.131 234.352 644.643 236.24 647.219 236.24ZM647.219 235.112C645.347 235.112 644.379 233.752 644.379 231.672C644.379 229.656 645.283 228.248 647.219 228.248C649.123 228.248 650.067 229.592 650.067 231.672C650.067 233.712 649.139 235.112 647.219 235.112ZM657.136 227.144C655.896 227.144 654.872 227.624 654.232 228.56V227.36H653.168V236H654.352V231.392C654.352 229.44 655.248 228.264 656.912 228.264C658.72 228.264 659.416 229.688 659.416 231.592V236H660.6V231.248C660.6 229.304 659.728 227.144 657.136 227.144ZM664.108 236V224.24H662.932V236H664.108ZM666.994 227.36H665.746L669.258 235.984L667.834 239.84H669.01L673.65 227.36H672.45L669.826 234.464L666.994 227.36ZM681.635 236V224.48H680.443L678.275 225.776V227.096L680.443 225.792V236H681.635ZM690.333 231.168C691.453 230.168 691.965 229.368 691.965 227.92C691.965 225.864 690.373 224.24 688.277 224.24C686.141 224.24 684.517 225.8 684.517 227.904H685.717C685.701 226.552 686.789 225.368 688.261 225.368C689.677 225.368 690.773 226.488 690.773 227.912C690.773 228.712 690.549 229.416 689.661 230.216L684.453 234.92L684.445 235.992H691.965V234.864H686.237L690.333 231.168ZM700.509 236.232C702.629 236.232 703.917 235.24 703.917 233.608C703.917 232.272 703.173 231.656 700.789 231.048C698.749 230.536 698.261 230.216 698.261 229.528C698.261 228.712 699.109 228.168 700.333 228.192C701.629 228.216 702.533 228.84 702.701 229.856L703.901 229.64C703.725 228.136 702.301 227.12 700.349 227.12C698.397 227.12 697.069 228.112 697.069 229.584C697.069 230.792 697.789 231.36 700.133 231.992C702.325 232.584 702.693 232.824 702.693 233.624C702.693 234.568 701.885 235.16 700.573 235.16C699.229 235.16 698.253 234.536 698.005 233.552L696.805 233.752C697.101 235.312 698.485 236.232 700.509 236.232ZM710.492 228.368V227.36H707.844V224.96H706.676V227.36H704.828V228.368H706.676V232.872C706.676 233.72 706.636 234.336 706.948 234.968C707.516 236.12 709.028 236.304 710.492 236V234.968C709.252 235.168 708.404 235.096 708.02 234.376C707.812 234.008 707.844 233.552 707.844 232.824V228.368H710.492ZM715.585 236.24C718.145 236.24 719.681 234.392 719.681 231.672C719.681 229 718.177 227.12 715.585 227.12C713.057 227.12 711.497 228.952 711.497 231.672C711.497 234.352 713.009 236.24 715.585 236.24ZM715.585 235.112C713.713 235.112 712.745 233.752 712.745 231.672C712.745 229.656 713.649 228.248 715.585 228.248C717.489 228.248 718.433 229.592 718.433 231.672C718.433 233.712 717.505 235.112 715.585 235.112ZM725.126 236.24C726.838 236.24 728.102 235.416 728.75 233.88L727.566 233.528C727.134 234.568 726.294 235.112 725.126 235.112C723.27 235.112 722.334 233.752 722.31 231.68C722.334 229.664 723.214 228.248 725.126 228.248C726.254 228.248 727.19 228.848 727.598 229.88L728.75 229.512C728.27 228.032 726.878 227.12 725.134 227.12C722.55 227.12 721.094 228.96 721.062 231.68C721.094 234.344 722.51 236.24 725.126 236.24ZM737.274 236L733.25 231.024L737.066 227.36H735.602L731.626 231.12V224.48H730.498L730.49 236H731.626V232.584L732.45 231.792L735.874 236H737.274ZM743.558 227.928C743.31 228.12 743.07 228.4 742.886 228.728V227.36H741.83V236H743.006V231.688C743.006 230.656 743.15 229.536 744.014 228.856C744.638 228.344 745.438 228.312 746.078 228.464V227.36C745.318 227.168 744.238 227.336 743.558 227.928ZM755.12 232.008C755.208 228.96 753.704 227.12 751.144 227.12C748.648 227.12 747.056 228.888 747.056 231.72C747.056 234.456 748.672 236.24 751.192 236.24C752.864 236.24 754.264 235.384 754.952 233.872L753.856 233.448C753.32 234.528 752.376 235.112 751.144 235.112C749.424 235.112 748.408 233.984 748.312 232.008H755.12ZM751.176 228.2C752.784 228.2 753.704 229.16 753.888 231.024H748.336C748.52 229.208 749.512 228.2 751.176 228.2ZM760.575 236.24C762.287 236.24 763.551 235.416 764.199 233.88L763.015 233.528C762.583 234.568 761.743 235.112 760.575 235.112C758.719 235.112 757.783 233.752 757.759 231.68C757.783 229.664 758.663 228.248 760.575 228.248C761.703 228.248 762.639 228.848 763.047 229.88L764.199 229.512C763.719 228.032 762.327 227.12 760.583 227.12C757.999 227.12 756.543 228.96 756.511 231.68C756.543 234.344 757.959 236.24 760.575 236.24ZM769.32 236.24C771.88 236.24 773.416 234.392 773.416 231.672C773.416 229 771.912 227.12 769.32 227.12C766.792 227.12 765.232 228.952 765.232 231.672C765.232 234.352 766.744 236.24 769.32 236.24ZM769.32 235.112C767.448 235.112 766.48 233.752 766.48 231.672C766.48 229.656 767.384 228.248 769.32 228.248C771.224 228.248 772.168 229.592 772.168 231.672C772.168 233.712 771.24 235.112 769.32 235.112ZM783.893 227.128C782.741 227.128 781.781 227.672 781.277 228.584C780.813 227.64 779.893 227.128 778.757 227.128C777.733 227.128 776.861 227.568 776.325 228.272V227.36H775.269V236H776.453V230.424C776.453 229.072 777.253 228.184 778.453 228.184C779.645 228.184 780.445 229.032 780.445 230.408L780.437 236H781.597L781.605 230.424C781.605 228.816 782.637 228.184 783.621 228.184C784.757 228.184 785.589 228.992 785.589 230.328L785.581 236H786.757L786.765 230.104C786.765 228.28 785.637 227.128 783.893 227.128ZM797.551 227.128C796.399 227.128 795.439 227.672 794.935 228.584C794.471 227.64 793.551 227.128 792.415 227.128C791.391 227.128 790.519 227.568 789.983 228.272V227.36H788.927V236H790.111V230.424C790.111 229.072 790.911 228.184 792.111 228.184C793.303 228.184 794.103 229.032 794.103 230.408L794.095 236H795.255L795.263 230.424C795.263 228.816 796.295 228.184 797.279 228.184C798.415 228.184 799.247 228.992 799.247 230.328L799.239 236H800.415L800.423 230.104C800.423 228.28 799.295 227.128 797.551 227.128ZM810.115 232.008C810.203 228.96 808.699 227.12 806.139 227.12C803.643 227.12 802.051 228.888 802.051 231.72C802.051 234.456 803.667 236.24 806.187 236.24C807.859 236.24 809.259 235.384 809.947 233.872L808.851 233.448C808.315 234.528 807.371 235.112 806.139 235.112C804.419 235.112 803.403 233.984 803.307 232.008H810.115ZM806.171 228.2C807.779 228.2 808.699 229.16 808.883 231.024H803.331C803.515 229.208 804.507 228.2 806.171 228.2ZM815.712 227.144C814.472 227.144 813.448 227.624 812.808 228.56V227.36H811.744V236H812.928V231.392C812.928 229.44 813.824 228.264 815.488 228.264C817.296 228.264 817.992 229.688 817.992 231.592V236H819.176V231.248C819.176 229.304 818.304 227.144 815.712 227.144ZM827.342 228.376C826.71 227.592 825.79 227.12 824.59 227.12C822.222 227.12 820.806 229.096 820.806 231.672C820.806 234.264 822.214 236.24 824.638 236.24C825.894 236.24 826.846 235.688 827.47 234.792V236H828.526V224.48H827.342V228.376ZM824.758 235.144C822.958 235.144 822.054 233.64 822.054 231.672C822.054 229.72 822.926 228.216 824.782 228.216C826.582 228.216 827.47 229.64 827.47 231.672C827.47 233.672 826.598 235.144 824.758 235.144ZM837.418 228.848C836.962 227.728 835.81 227.12 834.234 227.12C832.33 227.12 831.114 228.016 830.714 229.56L831.858 229.896C832.186 228.744 833.034 228.232 834.218 228.232C835.858 228.232 836.506 228.984 836.522 230.544C835.37 230.704 833.754 230.888 832.586 231.168C831.298 231.512 830.386 232.264 830.386 233.68C830.386 235.056 831.378 236.24 833.338 236.24C834.81 236.24 835.954 235.664 836.626 234.568V236H837.674V230.632C837.674 229.992 837.626 229.352 837.418 228.848ZM833.474 235.224C832.082 235.224 831.562 234.432 831.562 233.68C831.562 232.744 832.322 232.328 833.058 232.112C834.01 231.848 835.37 231.712 836.506 231.576C836.506 231.968 836.49 232.528 836.394 232.952C836.17 234.256 835.122 235.224 833.474 235.224ZM844.557 228.368V227.36H841.909V224.96H840.741V227.36H838.893V228.368H840.741V232.872C840.741 233.72 840.701 234.336 841.013 234.968C841.581 236.12 843.093 236.304 844.557 236V234.968C843.317 235.168 842.469 235.096 842.085 234.376C841.877 234.008 841.909 233.552 841.909 232.824V228.368H844.557ZM847.099 225.872C847.563 225.872 847.923 225.52 847.923 225.064C847.923 224.6 847.563 224.248 847.099 224.248C846.635 224.248 846.283 224.6 846.283 225.064C846.283 225.52 846.635 225.872 847.099 225.872ZM847.691 236V227.36H846.515V236H847.691ZM853.793 236.24C856.353 236.24 857.889 234.392 857.889 231.672C857.889 229 856.385 227.12 853.793 227.12C851.265 227.12 849.705 228.952 849.705 231.672C849.705 234.352 851.217 236.24 853.793 236.24ZM853.793 235.112C851.921 235.112 850.953 233.752 850.953 231.672C850.953 229.656 851.857 228.248 853.793 228.248C855.697 228.248 856.641 229.592 856.641 231.672C856.641 233.712 855.713 235.112 853.793 235.112ZM863.71 227.144C862.47 227.144 861.446 227.624 860.806 228.56V227.36H859.742V236H860.926V231.392C860.926 229.44 861.822 228.264 863.486 228.264C865.294 228.264 865.99 229.688 865.99 231.592V236H867.174V231.248C867.174 229.304 866.302 227.144 863.71 227.144Z" fill="white"/>
</svg>
