<svg width="1028" height="338" viewBox="0 0 1028 338" fill="none" xmlns="http://www.w3.org/2000/svg">
<rect width="1028" height="338" rx="8" fill="#1BD47B"/>
<path d="M42.56 48.72C44.64 47.52 45.94 45.24 45.94 42.62C45.94 38.54 42.74 35.2 37.92 35.2H26.8V64H38.84C43.92 64 47.34 60.92 47.34 55.92C47.34 52.58 45.56 50.02 42.56 48.72ZM37.9 37.98C40.8 37.98 42.9 39.86 42.9 42.58C42.9 45.46 40.66 47.48 37.9 47.48H29.76V37.98H37.9ZM29.76 61.18V50.26H38.66C41.9 50.26 44.3 52.78 44.3 55.96C44.3 59.24 41.62 61.18 38.12 61.18H29.76ZM67.7113 46.12C66.5713 43.32 63.6913 41.8 59.7513 41.8C54.9913 41.8 51.9513 44.04 50.9513 47.9L53.8112 48.74C54.6313 45.86 56.7513 44.58 59.7113 44.58C63.8113 44.58 65.4313 46.46 65.4713 50.36C62.5913 50.76 58.5513 51.22 55.6313 51.92C52.4113 52.78 50.1313 54.66 50.1313 58.2C50.1313 61.64 52.6113 64.6 57.5113 64.6C61.1913 64.6 64.0513 63.16 65.7313 60.42V64H68.3513V50.58C68.3513 48.98 68.2313 47.38 67.7113 46.12ZM57.8513 62.06C54.3713 62.06 53.0713 60.08 53.0713 58.2C53.0713 55.86 54.9713 54.82 56.8113 54.28C59.1913 53.62 62.5913 53.28 65.4313 52.94C65.4313 53.92 65.3913 55.32 65.1513 56.38C64.5913 59.64 61.9713 62.06 57.8513 62.06ZM81.6178 64.58C86.9178 64.58 90.1378 62.1 90.1378 58.02C90.1378 54.68 88.2778 53.14 82.3178 51.62C77.2178 50.34 75.9978 49.54 75.9978 47.82C75.9978 45.78 78.1178 44.42 81.1778 44.48C84.4178 44.54 86.6778 46.1 87.0978 48.64L90.0978 48.1C89.6578 44.34 86.0978 41.8 81.2178 41.8C76.3378 41.8 73.0178 44.28 73.0178 47.96C73.0178 50.98 74.8178 52.4 80.6778 53.98C86.1578 55.46 87.0778 56.06 87.0778 58.06C87.0778 60.42 85.0578 61.9 81.7778 61.9C78.4178 61.9 75.9778 60.34 75.3578 57.88L72.3578 58.38C73.0978 62.28 76.5578 64.58 81.6178 64.58ZM96.4334 38.68C97.5934 38.68 98.4934 37.8 98.4934 36.66C98.4934 35.5 97.5934 34.62 96.4334 34.62C95.2734 34.62 94.3934 35.5 94.3934 36.66C94.3934 37.8 95.2734 38.68 96.4334 38.68ZM97.9134 64V42.4H94.9734V64H97.9134ZM112.869 64.6C117.149 64.6 120.309 62.54 121.929 58.7L118.969 57.82C117.889 60.42 115.789 61.78 112.869 61.78C108.229 61.78 105.889 58.38 105.829 53.2C105.889 48.16 108.089 44.62 112.869 44.62C115.689 44.62 118.029 46.12 119.049 48.7L121.929 47.78C120.729 44.08 117.249 41.8 112.889 41.8C106.429 41.8 102.789 46.4 102.709 53.2C102.789 59.86 106.329 64.6 112.869 64.6Z" fill="white"/>
<path d="M26.792 112V107.08H30.984V105.4H26.792V102.152H31.944V100.48H25.12V112H26.792ZM37.4033 112.24C39.9793 112.24 41.6433 110.376 41.6433 107.672C41.6433 105 39.9953 103.12 37.4033 103.12C34.8593 103.12 33.1713 104.968 33.1713 107.672C33.1713 110.352 34.8113 112.24 37.4033 112.24ZM37.4033 110.664C35.7873 110.664 34.9473 109.496 34.9473 107.672C34.9473 105.912 35.7233 104.696 37.4033 104.696C39.0353 104.696 39.8673 105.864 39.8673 107.672C39.8673 109.44 39.0513 110.664 37.4033 110.664ZM46.1893 103.848C45.8613 104.064 45.5893 104.376 45.3893 104.736V103.36H43.9013V112H45.5893V107.64C45.5893 106.624 45.8613 105.712 46.6773 105.192C47.2533 104.824 48.0053 104.776 48.5653 104.928V103.36C47.7893 103.216 46.8373 103.368 46.1893 103.848ZM58.3159 103.12C57.3479 103.12 56.5639 103.424 55.9639 103.952V100.48H54.2839V112H55.7719V111.208C56.3959 111.856 57.2599 112.24 58.3479 112.24C60.7559 112.24 62.2599 110.264 62.2599 107.672C62.2599 105.064 60.7479 103.12 58.3159 103.12ZM58.1159 110.728C56.4679 110.728 55.7719 109.464 55.7719 107.672C55.7719 105.88 56.4839 104.632 58.0599 104.632C59.7239 104.632 60.4839 105.976 60.4839 107.672C60.4839 109.384 59.7239 110.728 58.1159 110.728ZM71.2543 104.768C70.7183 103.632 69.5183 103.12 67.9743 103.12C65.9743 103.12 64.7743 104.064 64.3583 105.544L65.9183 106.024C66.2143 105.064 67.0463 104.664 67.9583 104.664C69.3103 104.664 69.8543 105.224 69.9103 106.416C68.5103 106.608 67.0863 106.792 66.0863 107.088C64.7503 107.512 64.0463 108.344 64.0463 109.648C64.0463 111.056 65.0543 112.24 66.9663 112.24C68.3663 112.24 69.3663 111.76 70.0783 110.744V112H71.5583V106.68C71.5583 105.96 71.5263 105.336 71.2543 104.768ZM67.2623 110.872C66.1903 110.872 65.7023 110.304 65.7023 109.632C65.7023 108.952 66.2063 108.584 66.8943 108.352C67.6223 108.136 68.5903 108 69.8943 107.808C69.8863 108.208 69.8543 108.76 69.7183 109.16C69.5263 110 68.6863 110.872 67.2623 110.872ZM77.4396 112.232C79.6236 112.232 80.9436 111.208 80.9436 109.496C80.9436 108.16 80.1996 107.496 78.0236 106.936C75.9996 106.424 75.6076 106.2 75.6076 105.624C75.6076 104.968 76.2956 104.552 77.3116 104.592C78.3676 104.632 79.0636 105.144 79.1836 105.968L80.8956 105.656C80.7036 104.12 79.2796 103.12 77.2956 103.12C75.2636 103.12 73.9356 104.144 73.9356 105.712C73.9356 106.984 74.6716 107.6 76.9036 108.184C78.9356 108.728 79.2236 108.904 79.2236 109.56C79.2236 110.312 78.5916 110.76 77.5516 110.76C76.3996 110.76 75.5836 110.216 75.3676 109.312L73.6556 109.576C73.9516 111.264 75.3356 112.232 77.4396 112.232ZM84.2138 102.176C84.8138 102.176 85.2538 101.712 85.2538 101.136C85.2538 100.552 84.8138 100.096 84.2138 100.096C83.6138 100.096 83.1658 100.552 83.1658 101.136C83.1658 101.712 83.6138 102.176 84.2138 102.176ZM85.0458 112V103.36H83.3738V112H85.0458ZM91.6441 112.24C93.5001 112.24 94.8441 111.32 95.4121 109.624L93.7161 109.224C93.3641 110.152 92.7161 110.664 91.6441 110.664C90.0601 110.664 89.2521 109.464 89.2441 107.68C89.2521 105.952 90.0041 104.696 91.6441 104.696C92.6121 104.696 93.4201 105.264 93.7481 106.232L95.4121 105.752C94.9801 104.128 93.5561 103.12 91.6681 103.12C89.0521 103.12 87.4841 105.008 87.4681 107.68C87.4841 110.312 88.9961 112.24 91.6441 112.24ZM107.157 107.856C107.157 109.904 106.165 110.648 104.965 110.648C103.125 110.648 102.781 108.952 102.781 107.608V103.36H101.085V108.16C101.085 109.496 101.525 112.232 104.501 112.232C105.749 112.232 106.725 111.768 107.357 110.968V112H108.845V103.36H107.157V107.856ZM114.893 112.232C117.077 112.232 118.397 111.208 118.397 109.496C118.397 108.16 117.653 107.496 115.477 106.936C113.453 106.424 113.061 106.2 113.061 105.624C113.061 104.968 113.749 104.552 114.765 104.592C115.821 104.632 116.517 105.144 116.637 105.968L118.349 105.656C118.157 104.12 116.733 103.12 114.749 103.12C112.717 103.12 111.389 104.144 111.389 105.712C111.389 106.984 112.125 107.6 114.357 108.184C116.389 108.728 116.677 108.904 116.677 109.56C116.677 110.312 116.045 110.76 115.005 110.76C113.853 110.76 113.037 110.216 112.821 109.312L111.109 109.576C111.405 111.264 112.789 112.232 114.893 112.232ZM128.419 108.152C128.595 105.056 127.059 103.12 124.419 103.12C121.891 103.12 120.187 104.92 120.187 107.752C120.187 110.424 121.915 112.24 124.499 112.24C126.171 112.24 127.635 111.352 128.307 109.808L126.667 109.288C126.243 110.176 125.459 110.664 124.419 110.664C122.963 110.664 122.115 109.76 121.979 108.152H128.419ZM124.483 104.6C125.811 104.6 126.531 105.32 126.707 106.848H122.019C122.235 105.384 123.059 104.6 124.483 104.6ZM133.002 103.848C132.674 104.064 132.402 104.376 132.202 104.736V103.36H130.714V112H132.402V107.64C132.402 106.624 132.674 105.712 133.49 105.192C134.066 104.824 134.818 104.776 135.378 104.928V103.36C134.602 103.216 133.65 103.368 133.002 103.848ZM140.393 112.232C142.577 112.232 143.897 111.208 143.897 109.496C143.897 108.16 143.153 107.496 140.977 106.936C138.953 106.424 138.561 106.2 138.561 105.624C138.561 104.968 139.249 104.552 140.265 104.592C141.321 104.632 142.017 105.144 142.137 105.968L143.849 105.656C143.657 104.12 142.233 103.12 140.249 103.12C138.217 103.12 136.889 104.144 136.889 105.712C136.889 106.984 137.625 107.6 139.857 108.184C141.889 108.728 142.177 108.904 142.177 109.56C142.177 110.312 141.545 110.76 140.505 110.76C139.353 110.76 138.537 110.216 138.321 109.312L136.609 109.576C136.905 111.264 138.289 112.232 140.393 112.232Z" fill="white"/>
<path d="M1004 141H24V143H1004V141Z" fill="white" mask="url(#path-2-inside-1_3930_48491)"/>
<circle cx="44" cy="186" r="10" fill="white"/>
<path d="M40.25 186.625L43.25 188.5L47.75 183.5" stroke="#1BD47B" stroke-width="1.25" stroke-linecap="round" stroke-linejoin="round"/>
<path d="M69.32 192V180.48H68.128L65.96 181.776V183.096L68.128 181.792V192H69.32ZM78.0184 187.168C79.1384 186.168 79.6504 185.368 79.6504 183.92C79.6504 181.864 78.0584 180.24 75.9624 180.24C73.8264 180.24 72.2024 181.8 72.2024 183.904H73.4024C73.3864 182.552 74.4744 181.368 75.9464 181.368C77.3624 181.368 78.4584 182.488 78.4584 183.912C78.4584 184.712 78.2344 185.416 77.3464 186.216L72.1384 190.92L72.1304 191.992H79.6504V190.864H73.9224L78.0184 187.168ZM88.1945 192.232C90.3145 192.232 91.6025 191.24 91.6025 189.608C91.6025 188.272 90.8585 187.656 88.4745 187.048C86.4345 186.536 85.9465 186.216 85.9465 185.528C85.9465 184.712 86.7945 184.168 88.0185 184.192C89.3145 184.216 90.2185 184.84 90.3865 185.856L91.5865 185.64C91.4105 184.136 89.9865 183.12 88.0345 183.12C86.0825 183.12 84.7545 184.112 84.7545 185.584C84.7545 186.792 85.4745 187.36 87.8185 187.992C90.0105 188.584 90.3785 188.824 90.3785 189.624C90.3785 190.568 89.5705 191.16 88.2585 191.16C86.9145 191.16 85.9385 190.536 85.6905 189.552L84.4905 189.752C84.7865 191.312 86.1705 192.232 88.1945 192.232ZM98.1768 184.368V183.36H95.5288V180.96H94.3608V183.36H92.5128V184.368H94.3608V188.872C94.3608 189.72 94.3208 190.336 94.6328 190.968C95.2008 192.12 96.7128 192.304 98.1768 192V190.968C96.9368 191.168 96.0888 191.096 95.7048 190.376C95.4968 190.008 95.5288 189.552 95.5288 188.824V184.368H98.1768ZM103.27 192.24C105.831 192.24 107.366 190.392 107.366 187.672C107.366 185 105.862 183.12 103.27 183.12C100.742 183.12 99.1825 184.952 99.1825 187.672C99.1825 190.352 100.694 192.24 103.27 192.24ZM103.27 191.112C101.398 191.112 100.43 189.752 100.43 187.672C100.43 185.656 101.334 184.248 103.27 184.248C105.174 184.248 106.118 185.592 106.118 187.672C106.118 189.712 105.19 191.112 103.27 191.112ZM112.811 192.24C114.523 192.24 115.787 191.416 116.435 189.88L115.251 189.528C114.819 190.568 113.979 191.112 112.811 191.112C110.955 191.112 110.019 189.752 109.995 187.68C110.019 185.664 110.899 184.248 112.811 184.248C113.939 184.248 114.875 184.848 115.283 185.88L116.435 185.512C115.955 184.032 114.563 183.12 112.819 183.12C110.235 183.12 108.779 184.96 108.747 187.68C108.779 190.344 110.195 192.24 112.811 192.24ZM124.959 192L120.935 187.024L124.751 183.36H123.287L119.311 187.12V180.48H118.183L118.175 192H119.311V188.584L120.135 187.792L123.559 192H124.959ZM131.243 183.928C130.995 184.12 130.755 184.4 130.571 184.728V183.36H129.515V192H130.691V187.688C130.691 186.656 130.835 185.536 131.699 184.856C132.323 184.344 133.123 184.312 133.763 184.464V183.36C133.003 183.168 131.923 183.336 131.243 183.928ZM142.805 188.008C142.893 184.96 141.389 183.12 138.829 183.12C136.333 183.12 134.741 184.888 134.741 187.72C134.741 190.456 136.357 192.24 138.877 192.24C140.549 192.24 141.949 191.384 142.637 189.872L141.541 189.448C141.005 190.528 140.061 191.112 138.829 191.112C137.109 191.112 136.093 189.984 135.997 188.008H142.805ZM138.861 184.2C140.469 184.2 141.389 185.16 141.573 187.024H136.021C136.205 185.208 137.197 184.2 138.861 184.2ZM148.26 192.24C149.972 192.24 151.236 191.416 151.884 189.88L150.7 189.528C150.268 190.568 149.428 191.112 148.26 191.112C146.404 191.112 145.468 189.752 145.444 187.68C145.468 185.664 146.348 184.248 148.26 184.248C149.388 184.248 150.324 184.848 150.732 185.88L151.884 185.512C151.404 184.032 150.012 183.12 148.268 183.12C145.684 183.12 144.228 184.96 144.196 187.68C144.228 190.344 145.644 192.24 148.26 192.24ZM157.005 192.24C159.565 192.24 161.101 190.392 161.101 187.672C161.101 185 159.597 183.12 157.005 183.12C154.477 183.12 152.917 184.952 152.917 187.672C152.917 190.352 154.429 192.24 157.005 192.24ZM157.005 191.112C155.133 191.112 154.165 189.752 154.165 187.672C154.165 185.656 155.069 184.248 157.005 184.248C158.909 184.248 159.853 185.592 159.853 187.672C159.853 189.712 158.925 191.112 157.005 191.112ZM171.578 183.128C170.426 183.128 169.466 183.672 168.962 184.584C168.498 183.64 167.578 183.128 166.442 183.128C165.418 183.128 164.546 183.568 164.01 184.272V183.36H162.954V192H164.138V186.424C164.138 185.072 164.938 184.184 166.138 184.184C167.33 184.184 168.13 185.032 168.13 186.408L168.122 192H169.282L169.29 186.424C169.29 184.816 170.322 184.184 171.306 184.184C172.442 184.184 173.274 184.992 173.274 186.328L173.266 192H174.442L174.45 186.104C174.45 184.28 173.322 183.128 171.578 183.128ZM185.236 183.128C184.084 183.128 183.124 183.672 182.62 184.584C182.156 183.64 181.236 183.128 180.1 183.128C179.076 183.128 178.204 183.568 177.668 184.272V183.36H176.612V192H177.796V186.424C177.796 185.072 178.596 184.184 179.796 184.184C180.988 184.184 181.788 185.032 181.788 186.408L181.78 192H182.94L182.948 186.424C182.948 184.816 183.98 184.184 184.964 184.184C186.1 184.184 186.932 184.992 186.932 186.328L186.924 192H188.1L188.108 186.104C188.108 184.28 186.98 183.128 185.236 183.128ZM197.8 188.008C197.888 184.96 196.384 183.12 193.824 183.12C191.328 183.12 189.736 184.888 189.736 187.72C189.736 190.456 191.352 192.24 193.872 192.24C195.544 192.24 196.944 191.384 197.632 189.872L196.536 189.448C196 190.528 195.056 191.112 193.824 191.112C192.104 191.112 191.088 189.984 190.992 188.008H197.8ZM193.856 184.2C195.464 184.2 196.384 185.16 196.568 187.024H191.016C191.2 185.208 192.192 184.2 193.856 184.2ZM203.397 183.144C202.157 183.144 201.133 183.624 200.493 184.56V183.36H199.429V192H200.613V187.392C200.613 185.44 201.509 184.264 203.173 184.264C204.981 184.264 205.677 185.688 205.677 187.592V192H206.861V187.248C206.861 185.304 205.989 183.144 203.397 183.144ZM215.027 184.376C214.395 183.592 213.475 183.12 212.275 183.12C209.907 183.12 208.491 185.096 208.491 187.672C208.491 190.264 209.899 192.24 212.323 192.24C213.579 192.24 214.531 191.688 215.155 190.792V192H216.211V180.48H215.027V184.376ZM212.443 191.144C210.643 191.144 209.739 189.64 209.739 187.672C209.739 185.72 210.611 184.216 212.467 184.216C214.267 184.216 215.155 185.64 215.155 187.672C215.155 189.672 214.283 191.144 212.443 191.144ZM225.103 184.848C224.647 183.728 223.495 183.12 221.919 183.12C220.015 183.12 218.799 184.016 218.399 185.56L219.543 185.896C219.871 184.744 220.719 184.232 221.903 184.232C223.543 184.232 224.191 184.984 224.207 186.544C223.055 186.704 221.439 186.888 220.271 187.168C218.983 187.512 218.071 188.264 218.071 189.68C218.071 191.056 219.063 192.24 221.023 192.24C222.495 192.24 223.639 191.664 224.311 190.568V192H225.359V186.632C225.359 185.992 225.311 185.352 225.103 184.848ZM221.159 191.224C219.767 191.224 219.247 190.432 219.247 189.68C219.247 188.744 220.007 188.328 220.743 188.112C221.695 187.848 223.055 187.712 224.191 187.576C224.191 187.968 224.175 188.528 224.079 188.952C223.855 190.256 222.807 191.224 221.159 191.224ZM232.242 184.368V183.36H229.594V180.96H228.426V183.36H226.578V184.368H228.426V188.872C228.426 189.72 228.386 190.336 228.698 190.968C229.266 192.12 230.778 192.304 232.242 192V190.968C231.002 191.168 230.154 191.096 229.77 190.376C229.562 190.008 229.594 189.552 229.594 188.824V184.368H232.242ZM234.784 181.872C235.248 181.872 235.608 181.52 235.608 181.064C235.608 180.6 235.248 180.248 234.784 180.248C234.32 180.248 233.968 180.6 233.968 181.064C233.968 181.52 234.32 181.872 234.784 181.872ZM235.376 192V183.36H234.2V192H235.376ZM241.478 192.24C244.038 192.24 245.574 190.392 245.574 187.672C245.574 185 244.07 183.12 241.478 183.12C238.95 183.12 237.39 184.952 237.39 187.672C237.39 190.352 238.902 192.24 241.478 192.24ZM241.478 191.112C239.606 191.112 238.638 189.752 238.638 187.672C238.638 185.656 239.542 184.248 241.478 184.248C243.382 184.248 244.326 185.592 244.326 187.672C244.326 189.712 243.398 191.112 241.478 191.112ZM251.395 183.144C250.155 183.144 249.131 183.624 248.491 184.56V183.36H247.427V192H248.611V187.392C248.611 185.44 249.507 184.264 251.171 184.264C252.979 184.264 253.675 185.688 253.675 187.592V192H254.859V187.248C254.859 185.304 253.987 183.144 251.395 183.144Z" fill="white"/>
<circle cx="44" cy="240" r="10" fill="white"/>
<path d="M40.25 240.625L43.25 242.5L47.75 237.5" stroke="#1BD47B" stroke-width="1.25" stroke-linecap="round" stroke-linejoin="round"/>
<path d="M68.776 236L71.48 226.552L74.2 236H75.384L78.704 224.48H77.472L74.792 233.992L72.096 224.48L70.864 224.488L68.184 233.992L65.488 224.48H64.264L67.592 236H68.776ZM86.8156 232.008C86.9036 228.96 85.3996 227.12 82.8396 227.12C80.3436 227.12 78.7516 228.888 78.7516 231.72C78.7516 234.456 80.3676 236.24 82.8876 236.24C84.5596 236.24 85.9596 235.384 86.6476 233.872L85.5516 233.448C85.0156 234.528 84.0716 235.112 82.8396 235.112C81.1196 235.112 80.1036 233.984 80.0076 232.008H86.8156ZM82.8716 228.2C84.4796 228.2 85.3996 229.16 85.5836 231.024H80.0316C80.2156 229.208 81.2076 228.2 82.8716 228.2ZM96.271 232.008C96.359 228.96 94.855 227.12 92.295 227.12C89.799 227.12 88.207 228.888 88.207 231.72C88.207 234.456 89.823 236.24 92.343 236.24C94.015 236.24 95.415 235.384 96.103 233.872L95.007 233.448C94.471 234.528 93.527 235.112 92.295 235.112C90.575 235.112 89.559 233.984 89.463 232.008H96.271ZM92.327 228.2C93.935 228.2 94.855 229.16 95.039 231.024H89.487C89.671 229.208 90.663 228.2 92.327 228.2ZM104.918 236L100.894 231.024L104.71 227.36H103.246L99.2704 231.12V224.48H98.1424L98.1344 236H99.2704V232.584L100.094 231.792L103.518 236H104.918ZM107.512 236V224.24H106.336V236H107.512ZM110.398 227.36H109.15L112.662 235.984L111.238 239.84H112.414L117.054 227.36H115.854L113.23 234.464L110.398 227.36ZM129.423 232.008C129.511 228.96 128.007 227.12 125.447 227.12C122.951 227.12 121.359 228.888 121.359 231.72C121.359 234.456 122.975 236.24 125.495 236.24C127.167 236.24 128.567 235.384 129.255 233.872L128.159 233.448C127.623 234.528 126.679 235.112 125.447 235.112C123.727 235.112 122.711 233.984 122.615 232.008H129.423ZM125.479 228.2C127.087 228.2 128.007 229.16 128.191 231.024H122.639C122.823 229.208 123.815 228.2 125.479 228.2ZM139.676 227.128C138.524 227.128 137.564 227.672 137.06 228.584C136.596 227.64 135.676 227.128 134.54 227.128C133.516 227.128 132.644 227.568 132.108 228.272V227.36H131.052V236H132.236V230.424C132.236 229.072 133.036 228.184 134.236 228.184C135.428 228.184 136.228 229.032 136.228 230.408L136.22 236H137.38L137.388 230.424C137.388 228.816 138.42 228.184 139.404 228.184C140.54 228.184 141.372 228.992 141.372 230.328L141.364 236H142.54L142.548 230.104C142.548 228.28 141.42 227.128 139.676 227.128ZM151.27 228.848C150.814 227.728 149.662 227.12 148.086 227.12C146.182 227.12 144.966 228.016 144.566 229.56L145.71 229.896C146.038 228.744 146.886 228.232 148.07 228.232C149.71 228.232 150.358 228.984 150.374 230.544C149.222 230.704 147.606 230.888 146.438 231.168C145.15 231.512 144.238 232.264 144.238 233.68C144.238 235.056 145.23 236.24 147.19 236.24C148.662 236.24 149.806 235.664 150.478 234.568V236H151.526V230.632C151.526 229.992 151.478 229.352 151.27 228.848ZM147.326 235.224C145.934 235.224 145.414 234.432 145.414 233.68C145.414 232.744 146.174 232.328 146.91 232.112C147.862 231.848 149.222 231.712 150.358 231.576C150.358 231.968 150.342 232.528 150.246 232.952C150.022 234.256 148.974 235.224 147.326 235.224ZM154.449 225.872C154.913 225.872 155.273 225.52 155.273 225.064C155.273 224.6 154.913 224.248 154.449 224.248C153.985 224.248 153.633 224.6 153.633 225.064C153.633 225.52 153.985 225.872 154.449 225.872ZM155.041 236V227.36H153.865V236H155.041ZM158.871 236V224.24H157.695V236H158.871ZM168.625 227.144C167.385 227.144 166.361 227.624 165.721 228.56V227.36H164.657V236H165.841V231.392C165.841 229.44 166.737 228.264 168.401 228.264C170.209 228.264 170.905 229.688 170.905 231.592V236H172.089V231.248C172.089 229.304 171.217 227.144 168.625 227.144ZM177.806 236.24C180.366 236.24 181.902 234.392 181.902 231.672C181.902 229 180.398 227.12 177.806 227.12C175.278 227.12 173.718 228.952 173.718 231.672C173.718 234.352 175.23 236.24 177.806 236.24ZM177.806 235.112C175.934 235.112 174.966 233.752 174.966 231.672C174.966 229.656 175.87 228.248 177.806 228.248C179.71 228.248 180.654 229.592 180.654 231.672C180.654 233.712 179.726 235.112 177.806 235.112ZM188.467 228.368V227.36H185.819V224.96H184.651V227.36H182.803V228.368H184.651V232.872C184.651 233.72 184.611 234.336 184.923 234.968C185.491 236.12 187.003 236.304 188.467 236V234.968C187.227 235.168 186.379 235.096 185.995 234.376C185.787 234.008 185.819 233.552 185.819 232.824V228.368H188.467ZM191.009 225.872C191.473 225.872 191.833 225.52 191.833 225.064C191.833 224.6 191.473 224.248 191.009 224.248C190.545 224.248 190.193 224.6 190.193 225.064C190.193 225.52 190.545 225.872 191.009 225.872ZM191.601 236V227.36H190.425V236H191.601ZM195.488 224.872C195.016 225.384 194.952 226.056 194.952 226.72V227.36H193.456V228.368H194.952V236H196.128V228.368H198.488V227.36H196.128V226.592C196.128 225.656 196.568 225.232 197.464 225.232H198.488V224.24H197.384C196.72 224.24 196.008 224.304 195.488 224.872ZM200.752 224.248C200.288 224.248 199.936 224.6 199.936 225.064C199.936 225.52 200.288 225.872 200.752 225.872C201.216 225.872 201.576 225.52 201.576 225.064C201.576 224.6 201.216 224.248 200.752 224.248ZM201.344 236V227.36H200.168V236H201.344ZM207.416 236.24C209.128 236.24 210.392 235.416 211.04 233.88L209.856 233.528C209.424 234.568 208.584 235.112 207.416 235.112C205.56 235.112 204.624 233.752 204.6 231.68C204.624 229.664 205.504 228.248 207.416 228.248C208.544 228.248 209.48 228.848 209.888 229.88L211.04 229.512C210.56 228.032 209.168 227.12 207.424 227.12C204.84 227.12 203.384 228.96 203.352 231.68C203.384 234.344 204.8 236.24 207.416 236.24ZM219.277 228.848C218.821 227.728 217.669 227.12 216.093 227.12C214.189 227.12 212.973 228.016 212.573 229.56L213.717 229.896C214.045 228.744 214.893 228.232 216.077 228.232C217.717 228.232 218.365 228.984 218.381 230.544C217.229 230.704 215.613 230.888 214.445 231.168C213.157 231.512 212.245 232.264 212.245 233.68C212.245 235.056 213.237 236.24 215.197 236.24C216.669 236.24 217.813 235.664 218.485 234.568V236H219.533V230.632C219.533 229.992 219.485 229.352 219.277 228.848ZM215.333 235.224C213.941 235.224 213.421 234.432 213.421 233.68C213.421 232.744 214.181 232.328 214.917 232.112C215.869 231.848 217.229 231.712 218.365 231.576C218.365 231.968 218.349 232.528 218.253 232.952C218.029 234.256 216.981 235.224 215.333 235.224ZM226.416 228.368V227.36H223.768V224.96H222.6V227.36H220.752V228.368H222.6V232.872C222.6 233.72 222.56 234.336 222.872 234.968C223.44 236.12 224.952 236.304 226.416 236V234.968C225.176 235.168 224.328 235.096 223.944 234.376C223.736 234.008 223.768 233.552 223.768 232.824V228.368H226.416ZM228.958 225.872C229.422 225.872 229.782 225.52 229.782 225.064C229.782 224.6 229.422 224.248 228.958 224.248C228.494 224.248 228.142 224.6 228.142 225.064C228.142 225.52 228.494 225.872 228.958 225.872ZM229.55 236V227.36H228.374V236H229.55ZM235.652 236.24C238.213 236.24 239.748 234.392 239.748 231.672C239.748 229 238.244 227.12 235.652 227.12C233.124 227.12 231.564 228.952 231.564 231.672C231.564 234.352 233.076 236.24 235.652 236.24ZM235.652 235.112C233.78 235.112 232.812 233.752 232.812 231.672C232.812 229.656 233.716 228.248 235.652 228.248C237.556 228.248 238.5 229.592 238.5 231.672C238.5 233.712 237.572 235.112 235.652 235.112ZM245.569 227.144C244.329 227.144 243.305 227.624 242.665 228.56V227.36H241.601V236H242.785V231.392C242.785 229.44 243.681 228.264 245.345 228.264C247.153 228.264 247.849 229.688 247.849 231.592V236H249.033V231.248C249.033 229.304 248.161 227.144 245.569 227.144ZM258.896 225.232V224.24H257.792C257.128 224.24 256.416 224.304 255.896 224.872C255.424 225.384 255.36 226.056 255.36 226.72V227.36H253.864V228.368H255.36V236H256.536V228.368H258.896V227.36H256.536V226.592C256.536 225.656 256.976 225.232 257.872 225.232H258.896ZM263.568 236.24C266.128 236.24 267.664 234.392 267.664 231.672C267.664 229 266.16 227.12 263.568 227.12C261.04 227.12 259.48 228.952 259.48 231.672C259.48 234.352 260.992 236.24 263.568 236.24ZM263.568 235.112C261.696 235.112 260.728 233.752 260.728 231.672C260.728 229.656 261.632 228.248 263.568 228.248C265.472 228.248 266.416 229.592 266.416 231.672C266.416 233.712 265.488 235.112 263.568 235.112ZM271.252 227.928C271.004 228.12 270.764 228.4 270.58 228.728V227.36H269.524V236H270.7V231.688C270.7 230.656 270.844 229.536 271.708 228.856C272.332 228.344 273.132 228.312 273.772 228.464V227.36C273.012 227.168 271.932 227.336 271.252 227.928ZM280.021 236V224.24H278.845V236H280.021ZM289.068 228.848C288.612 227.728 287.46 227.12 285.884 227.12C283.98 227.12 282.764 228.016 282.364 229.56L283.508 229.896C283.836 228.744 284.684 228.232 285.868 228.232C287.508 228.232 288.156 228.984 288.172 230.544C287.02 230.704 285.404 230.888 284.236 231.168C282.948 231.512 282.036 232.264 282.036 233.68C282.036 235.056 283.028 236.24 284.988 236.24C286.46 236.24 287.604 235.664 288.276 234.568V236H289.324V230.632C289.324 229.992 289.276 229.352 289.068 228.848ZM285.124 235.224C283.732 235.224 283.212 234.432 283.212 233.68C283.212 232.744 283.972 232.328 284.708 232.112C285.66 231.848 287.02 231.712 288.156 231.576C288.156 231.968 288.14 232.528 288.044 232.952C287.82 234.256 286.772 235.224 285.124 235.224ZM293.23 227.928C292.982 228.12 292.742 228.4 292.558 228.728V227.36H291.502V236H292.678V231.688C292.678 230.656 292.822 229.536 293.686 228.856C294.31 228.344 295.11 228.312 295.75 228.464V227.36C294.99 227.168 293.91 227.336 293.23 227.928ZM303.235 228.552C302.603 227.656 301.635 227.12 300.355 227.12C297.987 227.12 296.571 229.096 296.571 231.672C296.571 234.264 297.979 236.24 300.403 236.24C301.571 236.24 302.475 235.76 303.099 234.976V235.864C303.107 237.896 302.355 238.936 300.483 238.936C299.571 238.936 298.611 238.544 298.139 237.584L297.075 238.176C297.811 239.52 299.155 240.08 300.483 240.08C302.595 240.08 303.875 239.184 304.187 237.256C304.259 236.816 304.283 236.376 304.283 235.88V227.36H303.235V228.552ZM300.523 235.144C298.723 235.144 297.819 233.64 297.819 231.672C297.819 229.72 298.691 228.216 300.547 228.216C302.347 228.216 303.235 229.64 303.235 231.672C303.235 233.672 302.363 235.144 300.523 235.144ZM314.2 232.008C314.288 228.96 312.784 227.12 310.224 227.12C307.728 227.12 306.136 228.888 306.136 231.72C306.136 234.456 307.752 236.24 310.272 236.24C311.944 236.24 313.344 235.384 314.032 233.872L312.936 233.448C312.4 234.528 311.456 235.112 310.224 235.112C308.504 235.112 307.488 233.984 307.392 232.008H314.2ZM310.256 228.2C311.864 228.2 312.784 229.16 312.968 231.024H307.416C307.6 229.208 308.592 228.2 310.256 228.2ZM323.075 236.24C323.731 236.24 324.379 236.168 324.963 235.912C325.499 235.72 326.075 235.336 326.435 234.872L327.707 236.072L328.483 235.248L326.995 233.88C327.099 233.536 327.171 233.032 327.171 232.184V230.416H326.059L326.067 232.104C326.067 232.384 326.059 232.664 326.019 232.96L322.371 229.576C322.067 229.304 321.771 229.04 321.539 228.784C321.123 228.296 320.915 227.952 320.915 227.296C320.915 226.536 321.235 225.96 321.875 225.64C322.243 225.464 322.667 225.376 323.107 225.376C323.643 225.376 324.195 225.496 324.603 225.808C324.851 225.992 325.043 226.232 325.163 226.536L326.299 226.2C326.131 225.744 325.827 225.304 325.427 224.992C324.835 224.48 323.955 224.248 323.091 224.248C322.531 224.248 321.947 224.344 321.403 224.584C320.339 225.064 319.699 226.12 319.699 227.304C319.699 228.336 320.131 228.936 320.931 229.768C320.515 229.944 320.107 230.2 319.803 230.576C319.275 231.2 319.043 232.04 319.051 232.848C319.083 233.704 319.347 234.48 319.923 235.096C320.659 235.88 321.787 236.24 323.075 236.24ZM323.091 235.104C322.227 235.104 321.299 234.856 320.803 234.264C320.451 233.888 320.275 233.376 320.259 232.792C320.251 232.24 320.403 231.72 320.715 231.336C320.995 231 321.395 230.76 321.843 230.624L325.587 234.048C325.411 234.248 325.179 234.52 324.619 234.816C324.171 235.056 323.691 235.104 323.091 235.104ZM345.103 227.128C343.951 227.128 342.991 227.672 342.487 228.584C342.023 227.64 341.103 227.128 339.967 227.128C338.943 227.128 338.071 227.568 337.535 228.272V227.36H336.479V236H337.663V230.424C337.663 229.072 338.463 228.184 339.663 228.184C340.855 228.184 341.655 229.032 341.655 230.408L341.647 236H342.807L342.815 230.424C342.815 228.816 343.847 228.184 344.831 228.184C345.967 228.184 346.799 228.992 346.799 230.328L346.791 236H347.967L347.975 230.104C347.975 228.28 346.847 227.128 345.103 227.128ZM350.889 225.872C351.353 225.872 351.713 225.52 351.713 225.064C351.713 224.6 351.353 224.248 350.889 224.248C350.425 224.248 350.073 224.6 350.073 225.064C350.073 225.52 350.425 225.872 350.889 225.872ZM351.481 236V227.36H350.305V236H351.481ZM360.032 228.376C359.4 227.592 358.48 227.12 357.28 227.12C354.912 227.12 353.496 229.096 353.496 231.672C353.496 234.264 354.904 236.24 357.328 236.24C358.584 236.24 359.536 235.688 360.16 234.792V236H361.216V224.48H360.032V228.376ZM357.448 235.144C355.648 235.144 354.744 233.64 354.744 231.672C354.744 229.72 355.616 228.216 357.472 228.216C359.272 228.216 360.16 229.64 360.16 231.672C360.16 233.672 359.288 235.144 357.448 235.144ZM368.196 231.464V230.456H363.396V231.464H368.196ZM373.955 236.24C375.667 236.24 376.931 235.416 377.579 233.88L376.395 233.528C375.963 234.568 375.123 235.112 373.955 235.112C372.099 235.112 371.163 233.752 371.139 231.68C371.163 229.664 372.043 228.248 373.955 228.248C375.083 228.248 376.019 228.848 376.427 229.88L377.579 229.512C377.099 228.032 375.707 227.12 373.963 227.12C371.379 227.12 369.923 228.96 369.891 231.68C369.923 234.344 371.339 236.24 373.955 236.24ZM385.816 228.848C385.36 227.728 384.208 227.12 382.632 227.12C380.728 227.12 379.512 228.016 379.112 229.56L380.256 229.896C380.584 228.744 381.432 228.232 382.616 228.232C384.256 228.232 384.904 228.984 384.92 230.544C383.768 230.704 382.152 230.888 380.984 231.168C379.696 231.512 378.784 232.264 378.784 233.68C378.784 235.056 379.776 236.24 381.736 236.24C383.208 236.24 384.352 235.664 385.024 234.568V236H386.072V230.632C386.072 229.992 386.024 229.352 385.816 228.848ZM381.872 235.224C380.48 235.224 379.96 234.432 379.96 233.68C379.96 232.744 380.72 232.328 381.456 232.112C382.408 231.848 383.768 231.712 384.904 231.576C384.904 231.968 384.888 232.528 384.792 232.952C384.568 234.256 383.52 235.224 381.872 235.224ZM392.178 227.12C390.898 227.12 389.93 227.656 389.298 228.552V227.36H388.242V239.84H389.426V234.968C390.05 235.76 390.962 236.24 392.13 236.24C394.554 236.24 395.962 234.264 395.962 231.672C395.962 229.096 394.546 227.12 392.178 227.12ZM392.01 235.144C390.17 235.144 389.298 233.672 389.298 231.672C389.298 229.64 390.186 228.216 391.986 228.216C393.842 228.216 394.714 229.72 394.714 231.672C394.714 233.64 393.81 235.144 392.01 235.144ZM68.344 256.232C70.464 256.232 71.752 255.24 71.752 253.608C71.752 252.272 71.008 251.656 68.624 251.048C66.584 250.536 66.096 250.216 66.096 249.528C66.096 248.712 66.944 248.168 68.168 248.192C69.464 248.216 70.368 248.84 70.536 249.856L71.736 249.64C71.56 248.136 70.136 247.12 68.184 247.12C66.232 247.12 64.904 248.112 64.904 249.584C64.904 250.792 65.624 251.36 67.968 251.992C70.16 252.584 70.528 252.824 70.528 253.624C70.528 254.568 69.72 255.16 68.408 255.16C67.064 255.16 66.088 254.536 65.84 253.552L64.64 253.752C64.936 255.312 66.32 256.232 68.344 256.232ZM78.3263 248.368V247.36H75.6782V244.96H74.5102V247.36H72.6622V248.368H74.5102V252.872C74.5102 253.72 74.4702 254.336 74.7822 254.968C75.3502 256.12 76.8622 256.304 78.3263 256V254.968C77.0862 255.168 76.2382 255.096 75.8542 254.376C75.6462 254.008 75.6782 253.552 75.6782 252.824V248.368H78.3263ZM83.42 256.24C85.98 256.24 87.516 254.392 87.516 251.672C87.516 249 86.012 247.12 83.42 247.12C80.892 247.12 79.332 248.952 79.332 251.672C79.332 254.352 80.844 256.24 83.42 256.24ZM83.42 255.112C81.548 255.112 80.58 253.752 80.58 251.672C80.58 249.656 81.484 248.248 83.42 248.248C85.324 248.248 86.268 249.592 86.268 251.672C86.268 253.712 85.34 255.112 83.42 255.112ZM92.9608 256.24C94.6728 256.24 95.9368 255.416 96.5848 253.88L95.4008 253.528C94.9688 254.568 94.1288 255.112 92.9608 255.112C91.1048 255.112 90.1688 253.752 90.1448 251.68C90.1688 249.664 91.0488 248.248 92.9608 248.248C94.0888 248.248 95.0248 248.848 95.4328 249.88L96.5848 249.512C96.1048 248.032 94.7128 247.12 92.9688 247.12C90.3848 247.12 88.9288 248.96 88.8968 251.68C88.9288 254.344 90.3448 256.24 92.9608 256.24ZM105.108 256L101.084 251.024L104.9 247.36H103.436L99.4601 251.12V244.48H98.3321L98.3241 256H99.4601V252.584L100.284 251.792L103.708 256H105.108ZM109.433 256.232C111.553 256.232 112.841 255.24 112.841 253.608C112.841 252.272 112.097 251.656 109.713 251.048C107.673 250.536 107.185 250.216 107.185 249.528C107.185 248.712 108.033 248.168 109.257 248.192C110.553 248.216 111.457 248.84 111.625 249.856L112.825 249.64C112.649 248.136 111.225 247.12 109.273 247.12C107.321 247.12 105.993 248.112 105.993 249.584C105.993 250.792 106.713 251.36 109.057 251.992C111.249 252.584 111.617 252.824 111.617 253.624C111.617 254.568 110.809 255.16 109.497 255.16C108.153 255.16 107.177 254.536 106.929 253.552L105.729 253.752C106.025 255.312 107.409 256.232 109.433 256.232ZM121.619 256.24C124.179 256.24 125.715 254.392 125.715 251.672C125.715 249 124.211 247.12 121.619 247.12C119.091 247.12 117.531 248.952 117.531 251.672C117.531 254.352 119.043 256.24 121.619 256.24ZM121.619 255.112C119.747 255.112 118.779 253.752 118.779 251.672C118.779 249.656 119.683 248.248 121.619 248.248C123.523 248.248 124.467 249.592 124.467 251.672C124.467 253.712 123.539 255.112 121.619 255.112ZM131.536 247.144C130.296 247.144 129.272 247.624 128.632 248.56V247.36H127.568V256H128.752V251.392C128.752 249.44 129.648 248.264 131.312 248.264C133.12 248.264 133.816 249.688 133.816 251.592V256H135V251.248C135 249.304 134.128 247.144 131.536 247.144ZM138.507 256V244.24H137.331V256H138.507ZM141.394 247.36H140.146L143.658 255.984L142.234 259.84H143.41L148.05 247.36H146.85L144.226 254.464L141.394 247.36Z" fill="white"/>
<circle cx="44" cy="294" r="10" fill="white"/>
<path d="M40.25 294.625L43.25 296.5L47.75 291.5" stroke="#1BD47B" stroke-width="1.25" stroke-linecap="round" stroke-linejoin="round"/>
<path d="M64.32 300H65.544L66.512 297.208H71.624L72.592 300H73.816L69.848 288.48H68.288L64.32 300ZM69.056 289.8L71.24 296.104H66.888L69.056 289.8ZM78.9406 300.24C80.6526 300.24 81.9166 299.416 82.5646 297.88L81.3806 297.528C80.9486 298.568 80.1086 299.112 78.9406 299.112C77.0846 299.112 76.1486 297.752 76.1246 295.68C76.1486 293.664 77.0286 292.248 78.9406 292.248C80.0686 292.248 81.0046 292.848 81.4126 293.88L82.5646 293.512C82.0846 292.032 80.6926 291.12 78.9486 291.12C76.3646 291.12 74.9086 292.96 74.8766 295.68C74.9086 298.344 76.3246 300.24 78.9406 300.24ZM87.6616 300.24C89.3736 300.24 90.6376 299.416 91.2856 297.88L90.1016 297.528C89.6696 298.568 88.8296 299.112 87.6616 299.112C85.8056 299.112 84.8696 297.752 84.8456 295.68C84.8696 293.664 85.7496 292.248 87.6616 292.248C88.7896 292.248 89.7256 292.848 90.1336 293.88L91.2856 293.512C90.8056 292.032 89.4136 291.12 87.6696 291.12C85.0856 291.12 83.6296 292.96 83.5976 295.68C83.6296 298.344 85.0456 300.24 87.6616 300.24ZM100.383 296.008C100.471 292.96 98.9666 291.12 96.4066 291.12C93.9106 291.12 92.3186 292.888 92.3186 295.72C92.3186 298.456 93.9346 300.24 96.4546 300.24C98.1266 300.24 99.5266 299.384 100.215 297.872L99.1186 297.448C98.5826 298.528 97.6386 299.112 96.4066 299.112C94.6866 299.112 93.6706 297.984 93.5746 296.008H100.383ZM96.4386 292.2C98.0466 292.2 98.9666 293.16 99.1506 295.024H93.5986C93.7826 293.208 94.7746 292.2 96.4386 292.2ZM105.478 300.232C107.598 300.232 108.886 299.24 108.886 297.608C108.886 296.272 108.142 295.656 105.758 295.048C103.718 294.536 103.23 294.216 103.23 293.528C103.23 292.712 104.078 292.168 105.302 292.192C106.598 292.216 107.502 292.84 107.67 293.856L108.87 293.64C108.694 292.136 107.27 291.12 105.318 291.12C103.366 291.12 102.038 292.112 102.038 293.584C102.038 294.792 102.758 295.36 105.102 295.992C107.294 296.584 107.662 296.824 107.662 297.624C107.662 298.568 106.854 299.16 105.542 299.16C104.198 299.16 103.222 298.536 102.974 297.552L101.774 297.752C102.07 299.312 103.454 300.232 105.478 300.232ZM113.98 300.232C116.1 300.232 117.388 299.24 117.388 297.608C117.388 296.272 116.644 295.656 114.26 295.048C112.22 294.536 111.732 294.216 111.732 293.528C111.732 292.712 112.58 292.168 113.804 292.192C115.1 292.216 116.004 292.84 116.172 293.856L117.372 293.64C117.196 292.136 115.772 291.12 113.82 291.12C111.868 291.12 110.54 292.112 110.54 293.584C110.54 294.792 111.26 295.36 113.604 295.992C115.796 296.584 116.164 296.824 116.164 297.624C116.164 298.568 115.356 299.16 114.044 299.16C112.7 299.16 111.724 298.536 111.476 297.552L110.276 297.752C110.572 299.312 111.956 300.232 113.98 300.232ZM127.262 292.368V291.36H124.614V288.96H123.446V291.36H121.598V292.368H123.446V296.872C123.446 297.72 123.406 298.336 123.718 298.968C124.286 300.12 125.798 300.304 127.262 300V298.968C126.022 299.168 125.174 299.096 124.79 298.376C124.582 298.008 124.614 297.552 124.614 296.824V292.368H127.262ZM132.355 300.24C134.915 300.24 136.451 298.392 136.451 295.672C136.451 293 134.947 291.12 132.355 291.12C129.827 291.12 128.267 292.952 128.267 295.672C128.267 298.352 129.779 300.24 132.355 300.24ZM132.355 299.112C130.483 299.112 129.515 297.752 129.515 295.672C129.515 293.656 130.419 292.248 132.355 292.248C134.259 292.248 135.203 293.592 135.203 295.672C135.203 297.712 134.275 299.112 132.355 299.112ZM142.947 300V288.24H141.771V300H142.947ZM151.994 292.848C151.538 291.728 150.386 291.12 148.81 291.12C146.906 291.12 145.69 292.016 145.29 293.56L146.434 293.896C146.762 292.744 147.61 292.232 148.794 292.232C150.434 292.232 151.082 292.984 151.098 294.544C149.946 294.704 148.33 294.888 147.162 295.168C145.874 295.512 144.962 296.264 144.962 297.68C144.962 299.056 145.954 300.24 147.914 300.24C149.386 300.24 150.53 299.664 151.202 298.568V300H152.25V294.632C152.25 293.992 152.202 293.352 151.994 292.848ZM148.05 299.224C146.658 299.224 146.138 298.432 146.138 297.68C146.138 296.744 146.898 296.328 147.634 296.112C148.586 295.848 149.946 295.712 151.082 295.576C151.082 295.968 151.066 296.528 150.97 296.952C150.746 298.256 149.698 299.224 148.05 299.224ZM156.156 291.928C155.908 292.12 155.668 292.4 155.484 292.728V291.36H154.428V300H155.604V295.688C155.604 294.656 155.748 293.536 156.612 292.856C157.236 292.344 158.036 292.312 158.676 292.464V291.36C157.916 291.168 156.836 291.336 156.156 291.928ZM166.161 292.552C165.529 291.656 164.561 291.12 163.281 291.12C160.913 291.12 159.497 293.096 159.497 295.672C159.497 298.264 160.905 300.24 163.329 300.24C164.497 300.24 165.401 299.76 166.025 298.976V299.864C166.033 301.896 165.281 302.936 163.409 302.936C162.497 302.936 161.537 302.544 161.065 301.584L160.001 302.176C160.737 303.52 162.081 304.08 163.409 304.08C165.521 304.08 166.801 303.184 167.113 301.256C167.185 300.816 167.209 300.376 167.209 299.88V291.36H166.161V292.552ZM163.449 299.144C161.649 299.144 160.745 297.64 160.745 295.672C160.745 293.72 161.617 292.216 163.473 292.216C165.273 292.216 166.161 293.64 166.161 295.672C166.161 297.672 165.289 299.144 163.449 299.144ZM177.126 296.008C177.214 292.96 175.71 291.12 173.15 291.12C170.654 291.12 169.062 292.888 169.062 295.72C169.062 298.456 170.678 300.24 173.198 300.24C174.87 300.24 176.27 299.384 176.958 297.872L175.862 297.448C175.326 298.528 174.382 299.112 173.15 299.112C171.43 299.112 170.414 297.984 170.318 296.008H177.126ZM173.182 292.2C174.79 292.2 175.71 293.16 175.894 295.024H170.342C170.526 293.208 171.518 292.2 173.182 292.2ZM183.638 295.464V294.456H178.838V295.464H183.638ZM189.396 300.24C191.108 300.24 192.372 299.416 193.02 297.88L191.836 297.528C191.404 298.568 190.564 299.112 189.396 299.112C187.54 299.112 186.604 297.752 186.58 295.68C186.604 293.664 187.484 292.248 189.396 292.248C190.524 292.248 191.46 292.848 191.868 293.88L193.02 293.512C192.54 292.032 191.148 291.12 189.404 291.12C186.82 291.12 185.364 292.96 185.332 295.68C185.364 298.344 186.78 300.24 189.396 300.24ZM201.257 292.848C200.801 291.728 199.649 291.12 198.073 291.12C196.169 291.12 194.953 292.016 194.553 293.56L195.697 293.896C196.025 292.744 196.873 292.232 198.057 292.232C199.697 292.232 200.345 292.984 200.361 294.544C199.209 294.704 197.593 294.888 196.425 295.168C195.137 295.512 194.225 296.264 194.225 297.68C194.225 299.056 195.217 300.24 197.177 300.24C198.649 300.24 199.793 299.664 200.465 298.568V300H201.513V294.632C201.513 293.992 201.465 293.352 201.257 292.848ZM197.313 299.224C195.921 299.224 195.401 298.432 195.401 297.68C195.401 296.744 196.161 296.328 196.897 296.112C197.849 295.848 199.209 295.712 200.345 295.576C200.345 295.968 200.329 296.528 200.233 296.952C200.009 298.256 198.961 299.224 197.313 299.224ZM207.62 291.12C206.34 291.12 205.372 291.656 204.74 292.552V291.36H203.684V303.84H204.868V298.968C205.492 299.76 206.404 300.24 207.572 300.24C209.996 300.24 211.404 298.264 211.404 295.672C211.404 293.096 209.988 291.12 207.62 291.12ZM207.452 299.144C205.612 299.144 204.74 297.672 204.74 295.672C204.74 293.64 205.628 292.216 207.428 292.216C209.284 292.216 210.156 293.72 210.156 295.672C210.156 297.64 209.252 299.144 207.452 299.144ZM223.108 292.848C222.652 291.728 221.5 291.12 219.924 291.12C218.02 291.12 216.804 292.016 216.404 293.56L217.548 293.896C217.876 292.744 218.724 292.232 219.908 292.232C221.548 292.232 222.196 292.984 222.212 294.544C221.06 294.704 219.444 294.888 218.276 295.168C216.988 295.512 216.076 296.264 216.076 297.68C216.076 299.056 217.068 300.24 219.028 300.24C220.5 300.24 221.644 299.664 222.316 298.568V300H223.364V294.632C223.364 293.992 223.316 293.352 223.108 292.848ZM219.164 299.224C217.772 299.224 217.252 298.432 217.252 297.68C217.252 296.744 218.012 296.328 218.748 296.112C219.7 295.848 221.06 295.712 222.196 295.576C222.196 295.968 222.18 296.528 222.084 296.952C221.86 298.256 220.812 299.224 219.164 299.224ZM229.502 291.144C228.262 291.144 227.238 291.624 226.598 292.56V291.36H225.534V300H226.718V295.392C226.718 293.44 227.614 292.264 229.278 292.264C231.086 292.264 231.782 293.688 231.782 295.592V300H232.966V295.248C232.966 293.304 232.094 291.144 229.502 291.144ZM241.132 292.376C240.5 291.592 239.58 291.12 238.38 291.12C236.012 291.12 234.596 293.096 234.596 295.672C234.596 298.264 236.004 300.24 238.428 300.24C239.684 300.24 240.636 299.688 241.26 298.792V300H242.316V288.48H241.132V292.376ZM238.548 299.144C236.748 299.144 235.844 297.64 235.844 295.672C235.844 293.72 236.716 292.216 238.572 292.216C240.372 292.216 241.26 293.64 241.26 295.672C241.26 297.672 240.388 299.144 238.548 299.144ZM256.571 291.128C255.419 291.128 254.459 291.672 253.955 292.584C253.491 291.64 252.571 291.128 251.435 291.128C250.411 291.128 249.539 291.568 249.003 292.272V291.36H247.947V300H249.131V294.424C249.131 293.072 249.931 292.184 251.131 292.184C252.323 292.184 253.123 293.032 253.123 294.408L253.115 300H254.275L254.283 294.424C254.283 292.816 255.315 292.184 256.299 292.184C257.435 292.184 258.267 292.992 258.267 294.328L258.259 300H259.435L259.443 294.104C259.443 292.28 258.315 291.128 256.571 291.128ZM262.358 289.872C262.822 289.872 263.182 289.52 263.182 289.064C263.182 288.6 262.822 288.248 262.358 288.248C261.894 288.248 261.542 288.6 261.542 289.064C261.542 289.52 261.894 289.872 262.358 289.872ZM262.95 300V291.36H261.774V300H262.95ZM271.5 292.376C270.868 291.592 269.948 291.12 268.748 291.12C266.38 291.12 264.964 293.096 264.964 295.672C264.964 298.264 266.372 300.24 268.796 300.24C270.052 300.24 271.004 299.688 271.628 298.792V300H272.684V288.48H271.5V292.376ZM268.916 299.144C267.116 299.144 266.212 297.64 266.212 295.672C266.212 293.72 267.084 292.216 268.94 292.216C270.74 292.216 271.628 293.64 271.628 295.672C271.628 297.672 270.756 299.144 268.916 299.144ZM279.664 295.464V294.456H274.864V295.464H279.664ZM285.423 300.24C287.135 300.24 288.399 299.416 289.047 297.88L287.863 297.528C287.431 298.568 286.591 299.112 285.423 299.112C283.567 299.112 282.631 297.752 282.607 295.68C282.631 293.664 283.511 292.248 285.423 292.248C286.551 292.248 287.487 292.848 287.895 293.88L289.047 293.512C288.567 292.032 287.175 291.12 285.431 291.12C282.847 291.12 281.391 292.96 281.359 295.68C281.391 298.344 282.807 300.24 285.423 300.24ZM297.284 292.848C296.828 291.728 295.676 291.12 294.1 291.12C292.196 291.12 290.98 292.016 290.58 293.56L291.724 293.896C292.052 292.744 292.9 292.232 294.084 292.232C295.724 292.232 296.372 292.984 296.388 294.544C295.236 294.704 293.62 294.888 292.452 295.168C291.164 295.512 290.252 296.264 290.252 297.68C290.252 299.056 291.244 300.24 293.204 300.24C294.676 300.24 295.82 299.664 296.492 298.568V300H297.54V294.632C297.54 293.992 297.492 293.352 297.284 292.848ZM293.34 299.224C291.948 299.224 291.428 298.432 291.428 297.68C291.428 296.744 292.188 296.328 292.924 296.112C293.876 295.848 295.236 295.712 296.372 295.576C296.372 295.968 296.356 296.528 296.26 296.952C296.036 298.256 294.988 299.224 293.34 299.224ZM303.647 291.12C302.367 291.12 301.399 291.656 300.767 292.552V291.36H299.711V303.84H300.895V298.968C301.519 299.76 302.431 300.24 303.599 300.24C306.023 300.24 307.431 298.264 307.431 295.672C307.431 293.096 306.015 291.12 303.647 291.12ZM303.479 299.144C301.639 299.144 300.767 297.672 300.767 295.672C300.767 293.64 301.655 292.216 303.455 292.216C305.311 292.216 306.183 293.72 306.183 295.672C306.183 297.64 305.279 299.144 303.479 299.144ZM316.167 300.24C317.879 300.24 319.143 299.416 319.791 297.88L318.607 297.528C318.175 298.568 317.335 299.112 316.167 299.112C314.311 299.112 313.375 297.752 313.351 295.68C313.375 293.664 314.255 292.248 316.167 292.248C317.295 292.248 318.231 292.848 318.639 293.88L319.791 293.512C319.311 292.032 317.919 291.12 316.175 291.12C313.591 291.12 312.135 292.96 312.103 295.68C312.135 298.344 313.551 300.24 316.167 300.24ZM328.027 292.848C327.571 291.728 326.419 291.12 324.843 291.12C322.939 291.12 321.723 292.016 321.323 293.56L322.467 293.896C322.795 292.744 323.643 292.232 324.827 292.232C326.467 292.232 327.115 292.984 327.131 294.544C325.979 294.704 324.363 294.888 323.195 295.168C321.907 295.512 320.995 296.264 320.995 297.68C320.995 299.056 321.987 300.24 323.947 300.24C325.419 300.24 326.563 299.664 327.235 298.568V300H328.283V294.632C328.283 293.992 328.235 293.352 328.027 292.848ZM324.083 299.224C322.691 299.224 322.171 298.432 322.171 297.68C322.171 296.744 322.931 296.328 323.667 296.112C324.619 295.848 325.979 295.712 327.115 295.576C327.115 295.968 327.099 296.528 327.003 296.952C326.779 298.256 325.731 299.224 324.083 299.224ZM335.166 292.368V291.36H332.518V288.96H331.35V291.36H329.502V292.368H331.35V296.872C331.35 297.72 331.31 298.336 331.622 298.968C332.19 300.12 333.702 300.304 335.166 300V298.968C333.926 299.168 333.078 299.096 332.694 298.376C332.486 298.008 332.518 297.552 332.518 296.824V292.368H335.166ZM344.236 296.008C344.324 292.96 342.82 291.12 340.26 291.12C337.764 291.12 336.172 292.888 336.172 295.72C336.172 298.456 337.788 300.24 340.308 300.24C341.98 300.24 343.38 299.384 344.068 297.872L342.972 297.448C342.436 298.528 341.492 299.112 340.26 299.112C338.54 299.112 337.524 297.984 337.428 296.008H344.236ZM340.292 292.2C341.9 292.2 342.82 293.16 343.004 295.024H337.452C337.636 293.208 338.628 292.2 340.292 292.2ZM352.291 292.552C351.659 291.656 350.691 291.12 349.411 291.12C347.043 291.12 345.627 293.096 345.627 295.672C345.627 298.264 347.035 300.24 349.459 300.24C350.627 300.24 351.531 299.76 352.155 298.976V299.864C352.163 301.896 351.411 302.936 349.539 302.936C348.627 302.936 347.667 302.544 347.195 301.584L346.131 302.176C346.867 303.52 348.211 304.08 349.539 304.08C351.651 304.08 352.931 303.184 353.243 301.256C353.315 300.816 353.339 300.376 353.339 299.88V291.36H352.291V292.552ZM349.579 299.144C347.779 299.144 346.875 297.64 346.875 295.672C346.875 293.72 347.747 292.216 349.603 292.216C351.403 292.216 352.291 293.64 352.291 295.672C352.291 297.672 351.419 299.144 349.579 299.144ZM359.28 300.24C361.84 300.24 363.376 298.392 363.376 295.672C363.376 293 361.872 291.12 359.28 291.12C356.752 291.12 355.192 292.952 355.192 295.672C355.192 298.352 356.704 300.24 359.28 300.24ZM359.28 299.112C357.408 299.112 356.44 297.752 356.44 295.672C356.44 293.656 357.344 292.248 359.28 292.248C361.184 292.248 362.128 293.592 362.128 295.672C362.128 297.712 361.2 299.112 359.28 299.112ZM366.965 291.928C366.717 292.12 366.477 292.4 366.293 292.728V291.36H365.237V300H366.413V295.688C366.413 294.656 366.557 293.536 367.421 292.856C368.045 292.344 368.845 292.312 369.485 292.464V291.36C368.725 291.168 367.645 291.336 366.965 291.928ZM371.842 289.872C372.306 289.872 372.666 289.52 372.666 289.064C372.666 288.6 372.306 288.248 371.842 288.248C371.378 288.248 371.026 288.6 371.026 289.064C371.026 289.52 371.378 289.872 371.842 289.872ZM372.434 300V291.36H371.258V300H372.434ZM382.513 296.008C382.601 292.96 381.097 291.12 378.537 291.12C376.041 291.12 374.449 292.888 374.449 295.72C374.449 298.456 376.065 300.24 378.585 300.24C380.257 300.24 381.657 299.384 382.345 297.872L381.249 297.448C380.713 298.528 379.769 299.112 378.537 299.112C376.817 299.112 375.801 297.984 375.705 296.008H382.513ZM378.569 292.2C380.177 292.2 381.097 293.16 381.281 295.024H375.729C375.913 293.208 376.905 292.2 378.569 292.2ZM387.608 300.232C389.728 300.232 391.016 299.24 391.016 297.608C391.016 296.272 390.272 295.656 387.888 295.048C385.848 294.536 385.36 294.216 385.36 293.528C385.36 292.712 386.208 292.168 387.432 292.192C388.728 292.216 389.632 292.84 389.8 293.856L391 293.64C390.824 292.136 389.4 291.12 387.448 291.12C385.496 291.12 384.168 292.112 384.168 293.584C384.168 294.792 384.888 295.36 387.232 295.992C389.424 296.584 389.792 296.824 389.792 297.624C389.792 298.568 388.984 299.16 387.672 299.16C386.328 299.16 385.352 298.536 385.104 297.552L383.904 297.752C384.2 299.312 385.584 300.232 387.608 300.232Z" fill="white"/>
<circle cx="546" cy="186" r="10" fill="white"/>
<path d="M542.25 186.625L545.25 188.5L549.75 183.5" stroke="#1BD47B" stroke-width="1.25" stroke-linecap="round" stroke-linejoin="round"/>
<path d="M572.608 192L576.576 180.48H575.352L571.816 190.664L568.304 180.48H567.08L571.048 192H572.608ZM578.304 181.872C578.768 181.872 579.128 181.52 579.128 181.064C579.128 180.6 578.768 180.248 578.304 180.248C577.84 180.248 577.488 180.6 577.488 181.064C577.488 181.52 577.84 181.872 578.304 181.872ZM578.896 192V183.36H577.72V192H578.896ZM588.974 188.008C589.062 184.96 587.558 183.12 584.998 183.12C582.502 183.12 580.91 184.888 580.91 187.72C580.91 190.456 582.526 192.24 585.046 192.24C586.718 192.24 588.118 191.384 588.806 189.872L587.71 189.448C587.174 190.528 586.23 191.112 584.998 191.112C583.278 191.112 582.262 189.984 582.166 188.008H588.974ZM585.03 184.2C586.638 184.2 587.558 185.16 587.742 187.024H582.19C582.374 185.208 583.366 184.2 585.03 184.2ZM593.397 192L595.549 185.12L597.709 192H598.733L601.373 183.36H600.205L598.141 190.072L596.085 183.36H595.013L592.957 190.072L590.909 183.36L589.733 183.352L592.373 192H593.397ZM609.793 192.24C611.505 192.24 612.769 191.416 613.417 189.88L612.233 189.528C611.801 190.568 610.961 191.112 609.793 191.112C607.937 191.112 607.001 189.752 606.977 187.68C607.001 185.664 607.881 184.248 609.793 184.248C610.921 184.248 611.857 184.848 612.265 185.88L613.417 185.512C612.937 184.032 611.545 183.12 609.801 183.12C607.217 183.12 605.761 184.96 605.729 187.68C605.761 190.344 607.177 192.24 609.793 192.24ZM618.538 192.24C621.098 192.24 622.634 190.392 622.634 187.672C622.634 185 621.13 183.12 618.538 183.12C616.01 183.12 614.45 184.952 614.45 187.672C614.45 190.352 615.962 192.24 618.538 192.24ZM618.538 191.112C616.666 191.112 615.698 189.752 615.698 187.672C615.698 185.656 616.602 184.248 618.538 184.248C620.442 184.248 621.386 185.592 621.386 187.672C621.386 189.712 620.458 191.112 618.538 191.112ZM633.111 183.128C631.959 183.128 630.999 183.672 630.495 184.584C630.031 183.64 629.111 183.128 627.975 183.128C626.951 183.128 626.079 183.568 625.543 184.272V183.36H624.487V192H625.671V186.424C625.671 185.072 626.471 184.184 627.671 184.184C628.863 184.184 629.663 185.032 629.663 186.408L629.655 192H630.815L630.823 186.424C630.823 184.816 631.855 184.184 632.839 184.184C633.975 184.184 634.807 184.992 634.807 186.328L634.799 192H635.975L635.983 186.104C635.983 184.28 634.855 183.128 633.111 183.128ZM642.082 183.12C640.802 183.12 639.834 183.656 639.202 184.552V183.36H638.146V195.84H639.33V190.968C639.954 191.76 640.866 192.24 642.034 192.24C644.458 192.24 645.866 190.264 645.866 187.672C645.866 185.096 644.45 183.12 642.082 183.12ZM641.914 191.144C640.074 191.144 639.202 189.672 639.202 187.672C639.202 185.64 640.09 184.216 641.89 184.216C643.746 184.216 644.618 185.72 644.618 187.672C644.618 189.64 643.714 191.144 641.914 191.144ZM654.27 184.848C653.814 183.728 652.662 183.12 651.086 183.12C649.182 183.12 647.966 184.016 647.566 185.56L648.71 185.896C649.038 184.744 649.886 184.232 651.07 184.232C652.71 184.232 653.358 184.984 653.374 186.544C652.222 186.704 650.606 186.888 649.438 187.168C648.15 187.512 647.238 188.264 647.238 189.68C647.238 191.056 648.23 192.24 650.19 192.24C651.662 192.24 652.806 191.664 653.478 190.568V192H654.526V186.632C654.526 185.992 654.478 185.352 654.27 184.848ZM650.326 191.224C648.934 191.224 648.414 190.432 648.414 189.68C648.414 188.744 649.174 188.328 649.91 188.112C650.862 187.848 652.222 187.712 653.358 187.576C653.358 187.968 653.342 188.528 653.246 188.952C653.022 190.256 651.974 191.224 650.326 191.224ZM660.665 183.144C659.425 183.144 658.401 183.624 657.761 184.56V183.36H656.697V192H657.881V187.392C657.881 185.44 658.777 184.264 660.441 184.264C662.249 184.264 662.945 185.688 662.945 187.592V192H664.129V187.248C664.129 185.304 663.257 183.144 660.665 183.144ZM666.38 183.36H665.132L668.645 191.984L667.22 195.84H668.396L673.036 183.36H671.837L669.213 190.464L666.38 183.36ZM682.213 181.232V180.24H681.109C680.445 180.24 679.733 180.304 679.213 180.872C678.741 181.384 678.677 182.056 678.677 182.72V183.36H677.181V184.368H678.677V192H679.853V184.368H682.213V183.36H679.853V182.592C679.853 181.656 680.293 181.232 681.189 181.232H682.213ZM689.677 187.968C689.677 189.92 688.781 191.096 687.117 191.096C685.309 191.096 684.613 189.672 684.613 187.768V183.36H683.429V188.112C683.429 190.056 684.301 192.216 686.893 192.216C688.133 192.216 689.157 191.736 689.797 190.8V192H690.853V183.36H689.677V187.968ZM697.145 183.144C695.905 183.144 694.881 183.624 694.241 184.56V183.36H693.177V192H694.361V187.392C694.361 185.44 695.257 184.264 696.921 184.264C698.729 184.264 699.425 185.688 699.425 187.592V192H700.609V187.248C700.609 185.304 699.737 183.144 697.145 183.144ZM708.774 184.376C708.142 183.592 707.222 183.12 706.022 183.12C703.654 183.12 702.238 185.096 702.238 187.672C702.238 190.264 703.646 192.24 706.07 192.24C707.326 192.24 708.278 191.688 708.902 190.792V192H709.958V180.48H708.774V184.376ZM706.19 191.144C704.39 191.144 703.486 189.64 703.486 187.672C703.486 185.72 704.358 184.216 706.214 184.216C708.014 184.216 708.902 185.64 708.902 187.672C708.902 189.672 708.03 191.144 706.19 191.144ZM718.851 184.848C718.395 183.728 717.243 183.12 715.667 183.12C713.763 183.12 712.547 184.016 712.147 185.56L713.291 185.896C713.619 184.744 714.467 184.232 715.651 184.232C717.291 184.232 717.939 184.984 717.955 186.544C716.803 186.704 715.187 186.888 714.019 187.168C712.731 187.512 711.819 188.264 711.819 189.68C711.819 191.056 712.811 192.24 714.771 192.24C716.243 192.24 717.387 191.664 718.059 190.568V192H719.107V186.632C719.107 185.992 719.059 185.352 718.851 184.848ZM714.907 191.224C713.515 191.224 712.995 190.432 712.995 189.68C712.995 188.744 713.755 188.328 714.491 188.112C715.443 187.848 716.803 187.712 717.939 187.576C717.939 187.968 717.923 188.528 717.827 188.952C717.603 190.256 716.555 191.224 714.907 191.224ZM729.901 183.128C728.749 183.128 727.789 183.672 727.285 184.584C726.821 183.64 725.901 183.128 724.765 183.128C723.741 183.128 722.869 183.568 722.333 184.272V183.36H721.277V192H722.461V186.424C722.461 185.072 723.261 184.184 724.461 184.184C725.653 184.184 726.453 185.032 726.453 186.408L726.445 192H727.605L727.613 186.424C727.613 184.816 728.645 184.184 729.629 184.184C730.765 184.184 731.597 184.992 731.597 186.328L731.589 192H732.765L732.773 186.104C732.773 184.28 731.645 183.128 729.901 183.128ZM742.466 188.008C742.554 184.96 741.05 183.12 738.49 183.12C735.994 183.12 734.402 184.888 734.402 187.72C734.402 190.456 736.018 192.24 738.538 192.24C740.21 192.24 741.61 191.384 742.298 189.872L741.202 189.448C740.666 190.528 739.722 191.112 738.49 191.112C736.77 191.112 735.754 189.984 735.658 188.008H742.466ZM738.522 184.2C740.13 184.2 741.05 185.16 741.234 187.024H735.682C735.866 185.208 736.858 184.2 738.522 184.2ZM748.062 183.144C746.822 183.144 745.798 183.624 745.158 184.56V183.36H744.094V192H745.278V187.392C745.278 185.44 746.174 184.264 747.838 184.264C749.646 184.264 750.342 185.688 750.342 187.592V192H751.526V187.248C751.526 185.304 750.654 183.144 748.062 183.144ZM758.403 184.368V183.36H755.755V180.96H754.587V183.36H752.739V184.368H754.587V188.872C754.587 189.72 754.547 190.336 754.859 190.968C755.427 192.12 756.939 192.304 758.403 192V190.968C757.163 191.168 756.315 191.096 755.931 190.376C755.723 190.008 755.755 189.552 755.755 188.824V184.368H758.403ZM766.753 184.848C766.297 183.728 765.145 183.12 763.569 183.12C761.665 183.12 760.449 184.016 760.049 185.56L761.193 185.896C761.521 184.744 762.369 184.232 763.553 184.232C765.193 184.232 765.841 184.984 765.857 186.544C764.705 186.704 763.089 186.888 761.921 187.168C760.633 187.512 759.721 188.264 759.721 189.68C759.721 191.056 760.713 192.24 762.673 192.24C764.145 192.24 765.289 191.664 765.961 190.568V192H767.009V186.632C767.009 185.992 766.961 185.352 766.753 184.848ZM762.809 191.224C761.417 191.224 760.897 190.432 760.897 189.68C760.897 188.744 761.657 188.328 762.393 188.112C763.345 187.848 764.705 187.712 765.841 187.576C765.841 187.968 765.825 188.528 765.729 188.952C765.505 190.256 764.457 191.224 762.809 191.224ZM770.523 192V180.24H769.347V192H770.523ZM776.242 192.232C778.362 192.232 779.65 191.24 779.65 189.608C779.65 188.272 778.906 187.656 776.522 187.048C774.482 186.536 773.994 186.216 773.994 185.528C773.994 184.712 774.842 184.168 776.066 184.192C777.362 184.216 778.266 184.84 778.434 185.856L779.634 185.64C779.458 184.136 778.034 183.12 776.082 183.12C774.13 183.12 772.802 184.112 772.802 185.584C772.802 186.792 773.522 187.36 775.866 187.992C778.058 188.584 778.426 188.824 778.426 189.624C778.426 190.568 777.618 191.16 776.306 191.16C774.962 191.16 773.986 190.536 773.738 189.552L772.538 189.752C772.834 191.312 774.218 192.232 776.242 192.232Z" fill="white"/>
<circle cx="546" cy="230" r="10" fill="white"/>
<path d="M542.25 230.625L545.25 232.5L549.75 227.5" stroke="#1BD47B" stroke-width="1.25" stroke-linecap="round" stroke-linejoin="round"/>
<path d="M571.608 236L575.576 224.48H574.352L570.816 234.664L567.304 224.48H566.08L570.048 236H571.608ZM577.304 225.872C577.768 225.872 578.128 225.52 578.128 225.064C578.128 224.6 577.768 224.248 577.304 224.248C576.84 224.248 576.488 224.6 576.488 225.064C576.488 225.52 576.84 225.872 577.304 225.872ZM577.896 236V227.36H576.72V236H577.896ZM587.974 232.008C588.062 228.96 586.558 227.12 583.998 227.12C581.502 227.12 579.91 228.888 579.91 231.72C579.91 234.456 581.526 236.24 584.046 236.24C585.718 236.24 587.118 235.384 587.806 233.872L586.71 233.448C586.174 234.528 585.23 235.112 583.998 235.112C582.278 235.112 581.262 233.984 581.166 232.008H587.974ZM584.03 228.2C585.638 228.2 586.558 229.16 586.742 231.024H581.19C581.374 229.208 582.366 228.2 584.03 228.2ZM592.397 236L594.549 229.12L596.709 236H597.733L600.373 227.36H599.205L597.141 234.072L595.085 227.36H594.013L591.957 234.072L589.909 227.36L588.733 227.352L591.373 236H592.397ZM606.937 227.928C606.689 228.12 606.449 228.4 606.265 228.728V227.36H605.209V236H606.385V231.688C606.385 230.656 606.529 229.536 607.393 228.856C608.017 228.344 608.817 228.312 609.457 228.464V227.36C608.697 227.168 607.617 227.336 606.937 227.928ZM617.311 228.848C616.855 227.728 615.703 227.12 614.127 227.12C612.223 227.12 611.007 228.016 610.607 229.56L611.751 229.896C612.079 228.744 612.927 228.232 614.111 228.232C615.751 228.232 616.399 228.984 616.415 230.544C615.263 230.704 613.647 230.888 612.479 231.168C611.191 231.512 610.279 232.264 610.279 233.68C610.279 235.056 611.271 236.24 613.231 236.24C614.703 236.24 615.847 235.664 616.519 234.568V236H617.567V230.632C617.567 229.992 617.519 229.352 617.311 228.848ZM613.367 235.224C611.975 235.224 611.455 234.432 611.455 233.68C611.455 232.744 612.215 232.328 612.951 232.112C613.903 231.848 615.263 231.712 616.399 231.576C616.399 231.968 616.383 232.528 616.287 232.952C616.063 234.256 615.015 235.224 613.367 235.224ZM623.705 227.144C622.465 227.144 621.441 227.624 620.801 228.56V227.36H619.737V236H620.921V231.392C620.921 229.44 621.817 228.264 623.481 228.264C625.289 228.264 625.985 229.688 625.985 231.592V236H627.169V231.248C627.169 229.304 626.297 227.144 623.705 227.144ZM636.117 236L632.093 231.024L635.909 227.36H634.445L630.469 231.12V224.48H629.341L629.333 236H630.469V232.584L631.293 231.792L634.717 236H636.117ZM638.119 225.872C638.583 225.872 638.943 225.52 638.943 225.064C638.943 224.6 638.583 224.248 638.119 224.248C637.655 224.248 637.303 224.6 637.303 225.064C637.303 225.52 637.655 225.872 638.119 225.872ZM638.711 236V227.36H637.535V236H638.711ZM645.165 227.144C643.925 227.144 642.901 227.624 642.261 228.56V227.36H641.197V236H642.381V231.392C642.381 229.44 643.277 228.264 644.941 228.264C646.749 228.264 647.445 229.688 647.445 231.592V236H648.629V231.248C648.629 229.304 647.757 227.144 645.165 227.144ZM656.985 228.552C656.353 227.656 655.385 227.12 654.105 227.12C651.737 227.12 650.321 229.096 650.321 231.672C650.321 234.264 651.729 236.24 654.153 236.24C655.321 236.24 656.225 235.76 656.849 234.976V235.864C656.857 237.896 656.105 238.936 654.233 238.936C653.321 238.936 652.361 238.544 651.889 237.584L650.825 238.176C651.561 239.52 652.905 240.08 654.233 240.08C656.345 240.08 657.625 239.184 657.937 237.256C658.009 236.816 658.033 236.376 658.033 235.88V227.36H656.985V228.552ZM654.273 235.144C652.473 235.144 651.569 233.64 651.569 231.672C651.569 229.72 652.441 228.216 654.297 228.216C656.097 228.216 656.985 229.64 656.985 231.672C656.985 233.672 656.113 235.144 654.273 235.144ZM667.625 227.144C666.385 227.144 665.361 227.624 664.721 228.56V224.48H663.657V236H664.841V231.392C664.841 229.44 665.737 228.264 667.401 228.264C669.209 228.264 669.905 229.688 669.905 231.592V236H671.089V231.248C671.089 229.304 670.217 227.144 667.625 227.144ZM674.005 225.872C674.469 225.872 674.829 225.52 674.829 225.064C674.829 224.6 674.469 224.248 674.005 224.248C673.541 224.248 673.189 224.6 673.189 225.064C673.189 225.52 673.541 225.872 674.005 225.872ZM674.597 236V227.36H673.421V236H674.597ZM680.315 236.232C682.435 236.232 683.723 235.24 683.723 233.608C683.723 232.272 682.979 231.656 680.595 231.048C678.555 230.536 678.067 230.216 678.067 229.528C678.067 228.712 678.915 228.168 680.139 228.192C681.435 228.216 682.339 228.84 682.507 229.856L683.707 229.64C683.531 228.136 682.107 227.12 680.155 227.12C678.203 227.12 676.875 228.112 676.875 229.584C676.875 230.792 677.595 231.36 679.939 231.992C682.131 232.584 682.499 232.824 682.499 233.624C682.499 234.568 681.691 235.16 680.379 235.16C679.035 235.16 678.059 234.536 677.811 233.552L676.611 233.752C676.907 235.312 678.291 236.232 680.315 236.232ZM690.298 228.368V227.36H687.65V224.96H686.482V227.36H684.634V228.368H686.482V232.872C686.482 233.72 686.442 234.336 686.754 234.968C687.322 236.12 688.834 236.304 690.298 236V234.968C689.058 235.168 688.21 235.096 687.826 234.376C687.618 234.008 687.65 233.552 687.65 232.824V228.368H690.298ZM695.391 236.24C697.951 236.24 699.487 234.392 699.487 231.672C699.487 229 697.983 227.12 695.391 227.12C692.863 227.12 691.303 228.952 691.303 231.672C691.303 234.352 692.815 236.24 695.391 236.24ZM695.391 235.112C693.519 235.112 692.551 233.752 692.551 231.672C692.551 229.656 693.455 228.248 695.391 228.248C697.295 228.248 698.239 229.592 698.239 231.672C698.239 233.712 697.311 235.112 695.391 235.112ZM703.076 227.928C702.828 228.12 702.588 228.4 702.404 228.728V227.36H701.348V236H702.524V231.688C702.524 230.656 702.668 229.536 703.532 228.856C704.156 228.344 704.956 228.312 705.596 228.464V227.36C704.836 227.168 703.756 227.336 703.076 227.928ZM707.492 227.36H706.244L709.756 235.984L708.332 239.84H709.508L714.148 227.36H712.948L710.324 234.464L707.492 227.36Z" fill="white"/>
</svg>
