<svg width="343" height="326" viewBox="0 0 343 326" fill="none" xmlns="http://www.w3.org/2000/svg">
<rect width="343" height="326" rx="8" fill="#1BD47B"/>
<path d="M27.136 27.832C28.048 28.224 28.752 28.796 29.248 29.548C29.752 30.292 30.004 31.16 30.004 32.152C30.004 33.136 29.792 33.996 29.368 34.732C28.944 35.46 28.348 36.02 27.58 36.412C26.812 36.804 25.92 37 24.904 37H17.68V19.72H24.352C25.296 19.72 26.132 19.92 26.86 20.32C27.588 20.712 28.152 21.248 28.552 21.928C28.96 22.608 29.164 23.356 29.164 24.172C29.164 24.956 28.98 25.672 28.612 26.32C28.252 26.968 27.76 27.472 27.136 27.832ZM19.456 21.388V27.088H24.34C24.892 27.088 25.396 26.964 25.852 26.716C26.308 26.46 26.668 26.108 26.932 25.66C27.204 25.212 27.34 24.708 27.34 24.148C27.34 23.612 27.212 23.136 26.956 22.72C26.7 22.296 26.344 21.968 25.888 21.736C25.432 21.504 24.916 21.388 24.34 21.388H19.456ZM24.472 35.308C25.176 35.308 25.808 35.184 26.368 34.936C26.928 34.68 27.368 34.316 27.688 33.844C28.016 33.372 28.18 32.816 28.18 32.176C28.18 31.544 28.032 30.968 27.736 30.448C27.44 29.928 27.036 29.516 26.524 29.212C26.012 28.908 25.436 28.756 24.796 28.756H19.456V35.308H24.472ZM42.2628 26.272C42.5188 26.896 42.6468 27.788 42.6468 28.948V37H41.0748V34.852C40.5708 35.676 39.8988 36.3 39.0588 36.724C38.2188 37.148 37.2468 37.36 36.1428 37.36C35.1988 37.36 34.3908 37.188 33.7188 36.844C33.0548 36.5 32.5548 36.036 32.2188 35.452C31.8828 34.868 31.7148 34.224 31.7148 33.52C31.7148 32.512 32.0068 31.7 32.5908 31.084C33.1748 30.468 33.9828 30.024 35.0148 29.752C35.6468 29.6 36.3508 29.464 37.1268 29.344C37.9108 29.224 38.8148 29.096 39.8388 28.96L40.9188 28.816C40.9028 27.624 40.6228 26.748 40.0788 26.188C39.5428 25.628 38.6708 25.348 37.4628 25.348C36.5508 25.348 35.7908 25.552 35.1828 25.96C34.5828 26.368 34.1628 26.996 33.9228 27.844L32.2068 27.34C32.5108 26.172 33.1108 25.272 34.0068 24.64C34.9108 24 36.0708 23.68 37.4868 23.68C38.6708 23.68 39.6748 23.904 40.4988 24.352C41.3308 24.8 41.9188 25.44 42.2628 26.272ZM36.3468 35.836C37.1468 35.836 37.8588 35.692 38.4828 35.404C39.1068 35.108 39.6068 34.704 39.9828 34.192C40.3668 33.672 40.6148 33.084 40.7268 32.428C40.8388 31.932 40.8948 31.244 40.8948 30.364C40.5828 30.396 40.3588 30.424 40.2228 30.448C39.1348 30.576 38.2508 30.692 37.5708 30.796C36.8908 30.892 36.2748 31.016 35.7228 31.168C34.2268 31.608 33.4788 32.392 33.4788 33.52C33.4788 33.92 33.5748 34.296 33.7668 34.648C33.9668 35 34.2828 35.288 34.7148 35.512C35.1468 35.728 35.6908 35.836 36.3468 35.836ZM50.6427 37.348C49.6347 37.348 48.7387 37.2 47.9547 36.904C47.1707 36.608 46.5307 36.184 46.0347 35.632C45.5467 35.072 45.2307 34.404 45.0867 33.628L46.8867 33.328C47.0707 34.072 47.5067 34.66 48.1947 35.092C48.8827 35.524 49.7307 35.74 50.7387 35.74C51.7227 35.74 52.4987 35.536 53.0667 35.128C53.6347 34.712 53.9187 34.148 53.9187 33.436C53.9187 33.02 53.8227 32.692 53.6307 32.452C53.4467 32.204 53.0947 31.976 52.5747 31.768C52.0547 31.56 51.2227 31.3 50.0787 30.988C48.8867 30.668 47.9627 30.348 47.3067 30.028C46.6507 29.7 46.1827 29.332 45.9027 28.924C45.6227 28.508 45.4827 27.992 45.4827 27.376C45.4827 26.648 45.6867 26.004 46.0947 25.444C46.5107 24.884 47.0907 24.452 47.8347 24.148C48.5787 23.836 49.4347 23.68 50.4027 23.68C51.3707 23.68 52.2427 23.84 53.0187 24.16C53.7947 24.472 54.4187 24.916 54.8907 25.492C55.3627 26.06 55.6427 26.716 55.7307 27.46L53.9307 27.784C53.8027 27.008 53.4107 26.4 52.7547 25.96C52.0987 25.512 51.2667 25.288 50.2587 25.288C49.6747 25.288 49.1547 25.372 48.6987 25.54C48.2507 25.708 47.8987 25.944 47.6427 26.248C47.3947 26.552 47.2707 26.9 47.2707 27.292C47.2707 27.652 47.3747 27.952 47.5827 28.192C47.7987 28.424 48.1707 28.648 48.6987 28.864C49.2347 29.072 50.0227 29.308 51.0627 29.572C52.2787 29.884 53.2187 30.208 53.8827 30.544C54.5547 30.872 55.0347 31.264 55.3227 31.72C55.6107 32.168 55.7547 32.732 55.7547 33.412C55.7547 34.22 55.5507 34.92 55.1427 35.512C54.7347 36.104 54.1467 36.56 53.3787 36.88C52.6107 37.192 51.6987 37.348 50.6427 37.348ZM60.4561 37H58.6921V24.04H60.4561V37ZM59.5681 21.808C59.2241 21.808 58.9321 21.692 58.6921 21.46C58.4601 21.228 58.3441 20.94 58.3441 20.596C58.3441 20.244 58.4601 19.952 58.6921 19.72C58.9321 19.488 59.2241 19.372 59.5681 19.372C59.9201 19.372 60.2121 19.492 60.4441 19.732C60.6841 19.964 60.8041 20.252 60.8041 20.596C60.8041 20.94 60.6841 21.228 60.4441 21.46C60.2121 21.692 59.9201 21.808 59.5681 21.808ZM69.4656 37.36C68.1856 37.36 67.0896 37.072 66.1776 36.496C65.2736 35.92 64.5816 35.116 64.1016 34.084C63.6296 33.052 63.3856 31.864 63.3696 30.52C63.3856 29.152 63.6336 27.956 64.1136 26.932C64.5936 25.9 65.2896 25.1 66.2016 24.532C67.1136 23.964 68.2056 23.68 69.4776 23.68C70.3416 23.68 71.1416 23.824 71.8776 24.112C72.6136 24.4 73.2416 24.816 73.7616 25.36C74.2816 25.896 74.6616 26.532 74.9016 27.268L73.1736 27.82C72.8696 27.052 72.3856 26.452 71.7216 26.02C71.0656 25.588 70.3136 25.372 69.4656 25.372C68.0816 25.372 67.0336 25.836 66.3216 26.764C65.6176 27.692 65.2576 28.944 65.2416 30.52C65.2576 32.112 65.6256 33.368 66.3456 34.288C67.0656 35.208 68.1056 35.668 69.4656 35.668C70.3456 35.668 71.0936 35.468 71.7096 35.068C72.3336 34.66 72.8056 34.068 73.1256 33.292L74.9016 33.82C74.4136 34.972 73.7056 35.852 72.7776 36.46C71.8496 37.06 70.7456 37.36 69.4656 37.36Z" fill="white"/>
<path d="M18.296 82H17.12V70.48H23.736V71.656H18.296V75.656H22.776V76.824H18.296V82ZM28.5561 82.24C27.7135 82.24 26.9828 82.048 26.3641 81.664C25.7508 81.2747 25.2815 80.736 24.9561 80.048C24.6308 79.36 24.4681 78.568 24.4681 77.672C24.4681 76.7707 24.6335 75.976 24.9641 75.288C25.2948 74.6 25.7668 74.0667 26.3801 73.688C26.9988 73.3093 27.7241 73.12 28.5561 73.12C29.4041 73.12 30.1348 73.312 30.7481 73.696C31.3668 74.08 31.8388 74.616 32.1641 75.304C32.4895 75.992 32.6521 76.7813 32.6521 77.672C32.6521 78.5787 32.4868 79.376 32.1561 80.064C31.8308 80.752 31.3588 81.288 30.7401 81.672C30.1268 82.0507 29.3988 82.24 28.5561 82.24ZM28.5561 81.112C29.1801 81.112 29.7055 80.9707 30.1321 80.688C30.5588 80.4 30.8761 80 31.0841 79.488C31.2975 78.9707 31.4041 78.3653 31.4041 77.672C31.4041 76.6053 31.1615 75.768 30.6761 75.16C30.1961 74.552 29.4895 74.248 28.5561 74.248C27.6175 74.248 26.9081 74.5573 26.4281 75.176C25.9535 75.7893 25.7161 76.6213 25.7161 77.672C25.7161 78.3707 25.8228 78.9787 26.0361 79.496C26.2548 80.0133 26.5748 80.4133 26.9961 80.696C27.4228 80.9733 27.9428 81.112 28.5561 81.112ZM36.1449 73.928C36.3849 73.7147 36.6702 73.5547 37.0009 73.448C37.3369 73.3413 37.6755 73.288 38.0169 73.288C38.2462 73.288 38.4622 73.312 38.6649 73.36V74.464C38.4355 74.4107 38.2142 74.384 38.0009 74.384C37.4462 74.384 36.9795 74.5413 36.6009 74.856C36.2062 75.1653 35.9395 75.56 35.8009 76.04C35.6622 76.52 35.5929 77.0693 35.5929 77.688V82H34.4169V73.36H35.4729V74.728C35.6595 74.3973 35.8835 74.1307 36.1449 73.928ZM47.3136 73.12C48.0816 73.12 48.751 73.3173 49.3216 73.712C49.8976 74.1067 50.3376 74.6507 50.6416 75.344C50.9456 76.032 51.0976 76.808 51.0976 77.672C51.0976 78.5413 50.9456 79.3227 50.6416 80.016C50.3376 80.7093 49.895 81.2533 49.3136 81.648C48.7376 82.0427 48.055 82.24 47.2656 82.24C46.6523 82.24 46.1056 82.1147 45.6256 81.864C45.151 81.608 44.7536 81.2507 44.4336 80.792V82H43.3776V70.48H44.5616V74.376C44.887 73.976 45.279 73.6667 45.7376 73.448C46.2016 73.2293 46.727 73.12 47.3136 73.12ZM47.1456 81.144C47.727 81.144 48.2203 80.9947 48.6256 80.696C49.031 80.3973 49.335 79.9867 49.5376 79.464C49.7456 78.936 49.8496 78.3387 49.8496 77.672C49.8496 77.0053 49.7483 76.4133 49.5456 75.896C49.3483 75.3733 49.0443 74.9627 48.6336 74.664C48.223 74.3653 47.719 74.216 47.1216 74.216C46.535 74.216 46.039 74.36 45.6336 74.648C45.2336 74.936 44.9323 75.3413 44.7296 75.864C44.5323 76.3813 44.4336 76.984 44.4336 77.672C44.4336 78.3547 44.5323 78.9573 44.7296 79.48C44.9323 79.9973 45.2363 80.4053 45.6416 80.704C46.047 80.9973 46.5483 81.144 47.1456 81.144ZM59.4064 74.848C59.577 75.264 59.6624 75.8587 59.6624 76.632V82H58.6144V80.568C58.2784 81.1173 57.8304 81.5333 57.2704 81.816C56.7104 82.0987 56.0624 82.24 55.3264 82.24C54.697 82.24 54.1584 82.1253 53.7104 81.896C53.2677 81.6667 52.9344 81.3573 52.7104 80.968C52.4864 80.5787 52.3744 80.1493 52.3744 79.68C52.3744 79.008 52.569 78.4667 52.9584 78.056C53.3477 77.6453 53.8864 77.3493 54.5744 77.168C54.9957 77.0667 55.465 76.976 55.9824 76.896C56.505 76.816 57.1077 76.7307 57.7904 76.64L58.5104 76.544C58.4997 75.7493 58.313 75.1653 57.9504 74.792C57.593 74.4187 57.0117 74.232 56.2064 74.232C55.5984 74.232 55.0917 74.368 54.6864 74.64C54.2864 74.912 54.0064 75.3307 53.8464 75.896L52.7024 75.56C52.905 74.7813 53.305 74.1813 53.9024 73.76C54.505 73.3333 55.2784 73.12 56.2224 73.12C57.0117 73.12 57.681 73.2693 58.2304 73.568C58.785 73.8667 59.177 74.2933 59.4064 74.848ZM55.4624 81.224C55.9957 81.224 56.4704 81.128 56.8864 80.936C57.3024 80.7387 57.6357 80.4693 57.8864 80.128C58.1424 79.7813 58.3077 79.3893 58.3824 78.952C58.457 78.6213 58.4944 78.1627 58.4944 77.576C58.2864 77.5973 58.137 77.616 58.0464 77.632C57.321 77.7173 56.7317 77.7947 56.2784 77.864C55.825 77.928 55.4144 78.0107 55.0464 78.112C54.049 78.4053 53.5504 78.928 53.5504 79.68C53.5504 79.9467 53.6144 80.1973 53.7424 80.432C53.8757 80.6667 54.0864 80.8587 54.3744 81.008C54.6624 81.152 55.025 81.224 55.4624 81.224ZM64.969 82.232C64.297 82.232 63.6997 82.1333 63.177 81.936C62.6543 81.7387 62.2277 81.456 61.897 81.088C61.5717 80.7147 61.361 80.2693 61.265 79.752L62.465 79.552C62.5877 80.048 62.8783 80.44 63.337 80.728C63.7957 81.016 64.361 81.16 65.033 81.16C65.689 81.16 66.2063 81.024 66.585 80.752C66.9637 80.4747 67.153 80.0987 67.153 79.624C67.153 79.3467 67.089 79.128 66.961 78.968C66.8383 78.8027 66.6037 78.6507 66.257 78.512C65.9103 78.3733 65.3557 78.2 64.593 77.992C63.7983 77.7787 63.1823 77.5653 62.745 77.352C62.3077 77.1333 61.9957 76.888 61.809 76.616C61.6223 76.3387 61.529 75.9947 61.529 75.584C61.529 75.0987 61.665 74.6693 61.937 74.296C62.2143 73.9227 62.601 73.6347 63.097 73.432C63.593 73.224 64.1637 73.12 64.809 73.12C65.4543 73.12 66.0357 73.2267 66.553 73.44C67.0703 73.648 67.4863 73.944 67.801 74.328C68.1157 74.7067 68.3023 75.144 68.361 75.64L67.161 75.856C67.0757 75.3387 66.8143 74.9333 66.377 74.64C65.9397 74.3413 65.385 74.192 64.713 74.192C64.3237 74.192 63.977 74.248 63.673 74.36C63.3743 74.472 63.1397 74.6293 62.969 74.832C62.8037 75.0347 62.721 75.2667 62.721 75.528C62.721 75.768 62.7903 75.968 62.929 76.128C63.073 76.2827 63.321 76.432 63.673 76.576C64.0303 76.7147 64.5557 76.872 65.249 77.048C66.0597 77.256 66.6863 77.472 67.129 77.696C67.577 77.9147 67.897 78.176 68.089 78.48C68.281 78.7787 68.377 79.1547 68.377 79.608C68.377 80.1467 68.241 80.6133 67.969 81.008C67.697 81.4027 67.305 81.7067 66.793 81.92C66.281 82.128 65.673 82.232 64.969 82.232ZM71.4873 82H70.3113V73.36H71.4873V82ZM70.8953 71.872C70.6659 71.872 70.4713 71.7947 70.3113 71.64C70.1566 71.4853 70.0793 71.2933 70.0793 71.064C70.0793 70.8293 70.1566 70.6347 70.3113 70.48C70.4713 70.3253 70.6659 70.248 70.8953 70.248C71.1299 70.248 71.3246 70.328 71.4793 70.488C71.6393 70.6427 71.7193 70.8347 71.7193 71.064C71.7193 71.2933 71.6393 71.4853 71.4793 71.64C71.3246 71.7947 71.1299 71.872 70.8953 71.872ZM77.4696 82.24C76.6163 82.24 75.8856 82.048 75.2776 81.664C74.675 81.28 74.2136 80.744 73.8936 80.056C73.579 79.368 73.4163 78.576 73.4056 77.68C73.4163 76.768 73.5816 75.9707 73.9016 75.288C74.2216 74.6 74.6856 74.0667 75.2936 73.688C75.9016 73.3093 76.6296 73.12 77.4776 73.12C78.0536 73.12 78.587 73.216 79.0776 73.408C79.5683 73.6 79.987 73.8773 80.3336 74.24C80.6803 74.5973 80.9336 75.0213 81.0936 75.512L79.9416 75.88C79.739 75.368 79.4163 74.968 78.9736 74.68C78.5363 74.392 78.035 74.248 77.4696 74.248C76.547 74.248 75.8483 74.5573 75.3736 75.176C74.9043 75.7947 74.6643 76.6293 74.6536 77.68C74.6643 78.7413 74.9096 79.5787 75.3896 80.192C75.8696 80.8053 76.563 81.112 77.4696 81.112C78.0563 81.112 78.555 80.9787 78.9656 80.712C79.3816 80.44 79.6963 80.0453 79.9096 79.528L81.0936 79.88C80.7683 80.648 80.2963 81.2347 79.6776 81.64C79.059 82.04 78.323 82.24 77.4696 82.24ZM92.0361 73.36H93.2121V82H92.1561V80.8C91.8361 81.264 91.4281 81.616 90.9321 81.856C90.4361 82.096 89.8761 82.216 89.2521 82.216C88.4361 82.216 87.7695 82.0187 87.2521 81.624C86.7348 81.2293 86.3615 80.7227 86.1321 80.104C85.9028 79.48 85.7881 78.816 85.7881 78.112V73.36H86.9721V77.768C86.9721 78.7867 87.1748 79.5973 87.5801 80.2C87.9855 80.7973 88.6175 81.096 89.4761 81.096C90.2975 81.096 90.9295 80.8213 91.3721 80.272C91.8148 79.7227 92.0361 78.9547 92.0361 77.968V73.36ZM98.6721 82.232C98.0001 82.232 97.4028 82.1333 96.8801 81.936C96.3575 81.7387 95.9308 81.456 95.6001 81.088C95.2748 80.7147 95.0641 80.2693 94.9681 79.752L96.1681 79.552C96.2908 80.048 96.5815 80.44 97.0401 80.728C97.4988 81.016 98.0641 81.16 98.7361 81.16C99.3921 81.16 99.9095 81.024 100.288 80.752C100.667 80.4747 100.856 80.0987 100.856 79.624C100.856 79.3467 100.792 79.128 100.664 78.968C100.541 78.8027 100.307 78.6507 99.9601 78.512C99.6135 78.3733 99.0588 78.2 98.2961 77.992C97.5015 77.7787 96.8855 77.5653 96.4481 77.352C96.0108 77.1333 95.6988 76.888 95.5121 76.616C95.3255 76.3387 95.2321 75.9947 95.2321 75.584C95.2321 75.0987 95.3681 74.6693 95.6401 74.296C95.9175 73.9227 96.3041 73.6347 96.8001 73.432C97.2961 73.224 97.8668 73.12 98.5121 73.12C99.1575 73.12 99.7388 73.2267 100.256 73.44C100.773 73.648 101.189 73.944 101.504 74.328C101.819 74.7067 102.005 75.144 102.064 75.64L100.864 75.856C100.779 75.3387 100.517 74.9333 100.08 74.64C99.6428 74.3413 99.0881 74.192 98.4161 74.192C98.0268 74.192 97.6801 74.248 97.3761 74.36C97.0775 74.472 96.8428 74.6293 96.6721 74.832C96.5068 75.0347 96.4241 75.2667 96.4241 75.528C96.4241 75.768 96.4935 75.968 96.6321 76.128C96.7761 76.2827 97.0241 76.432 97.3761 76.576C97.7335 76.7147 98.2588 76.872 98.9521 77.048C99.7628 77.256 100.389 77.472 100.832 77.696C101.28 77.9147 101.6 78.176 101.792 78.48C101.984 78.7787 102.08 79.1547 102.08 79.608C102.08 80.1467 101.944 80.6133 101.672 81.008C101.4 81.4027 101.008 81.7067 100.496 81.92C99.9841 82.128 99.3761 82.232 98.6721 82.232ZM104.63 78.008C104.678 79 104.948 79.7653 105.438 80.304C105.929 80.8427 106.604 81.112 107.462 81.112C108.076 81.112 108.614 80.9707 109.078 80.688C109.542 80.4 109.908 79.9867 110.174 79.448L111.27 79.872C110.929 80.624 110.428 81.208 109.766 81.624C109.105 82.0347 108.353 82.24 107.51 82.24C106.678 82.24 105.95 82.0533 105.326 81.68C104.702 81.3067 104.22 80.7813 103.878 80.104C103.542 79.4213 103.374 78.6267 103.374 77.72C103.374 76.7867 103.54 75.9733 103.87 75.28C104.206 74.5867 104.681 74.0533 105.294 73.68C105.913 73.3067 106.636 73.12 107.462 73.12C108.289 73.12 108.998 73.3067 109.59 73.68C110.188 74.048 110.644 74.5813 110.958 75.28C111.278 75.9733 111.438 76.8 111.438 77.76V78.008H104.63ZM107.494 74.2C106.668 74.2 106.009 74.4427 105.518 74.928C105.033 75.4133 104.745 76.112 104.654 77.024H110.206C110.121 76.0907 109.849 75.3867 109.39 74.912C108.932 74.4373 108.3 74.2 107.494 74.2ZM114.942 73.928C115.182 73.7147 115.467 73.5547 115.798 73.448C116.134 73.3413 116.472 73.288 116.814 73.288C117.043 73.288 117.259 73.312 117.462 73.36V74.464C117.232 74.4107 117.011 74.384 116.798 74.384C116.243 74.384 115.776 74.5413 115.398 74.856C115.003 75.1653 114.736 75.56 114.598 76.04C114.459 76.52 114.39 77.0693 114.39 77.688V82H113.214V73.36H114.27V74.728C114.456 74.3973 114.68 74.1307 114.942 73.928ZM121.891 82.232C121.219 82.232 120.622 82.1333 120.099 81.936C119.576 81.7387 119.15 81.456 118.819 81.088C118.494 80.7147 118.283 80.2693 118.187 79.752L119.387 79.552C119.51 80.048 119.8 80.44 120.259 80.728C120.718 81.016 121.283 81.16 121.955 81.16C122.611 81.16 123.128 81.024 123.507 80.752C123.886 80.4747 124.075 80.0987 124.075 79.624C124.075 79.3467 124.011 79.128 123.883 78.968C123.76 78.8027 123.526 78.6507 123.179 78.512C122.832 78.3733 122.278 78.2 121.515 77.992C120.72 77.7787 120.104 77.5653 119.667 77.352C119.23 77.1333 118.918 76.888 118.731 76.616C118.544 76.3387 118.451 75.9947 118.451 75.584C118.451 75.0987 118.587 74.6693 118.859 74.296C119.136 73.9227 119.523 73.6347 120.019 73.432C120.515 73.224 121.086 73.12 121.731 73.12C122.376 73.12 122.958 73.2267 123.475 73.44C123.992 73.648 124.408 73.944 124.723 74.328C125.038 74.7067 125.224 75.144 125.283 75.64L124.083 75.856C123.998 75.3387 123.736 74.9333 123.299 74.64C122.862 74.3413 122.307 74.192 121.635 74.192C121.246 74.192 120.899 74.248 120.595 74.36C120.296 74.472 120.062 74.6293 119.891 74.832C119.726 75.0347 119.643 75.2667 119.643 75.528C119.643 75.768 119.712 75.968 119.851 76.128C119.995 76.2827 120.243 76.432 120.595 76.576C120.952 76.7147 121.478 76.872 122.171 77.048C122.982 77.256 123.608 77.472 124.051 77.696C124.499 77.9147 124.819 78.176 125.011 78.48C125.203 78.7787 125.299 79.1547 125.299 79.608C125.299 80.1467 125.163 80.6133 124.891 81.008C124.619 81.4027 124.227 81.7067 123.715 81.92C123.203 82.128 122.595 82.232 121.891 82.232Z" fill="white"/>
<path d="M327 111H16V113H327V111Z" fill="white" mask="url(#path-2-inside-1_3930_48106)"/>
<circle cx="24" cy="139" r="8" fill="white"/>
<path d="M21 139.5L23.4 141L27 137" stroke="#1BD47B" stroke-width="1.25" stroke-linecap="round" stroke-linejoin="round"/>
<path d="M50.78 144V133.92H49.737L47.84 135.054V136.209L49.737 135.068V144H50.78ZM58.3071 139.772C59.2871 138.897 59.7351 138.197 59.7351 136.93C59.7351 135.131 58.3421 133.71 56.5081 133.71C54.6391 133.71 53.2181 135.075 53.2181 136.916H54.2681C54.2541 135.733 55.2061 134.697 56.4941 134.697C57.7331 134.697 58.6921 135.677 58.6921 136.923C58.6921 137.623 58.4961 138.239 57.7191 138.939L53.1621 143.055L53.1551 143.993H59.7351V143.006H54.7231L58.3071 139.772ZM67.0432 144.203C68.8982 144.203 70.0252 143.335 70.0252 141.907C70.0252 140.738 69.3742 140.199 67.2882 139.667C65.5032 139.219 65.0762 138.939 65.0762 138.337C65.0762 137.623 65.8182 137.147 66.8892 137.168C68.0232 137.189 68.8142 137.735 68.9612 138.624L70.0112 138.435C69.8572 137.119 68.6112 136.23 66.9032 136.23C65.1952 136.23 64.0332 137.098 64.0332 138.386C64.0332 139.443 64.6632 139.94 66.7142 140.493C68.6322 141.011 68.9542 141.221 68.9542 141.921C68.9542 142.747 68.2472 143.265 67.0992 143.265C65.9232 143.265 65.0692 142.719 64.8522 141.858L63.8022 142.033C64.0612 143.398 65.2722 144.203 67.0432 144.203ZM75.6937 137.322V136.44H73.3767V134.34H72.3547V136.44H70.7377V137.322H72.3547V141.263C72.3547 142.005 72.3197 142.544 72.5927 143.097C73.0897 144.105 74.4127 144.266 75.6937 144V143.097C74.6087 143.272 73.8667 143.209 73.5307 142.579C73.3487 142.257 73.3767 141.858 73.3767 141.221V137.322H75.6937ZM80.0667 144.21C82.3067 144.21 83.6507 142.593 83.6507 140.213C83.6507 137.875 82.3347 136.23 80.0667 136.23C77.8547 136.23 76.4897 137.833 76.4897 140.213C76.4897 142.558 77.8127 144.21 80.0667 144.21ZM80.0667 143.223C78.4287 143.223 77.5817 142.033 77.5817 140.213C77.5817 138.449 78.3727 137.217 80.0667 137.217C81.7327 137.217 82.5587 138.393 82.5587 140.213C82.5587 141.998 81.7467 143.223 80.0667 143.223ZM88.3308 144.21C89.8288 144.21 90.9348 143.489 91.5018 142.145L90.4658 141.837C90.0878 142.747 89.3528 143.223 88.3308 143.223C86.7068 143.223 85.8878 142.033 85.8668 140.22C85.8878 138.456 86.6578 137.217 88.3308 137.217C89.3178 137.217 90.1368 137.742 90.4938 138.645L91.5018 138.323C91.0818 137.028 89.8638 136.23 88.3378 136.23C86.0768 136.23 84.8028 137.84 84.7748 140.22C84.8028 142.551 86.0418 144.21 88.3308 144.21ZM98.8758 144L95.3548 139.646L98.6938 136.44H97.4128L93.9338 139.73V133.92H92.9468L92.9398 144H93.9338V141.011L94.6548 140.318L97.6508 144H98.8758ZM104.207 136.937C103.99 137.105 103.78 137.35 103.619 137.637V136.44H102.695V144H103.724V140.227C103.724 139.324 103.85 138.344 104.606 137.749C105.152 137.301 105.852 137.273 106.412 137.406V136.44C105.747 136.272 104.802 136.419 104.207 136.937ZM114.239 140.507C114.316 137.84 113 136.23 110.76 136.23C108.576 136.23 107.183 137.777 107.183 140.255C107.183 142.649 108.597 144.21 110.802 144.21C112.265 144.21 113.49 143.461 114.092 142.138L113.133 141.767C112.664 142.712 111.838 143.223 110.76 143.223C109.255 143.223 108.366 142.236 108.282 140.507H114.239ZM110.788 137.175C112.195 137.175 113 138.015 113.161 139.646H108.303C108.464 138.057 109.332 137.175 110.788 137.175ZM118.928 144.21C120.427 144.21 121.533 143.489 122.1 142.145L121.064 141.837C120.686 142.747 119.951 143.223 118.928 143.223C117.305 143.223 116.486 142.033 116.465 140.22C116.486 138.456 117.256 137.217 118.928 137.217C119.916 137.217 120.735 137.742 121.092 138.645L122.1 138.323C121.68 137.028 120.462 136.23 118.936 136.23C116.675 136.23 115.401 137.84 115.373 140.22C115.401 142.551 116.64 144.21 118.928 144.21ZM126.496 144.21C128.736 144.21 130.08 142.593 130.08 140.213C130.08 137.875 128.764 136.23 126.496 136.23C124.284 136.23 122.919 137.833 122.919 140.213C122.919 142.558 124.242 144.21 126.496 144.21ZM126.496 143.223C124.858 143.223 124.011 142.033 124.011 140.213C124.011 138.449 124.802 137.217 126.496 137.217C128.162 137.217 128.988 138.393 128.988 140.213C128.988 141.998 128.176 143.223 126.496 143.223ZM139.164 136.237C138.156 136.237 137.316 136.713 136.875 137.511C136.469 136.685 135.664 136.237 134.67 136.237C133.774 136.237 133.011 136.622 132.542 137.238V136.44H131.618V144H132.654V139.121C132.654 137.938 133.354 137.161 134.404 137.161C135.447 137.161 136.147 137.903 136.147 139.107L136.14 144H137.155L137.162 139.121C137.162 137.714 138.065 137.161 138.926 137.161C139.92 137.161 140.648 137.868 140.648 139.037L140.641 144H141.67L141.677 138.841C141.677 137.245 140.69 136.237 139.164 136.237ZM151.031 136.237C150.023 136.237 149.183 136.713 148.742 137.511C148.336 136.685 147.531 136.237 146.537 136.237C145.641 136.237 144.878 136.622 144.409 137.238V136.44H143.485V144H144.521V139.121C144.521 137.938 145.221 137.161 146.271 137.161C147.314 137.161 148.014 137.903 148.014 139.107L148.007 144H149.022L149.029 139.121C149.029 137.714 149.932 137.161 150.793 137.161C151.787 137.161 152.515 137.868 152.515 139.037L152.508 144H153.537L153.544 138.841C153.544 137.245 152.557 136.237 151.031 136.237ZM161.94 140.507C162.017 137.84 160.701 136.23 158.461 136.23C156.277 136.23 154.884 137.777 154.884 140.255C154.884 142.649 156.298 144.21 158.503 144.21C159.966 144.21 161.191 143.461 161.793 142.138L160.834 141.767C160.365 142.712 159.539 143.223 158.461 143.223C156.956 143.223 156.067 142.236 155.983 140.507H161.94ZM158.489 137.175C159.896 137.175 160.701 138.015 160.862 139.646H156.004C156.165 138.057 157.033 137.175 158.489 137.175ZM166.754 136.251C165.669 136.251 164.773 136.671 164.213 137.49V136.44H163.282V144H164.318V139.968C164.318 138.26 165.102 137.231 166.558 137.231C168.14 137.231 168.749 138.477 168.749 140.143V144H169.785V139.842C169.785 138.141 169.022 136.251 166.754 136.251ZM176.845 137.329C176.292 136.643 175.487 136.23 174.437 136.23C172.365 136.23 171.126 137.959 171.126 140.213C171.126 142.481 172.358 144.21 174.479 144.21C175.578 144.21 176.411 143.727 176.957 142.943V144H177.881V133.92H176.845V137.329ZM174.584 143.251C173.009 143.251 172.218 141.935 172.218 140.213C172.218 138.505 172.981 137.189 174.605 137.189C176.18 137.189 176.957 138.435 176.957 140.213C176.957 141.963 176.194 143.251 174.584 143.251ZM185.578 137.742C185.179 136.762 184.171 136.23 182.792 136.23C181.126 136.23 180.062 137.014 179.712 138.365L180.713 138.659C181 137.651 181.742 137.203 182.778 137.203C184.213 137.203 184.78 137.861 184.794 139.226C183.786 139.366 182.372 139.527 181.35 139.772C180.223 140.073 179.425 140.731 179.425 141.97C179.425 143.174 180.293 144.21 182.008 144.21C183.296 144.21 184.297 143.706 184.885 142.747V144H185.802V139.303C185.802 138.743 185.76 138.183 185.578 137.742ZM182.127 143.321C180.909 143.321 180.454 142.628 180.454 141.97C180.454 141.151 181.119 140.787 181.763 140.598C182.596 140.367 183.786 140.248 184.78 140.129C184.78 140.472 184.766 140.962 184.682 141.333C184.486 142.474 183.569 143.321 182.127 143.321ZM191.741 137.322V136.44H189.424V134.34H188.402V136.44H186.785V137.322H188.402V141.263C188.402 142.005 188.367 142.544 188.64 143.097C189.137 144.105 190.46 144.266 191.741 144V143.097C190.656 143.272 189.914 143.209 189.578 142.579C189.396 142.257 189.424 141.858 189.424 141.221V137.322H191.741ZM193.881 135.138C194.287 135.138 194.602 134.83 194.602 134.431C194.602 134.025 194.287 133.717 193.881 133.717C193.475 133.717 193.167 134.025 193.167 134.431C193.167 134.83 193.475 135.138 193.881 135.138ZM194.399 144V136.44H193.37V144H194.399ZM199.655 144.21C201.895 144.21 203.239 142.593 203.239 140.213C203.239 137.875 201.923 136.23 199.655 136.23C197.443 136.23 196.078 137.833 196.078 140.213C196.078 142.558 197.401 144.21 199.655 144.21ZM199.655 143.223C198.017 143.223 197.17 142.033 197.17 140.213C197.17 138.449 197.961 137.217 199.655 137.217C201.321 137.217 202.147 138.393 202.147 140.213C202.147 141.998 201.335 143.223 199.655 143.223ZM208.248 136.251C207.163 136.251 206.267 136.671 205.707 137.49V136.44H204.776V144H205.812V139.968C205.812 138.26 206.596 137.231 208.052 137.231C209.634 137.231 210.243 138.477 210.243 140.143V144H211.279V139.842C211.279 138.141 210.516 136.251 208.248 136.251Z" fill="white"/>
<circle cx="24" cy="180" r="8" fill="white"/>
<path d="M21 180.5L23.4 182L27 178" stroke="#1BD47B" stroke-width="1.25" stroke-linecap="round" stroke-linejoin="round"/>
<path d="M50.179 174L52.545 165.733L54.925 174H55.961L58.866 163.92H57.788L55.443 172.243L53.084 163.92L52.006 163.927L49.661 172.243L47.302 163.92H46.231L49.143 174H50.179ZM65.8797 170.507C65.9567 167.84 64.6407 166.23 62.4007 166.23C60.2167 166.23 58.8237 167.777 58.8237 170.255C58.8237 172.649 60.2377 174.21 62.4427 174.21C63.9057 174.21 65.1307 173.461 65.7327 172.138L64.7737 171.767C64.3047 172.712 63.4787 173.223 62.4007 173.223C60.8957 173.223 60.0067 172.236 59.9227 170.507H65.8797ZM62.4287 167.175C63.8357 167.175 64.6407 168.015 64.8017 169.646H59.9437C60.1047 168.057 60.9727 167.175 62.4287 167.175ZM74.0691 170.507C74.1461 167.84 72.8301 166.23 70.5901 166.23C68.4061 166.23 67.0131 167.777 67.0131 170.255C67.0131 172.649 68.4271 174.21 70.6321 174.21C72.0951 174.21 73.3201 173.461 73.9221 172.138L72.9631 171.767C72.4941 172.712 71.6681 173.223 70.5901 173.223C69.0851 173.223 68.1961 172.236 68.1121 170.507H74.0691ZM70.6181 167.175C72.0251 167.175 72.8301 168.015 72.9911 169.646H68.1331C68.2941 168.057 69.1621 167.175 70.6181 167.175ZM81.5516 174L78.0306 169.646L81.3696 166.44H80.0886L76.6096 169.73V163.92H75.6226L75.6156 174H76.6096V171.011L77.3306 170.318L80.3266 174H81.5516ZM83.7369 174V163.71H82.7079V174H83.7369ZM86.1785 166.44H85.0865L88.1595 173.986L86.9135 177.36H87.9425L92.0025 166.44H90.9525L88.6565 172.656L86.1785 166.44ZM102.657 170.507C102.734 167.84 101.418 166.23 99.178 166.23C96.994 166.23 95.601 167.777 95.601 170.255C95.601 172.649 97.015 174.21 99.22 174.21C100.683 174.21 101.908 173.461 102.51 172.138L101.551 171.767C101.082 172.712 100.256 173.223 99.178 173.223C97.673 173.223 96.784 172.236 96.7 170.507H102.657ZM99.206 167.175C100.613 167.175 101.418 168.015 101.579 169.646H96.721C96.882 168.057 97.75 167.175 99.206 167.175ZM111.544 166.237C110.536 166.237 109.696 166.713 109.255 167.511C108.849 166.685 108.044 166.237 107.05 166.237C106.154 166.237 105.391 166.622 104.922 167.238V166.44H103.998V174H105.034V169.121C105.034 167.938 105.734 167.161 106.784 167.161C107.827 167.161 108.527 167.903 108.527 169.107L108.52 174H109.535L109.542 169.121C109.542 167.714 110.445 167.161 111.306 167.161C112.3 167.161 113.028 167.868 113.028 169.037L113.021 174H114.05L114.057 168.841C114.057 167.245 113.07 166.237 111.544 166.237ZM121.606 167.742C121.207 166.762 120.199 166.23 118.82 166.23C117.154 166.23 116.09 167.014 115.74 168.365L116.741 168.659C117.028 167.651 117.77 167.203 118.806 167.203C120.241 167.203 120.808 167.861 120.822 169.226C119.814 169.366 118.4 169.527 117.378 169.772C116.251 170.073 115.453 170.731 115.453 171.97C115.453 173.174 116.321 174.21 118.036 174.21C119.324 174.21 120.325 173.706 120.913 172.747V174H121.83V169.303C121.83 168.743 121.788 168.183 121.606 167.742ZM118.155 173.321C116.937 173.321 116.482 172.628 116.482 171.97C116.482 171.151 117.147 170.787 117.791 170.598C118.624 170.367 119.814 170.248 120.808 170.129C120.808 170.472 120.794 170.962 120.71 171.333C120.514 172.474 119.597 173.321 118.155 173.321ZM124.303 165.138C124.709 165.138 125.024 164.83 125.024 164.431C125.024 164.025 124.709 163.717 124.303 163.717C123.897 163.717 123.589 164.025 123.589 164.431C123.589 164.83 123.897 165.138 124.303 165.138ZM124.821 174V166.44H123.792V174H124.821ZM128.088 174V163.71H127.059V174H128.088ZM136.455 166.251C135.37 166.251 134.474 166.671 133.914 167.49V166.44H132.983V174H134.019V169.968C134.019 168.26 134.803 167.231 136.259 167.231C137.841 167.231 138.45 168.477 138.45 170.143V174H139.486V169.842C139.486 168.141 138.723 166.251 136.455 166.251ZM144.405 174.21C146.645 174.21 147.989 172.593 147.989 170.213C147.989 167.875 146.673 166.23 144.405 166.23C142.193 166.23 140.828 167.833 140.828 170.213C140.828 172.558 142.151 174.21 144.405 174.21ZM144.405 173.223C142.767 173.223 141.92 172.033 141.92 170.213C141.92 168.449 142.711 167.217 144.405 167.217C146.071 167.217 146.897 168.393 146.897 170.213C146.897 171.998 146.085 173.223 144.405 173.223ZM153.649 167.322V166.44H151.332V164.34H150.31V166.44H148.693V167.322H150.31V171.263C150.31 172.005 150.275 172.544 150.548 173.097C151.045 174.105 152.368 174.266 153.649 174V173.097C152.564 173.272 151.822 173.209 151.486 172.579C151.304 172.257 151.332 171.858 151.332 171.221V167.322H153.649ZM155.789 165.138C156.195 165.138 156.51 164.83 156.51 164.431C156.51 164.025 156.195 163.717 155.789 163.717C155.383 163.717 155.075 164.025 155.075 164.431C155.075 164.83 155.383 165.138 155.789 165.138ZM156.307 174V166.44H155.278V174H156.307ZM159.624 164.263C159.211 164.711 159.155 165.299 159.155 165.88V166.44H157.846V167.322H159.155V174H160.184V167.322H162.249V166.44H160.184V165.768C160.184 164.949 160.569 164.578 161.353 164.578H162.249V163.71H161.283C160.702 163.71 160.079 163.766 159.624 164.263ZM164.23 163.717C163.824 163.717 163.516 164.025 163.516 164.431C163.516 164.83 163.824 165.138 164.23 165.138C164.636 165.138 164.951 164.83 164.951 164.431C164.951 164.025 164.636 163.717 164.23 163.717ZM164.748 174V166.44H163.719V174H164.748ZM169.977 174.21C171.475 174.21 172.581 173.489 173.148 172.145L172.112 171.837C171.734 172.747 170.999 173.223 169.977 173.223C168.353 173.223 167.534 172.033 167.513 170.22C167.534 168.456 168.304 167.217 169.977 167.217C170.964 167.217 171.783 167.742 172.14 168.645L173.148 168.323C172.728 167.028 171.51 166.23 169.984 166.23C167.723 166.23 166.449 167.84 166.421 170.22C166.449 172.551 167.688 174.21 169.977 174.21ZM180.272 167.742C179.873 166.762 178.865 166.23 177.486 166.23C175.82 166.23 174.756 167.014 174.406 168.365L175.407 168.659C175.694 167.651 176.436 167.203 177.472 167.203C178.907 167.203 179.474 167.861 179.488 169.226C178.48 169.366 177.066 169.527 176.044 169.772C174.917 170.073 174.119 170.731 174.119 171.97C174.119 173.174 174.987 174.21 176.702 174.21C177.99 174.21 178.991 173.706 179.579 172.747V174H180.496V169.303C180.496 168.743 180.454 168.183 180.272 167.742ZM176.821 173.321C175.603 173.321 175.148 172.628 175.148 171.97C175.148 171.151 175.813 170.787 176.457 170.598C177.29 170.367 178.48 170.248 179.474 170.129C179.474 170.472 179.46 170.962 179.376 171.333C179.18 172.474 178.263 173.321 176.821 173.321ZM186.434 167.322V166.44H184.117V164.34H183.095V166.44H181.478V167.322H183.095V171.263C183.095 172.005 183.06 172.544 183.333 173.097C183.83 174.105 185.153 174.266 186.434 174V173.097C185.349 173.272 184.607 173.209 184.271 172.579C184.089 172.257 184.117 171.858 184.117 171.221V167.322H186.434ZM188.574 165.138C188.98 165.138 189.295 164.83 189.295 164.431C189.295 164.025 188.98 163.717 188.574 163.717C188.168 163.717 187.86 164.025 187.86 164.431C187.86 164.83 188.168 165.138 188.574 165.138ZM189.092 174V166.44H188.063V174H189.092ZM194.348 174.21C196.588 174.21 197.932 172.593 197.932 170.213C197.932 167.875 196.616 166.23 194.348 166.23C192.136 166.23 190.771 167.833 190.771 170.213C190.771 172.558 192.094 174.21 194.348 174.21ZM194.348 173.223C192.71 173.223 191.863 172.033 191.863 170.213C191.863 168.449 192.654 167.217 194.348 167.217C196.014 167.217 196.84 168.393 196.84 170.213C196.84 171.998 196.028 173.223 194.348 173.223ZM202.941 166.251C201.856 166.251 200.96 166.671 200.4 167.49V166.44H199.469V174H200.505V169.968C200.505 168.26 201.289 167.231 202.745 167.231C204.327 167.231 204.936 168.477 204.936 170.143V174H205.972V169.842C205.972 168.141 205.209 166.251 202.941 166.251ZM214.434 164.578V163.71H213.468C212.887 163.71 212.264 163.766 211.809 164.263C211.396 164.711 211.34 165.299 211.34 165.88V166.44H210.031V167.322H211.34V174H212.369V167.322H214.434V166.44H212.369V165.768C212.369 164.949 212.754 164.578 213.538 164.578H214.434ZM218.438 174.21C220.678 174.21 222.022 172.593 222.022 170.213C222.022 167.875 220.706 166.23 218.438 166.23C216.226 166.23 214.861 167.833 214.861 170.213C214.861 172.558 216.184 174.21 218.438 174.21ZM218.438 173.223C216.8 173.223 215.953 172.033 215.953 170.213C215.953 168.449 216.744 167.217 218.438 167.217C220.104 167.217 220.93 168.393 220.93 170.213C220.93 171.998 220.118 173.223 218.438 173.223ZM225.078 166.937C224.861 167.105 224.651 167.35 224.49 167.637V166.44H223.566V174H224.595V170.227C224.595 169.324 224.721 168.344 225.477 167.749C226.023 167.301 226.723 167.273 227.283 167.406V166.44C226.618 166.272 225.673 166.419 225.078 166.937ZM232.583 174V163.71H231.554V174H232.583ZM240.414 167.742C240.015 166.762 239.007 166.23 237.628 166.23C235.962 166.23 234.898 167.014 234.548 168.365L235.549 168.659C235.836 167.651 236.578 167.203 237.614 167.203C239.049 167.203 239.616 167.861 239.63 169.226C238.622 169.366 237.208 169.527 236.186 169.772C235.059 170.073 234.261 170.731 234.261 171.97C234.261 173.174 235.129 174.21 236.844 174.21C238.132 174.21 239.133 173.706 239.721 172.747V174H240.638V169.303C240.638 168.743 240.596 168.183 240.414 167.742ZM236.963 173.321C235.745 173.321 235.29 172.628 235.29 171.97C235.29 171.151 235.955 170.787 236.599 170.598C237.432 170.367 238.622 170.248 239.616 170.129C239.616 170.472 239.602 170.962 239.518 171.333C239.322 172.474 238.405 173.321 236.963 173.321ZM243.972 166.937C243.755 167.105 243.545 167.35 243.384 167.637V166.44H242.46V174H243.489V170.227C243.489 169.324 243.615 168.344 244.371 167.749C244.917 167.301 245.617 167.273 246.177 167.406V166.44C245.512 166.272 244.567 166.419 243.972 166.937ZM252.643 167.483C252.09 166.699 251.243 166.23 250.123 166.23C248.051 166.23 246.812 167.959 246.812 170.213C246.812 172.481 248.044 174.21 250.165 174.21C251.187 174.21 251.978 173.79 252.524 173.104V173.881C252.531 175.659 251.873 176.569 250.235 176.569C249.437 176.569 248.597 176.226 248.184 175.386L247.253 175.904C247.897 177.08 249.073 177.57 250.235 177.57C252.083 177.57 253.203 176.786 253.476 175.099C253.539 174.714 253.56 174.329 253.56 173.895V166.44H252.643V167.483ZM250.27 173.251C248.695 173.251 247.904 171.935 247.904 170.213C247.904 168.505 248.667 167.189 250.291 167.189C251.866 167.189 252.643 168.435 252.643 170.213C252.643 171.963 251.88 173.251 250.27 173.251ZM262.153 170.507C262.23 167.84 260.914 166.23 258.674 166.23C256.49 166.23 255.097 167.777 255.097 170.255C255.097 172.649 256.511 174.21 258.716 174.21C260.179 174.21 261.404 173.461 262.006 172.138L261.047 171.767C260.578 172.712 259.752 173.223 258.674 173.223C257.169 173.223 256.28 172.236 256.196 170.507H262.153ZM258.702 167.175C260.109 167.175 260.914 168.015 261.075 169.646H256.217C256.378 168.057 257.246 167.175 258.702 167.175ZM269.75 174.21C270.324 174.21 270.891 174.147 271.402 173.923C271.871 173.755 272.375 173.419 272.69 173.013L273.803 174.063L274.482 173.342L273.18 172.145C273.271 171.844 273.334 171.403 273.334 170.661V169.114H272.361L272.368 170.591C272.368 170.836 272.361 171.081 272.326 171.34L269.134 168.379C268.868 168.141 268.609 167.91 268.406 167.686C268.042 167.259 267.86 166.958 267.86 166.384C267.86 165.719 268.14 165.215 268.7 164.935C269.022 164.781 269.393 164.704 269.778 164.704C270.247 164.704 270.73 164.809 271.087 165.082C271.304 165.243 271.472 165.453 271.577 165.719L272.571 165.425C272.424 165.026 272.158 164.641 271.808 164.368C271.29 163.92 270.52 163.717 269.764 163.717C269.274 163.717 268.763 163.801 268.287 164.011C267.356 164.431 266.796 165.355 266.796 166.391C266.796 167.294 267.174 167.819 267.874 168.547C267.51 168.701 267.153 168.925 266.887 169.254C266.425 169.8 266.222 170.535 266.229 171.242C266.257 171.991 266.488 172.67 266.992 173.209C267.636 173.895 268.623 174.21 269.75 174.21ZM269.764 173.216C269.008 173.216 268.196 172.999 267.762 172.481C267.454 172.152 267.3 171.704 267.286 171.193C267.279 170.71 267.412 170.255 267.685 169.919C267.93 169.625 268.28 169.415 268.672 169.296L271.948 172.292C271.794 172.467 271.591 172.705 271.101 172.964C270.709 173.174 270.289 173.216 269.764 173.216ZM288.773 166.237C287.765 166.237 286.925 166.713 286.484 167.511C286.078 166.685 285.273 166.237 284.279 166.237C283.383 166.237 282.62 166.622 282.151 167.238V166.44H281.227V174H282.263V169.121C282.263 167.938 282.963 167.161 284.013 167.161C285.056 167.161 285.756 167.903 285.756 169.107L285.749 174H286.764L286.771 169.121C286.771 167.714 287.674 167.161 288.535 167.161C289.529 167.161 290.257 167.868 290.257 169.037L290.25 174H291.279L291.286 168.841C291.286 167.245 290.299 166.237 288.773 166.237ZM293.752 165.138C294.158 165.138 294.473 164.83 294.473 164.431C294.473 164.025 294.158 163.717 293.752 163.717C293.346 163.717 293.038 164.025 293.038 164.431C293.038 164.83 293.346 165.138 293.752 165.138ZM294.27 174V166.44H293.241V174H294.27ZM301.668 167.329C301.115 166.643 300.31 166.23 299.26 166.23C297.188 166.23 295.949 167.959 295.949 170.213C295.949 172.481 297.181 174.21 299.302 174.21C300.401 174.21 301.234 173.727 301.78 172.943V174H302.704V163.92H301.668V167.329ZM299.407 173.251C297.832 173.251 297.041 171.935 297.041 170.213C297.041 168.505 297.804 167.189 299.428 167.189C301.003 167.189 301.78 168.435 301.78 170.213C301.78 171.963 301.017 173.251 299.407 173.251ZM308.728 170.031V169.149H304.528V170.031H308.728ZM50.116 196.21C51.614 196.21 52.72 195.489 53.287 194.145L52.251 193.837C51.873 194.747 51.138 195.223 50.116 195.223C48.492 195.223 47.673 194.033 47.652 192.22C47.673 190.456 48.443 189.217 50.116 189.217C51.103 189.217 51.922 189.742 52.279 190.645L53.287 190.323C52.867 189.028 51.649 188.23 50.123 188.23C47.862 188.23 46.588 189.84 46.56 192.22C46.588 194.551 47.827 196.21 50.116 196.21ZM60.4103 189.742C60.0113 188.762 59.0033 188.23 57.6243 188.23C55.9583 188.23 54.8943 189.014 54.5443 190.365L55.5453 190.659C55.8323 189.651 56.5743 189.203 57.6103 189.203C59.0453 189.203 59.6123 189.861 59.6263 191.226C58.6183 191.366 57.2043 191.527 56.1823 191.772C55.0553 192.073 54.2573 192.731 54.2573 193.97C54.2573 195.174 55.1253 196.21 56.8403 196.21C58.1283 196.21 59.1293 195.706 59.7173 194.747V196H60.6343V191.303C60.6343 190.743 60.5923 190.183 60.4103 189.742ZM56.9593 195.321C55.7413 195.321 55.2863 194.628 55.2863 193.97C55.2863 193.151 55.9513 192.787 56.5953 192.598C57.4283 192.367 58.6183 192.248 59.6123 192.129C59.6123 192.472 59.5983 192.962 59.5143 193.333C59.3183 194.474 58.4013 195.321 56.9593 195.321ZM65.8936 188.23C64.7736 188.23 63.9266 188.699 63.3736 189.483V188.44H62.4496V199.36H63.4856V195.097C64.0316 195.79 64.8296 196.21 65.8516 196.21C67.9726 196.21 69.2046 194.481 69.2046 192.213C69.2046 189.959 67.9656 188.23 65.8936 188.23ZM65.7466 195.251C64.1366 195.251 63.3736 193.963 63.3736 192.213C63.3736 190.435 64.1506 189.189 65.7256 189.189C67.3496 189.189 68.1126 190.505 68.1126 192.213C68.1126 193.935 67.3216 195.251 65.7466 195.251ZM76.3655 196.203C78.2205 196.203 79.3475 195.335 79.3475 193.907C79.3475 192.738 78.6965 192.199 76.6105 191.667C74.8255 191.219 74.3985 190.939 74.3985 190.337C74.3985 189.623 75.1405 189.147 76.2115 189.168C77.3455 189.189 78.1365 189.735 78.2835 190.624L79.3335 190.435C79.1795 189.119 77.9335 188.23 76.2255 188.23C74.5175 188.23 73.3555 189.098 73.3555 190.386C73.3555 191.443 73.9855 191.94 76.0365 192.493C77.9545 193.011 78.2765 193.221 78.2765 193.921C78.2765 194.747 77.5695 195.265 76.4215 195.265C75.2455 195.265 74.3915 194.719 74.1745 193.858L73.1245 194.033C73.3835 195.398 74.5945 196.203 76.3655 196.203ZM85.0159 189.322V188.44H82.6989V186.34H81.6769V188.44H80.0599V189.322H81.6769V193.263C81.6769 194.005 81.6419 194.544 81.9149 195.097C82.4119 196.105 83.7349 196.266 85.0159 196V195.097C83.9309 195.272 83.1889 195.209 82.8529 194.579C82.6709 194.257 82.6989 193.858 82.6989 193.221V189.322H85.0159ZM89.389 196.21C91.629 196.21 92.973 194.593 92.973 192.213C92.973 189.875 91.657 188.23 89.389 188.23C87.177 188.23 85.812 189.833 85.812 192.213C85.812 194.558 87.135 196.21 89.389 196.21ZM89.389 195.223C87.751 195.223 86.904 194.033 86.904 192.213C86.904 190.449 87.695 189.217 89.389 189.217C91.055 189.217 91.881 190.393 91.881 192.213C91.881 193.998 91.069 195.223 89.389 195.223ZM97.6531 196.21C99.1511 196.21 100.257 195.489 100.824 194.145L99.7881 193.837C99.4101 194.747 98.6751 195.223 97.6531 195.223C96.0291 195.223 95.2101 194.033 95.1891 192.22C95.2101 190.456 95.9801 189.217 97.6531 189.217C98.6401 189.217 99.4591 189.742 99.8161 190.645L100.824 190.323C100.404 189.028 99.1861 188.23 97.6601 188.23C95.3991 188.23 94.1251 189.84 94.0971 192.22C94.1251 194.551 95.3641 196.21 97.6531 196.21ZM108.198 196L104.677 191.646L108.016 188.44H106.735L103.256 191.73V185.92H102.269L102.262 196H103.256V193.011L103.977 192.318L106.973 196H108.198ZM111.899 196.203C113.754 196.203 114.881 195.335 114.881 193.907C114.881 192.738 114.23 192.199 112.144 191.667C110.359 191.219 109.932 190.939 109.932 190.337C109.932 189.623 110.674 189.147 111.745 189.168C112.879 189.189 113.67 189.735 113.817 190.624L114.867 190.435C114.713 189.119 113.467 188.23 111.759 188.23C110.051 188.23 108.889 189.098 108.889 190.386C108.889 191.443 109.519 191.94 111.57 192.493C113.488 193.011 113.81 193.221 113.81 193.921C113.81 194.747 113.103 195.265 111.955 195.265C110.779 195.265 109.925 194.719 109.708 193.858L108.658 194.033C108.917 195.398 110.128 196.203 111.899 196.203ZM122.393 196.21C124.633 196.21 125.977 194.593 125.977 192.213C125.977 189.875 124.661 188.23 122.393 188.23C120.181 188.23 118.816 189.833 118.816 192.213C118.816 194.558 120.139 196.21 122.393 196.21ZM122.393 195.223C120.755 195.223 119.908 194.033 119.908 192.213C119.908 190.449 120.699 189.217 122.393 189.217C124.059 189.217 124.885 190.393 124.885 192.213C124.885 193.998 124.073 195.223 122.393 195.223ZM130.986 188.251C129.901 188.251 129.005 188.671 128.445 189.49V188.44H127.514V196H128.55V191.968C128.55 190.26 129.334 189.231 130.79 189.231C132.372 189.231 132.981 190.477 132.981 192.143V196H134.017V191.842C134.017 190.141 133.254 188.251 130.986 188.251ZM137.003 196V185.71H135.974V196H137.003ZM139.444 188.44H138.352L141.425 195.986L140.179 199.36H141.208L145.268 188.44H144.218L141.922 194.656L139.444 188.44Z" fill="white"/>
<circle cx="24" cy="232" r="8" fill="white"/>
<path d="M21 232.5L23.4 234L27 230" stroke="#1BD47B" stroke-width="1.25" stroke-linecap="round" stroke-linejoin="round"/>
<path d="M46.28 226H47.351L48.198 223.557H52.671L53.518 226H54.589L51.117 215.92H49.752L46.28 226ZM50.424 217.075L52.335 222.591H48.527L50.424 217.075ZM58.989 226.21C60.487 226.21 61.593 225.489 62.16 224.145L61.124 223.837C60.746 224.747 60.011 225.223 58.989 225.223C57.365 225.223 56.546 224.033 56.525 222.22C56.546 220.456 57.316 219.217 58.989 219.217C59.976 219.217 60.795 219.742 61.152 220.645L62.16 220.323C61.74 219.028 60.522 218.23 58.996 218.23C56.735 218.23 55.461 219.84 55.433 222.22C55.461 224.551 56.7 226.21 58.989 226.21ZM66.5359 226.21C68.0339 226.21 69.1399 225.489 69.7069 224.145L68.6709 223.837C68.2929 224.747 67.5579 225.223 66.5359 225.223C64.9119 225.223 64.0929 224.033 64.0719 222.22C64.0929 220.456 64.8629 219.217 66.5359 219.217C67.5229 219.217 68.3419 219.742 68.6989 220.645L69.7069 220.323C69.2869 219.028 68.0689 218.23 66.5429 218.23C64.2819 218.23 63.0079 219.84 62.9799 222.22C63.0079 224.551 64.2469 226.21 66.5359 226.21ZM77.5828 222.507C77.6598 219.84 76.3438 218.23 74.1038 218.23C71.9198 218.23 70.5268 219.777 70.5268 222.255C70.5268 224.649 71.9408 226.21 74.1458 226.21C75.6088 226.21 76.8338 225.461 77.4358 224.138L76.4768 223.767C76.0078 224.712 75.1818 225.223 74.1038 225.223C72.5988 225.223 71.7098 224.236 71.6258 222.507H77.5828ZM74.1318 219.175C75.5388 219.175 76.3438 220.015 76.5048 221.646H71.6468C71.8078 220.057 72.6758 219.175 74.1318 219.175ZM81.9573 226.203C83.8123 226.203 84.9393 225.335 84.9393 223.907C84.9393 222.738 84.2883 222.199 82.2023 221.667C80.4173 221.219 79.9903 220.939 79.9903 220.337C79.9903 219.623 80.7323 219.147 81.8033 219.168C82.9373 219.189 83.7283 219.735 83.8753 220.624L84.9253 220.435C84.7713 219.119 83.5253 218.23 81.8173 218.23C80.1093 218.23 78.9473 219.098 78.9473 220.386C78.9473 221.443 79.5773 221.94 81.6283 222.493C83.5463 223.011 83.8683 223.221 83.8683 223.921C83.8683 224.747 83.1613 225.265 82.0132 225.265C80.8373 225.265 79.9833 224.719 79.7663 223.858L78.7163 224.033C78.9753 225.398 80.1863 226.203 81.9573 226.203ZM89.3127 226.203C91.1677 226.203 92.2947 225.335 92.2947 223.907C92.2947 222.738 91.6437 222.199 89.5577 221.667C87.7727 221.219 87.3457 220.939 87.3457 220.337C87.3457 219.623 88.0877 219.147 89.1587 219.168C90.2927 219.189 91.0837 219.735 91.2307 220.624L92.2807 220.435C92.1267 219.119 90.8807 218.23 89.1727 218.23C87.4647 218.23 86.3027 219.098 86.3027 220.386C86.3027 221.443 86.9327 221.94 88.9837 222.493C90.9017 223.011 91.2237 223.221 91.2237 223.921C91.2237 224.747 90.5167 225.265 89.3687 225.265C88.1927 225.265 87.3387 224.719 87.1217 223.858L86.0717 224.033C86.3307 225.398 87.5417 226.203 89.3127 226.203ZM100.766 219.322V218.44H98.4489V216.34H97.4269V218.44H95.8099V219.322H97.4269V223.263C97.4269 224.005 97.3919 224.544 97.6649 225.097C98.1619 226.105 99.4849 226.266 100.766 226V225.097C99.6809 225.272 98.9389 225.209 98.6029 224.579C98.4209 224.257 98.4489 223.858 98.4489 223.221V219.322H100.766ZM105.139 226.21C107.379 226.21 108.723 224.593 108.723 222.213C108.723 219.875 107.407 218.23 105.139 218.23C102.927 218.23 101.562 219.833 101.562 222.213C101.562 224.558 102.885 226.21 105.139 226.21ZM105.139 225.223C103.501 225.223 102.654 224.033 102.654 222.213C102.654 220.449 103.445 219.217 105.139 219.217C106.805 219.217 107.631 220.393 107.631 222.213C107.631 223.998 106.819 225.223 105.139 225.223ZM114.239 226V215.71H113.21V226H114.239ZM122.07 219.742C121.671 218.762 120.663 218.23 119.284 218.23C117.618 218.23 116.554 219.014 116.204 220.365L117.205 220.659C117.492 219.651 118.234 219.203 119.27 219.203C120.705 219.203 121.272 219.861 121.286 221.226C120.278 221.366 118.864 221.527 117.842 221.772C116.715 222.073 115.917 222.731 115.917 223.97C115.917 225.174 116.785 226.21 118.5 226.21C119.788 226.21 120.789 225.706 121.377 224.747V226H122.294V221.303C122.294 220.743 122.252 220.183 122.07 219.742ZM118.619 225.321C117.401 225.321 116.946 224.628 116.946 223.97C116.946 223.151 117.611 222.787 118.255 222.598C119.088 222.367 120.278 222.248 121.272 222.129C121.272 222.472 121.258 222.962 121.174 223.333C120.978 224.474 120.061 225.321 118.619 225.321ZM125.629 218.937C125.412 219.105 125.202 219.35 125.041 219.637V218.44H124.117V226H125.146V222.227C125.146 221.324 125.272 220.344 126.028 219.749C126.574 219.301 127.274 219.273 127.834 219.406V218.44C127.169 218.272 126.224 218.419 125.629 218.937ZM134.299 219.483C133.746 218.699 132.899 218.23 131.779 218.23C129.707 218.23 128.468 219.959 128.468 222.213C128.468 224.481 129.7 226.21 131.821 226.21C132.843 226.21 133.634 225.79 134.18 225.104V225.881C134.187 227.659 133.529 228.569 131.891 228.569C131.093 228.569 130.253 228.226 129.84 227.386L128.909 227.904C129.553 229.08 130.729 229.57 131.891 229.57C133.739 229.57 134.859 228.786 135.132 227.099C135.195 226.714 135.216 226.329 135.216 225.895V218.44H134.299V219.483ZM131.926 225.251C130.351 225.251 129.56 223.935 129.56 222.213C129.56 220.505 130.323 219.189 131.947 219.189C133.522 219.189 134.299 220.435 134.299 222.213C134.299 223.963 133.536 225.251 131.926 225.251ZM143.809 222.507C143.886 219.84 142.57 218.23 140.33 218.23C138.146 218.23 136.753 219.777 136.753 222.255C136.753 224.649 138.167 226.21 140.372 226.21C141.835 226.21 143.06 225.461 143.662 224.138L142.703 223.767C142.234 224.712 141.408 225.223 140.33 225.223C138.825 225.223 137.936 224.236 137.852 222.507H143.809ZM140.358 219.175C141.765 219.175 142.57 220.015 142.731 221.646H137.873C138.034 220.057 138.902 219.175 140.358 219.175ZM149.423 222.031V221.149H145.223V222.031H149.423ZM154.378 226.21C155.876 226.21 156.982 225.489 157.549 224.145L156.513 223.837C156.135 224.747 155.4 225.223 154.378 225.223C152.754 225.223 151.935 224.033 151.914 222.22C151.935 220.456 152.705 219.217 154.378 219.217C155.365 219.217 156.184 219.742 156.541 220.645L157.549 220.323C157.129 219.028 155.911 218.23 154.385 218.23C152.124 218.23 150.85 219.84 150.822 222.22C150.85 224.551 152.089 226.21 154.378 226.21ZM164.672 219.742C164.273 218.762 163.265 218.23 161.886 218.23C160.22 218.23 159.156 219.014 158.806 220.365L159.807 220.659C160.094 219.651 160.836 219.203 161.872 219.203C163.307 219.203 163.874 219.861 163.888 221.226C162.88 221.366 161.466 221.527 160.444 221.772C159.317 222.073 158.519 222.731 158.519 223.97C158.519 225.174 159.387 226.21 161.102 226.21C162.39 226.21 163.391 225.706 163.979 224.747V226H164.896V221.303C164.896 220.743 164.854 220.183 164.672 219.742ZM161.221 225.321C160.003 225.321 159.548 224.628 159.548 223.97C159.548 223.151 160.213 222.787 160.857 222.598C161.69 222.367 162.88 222.248 163.874 222.129C163.874 222.472 163.86 222.962 163.776 223.333C163.58 224.474 162.663 225.321 161.221 225.321ZM170.155 218.23C169.035 218.23 168.188 218.699 167.635 219.483V218.44H166.711V229.36H167.747V225.097C168.293 225.79 169.091 226.21 170.113 226.21C172.234 226.21 173.466 224.481 173.466 222.213C173.466 219.959 172.227 218.23 170.155 218.23ZM170.008 225.251C168.398 225.251 167.635 223.963 167.635 222.213C167.635 220.435 168.412 219.189 169.987 219.189C171.611 219.189 172.374 220.505 172.374 222.213C172.374 223.935 171.583 225.251 170.008 225.251ZM183.539 219.742C183.14 218.762 182.132 218.23 180.753 218.23C179.087 218.23 178.023 219.014 177.673 220.365L178.674 220.659C178.961 219.651 179.703 219.203 180.739 219.203C182.174 219.203 182.741 219.861 182.755 221.226C181.747 221.366 180.333 221.527 179.311 221.772C178.184 222.073 177.386 222.731 177.386 223.97C177.386 225.174 178.254 226.21 179.969 226.21C181.257 226.21 182.258 225.706 182.846 224.747V226H183.763V221.303C183.763 220.743 183.721 220.183 183.539 219.742ZM180.088 225.321C178.87 225.321 178.415 224.628 178.415 223.97C178.415 223.151 179.08 222.787 179.724 222.598C180.557 222.367 181.747 222.248 182.741 222.129C182.741 222.472 182.727 222.962 182.643 223.333C182.447 224.474 181.53 225.321 180.088 225.321ZM189.05 218.251C187.965 218.251 187.069 218.671 186.509 219.49V218.44H185.578V226H186.614V221.968C186.614 220.26 187.398 219.231 188.854 219.231C190.436 219.231 191.045 220.477 191.045 222.143V226H192.081V221.842C192.081 220.141 191.318 218.251 189.05 218.251ZM199.142 219.329C198.589 218.643 197.784 218.23 196.734 218.23C194.662 218.23 193.423 219.959 193.423 222.213C193.423 224.481 194.655 226.21 196.776 226.21C197.875 226.21 198.708 225.727 199.254 224.943V226H200.178V215.92H199.142V219.329ZM196.881 225.251C195.306 225.251 194.515 223.935 194.515 222.213C194.515 220.505 195.278 219.189 196.902 219.189C198.477 219.189 199.254 220.435 199.254 222.213C199.254 223.963 198.491 225.251 196.881 225.251ZM212.484 218.237C211.476 218.237 210.636 218.713 210.195 219.511C209.789 218.685 208.984 218.237 207.99 218.237C207.094 218.237 206.331 218.622 205.862 219.238V218.44H204.938V226H205.974V221.121C205.974 219.938 206.674 219.161 207.724 219.161C208.767 219.161 209.467 219.903 209.467 221.107L209.46 226H210.475L210.482 221.121C210.482 219.714 211.385 219.161 212.246 219.161C213.24 219.161 213.968 219.868 213.968 221.037L213.961 226H214.99L214.997 220.841C214.997 219.245 214.01 218.237 212.484 218.237ZM217.463 217.138C217.869 217.138 218.184 216.83 218.184 216.431C218.184 216.025 217.869 215.717 217.463 215.717C217.057 215.717 216.749 216.025 216.749 216.431C216.749 216.83 217.057 217.138 217.463 217.138ZM217.981 226V218.44H216.952V226H217.981ZM225.379 219.329C224.826 218.643 224.021 218.23 222.971 218.23C220.899 218.23 219.66 219.959 219.66 222.213C219.66 224.481 220.892 226.21 223.013 226.21C224.112 226.21 224.945 225.727 225.491 224.943V226H226.415V215.92H225.379V219.329ZM223.118 225.251C221.543 225.251 220.752 223.935 220.752 222.213C220.752 220.505 221.515 219.189 223.139 219.189C224.714 219.189 225.491 220.435 225.491 222.213C225.491 223.963 224.728 225.251 223.118 225.251ZM232.438 222.031V221.149H228.238V222.031H232.438ZM237.393 226.21C238.891 226.21 239.997 225.489 240.564 224.145L239.528 223.837C239.15 224.747 238.415 225.223 237.393 225.223C235.769 225.223 234.95 224.033 234.929 222.22C234.95 220.456 235.72 219.217 237.393 219.217C238.38 219.217 239.199 219.742 239.556 220.645L240.564 220.323C240.144 219.028 238.926 218.23 237.4 218.23C235.139 218.23 233.865 219.84 233.837 222.22C233.865 224.551 235.104 226.21 237.393 226.21ZM247.688 219.742C247.289 218.762 246.281 218.23 244.902 218.23C243.236 218.23 242.172 219.014 241.822 220.365L242.823 220.659C243.11 219.651 243.852 219.203 244.888 219.203C246.323 219.203 246.89 219.861 246.904 221.226C245.896 221.366 244.482 221.527 243.46 221.772C242.333 222.073 241.535 222.731 241.535 223.97C241.535 225.174 242.403 226.21 244.118 226.21C245.406 226.21 246.407 225.706 246.995 224.747V226H247.912V221.303C247.912 220.743 247.87 220.183 247.688 219.742ZM244.237 225.321C243.019 225.321 242.564 224.628 242.564 223.97C242.564 223.151 243.229 222.787 243.873 222.598C244.706 222.367 245.896 222.248 246.89 222.129C246.89 222.472 246.876 222.962 246.792 223.333C246.596 224.474 245.679 225.321 244.237 225.321ZM253.171 218.23C252.051 218.23 251.204 218.699 250.651 219.483V218.44H249.727V229.36H250.763V225.097C251.309 225.79 252.107 226.21 253.129 226.21C255.25 226.21 256.482 224.481 256.482 222.213C256.482 219.959 255.243 218.23 253.171 218.23ZM253.024 225.251C251.414 225.251 250.651 223.963 250.651 222.213C250.651 220.435 251.428 219.189 253.003 219.189C254.627 219.189 255.39 220.505 255.39 222.213C255.39 223.935 254.599 225.251 253.024 225.251ZM50.116 248.21C51.614 248.21 52.72 247.489 53.287 246.145L52.251 245.837C51.873 246.747 51.138 247.223 50.116 247.223C48.492 247.223 47.673 246.033 47.652 244.22C47.673 242.456 48.443 241.217 50.116 241.217C51.103 241.217 51.922 241.742 52.279 242.645L53.287 242.323C52.867 241.028 51.649 240.23 50.123 240.23C47.862 240.23 46.588 241.84 46.56 244.22C46.588 246.551 47.827 248.21 50.116 248.21ZM60.4103 241.742C60.0113 240.762 59.0033 240.23 57.6243 240.23C55.9583 240.23 54.8943 241.014 54.5443 242.365L55.5453 242.659C55.8323 241.651 56.5743 241.203 57.6103 241.203C59.0453 241.203 59.6123 241.861 59.6263 243.226C58.6183 243.366 57.2043 243.527 56.1823 243.772C55.0553 244.073 54.2573 244.731 54.2573 245.97C54.2573 247.174 55.1253 248.21 56.8403 248.21C58.1283 248.21 59.1293 247.706 59.7173 246.747V248H60.6343V243.303C60.6343 242.743 60.5923 242.183 60.4103 241.742ZM56.9593 247.321C55.7413 247.321 55.2863 246.628 55.2863 245.97C55.2863 245.151 55.9513 244.787 56.5953 244.598C57.4283 244.367 58.6183 244.248 59.6123 244.129C59.6123 244.472 59.5983 244.962 59.5143 245.333C59.3183 246.474 58.4013 247.321 56.9593 247.321ZM66.5726 241.322V240.44H64.2556V238.34H63.2336V240.44H61.6166V241.322H63.2336V245.263C63.2336 246.005 63.1986 246.544 63.4716 247.097C63.9686 248.105 65.2916 248.266 66.5726 248V247.097C65.4876 247.272 64.7456 247.209 64.4096 246.579C64.2276 246.257 64.2556 245.858 64.2556 245.221V241.322H66.5726ZM74.4246 244.507C74.5016 241.84 73.1856 240.23 70.9456 240.23C68.7616 240.23 67.3686 241.777 67.3686 244.255C67.3686 246.649 68.7826 248.21 70.9876 248.21C72.4506 248.21 73.6756 247.461 74.2776 246.138L73.3186 245.767C72.8496 246.712 72.0236 247.223 70.9456 247.223C69.4406 247.223 68.5516 246.236 68.4676 244.507H74.4246ZM70.9736 241.175C72.3806 241.175 73.1856 242.015 73.3466 243.646H68.4886C68.6496 242.057 69.5176 241.175 70.9736 241.175ZM81.389 241.483C80.836 240.699 79.989 240.23 78.869 240.23C76.797 240.23 75.558 241.959 75.558 244.213C75.558 246.481 76.79 248.21 78.911 248.21C79.933 248.21 80.724 247.79 81.27 247.104V247.881C81.277 249.659 80.619 250.569 78.981 250.569C78.183 250.569 77.343 250.226 76.93 249.386L75.999 249.904C76.643 251.08 77.819 251.57 78.981 251.57C80.829 251.57 81.949 250.786 82.222 249.099C82.285 248.714 82.306 248.329 82.306 247.895V240.44H81.389V241.483ZM79.016 247.251C77.441 247.251 76.65 245.935 76.65 244.213C76.65 242.505 77.413 241.189 79.037 241.189C80.612 241.189 81.389 242.435 81.389 244.213C81.389 245.963 80.626 247.251 79.016 247.251ZM87.4202 248.21C89.6602 248.21 91.0042 246.593 91.0042 244.213C91.0042 241.875 89.6882 240.23 87.4202 240.23C85.2082 240.23 83.8432 241.833 83.8432 244.213C83.8432 246.558 85.1662 248.21 87.4202 248.21ZM87.4202 247.223C85.7822 247.223 84.9352 246.033 84.9352 244.213C84.9352 242.449 85.7262 241.217 87.4202 241.217C89.0862 241.217 89.9122 242.393 89.9122 244.213C89.9122 245.998 89.1002 247.223 87.4202 247.223ZM94.0604 240.937C93.8434 241.105 93.6334 241.35 93.4724 241.637V240.44H92.5484V248H93.5774V244.227C93.5774 243.324 93.7034 242.344 94.4594 241.749C95.0054 241.301 95.7054 241.273 96.2654 241.406V240.44C95.6004 240.272 94.6554 240.419 94.0604 240.937ZM98.2443 239.138C98.6503 239.138 98.9653 238.83 98.9653 238.431C98.9653 238.025 98.6503 237.717 98.2443 237.717C97.8383 237.717 97.5303 238.025 97.5303 238.431C97.5303 238.83 97.8383 239.138 98.2443 239.138ZM98.7623 248V240.44H97.7333V248H98.7623ZM107.497 244.507C107.574 241.84 106.258 240.23 104.018 240.23C101.834 240.23 100.441 241.777 100.441 244.255C100.441 246.649 101.855 248.21 104.06 248.21C105.523 248.21 106.748 247.461 107.35 246.138L106.391 245.767C105.922 246.712 105.096 247.223 104.018 247.223C102.513 247.223 101.624 246.236 101.54 244.507H107.497ZM104.046 241.175C105.453 241.175 106.258 242.015 106.419 243.646H101.561C101.722 242.057 102.59 241.175 104.046 241.175ZM111.871 248.203C113.726 248.203 114.853 247.335 114.853 245.907C114.853 244.738 114.202 244.199 112.116 243.667C110.331 243.219 109.904 242.939 109.904 242.337C109.904 241.623 110.646 241.147 111.717 241.168C112.851 241.189 113.642 241.735 113.789 242.624L114.839 242.435C114.685 241.119 113.439 240.23 111.731 240.23C110.023 240.23 108.861 241.098 108.861 242.386C108.861 243.443 109.491 243.94 111.542 244.493C113.46 245.011 113.782 245.221 113.782 245.921C113.782 246.747 113.075 247.265 111.927 247.265C110.751 247.265 109.897 246.719 109.68 245.858L108.63 246.033C108.889 247.398 110.1 248.203 111.871 248.203Z" fill="white"/>
<circle cx="24" cy="273" r="8" fill="white"/>
<path d="M21 273.5L23.4 275L27 271" stroke="#1BD47B" stroke-width="1.25" stroke-linecap="round" stroke-linejoin="round"/>
<path d="M50.907 278L54.379 267.92H53.308L50.214 276.831L47.141 267.92H46.07L49.542 278H50.907ZM55.8068 269.138C56.2128 269.138 56.5278 268.83 56.5278 268.431C56.5278 268.025 56.2128 267.717 55.8068 267.717C55.4008 267.717 55.0928 268.025 55.0928 268.431C55.0928 268.83 55.4008 269.138 55.8068 269.138ZM56.3248 278V270.44H55.2958V278H56.3248ZM65.0594 274.507C65.1364 271.84 63.8204 270.23 61.5804 270.23C59.3964 270.23 58.0034 271.777 58.0034 274.255C58.0034 276.649 59.4174 278.21 61.6224 278.21C63.0854 278.21 64.3104 277.461 64.9124 276.138L63.9534 275.767C63.4844 276.712 62.6584 277.223 61.5804 277.223C60.0754 277.223 59.1864 276.236 59.1024 274.507H65.0594ZM61.6084 271.175C63.0154 271.175 63.8204 272.015 63.9814 273.646H59.1234C59.2844 272.057 60.1524 271.175 61.6084 271.175ZM68.8454 278L70.7284 271.98L72.6184 278H73.5144L75.8244 270.44H74.8024L72.9964 276.313L71.1974 270.44H70.2594L68.4604 276.313L66.6684 270.44L65.6394 270.433L67.9494 278H68.8454ZM83.0242 278.21C84.5222 278.21 85.6282 277.489 86.1952 276.145L85.1592 275.837C84.7812 276.747 84.0462 277.223 83.0242 277.223C81.4002 277.223 80.5812 276.033 80.5602 274.22C80.5812 272.456 81.3512 271.217 83.0242 271.217C84.0112 271.217 84.8302 271.742 85.1872 272.645L86.1952 272.323C85.7752 271.028 84.5572 270.23 83.0312 270.23C80.7702 270.23 79.4962 271.84 79.4682 274.22C79.4962 276.551 80.7352 278.21 83.0242 278.21ZM90.5921 278.21C92.8321 278.21 94.1761 276.593 94.1761 274.213C94.1761 271.875 92.8601 270.23 90.5921 270.23C88.3801 270.23 87.0151 271.833 87.0151 274.213C87.0151 276.558 88.3381 278.21 90.5921 278.21ZM90.5921 277.223C88.9541 277.223 88.1071 276.033 88.1071 274.213C88.1071 272.449 88.8981 271.217 90.5921 271.217C92.2581 271.217 93.0841 272.393 93.0841 274.213C93.0841 275.998 92.2721 277.223 90.5921 277.223ZM103.259 270.237C102.251 270.237 101.411 270.713 100.97 271.511C100.564 270.685 99.7592 270.237 98.7652 270.237C97.8692 270.237 97.1062 270.622 96.6372 271.238V270.44H95.7132V278H96.7492V273.121C96.7492 271.938 97.4492 271.161 98.4992 271.161C99.5422 271.161 100.242 271.903 100.242 273.107L100.235 278H101.25L101.257 273.121C101.257 271.714 102.16 271.161 103.021 271.161C104.015 271.161 104.743 271.868 104.743 273.037L104.736 278H105.765L105.772 272.841C105.772 271.245 104.785 270.237 103.259 270.237ZM111.024 270.23C109.904 270.23 109.057 270.699 108.504 271.483V270.44H107.58V281.36H108.616V277.097C109.162 277.79 109.96 278.21 110.982 278.21C113.103 278.21 114.335 276.481 114.335 274.213C114.335 271.959 113.096 270.23 111.024 270.23ZM110.877 277.251C109.267 277.251 108.504 275.963 108.504 274.213C108.504 272.435 109.281 271.189 110.856 271.189C112.48 271.189 113.243 272.505 113.243 274.213C113.243 275.935 112.452 277.251 110.877 277.251ZM121.606 271.742C121.207 270.762 120.199 270.23 118.82 270.23C117.154 270.23 116.09 271.014 115.74 272.365L116.741 272.659C117.028 271.651 117.77 271.203 118.806 271.203C120.241 271.203 120.808 271.861 120.822 273.226C119.814 273.366 118.4 273.527 117.378 273.772C116.251 274.073 115.453 274.731 115.453 275.97C115.453 277.174 116.321 278.21 118.036 278.21C119.324 278.21 120.325 277.706 120.913 276.747V278H121.83V273.303C121.83 272.743 121.788 272.183 121.606 271.742ZM118.155 277.321C116.937 277.321 116.482 276.628 116.482 275.97C116.482 275.151 117.147 274.787 117.791 274.598C118.624 274.367 119.814 274.248 120.808 274.129C120.808 274.472 120.794 274.962 120.71 275.333C120.514 276.474 119.597 277.321 118.155 277.321ZM127.117 270.251C126.032 270.251 125.136 270.671 124.576 271.49V270.44H123.645V278H124.681V273.968C124.681 272.26 125.465 271.231 126.921 271.231C128.503 271.231 129.112 272.477 129.112 274.143V278H130.148V273.842C130.148 272.141 129.385 270.251 127.117 270.251ZM132.034 270.44H130.942L134.015 277.986L132.769 281.36H133.798L137.858 270.44H136.808L134.512 276.656L132.034 270.44ZM145.719 268.578V267.71H144.753C144.172 267.71 143.549 267.766 143.094 268.263C142.681 268.711 142.625 269.299 142.625 269.88V270.44H141.316V271.322H142.625V278H143.654V271.322H145.719V270.44H143.654V269.768C143.654 268.949 144.039 268.578 144.823 268.578H145.719ZM152.166 274.472C152.166 276.18 151.382 277.209 149.926 277.209C148.344 277.209 147.735 275.963 147.735 274.297V270.44H146.699V274.598C146.699 276.299 147.462 278.189 149.73 278.189C150.815 278.189 151.711 277.769 152.271 276.95V278H153.195V270.44H152.166V274.472ZM158.617 270.251C157.532 270.251 156.636 270.671 156.076 271.49V270.44H155.145V278H156.181V273.968C156.181 272.26 156.965 271.231 158.421 271.231C160.003 271.231 160.612 272.477 160.612 274.143V278H161.648V273.842C161.648 272.141 160.885 270.251 158.617 270.251ZM168.709 271.329C168.156 270.643 167.351 270.23 166.301 270.23C164.229 270.23 162.99 271.959 162.99 274.213C162.99 276.481 164.222 278.21 166.343 278.21C167.442 278.21 168.275 277.727 168.821 276.943V278H169.745V267.92H168.709V271.329ZM166.448 277.251C164.873 277.251 164.082 275.935 164.082 274.213C164.082 272.505 164.845 271.189 166.469 271.189C168.044 271.189 168.821 272.435 168.821 274.213C168.821 275.963 168.058 277.251 166.448 277.251ZM177.442 271.742C177.043 270.762 176.035 270.23 174.656 270.23C172.99 270.23 171.926 271.014 171.576 272.365L172.577 272.659C172.864 271.651 173.606 271.203 174.642 271.203C176.077 271.203 176.644 271.861 176.658 273.226C175.65 273.366 174.236 273.527 173.214 273.772C172.087 274.073 171.289 274.731 171.289 275.97C171.289 277.174 172.157 278.21 173.872 278.21C175.16 278.21 176.161 277.706 176.749 276.747V278H177.666V273.303C177.666 272.743 177.624 272.183 177.442 271.742ZM173.991 277.321C172.773 277.321 172.318 276.628 172.318 275.97C172.318 275.151 172.983 274.787 173.627 274.598C174.46 274.367 175.65 274.248 176.644 274.129C176.644 274.472 176.63 274.962 176.546 275.333C176.35 276.474 175.433 277.321 173.991 277.321ZM187.027 270.237C186.019 270.237 185.179 270.713 184.738 271.511C184.332 270.685 183.527 270.237 182.533 270.237C181.637 270.237 180.874 270.622 180.405 271.238V270.44H179.481V278H180.517V273.121C180.517 271.938 181.217 271.161 182.267 271.161C183.31 271.161 184.01 271.903 184.01 273.107L184.003 278H185.018L185.025 273.121C185.025 271.714 185.928 271.161 186.789 271.161C187.783 271.161 188.511 271.868 188.511 273.037L188.504 278H189.533L189.54 272.841C189.54 271.245 188.553 270.237 187.027 270.237ZM197.936 274.507C198.013 271.84 196.697 270.23 194.457 270.23C192.273 270.23 190.88 271.777 190.88 274.255C190.88 276.649 192.294 278.21 194.499 278.21C195.962 278.21 197.187 277.461 197.789 276.138L196.83 275.767C196.361 276.712 195.535 277.223 194.457 277.223C192.952 277.223 192.063 276.236 191.979 274.507H197.936ZM194.485 271.175C195.892 271.175 196.697 272.015 196.858 273.646H192C192.161 272.057 193.029 271.175 194.485 271.175ZM202.75 270.251C201.665 270.251 200.769 270.671 200.209 271.49V270.44H199.278V278H200.314V273.968C200.314 272.26 201.098 271.231 202.554 271.231C204.136 271.231 204.745 272.477 204.745 274.143V278H205.781V273.842C205.781 272.141 205.018 270.251 202.75 270.251ZM211.713 271.322V270.44H209.396V268.34H208.374V270.44H206.757V271.322H208.374V275.263C208.374 276.005 208.339 276.544 208.612 277.097C209.109 278.105 210.432 278.266 211.713 278V277.097C210.628 277.272 209.886 277.209 209.55 276.579C209.368 276.257 209.396 275.858 209.396 275.221V271.322H211.713ZM218.936 271.742C218.537 270.762 217.529 270.23 216.15 270.23C214.484 270.23 213.42 271.014 213.07 272.365L214.071 272.659C214.358 271.651 215.1 271.203 216.136 271.203C217.571 271.203 218.138 271.861 218.152 273.226C217.144 273.366 215.73 273.527 214.708 273.772C213.581 274.073 212.783 274.731 212.783 275.97C212.783 277.174 213.651 278.21 215.366 278.21C216.654 278.21 217.655 277.706 218.243 276.747V278H219.16V273.303C219.16 272.743 219.118 272.183 218.936 271.742ZM215.485 277.321C214.267 277.321 213.812 276.628 213.812 275.97C213.812 275.151 214.477 274.787 215.121 274.598C215.954 274.367 217.144 274.248 218.138 274.129C218.138 274.472 218.124 274.962 218.04 275.333C217.844 276.474 216.927 277.321 215.485 277.321ZM222.151 278V267.71H221.122V278H222.151ZM227.071 278.203C228.926 278.203 230.053 277.335 230.053 275.907C230.053 274.738 229.402 274.199 227.316 273.667C225.531 273.219 225.104 272.939 225.104 272.337C225.104 271.623 225.846 271.147 226.917 271.168C228.051 271.189 228.842 271.735 228.989 272.624L230.039 272.435C229.885 271.119 228.639 270.23 226.931 270.23C225.223 270.23 224.061 271.098 224.061 272.386C224.061 273.443 224.691 273.94 226.742 274.493C228.66 275.011 228.982 275.221 228.982 275.921C228.982 276.747 228.275 277.265 227.127 277.265C225.951 277.265 225.097 276.719 224.88 275.858L223.83 276.033C224.089 277.398 225.3 278.203 227.071 278.203Z" fill="white"/>
<circle cx="24" cy="303" r="8" fill="white"/>
<path d="M21 303.5L23.4 305L27 301" stroke="#1BD47B" stroke-width="1.25" stroke-linecap="round" stroke-linejoin="round"/>
<path d="M50.907 308L54.379 297.92H53.308L50.214 306.831L47.141 297.92H46.07L49.542 308H50.907ZM55.8068 299.138C56.2128 299.138 56.5278 298.83 56.5278 298.431C56.5278 298.025 56.2128 297.717 55.8068 297.717C55.4008 297.717 55.0928 298.025 55.0928 298.431C55.0928 298.83 55.4008 299.138 55.8068 299.138ZM56.3248 308V300.44H55.2958V308H56.3248ZM65.0594 304.507C65.1364 301.84 63.8204 300.23 61.5804 300.23C59.3964 300.23 58.0034 301.777 58.0034 304.255C58.0034 306.649 59.4174 308.21 61.6224 308.21C63.0854 308.21 64.3104 307.461 64.9124 306.138L63.9534 305.767C63.4844 306.712 62.6584 307.223 61.5804 307.223C60.0754 307.223 59.1864 306.236 59.1024 304.507H65.0594ZM61.6084 301.175C63.0154 301.175 63.8204 302.015 63.9814 303.646H59.1234C59.2844 302.057 60.1524 301.175 61.6084 301.175ZM68.8454 308L70.7284 301.98L72.6184 308H73.5144L75.8244 300.44H74.8024L72.9964 306.313L71.1974 300.44H70.2594L68.4604 306.313L66.6684 300.44L65.6394 300.433L67.9494 308H68.8454ZM81.4002 300.937C81.1832 301.105 80.9732 301.35 80.8122 301.637V300.44H79.8882V308H80.9172V304.227C80.9172 303.324 81.0432 302.344 81.7992 301.749C82.3452 301.301 83.0452 301.273 83.6052 301.406V300.44C82.9402 300.272 81.9952 300.419 81.4002 300.937ZM90.3927 301.742C89.9937 300.762 88.9857 300.23 87.6067 300.23C85.9407 300.23 84.8767 301.014 84.5267 302.365L85.5277 302.659C85.8147 301.651 86.5567 301.203 87.5927 301.203C89.0277 301.203 89.5947 301.861 89.6087 303.226C88.6007 303.366 87.1867 303.527 86.1647 303.772C85.0377 304.073 84.2397 304.731 84.2397 305.97C84.2397 307.174 85.1077 308.21 86.8227 308.21C88.1107 308.21 89.1117 307.706 89.6997 306.747V308H90.6167V303.303C90.6167 302.743 90.5747 302.183 90.3927 301.742ZM86.9417 307.321C85.7237 307.321 85.2687 306.628 85.2687 305.97C85.2687 305.151 85.9337 304.787 86.5777 304.598C87.4107 304.367 88.6007 304.248 89.5947 304.129C89.5947 304.472 89.5807 304.962 89.4967 305.333C89.3007 306.474 88.3837 307.321 86.9417 307.321ZM95.904 300.251C94.819 300.251 93.923 300.671 93.363 301.49V300.44H92.432V308H93.468V303.968C93.468 302.26 94.252 301.231 95.708 301.231C97.29 301.231 97.899 302.477 97.899 304.143V308H98.935V303.842C98.935 302.141 98.172 300.251 95.904 300.251ZM106.68 308L103.159 303.646L106.498 300.44H105.217L101.738 303.73V297.92H100.751L100.744 308H101.738V305.011L102.459 304.318L105.455 308H106.68ZM108.348 299.138C108.754 299.138 109.069 298.83 109.069 298.431C109.069 298.025 108.754 297.717 108.348 297.717C107.942 297.717 107.634 298.025 107.634 298.431C107.634 298.83 107.942 299.138 108.348 299.138ZM108.866 308V300.44H107.837V308H108.866ZM114.429 300.251C113.344 300.251 112.448 300.671 111.888 301.49V300.44H110.957V308H111.993V303.968C111.993 302.26 112.777 301.231 114.233 301.231C115.815 301.231 116.424 302.477 116.424 304.143V308H117.46V303.842C117.46 302.141 116.697 300.251 114.429 300.251ZM124.688 301.483C124.135 300.699 123.288 300.23 122.168 300.23C120.096 300.23 118.857 301.959 118.857 304.213C118.857 306.481 120.089 308.21 122.21 308.21C123.232 308.21 124.023 307.79 124.569 307.104V307.881C124.576 309.659 123.918 310.569 122.28 310.569C121.482 310.569 120.642 310.226 120.229 309.386L119.298 309.904C119.942 311.08 121.118 311.57 122.28 311.57C124.128 311.57 125.248 310.786 125.521 309.099C125.584 308.714 125.605 308.329 125.605 307.895V300.44H124.688V301.483ZM122.315 307.251C120.74 307.251 119.949 305.935 119.949 304.213C119.949 302.505 120.712 301.189 122.336 301.189C123.911 301.189 124.688 302.435 124.688 304.213C124.688 305.963 123.925 307.251 122.315 307.251ZM133.83 300.251C132.745 300.251 131.849 300.671 131.289 301.49V297.92H130.358V308H131.394V303.968C131.394 302.26 132.178 301.231 133.634 301.231C135.216 301.231 135.825 302.477 135.825 304.143V308H136.861V303.842C136.861 302.141 136.098 300.251 133.83 300.251ZM139.328 299.138C139.734 299.138 140.049 298.83 140.049 298.431C140.049 298.025 139.734 297.717 139.328 297.717C138.922 297.717 138.614 298.025 138.614 298.431C138.614 298.83 138.922 299.138 139.328 299.138ZM139.846 308V300.44H138.817V308H139.846ZM144.766 308.203C146.621 308.203 147.748 307.335 147.748 305.907C147.748 304.738 147.097 304.199 145.011 303.667C143.226 303.219 142.799 302.939 142.799 302.337C142.799 301.623 143.541 301.147 144.612 301.168C145.746 301.189 146.537 301.735 146.684 302.624L147.734 302.435C147.58 301.119 146.334 300.23 144.626 300.23C142.918 300.23 141.756 301.098 141.756 302.386C141.756 303.443 142.386 303.94 144.437 304.493C146.355 305.011 146.677 305.221 146.677 305.921C146.677 306.747 145.97 307.265 144.822 307.265C143.646 307.265 142.792 306.719 142.575 305.858L141.525 306.033C141.784 307.398 142.995 308.203 144.766 308.203ZM153.416 301.322V300.44H151.099V298.34H150.077V300.44H148.46V301.322H150.077V305.263C150.077 306.005 150.042 306.544 150.315 307.097C150.812 308.105 152.135 308.266 153.416 308V307.097C152.331 307.272 151.589 307.209 151.253 306.579C151.071 306.257 151.099 305.858 151.099 305.221V301.322H153.416ZM157.789 308.21C160.029 308.21 161.373 306.593 161.373 304.213C161.373 301.875 160.057 300.23 157.789 300.23C155.577 300.23 154.212 301.833 154.212 304.213C154.212 306.558 155.535 308.21 157.789 308.21ZM157.789 307.223C156.151 307.223 155.304 306.033 155.304 304.213C155.304 302.449 156.095 301.217 157.789 301.217C159.455 301.217 160.281 302.393 160.281 304.213C160.281 305.998 159.469 307.223 157.789 307.223ZM164.43 300.937C164.213 301.105 164.003 301.35 163.842 301.637V300.44H162.918V308H163.947V304.227C163.947 303.324 164.073 302.344 164.829 301.749C165.375 301.301 166.075 301.273 166.635 301.406V300.44C165.97 300.272 165.025 300.419 164.43 300.937ZM168.21 300.44H167.118L170.191 307.986L168.945 311.36H169.974L174.034 300.44H172.984L170.688 306.656L168.21 300.44Z" fill="white"/>
</svg>

