<svg width="157" height="154" viewBox="0 0 157 154" fill="none" xmlns="http://www.w3.org/2000/svg">
<rect width="229.363" height="52" transform="translate(-44 116.165) rotate(-44.2908)" fill="white"/>
<path d="M29.3117 77.9675C28.384 78.8725 27.8173 80.0959 27.7169 81.3506L23.9522 76.9931L29.4066 71.6721L28.2251 70.461L21.6197 76.9049L27.518 83.7072L29.1383 83.0654C28.8909 81.7979 29.1883 80.4014 30.3564 79.2618C31.9198 77.7367 34.5085 77.6924 36.1007 79.3244C37.6425 80.9049 37.6787 83.4681 36.0294 85.077C34.7582 86.3172 32.7342 86.6655 31.092 85.6523L30.1993 87.1602C32.4486 88.4864 35.2777 88.2244 37.2018 86.3474C39.4952 84.1101 39.5755 80.3603 37.3633 78.0926C35.1344 75.8078 31.588 75.7469 29.3117 77.9675ZM47.5033 76.2978C49.7967 74.0604 49.8394 70.6157 47.602 68.3222L42.9094 63.512C40.6721 61.2186 37.2273 61.1759 34.9339 63.4133C32.6404 65.6506 32.5978 69.0954 34.8352 71.3888L39.5277 76.1991C41.7651 78.4925 45.2099 78.5351 47.5033 76.2978ZM46.3134 75.078C44.793 76.5612 42.3494 76.531 40.8663 75.0106L36.0564 70.0802C34.5648 68.5512 34.595 66.1076 36.1154 64.6244C37.6358 63.1412 40.0793 63.1715 41.5709 64.7004L46.3808 69.6309C47.864 71.1513 47.8338 73.5948 46.3134 75.078ZM50.336 60.4582C52.0367 58.799 52.0875 56.0672 50.4116 54.3492C48.7357 52.6313 46.0034 52.6145 44.3026 54.2736C42.6534 55.8825 42.5846 58.699 44.227 60.3826C45.9029 62.1005 48.6352 62.1173 50.336 60.4582ZM55.2016 45.8038L53.513 45.7914L53.2058 68.5553L54.9027 68.5763L55.2016 45.8038ZM49.2215 59.3157C48.1649 60.3464 46.4001 60.3246 45.3694 59.2681C44.3388 58.2115 44.3606 56.4467 45.4171 55.416C46.4737 54.3854 48.2385 54.4072 49.2691 55.4637C50.2998 56.5203 50.278 58.2851 49.2215 59.3157ZM64.1131 60.0941C65.8139 58.4349 65.8647 55.7031 64.1887 53.9852C62.5128 52.2672 59.7806 52.2504 58.0798 53.9095C56.4306 55.5184 56.3618 58.3349 58.0042 60.0185C59.6801 61.7364 62.4124 61.7533 64.1131 60.0941ZM62.9986 58.9517C61.9335 59.9907 60.1687 59.9689 59.138 58.9124C58.1073 57.8558 58.1292 56.091 59.1943 55.052C60.2508 54.0213 62.0156 54.0431 63.0463 55.0996C64.077 56.1562 64.0552 57.921 62.9986 58.9517ZM76.7496 47.7666C79.4983 45.0852 79.2118 41.4921 76.3627 38.5716C73.5639 35.7026 69.9799 35.2594 67.1968 37.9744C64.4825 40.6224 64.7264 44.2234 67.5755 47.1439C70.3827 50.0215 73.9837 50.4649 76.7496 47.7666ZM75.5681 46.5555C73.5581 48.5163 71.0942 48.07 68.9155 45.8367C66.8038 43.6721 66.2997 41.2134 68.3784 39.1856C70.4227 37.1912 72.844 37.6455 75.0227 39.8788C77.1595 42.0692 77.6296 44.5444 75.5681 46.5555ZM81.5189 20.0462L80.4798 18.9811L79.2945 20.1374C78.5815 20.8329 77.8841 21.6475 77.9207 22.802C77.9502 23.8461 78.5854 24.6347 79.2809 25.3476L79.9513 26.0348L75.9227 29.9648L75.1183 29.1402C74.1379 28.1353 74.1662 27.2191 75.1282 26.2806L76.2277 25.208L75.1886 24.1429L74.0032 25.2993C73.2903 25.9948 72.5929 26.8093 72.6295 27.9638C72.659 29.008 73.2942 29.7965 73.9897 30.5095L74.66 31.1966L73.0538 32.7636L74.1096 33.8459L75.7159 32.2789L83.71 40.4735L84.9727 39.2417L76.9785 31.0471L81.0071 27.1171L89.0012 35.3116L90.2639 34.0798L82.2698 25.8853L84.8037 23.4133L83.7479 22.331L81.2139 24.803L80.4095 23.9784C79.4291 22.9734 79.4574 22.0573 80.4194 21.1188L81.5189 20.0462Z" fill="#1BD47B"/>
</svg>
