<svg width="60" height="60" viewBox="0 0 60 60" fill="none" xmlns="http://www.w3.org/2000/svg">
<ellipse cx="29.6552" cy="30" rx="29.6552" ry="30" fill="#525A65"/>
<path d="M22.0039 30.0199V34.9899C22.0039 36.8099 22.0039 36.8099 23.7041 37.9699L28.3798 40.6999C29.0816 41.1099 30.2283 41.1099 30.9301 40.6999L35.6057 37.9699C37.306 36.8099 37.306 36.8099 37.306 34.9899V30.0199C37.306 28.1999 37.306 28.1999 35.6057 27.0399L30.9301 24.3099C30.2283 23.8999 29.0816 23.8999 28.3798 24.3099L23.7041 27.0399C22.0039 28.1999 22.0039 28.1999 22.0039 30.0199Z" stroke="white" stroke-width="1.5" stroke-linecap="round" stroke-linejoin="round"/>
<path d="M35.0913 26.63V24C35.0913 22 34.1028 21 32.1258 21H27.1833C25.2063 21 24.2178 22 24.2178 24V26.56" stroke="white" stroke-width="1.5" stroke-linecap="round" stroke-linejoin="round"/>
<path d="M30.2782 29.99L30.8416 30.88C30.9306 31.02 31.1283 31.16 31.2766 31.2L32.2848 31.46C32.9076 31.62 33.0756 32.16 32.6703 32.66L32.008 33.47C31.9092 33.6 31.8301 33.83 31.84 33.99L31.8993 35.04C31.9389 35.69 31.4841 36.02 30.891 35.78L29.9223 35.39C29.774 35.33 29.5269 35.33 29.3786 35.39L28.4099 35.78C27.8168 36.02 27.3621 35.68 27.4016 35.04L27.4609 33.99C27.4708 33.83 27.3917 33.59 27.2929 33.47L26.6306 32.66C26.2253 32.16 26.3933 31.62 27.0161 31.46L28.0244 31.2C28.1825 31.16 28.3802 31.01 28.4593 30.88L29.0228 29.99C29.3786 29.45 29.9322 29.45 30.2782 29.99Z" stroke="white" stroke-width="1.5" stroke-linecap="round" stroke-linejoin="round"/>
</svg>
