<svg width="59" height="60" viewBox="0 0 59 60" fill="none" xmlns="http://www.w3.org/2000/svg">
<ellipse cx="29.3143" cy="30" rx="29.3143" ry="30" fill="#525A65"/>
<path d="M29.3342 20.9099C26.0999 20.9099 23.4714 23.5999 23.4714 26.9099V29.7999C23.4714 30.4099 23.2173 31.3399 22.9144 31.8599L21.7907 33.7699C21.0969 34.9499 21.5757 36.2599 22.846 36.6999C27.0575 38.1399 31.6012 38.1399 35.8127 36.6999C36.995 36.2999 37.5129 34.8699 36.868 33.7699L35.7443 31.8599C35.4512 31.3399 35.1971 30.4099 35.1971 29.7999V26.9099C35.1971 23.6099 32.5588 20.9099 29.3342 20.9099Z" stroke="white" stroke-width="1.5" stroke-miterlimit="10" stroke-linecap="round"/>
<path d="M31.1418 21.1999C30.8389 21.1099 30.5262 21.0399 30.2037 20.9999C29.2657 20.8799 28.3667 20.9499 27.5264 21.1999C27.8097 20.4599 28.5133 19.9399 29.3341 19.9399C30.1549 19.9399 30.8584 20.4599 31.1418 21.1999Z" stroke="white" stroke-width="1.5" stroke-miterlimit="10" stroke-linecap="round" stroke-linejoin="round"/>
<path d="M32.2657 37.0601C32.2657 38.7101 30.9465 40.0601 29.3343 40.0601C28.533 40.0601 27.7904 39.7201 27.2627 39.1801C26.7351 38.6401 26.4028 37.8801 26.4028 37.0601" stroke="white" stroke-width="1.5" stroke-miterlimit="10"/>
</svg>
