<svg width="19" height="18" viewBox="0 0 19 18" fill="none" xmlns="http://www.w3.org/2000/svg">
<path d="M6.91991 5.50519L9.35832 0.35191C9.40515 0.248242 9.47832 0.160682 9.56952 0.0992004C9.66071 0.0377187 9.76625 0.00478551 9.87413 0.00415039C10.0784 0.00415039 10.2828 0.119673 10.3933 0.35191L12.8317 5.50519L18.3002 6.3341C18.4366 6.35696 18.5613 6.42927 18.6534 6.53883C18.7456 6.6484 18.7995 6.78851 18.806 6.93553C18.8138 7.03341 18.8008 7.13191 18.7679 7.22367C18.7351 7.31544 18.6832 7.3981 18.6162 7.46551L14.6828 11.4624L15.6095 17.0956C15.6966 17.6232 15.2076 18.0365 14.7766 17.8007L9.87413 15.1139L4.97388 17.8007C4.92262 17.829 4.86768 17.8491 4.81087 17.8602C4.42904 17.9317 4.06506 17.5577 4.14098 17.0956L5.06767 11.4624L1.13541 7.46551C1.07427 7.40382 1.02568 7.32938 0.992648 7.24681C0.959613 7.16425 0.942841 7.07532 0.943372 6.98555C0.94343 6.85864 0.976265 6.7342 1.03827 6.62588C1.08226 6.54736 1.14222 6.48038 1.21371 6.42988C1.28521 6.37938 1.36643 6.34665 1.45137 6.3341L6.91991 5.50519ZM9.87413 13.7323C9.96425 13.7319 10.0531 13.7548 10.1332 13.799L14.2485 16.0547L13.4737 11.3421C13.4554 11.2337 13.4623 11.1222 13.4938 11.0173C13.5254 10.9125 13.5806 10.8175 13.6545 10.7406L16.9002 7.44169L12.3762 6.7557C12.2825 6.74061 12.1936 6.70152 12.1172 6.64178C12.0408 6.58205 11.9791 6.50344 11.9374 6.4127L9.87525 2.05617L9.87413 2.05975V13.7311V13.7323Z" fill="#F49D37"/>
</svg>
