<svg width="64" height="65" viewBox="0 0 64 65" fill="none" xmlns="http://www.w3.org/2000/svg">
<rect y="0.0146484" width="64" height="64" rx="32" fill="#000718"/>
<g clip-path="url(#clip0_144_1538)">
<path fill-rule="evenodd" clip-rule="evenodd" d="M45.334 17.0146H18.6673C16.834 17.0146 15.334 18.5146 15.334 20.348V43.6813C15.334 45.5146 16.834 47.0146 18.6673 47.0146H45.334C47.1673 47.0146 48.6673 45.5146 48.6673 43.6813V20.348C48.6673 18.5146 47.1673 17.0146 45.334 17.0146ZM28.6673 40.348H20.334V37.0146H28.6673V40.348ZM28.6673 33.6813H20.334V30.348H28.6673V33.6813ZM28.6673 27.0146H20.334V23.6813H28.6673V27.0146ZM36.7007 37.0146L32.0007 32.2813L34.3507 29.9313L36.7007 32.298L41.984 27.0146L44.3507 29.3813L36.7007 37.0146Z" fill="#FDFDFD"/>
</g>
<defs>
<clipPath id="clip0_144_1538">
<rect width="40" height="40" fill="white" transform="translate(12 12.0146)"/>
</clipPath>
</defs>
</svg>
