<svg width="26" height="31" viewBox="0 0 26 31" fill="none" xmlns="http://www.w3.org/2000/svg">
<path d="M21.402 16.3575C21.3887 13.92 22.4912 12.0802 24.7229 10.7252C23.4742 8.93857 21.5879 7.95557 19.0972 7.76296C16.7394 7.57698 14.1623 9.13782 13.2192 9.13782C12.2229 9.13782 9.9381 7.82938 8.14479 7.82938C4.43863 7.88915 0.5 10.785 0.5 16.6763C0.5 18.4165 0.81881 20.2143 1.45643 22.0695C2.30659 24.5071 5.37513 30.4848 8.57651 30.3852C10.2503 30.3453 11.4325 29.1963 13.6111 29.1963C15.7232 29.1963 16.8191 30.3852 18.6854 30.3852C21.9134 30.3387 24.6897 24.9056 25.5 22.4614C21.1695 20.4224 21.402 16.4837 21.402 16.3575ZM17.6427 5.45159C19.4559 3.29962 19.2899 1.34027 19.2367 0.63623C17.636 0.729217 15.7829 1.7255 14.7269 2.95424C13.5646 4.26933 12.8804 5.89659 13.0266 7.72975C14.7601 7.86259 16.3409 6.97257 17.6427 5.45159Z" fill="#E8FBF2"/>
</svg>
