<svg width="15" height="16" viewBox="0 0 15 16" fill="none" xmlns="http://www.w3.org/2000/svg">
<path d="M9.73745 7.99995C9.73745 9.23745 8.73745 10.2375 7.49995 10.2375C6.26245 10.2375 5.26245 9.23745 5.26245 7.99995C5.26245 6.76245 6.26245 5.76245 7.49995 5.76245C8.73745 5.76245 9.73745 6.76245 9.73745 7.99995Z" stroke="#8A8D95" stroke-width="1.5" stroke-linecap="round" stroke-linejoin="round"/>
<path d="M7.4999 13.1687C9.70615 13.1687 11.7624 11.8687 13.1937 9.6187C13.7562 8.73745 13.7562 7.2562 13.1937 6.37495C11.7624 4.12495 9.70615 2.82495 7.4999 2.82495C5.29365 2.82495 3.2374 4.12495 1.80615 6.37495C1.24365 7.2562 1.24365 8.73745 1.80615 9.6187C3.2374 11.8687 5.29365 13.1687 7.4999 13.1687Z" stroke="#8A8D95" stroke-width="1.5" stroke-linecap="round" stroke-linejoin="round"/>
</svg>
