<svg width="451" height="336" viewBox="0 0 451 336" fill="none" xmlns="http://www.w3.org/2000/svg">
<path d="M2.296 18V12.824H6.776V11.656H2.296V7.656H7.736V6.48H1.12V18H2.296ZM13.6785 18.24C16.3105 18.24 18.1745 16.488 18.1745 13.84V6.48H16.9905V13.688C16.9905 16.08 15.1745 17.128 13.6785 17.128C12.1985 17.128 10.3665 16.088 10.3665 13.688V6.48L9.1825 6.488V13.84C9.1825 16.504 11.0465 18.24 13.6785 18.24ZM21.6009 8.552L27.9449 18H29.1289V6.48H27.9449V15.92L21.6009 6.48H20.4169V18H21.6009V8.552ZM34.866 18C35.09 18 35.81 18 36.346 17.928C38.97 17.568 40.298 15.192 40.298 12.24C40.298 9.304 38.97 6.912 36.346 6.552C35.794 6.48 35.106 6.48 34.866 6.48H31.37V18H34.866ZM32.586 7.608H34.866C35.282 7.608 35.858 7.632 36.226 7.704C38.226 8.056 39.05 9.912 39.05 12.24C39.05 14.536 38.242 16.424 36.226 16.776C35.858 16.848 35.298 16.872 34.866 16.872H32.586V7.608ZM41.0075 18H42.2315L43.1995 15.208H48.3115L49.2795 18H50.5035L46.5355 6.48H44.9755L41.0075 18ZM45.7435 7.8L47.9275 14.104H43.5755L45.7435 7.8ZM53.0761 18V9.104L57.1721 18H57.9321L62.0361 9.104V17.992H63.1561V6.48H62.0601L57.5561 16.168L53.0281 6.48H51.9481V18H53.0761ZM66.5773 16.872V12.72H71.6413V11.592H66.5773V7.608H72.6013V6.48H65.4013V18H72.6013V16.872H66.5773ZM75.7103 8.552L82.0543 18H83.2383V6.48H82.0543V15.92L75.7103 6.48H74.5263V18H75.7103V8.552ZM89.7194 18V7.608H93.7434V6.48H84.5194V7.608H88.5434V18H89.7194ZM93.9138 18H95.1378L96.1058 15.208H101.218L102.186 18H103.41L99.4418 6.48H97.8818L93.9138 18ZM98.6498 7.8L100.834 14.104H96.4818L98.6498 7.8ZM111.662 18V16.872H106.19V6.48H105.014V18H111.662ZM117.026 18.24C119.434 18.24 121.234 17 121.234 14.856C121.234 12.672 119.37 12.104 118.434 11.84L116.178 11.176C115.282 10.92 114.13 10.528 114.13 9.36C114.13 8.216 115.274 7.36 116.818 7.368C118.426 7.384 119.706 8.336 119.938 9.832L121.17 9.608C120.794 7.536 119.13 6.256 116.826 6.248C114.554 6.24 112.89 7.464 112.89 9.408C112.89 10.952 113.938 11.752 115.346 12.168L118.266 13.04C119.066 13.28 120.034 13.72 120.034 14.904C120.034 16.264 118.778 17.112 117.074 17.112C115.354 17.112 114.026 16.216 113.642 14.72L112.442 14.92C112.834 16.968 114.618 18.24 117.026 18.24Z" fill="#B0B2B7"/>
<path d="M2.248 76V67.104L6.344 76H7.104L11.208 67.104V75.992H12.328V64.48H11.232L6.728 74.168L2.2 64.48H1.12V76H2.248ZM21.6251 68.848C21.1691 67.728 20.0171 67.12 18.4411 67.12C16.5371 67.12 15.3211 68.016 14.9211 69.56L16.0651 69.896C16.3931 68.744 17.2411 68.232 18.4251 68.232C20.0651 68.232 20.7131 68.984 20.7291 70.544C19.5771 70.704 17.9611 70.888 16.7931 71.168C15.5051 71.512 14.5931 72.264 14.5931 73.68C14.5931 75.056 15.5851 76.24 17.5451 76.24C19.0171 76.24 20.1611 75.664 20.8331 74.568V76H21.8811V70.632C21.8811 69.992 21.8331 69.352 21.6251 68.848ZM17.6811 75.224C16.2891 75.224 15.7691 74.432 15.7691 73.68C15.7691 72.744 16.5291 72.328 17.2651 72.112C18.2171 71.848 19.5771 71.712 20.7131 71.576C20.7131 71.968 20.6971 72.528 20.6011 72.952C20.3771 74.256 19.3291 75.224 17.6811 75.224ZM26.1918 67.928C25.9438 68.12 25.7038 68.4 25.5198 68.728V67.36H24.4638V76H25.6398V71.688C25.6398 70.656 25.7838 69.536 26.6478 68.856C27.2718 68.344 28.0718 68.312 28.7118 68.464V67.36C27.9518 67.168 26.8718 67.336 26.1918 67.928ZM37.5054 76L33.4814 71.024L37.2974 67.36H35.8334L31.8574 71.12V64.48H30.7294L30.7214 76H31.8574V72.584L32.6814 71.792L36.1054 76H37.5054ZM46.5946 72.008C46.6826 68.96 45.1786 67.12 42.6186 67.12C40.1226 67.12 38.5306 68.888 38.5306 71.72C38.5306 74.456 40.1466 76.24 42.6666 76.24C44.3386 76.24 45.7386 75.384 46.4266 73.872L45.3306 73.448C44.7946 74.528 43.8506 75.112 42.6186 75.112C40.8986 75.112 39.8826 73.984 39.7866 72.008H46.5946ZM42.6506 68.2C44.2586 68.2 45.1786 69.16 45.3626 71.024H39.8106C39.9946 69.208 40.9866 68.2 42.6506 68.2ZM53.574 68.368V67.36H50.926V64.96H49.758V67.36H47.91V68.368H49.758V72.872C49.758 73.72 49.718 74.336 50.03 74.968C50.598 76.12 52.11 76.304 53.574 76V74.968C52.334 75.168 51.486 75.096 51.102 74.376C50.894 74.008 50.926 73.552 50.926 72.824V68.368H53.574ZM64.1434 76.24C66.8154 76.24 68.5354 74.76 69.1674 72.456L67.9674 72.144C67.4794 73.96 66.2074 75.112 64.1434 75.112C61.4394 75.112 60.0634 73.12 60.0794 70.24C60.1034 67.36 61.4394 65.368 64.1434 65.368C66.2074 65.368 67.4794 66.52 67.9674 68.336L69.1674 68.024C68.5354 65.72 66.8154 64.24 64.1434 64.24C60.7034 64.24 58.8394 66.696 58.8394 70.24C58.8394 73.784 60.7034 76.24 64.1434 76.24ZM77.9845 68.848C77.5285 67.728 76.3765 67.12 74.8005 67.12C72.8965 67.12 71.6805 68.016 71.2805 69.56L72.4245 69.896C72.7525 68.744 73.6005 68.232 74.7845 68.232C76.4245 68.232 77.0725 68.984 77.0885 70.544C75.9365 70.704 74.3205 70.888 73.1525 71.168C71.8645 71.512 70.9525 72.264 70.9525 73.68C70.9525 75.056 71.9445 76.24 73.9045 76.24C75.3765 76.24 76.5205 75.664 77.1925 74.568V76H78.2405V70.632C78.2405 69.992 78.1925 69.352 77.9845 68.848ZM74.0405 75.224C72.6485 75.224 72.1285 74.432 72.1285 73.68C72.1285 72.744 72.8885 72.328 73.6245 72.112C74.5765 71.848 75.9365 71.712 77.0725 71.576C77.0725 71.968 77.0565 72.528 76.9605 72.952C76.7365 74.256 75.6885 75.224 74.0405 75.224ZM84.7511 67.12C83.4711 67.12 82.5031 67.656 81.8711 68.552V67.36H80.8151V79.84H81.9991V74.968C82.6231 75.76 83.5351 76.24 84.7031 76.24C87.1271 76.24 88.5351 74.264 88.5351 71.672C88.5351 69.096 87.1191 67.12 84.7511 67.12ZM84.5831 75.144C82.7431 75.144 81.8711 73.672 81.8711 71.672C81.8711 69.64 82.7591 68.216 84.5591 68.216C86.4151 68.216 87.2871 69.72 87.2871 71.672C87.2871 73.64 86.3831 75.144 84.5831 75.144Z" fill="#545964"/>
<path d="M382.413 73.31C382.413 71.501 381.495 70.475 379.317 69.827L376.932 69.134C375.609 68.747 375.024 68.207 375.024 67.415C375.024 66.335 376.095 65.534 377.517 65.561C379.02 65.579 380.163 66.524 380.415 67.919L382.332 67.577C381.891 65.534 380.532 64.211 378.543 63.869V62.249H376.662V63.833C374.502 64.121 373.143 65.507 373.143 67.505C373.143 69.089 374.079 70.196 375.843 70.745L378.885 71.681C380.064 72.059 380.55 72.554 380.55 73.418C380.55 74.633 379.407 75.497 377.787 75.497C376.14 75.497 374.88 74.525 374.52 72.986L372.657 73.283C373.008 75.407 374.511 76.847 376.662 77.189V78.791H378.543V77.216C380.892 76.928 382.413 75.434 382.413 73.31ZM393.15 63.779C390.729 63.779 388.704 65.696 388.704 68.126C388.704 70.547 390.477 72.383 392.898 72.383C393.969 72.383 394.959 71.951 395.688 71.222V72.77C395.688 74.192 394.572 75.488 392.961 75.488C392.124 75.488 391.35 75.083 390.855 74.444L389.478 75.731C390.36 76.748 391.593 77.27 392.961 77.27C395.706 77.27 397.605 75.362 397.605 72.527V68.396C397.605 65.723 395.661 63.779 393.15 63.779ZM393.141 70.664C391.737 70.664 390.612 69.53 390.612 68.126C390.612 66.722 391.746 65.588 393.15 65.588C394.554 65.588 395.688 66.74 395.688 68.126C395.688 69.53 394.545 70.664 393.141 70.664ZM408.384 65.831V64.04H400.59V65.831H406.08L402.12 69.332L403.002 70.817C403.371 70.619 403.812 70.493 404.226 70.493C405.666 70.493 406.647 71.537 406.647 72.977C406.647 74.408 405.666 75.443 404.244 75.461C403.182 75.47 402.237 74.867 401.895 73.742L400.077 74.246C400.626 76.091 402.318 77.243 404.244 77.243C406.665 77.243 408.573 75.452 408.573 72.977C408.573 70.871 407.277 69.188 405.18 68.909L408.384 65.831ZM412.741 77.153C413.416 77.153 413.911 76.631 413.911 75.983C413.911 75.326 413.416 74.813 412.741 74.813C412.066 74.813 411.562 75.326 411.562 75.983C411.562 76.631 412.066 77.153 412.741 77.153ZM423.369 71.852C424.773 70.619 425.475 69.809 425.475 68.036C425.475 65.579 423.63 63.77 421.182 63.77C418.599 63.77 416.754 65.489 416.754 68H418.68C418.662 66.695 419.706 65.561 421.146 65.561C422.541 65.561 423.54 66.623 423.54 68.009C423.54 68.747 423.27 69.449 422.361 70.259L416.718 75.317L416.709 76.991H425.475V75.2H419.616L423.369 71.852ZM432.651 77.27C435.288 77.27 437.169 75.389 437.169 72.752V68.288C437.169 65.651 435.288 63.77 432.651 63.77C430.014 63.77 428.133 65.651 428.133 68.288V72.752C428.133 75.389 430.014 77.27 432.651 77.27ZM432.651 75.47C431.202 75.47 430.05 74.318 430.05 72.869V68.153C430.05 66.713 431.202 65.561 432.651 65.561C434.1 65.561 435.252 66.713 435.252 68.153V72.869C435.252 74.318 434.1 75.47 432.651 75.47ZM447.652 70.151C448.507 69.656 449.029 68.711 449.029 67.523C449.029 65.759 447.751 64.04 445.276 64.04H440.182V77H445.762C448.228 77 449.641 75.506 449.641 73.22C449.641 71.843 448.939 70.7 447.652 70.151ZM445.249 65.813C446.374 65.813 447.103 66.533 447.103 67.541C447.103 68.675 446.293 69.332 445.249 69.332H442.09V65.813H445.249ZM442.09 75.209V71.105H445.591C446.887 71.105 447.715 72.005 447.715 73.184C447.715 74.444 446.761 75.209 445.474 75.209H442.09Z" fill="#545964"/>
<line y1="101.75" x2="451" y2="101.75" stroke="#B0B2B7" stroke-width="0.5"/>
<path d="M5.736 130.24C9.12 130.24 10.8 127.92 10.8 124.808C10.8 124.696 10.792 124.376 10.768 124.128H5.864V125.136H9.536C9.416 127.592 8.256 129.12 5.784 129.112C3.08 129.096 1.704 127.12 1.728 124.24C1.752 121.36 3.08 119.368 5.784 119.384C7.48 119.384 8.608 120.28 9.12 121.6L10.304 121.312C9.696 119.472 8.184 118.248 5.736 118.248C2.44 118.248 0.48 120.616 0.48 124.24C0.48 127.888 2.472 130.24 5.736 130.24ZM14.6293 121.928C14.3813 122.12 14.1413 122.4 13.9573 122.728V121.36H12.9013V130H14.0773V125.688C14.0773 124.656 14.2213 123.536 15.0853 122.856C15.7093 122.344 16.5093 122.312 17.1493 122.464V121.36C16.3893 121.168 15.3093 121.336 14.6293 121.928ZM22.6186 130.24C25.1786 130.24 26.7146 128.392 26.7146 125.672C26.7146 123 25.2106 121.12 22.6186 121.12C20.0906 121.12 18.5306 122.952 18.5306 125.672C18.5306 128.352 20.0426 130.24 22.6186 130.24ZM22.6186 129.112C20.7466 129.112 19.7786 127.752 19.7786 125.672C19.7786 123.656 20.6826 122.248 22.6186 122.248C24.5226 122.248 25.4666 123.592 25.4666 125.672C25.4666 127.712 24.5386 129.112 22.6186 129.112ZM32.1253 130.232C34.2453 130.232 35.5333 129.24 35.5333 127.608C35.5333 126.272 34.7893 125.656 32.4053 125.048C30.3653 124.536 29.8773 124.216 29.8773 123.528C29.8773 122.712 30.7253 122.168 31.9493 122.192C33.2453 122.216 34.1493 122.84 34.3173 123.856L35.5173 123.64C35.3413 122.136 33.9173 121.12 31.9653 121.12C30.0133 121.12 28.6853 122.112 28.6853 123.584C28.6853 124.792 29.4053 125.36 31.7493 125.992C33.9413 126.584 34.3093 126.824 34.3093 127.624C34.3093 128.568 33.5013 129.16 32.1892 129.16C30.8453 129.16 29.8693 128.536 29.6213 127.552L28.4213 127.752C28.7173 129.312 30.1013 130.232 32.1253 130.232ZM41.0315 130.232C43.1515 130.232 44.4395 129.24 44.4395 127.608C44.4395 126.272 43.6955 125.656 41.3115 125.048C39.2715 124.536 38.7835 124.216 38.7835 123.528C38.7835 122.712 39.6315 122.168 40.8555 122.192C42.1515 122.216 43.0555 122.84 43.2235 123.856L44.4235 123.64C44.2475 122.136 42.8235 121.12 40.8715 121.12C38.9195 121.12 37.5915 122.112 37.5915 123.584C37.5915 124.792 38.3115 125.36 40.6555 125.992C42.8475 126.584 43.2155 126.824 43.2155 127.624C43.2155 128.568 42.4075 129.16 41.0955 129.16C39.7515 129.16 38.7755 128.536 38.5275 127.552L37.3275 127.752C37.6235 129.312 39.0075 130.232 41.0315 130.232ZM54.3449 121.12C53.0649 121.12 52.0969 121.656 51.4649 122.552V121.36H50.4089V133.84H51.5929V128.968C52.2169 129.76 53.1289 130.24 54.2969 130.24C56.7209 130.24 58.1289 128.264 58.1289 125.672C58.1289 123.096 56.7129 121.12 54.3449 121.12ZM54.1769 129.144C52.3369 129.144 51.4649 127.672 51.4649 125.672C51.4649 123.64 52.3529 122.216 54.1529 122.216C56.0089 122.216 56.8809 123.72 56.8809 125.672C56.8809 127.64 55.9769 129.144 54.1769 129.144ZM62.1136 121.928C61.8656 122.12 61.6256 122.4 61.4416 122.728V121.36H60.3856V130H61.5616V125.688C61.5616 124.656 61.7056 123.536 62.5696 122.856C63.1936 122.344 63.9936 122.312 64.6336 122.464V121.36C63.8736 121.168 62.7936 121.336 62.1136 121.928ZM70.103 130.24C72.663 130.24 74.199 128.392 74.199 125.672C74.199 123 72.695 121.12 70.103 121.12C67.575 121.12 66.015 122.952 66.015 125.672C66.015 128.352 67.527 130.24 70.103 130.24ZM70.103 129.112C68.231 129.112 67.263 127.752 67.263 125.672C67.263 123.656 68.167 122.248 70.103 122.248C72.007 122.248 72.951 123.592 72.951 125.672C72.951 127.712 72.023 129.112 70.103 129.112ZM77.8558 118.872C77.3838 119.384 77.3198 120.056 77.3198 120.72V121.36H75.8238V122.368H77.3198V130H78.4958V122.368H80.8558V121.36H78.4958V120.592C78.4958 119.656 78.9358 119.232 79.8318 119.232H80.8558V118.24H79.7517C79.0878 118.24 78.3758 118.304 77.8558 118.872ZM83.1198 118.248C82.6558 118.248 82.3038 118.6 82.3038 119.064C82.3038 119.52 82.6558 119.872 83.1198 119.872C83.5838 119.872 83.9438 119.52 83.9438 119.064C83.9438 118.6 83.5838 118.248 83.1198 118.248ZM83.7118 130V121.36H82.5358V130H83.7118ZM91.3084 122.368V121.36H88.6604V118.96H87.4924V121.36H85.6444V122.368H87.4924V126.872C87.4924 127.72 87.4524 128.336 87.7644 128.968C88.3324 130.12 89.8444 130.304 91.3084 130V128.968C90.0684 129.168 89.2204 129.096 88.8364 128.376C88.6284 128.008 88.6604 127.552 88.6604 126.824V122.368H91.3084ZM103.398 122.552C102.766 121.656 101.798 121.12 100.518 121.12C98.1497 121.12 96.7338 123.096 96.7338 125.672C96.7338 128.264 98.1418 130.24 100.566 130.24C101.734 130.24 102.638 129.76 103.262 128.976V129.864C103.27 131.896 102.518 132.936 100.646 132.936C99.7338 132.936 98.7738 132.544 98.3018 131.584L97.2378 132.176C97.9738 133.52 99.3178 134.08 100.646 134.08C102.758 134.08 104.038 133.184 104.35 131.256C104.422 130.816 104.446 130.376 104.446 129.88V121.36H103.398V122.552ZM100.686 129.144C98.8858 129.144 97.9818 127.64 97.9818 125.672C97.9818 123.72 98.8538 122.216 100.71 122.216C102.51 122.216 103.398 123.64 103.398 125.672C103.398 127.672 102.526 129.144 100.686 129.144ZM108.911 121.928C108.663 122.12 108.423 122.4 108.239 122.728V121.36H107.183V130H108.359V125.688C108.359 124.656 108.503 123.536 109.367 122.856C109.991 122.344 110.791 122.312 111.431 122.464V121.36C110.671 121.168 109.591 121.336 108.911 121.928ZM116.9 130.24C119.46 130.24 120.996 128.392 120.996 125.672C120.996 123 119.492 121.12 116.9 121.12C114.372 121.12 112.812 122.952 112.812 125.672C112.812 128.352 114.324 130.24 116.9 130.24ZM116.9 129.112C115.028 129.112 114.06 127.752 114.06 125.672C114.06 123.656 114.964 122.248 116.9 122.248C118.804 122.248 119.748 123.592 119.748 125.672C119.748 127.712 118.82 129.112 116.9 129.112ZM125.812 130L127.964 123.12L130.124 130H131.148L133.788 121.36H132.62L130.556 128.072L128.5 121.36H127.428L125.372 128.072L123.324 121.36L122.148 121.352L124.788 130H125.812ZM140.433 122.368V121.36H137.785V118.96H136.617V121.36H134.769V122.368H136.617V126.872C136.617 127.72 136.577 128.336 136.889 128.968C137.457 130.12 138.969 130.304 140.433 130V128.968C139.193 129.168 138.345 129.096 137.961 128.376C137.753 128.008 137.785 127.552 137.785 126.824V122.368H140.433ZM146.596 121.144C145.356 121.144 144.332 121.624 143.692 122.56V118.48H142.628V130H143.812V125.392C143.812 123.44 144.708 122.264 146.372 122.264C148.18 122.264 148.876 123.688 148.876 125.592V130H150.06V125.248C150.06 123.304 149.188 121.144 146.596 121.144ZM158.067 121.928C157.819 122.12 157.579 122.4 157.395 122.728V121.36H156.339V130H157.515V125.688C157.515 124.656 157.659 123.536 158.523 122.856C159.147 122.344 159.947 122.312 160.587 122.464V121.36C159.827 121.168 158.747 121.336 158.067 121.928ZM168.844 122.848C168.388 121.728 167.236 121.12 165.66 121.12C163.756 121.12 162.54 122.016 162.14 123.56L163.284 123.896C163.612 122.744 164.46 122.232 165.644 122.232C167.284 122.232 167.932 122.984 167.948 124.544C166.796 124.704 165.18 124.888 164.012 125.168C162.724 125.512 161.812 126.264 161.812 127.68C161.812 129.056 162.804 130.24 164.764 130.24C166.236 130.24 167.38 129.664 168.052 128.568V130H169.1V124.632C169.1 123.992 169.052 123.352 168.844 122.848ZM164.9 129.224C163.508 129.224 162.988 128.432 162.988 127.68C162.988 126.744 163.748 126.328 164.484 126.112C165.436 125.848 166.796 125.712 167.932 125.576C167.932 125.968 167.916 126.528 167.82 126.952C167.596 128.256 166.548 129.224 164.9 129.224ZM176.387 122.368V121.36H173.739V118.96H172.571V121.36H170.723V122.368H172.571V126.872C172.571 127.72 172.531 128.336 172.843 128.968C173.411 130.12 174.923 130.304 176.387 130V128.968C175.147 129.168 174.299 129.096 173.915 128.376C173.707 128.008 173.739 127.552 173.739 126.824V122.368H176.387ZM185.86 126.008C185.948 122.96 184.444 121.12 181.884 121.12C179.388 121.12 177.796 122.888 177.796 125.72C177.796 128.456 179.412 130.24 181.932 130.24C183.604 130.24 185.004 129.384 185.692 127.872L184.596 127.448C184.06 128.528 183.116 129.112 181.884 129.112C180.164 129.112 179.148 127.984 179.052 126.008H185.86ZM181.916 122.2C183.524 122.2 184.444 123.16 184.628 125.024H179.076C179.26 123.208 180.252 122.2 181.916 122.2ZM187.976 130H189.184L192.256 118.48H191.048L187.976 130ZM6.8 149.04C8.328 148.6 9.184 147.272 9.184 145.84C9.184 144.176 8.176 142.824 6.376 142.544C6.088 142.496 5.792 142.48 5.568 142.48H1.12V154H2.296V149.2H5.536L8.008 154H9.368L6.8 149.04ZM5.536 143.608C5.728 143.608 6.008 143.624 6.248 143.672C7.432 143.928 7.976 144.904 7.976 145.84C7.976 146.776 7.432 147.704 6.248 148.008C6.008 148.072 5.728 148.072 5.536 148.072H2.296V143.608H5.536ZM19.2978 150.008C19.3858 146.96 17.8818 145.12 15.3218 145.12C12.8258 145.12 11.2338 146.888 11.2338 149.72C11.2338 152.456 12.8498 154.24 15.3698 154.24C17.0418 154.24 18.4418 153.384 19.1298 151.872L18.0338 151.448C17.4978 152.528 16.5538 153.112 15.3218 153.112C13.6018 153.112 12.5858 151.984 12.4898 150.008H19.2978ZM15.3538 146.2C16.9618 146.2 17.8818 147.16 18.0658 149.024H12.5138C12.6978 147.208 13.6898 146.2 15.3538 146.2ZM24.8126 154L27.9486 145.36H26.7406L24.2046 152.464L21.6526 145.36H20.4606L23.5966 154H24.8126ZM37.1571 150.008C37.2451 146.96 35.7411 145.12 33.1811 145.12C30.6851 145.12 29.0931 146.888 29.0931 149.72C29.0931 152.456 30.7091 154.24 33.2291 154.24C34.9011 154.24 36.3011 153.384 36.9891 151.872L35.8931 151.448C35.3571 152.528 34.4131 153.112 33.1811 153.112C31.4611 153.112 30.4451 151.984 30.3491 150.008H37.1571ZM33.2131 146.2C34.8211 146.2 35.7411 147.16 35.9251 149.024H30.3731C30.5571 147.208 31.5491 146.2 33.2131 146.2ZM43.1581 145.144C41.9181 145.144 40.8941 145.624 40.2541 146.56V145.36H39.1901V154H40.3741V149.392C40.3741 147.44 41.2701 146.264 42.9341 146.264C44.7421 146.264 45.4381 147.688 45.4381 149.592V154H46.6221V149.248C46.6221 147.304 45.7501 145.144 43.1581 145.144ZM55.2861 149.968C55.2861 151.92 54.3901 153.096 52.7261 153.096C50.9181 153.096 50.2221 151.672 50.2221 149.768V145.36H49.0381V150.112C49.0381 152.056 49.9101 154.216 52.5021 154.216C53.7421 154.216 54.7661 153.736 55.4061 152.8V154H56.4621V145.36H55.2861V149.968ZM66.7821 150.008C66.8701 146.96 65.3661 145.12 62.8061 145.12C60.3101 145.12 58.7181 146.888 58.7181 149.72C58.7181 152.456 60.3341 154.24 62.8541 154.24C64.5261 154.24 65.9261 153.384 66.6141 151.872L65.5181 151.448C64.9821 152.528 64.0381 153.112 62.8061 153.112C61.0861 153.112 60.0701 151.984 59.9741 150.008H66.7821ZM62.8381 146.2C64.4461 146.2 65.3661 147.16 65.5501 149.024H59.9981C60.1821 147.208 61.1741 146.2 62.8381 146.2ZM78.9446 146.552C78.3126 145.656 77.3446 145.12 76.0646 145.12C73.6966 145.12 72.2806 147.096 72.2806 149.672C72.2806 152.264 73.6886 154.24 76.1126 154.24C77.2806 154.24 78.1846 153.76 78.8086 152.976V153.864C78.8166 155.896 78.0646 156.936 76.1926 156.936C75.2806 156.936 74.3206 156.544 73.8486 155.584L72.7846 156.176C73.5206 157.52 74.8646 158.08 76.1926 158.08C78.3046 158.08 79.5846 157.184 79.8966 155.256C79.9686 154.816 79.9926 154.376 79.9926 153.88V145.36H78.9446V146.552ZM76.2326 153.144C74.4326 153.144 73.5286 151.64 73.5286 149.672C73.5286 147.72 74.4006 146.216 76.2566 146.216C78.0566 146.216 78.9446 147.64 78.9446 149.672C78.9446 151.672 78.0726 153.144 76.2326 153.144ZM84.4574 145.928C84.2094 146.12 83.9694 146.4 83.7854 146.728V145.36H82.7294V154H83.9054V149.688C83.9054 148.656 84.0494 147.536 84.9134 146.856C85.5374 146.344 86.3374 146.312 86.9774 146.464V145.36C86.2174 145.168 85.1374 145.336 84.4574 145.928ZM92.4468 154.24C95.0068 154.24 96.5428 152.392 96.5428 149.672C96.5428 147 95.0388 145.12 92.4468 145.12C89.9188 145.12 88.3588 146.952 88.3588 149.672C88.3588 152.352 89.8708 154.24 92.4468 154.24ZM92.4468 153.112C90.5748 153.112 89.6068 151.752 89.6068 149.672C89.6068 147.656 90.5108 146.248 92.4468 146.248C94.3508 146.248 95.2948 147.592 95.2948 149.672C95.2948 151.712 94.3668 153.112 92.4468 153.112ZM101.359 154L103.511 147.12L105.671 154H106.695L109.335 145.36H108.167L106.103 152.072L104.047 145.36H102.975L100.919 152.072L98.871 145.36L97.695 145.352L100.335 154H101.359ZM115.98 146.368V145.36H113.332V142.96H112.164V145.36H110.316V146.368H112.164V150.872C112.164 151.72 112.124 152.336 112.436 152.968C113.004 154.12 114.516 154.304 115.98 154V152.968C114.74 153.168 113.892 153.096 113.508 152.376C113.3 152.008 113.332 151.552 113.332 150.824V146.368H115.98ZM122.143 145.144C120.903 145.144 119.879 145.624 119.239 146.56V142.48H118.175V154H119.359V149.392C119.359 147.44 120.255 146.264 121.919 146.264C123.727 146.264 124.423 147.688 124.423 149.592V154H125.607V149.248C125.607 147.304 124.735 145.144 122.143 145.144ZM133.614 145.928C133.366 146.12 133.126 146.4 132.942 146.728V145.36H131.886V154H133.062V149.688C133.062 148.656 133.206 147.536 134.07 146.856C134.694 146.344 135.494 146.312 136.134 146.464V145.36C135.374 145.168 134.294 145.336 133.614 145.928ZM144.391 146.848C143.935 145.728 142.783 145.12 141.207 145.12C139.303 145.12 138.087 146.016 137.687 147.56L138.831 147.896C139.159 146.744 140.007 146.232 141.191 146.232C142.831 146.232 143.479 146.984 143.495 148.544C142.343 148.704 140.727 148.888 139.559 149.168C138.271 149.512 137.359 150.264 137.359 151.68C137.359 153.056 138.351 154.24 140.311 154.24C141.783 154.24 142.927 153.664 143.599 152.568V154H144.647V148.632C144.647 147.992 144.599 147.352 144.391 146.848ZM140.447 153.224C139.055 153.224 138.535 152.432 138.535 151.68C138.535 150.744 139.295 150.328 140.031 150.112C140.983 149.848 142.343 149.712 143.479 149.576C143.479 149.968 143.463 150.528 143.367 150.952C143.143 152.256 142.095 153.224 140.447 153.224ZM151.933 146.368V145.36H149.285V142.96H148.117V145.36H146.269V146.368H148.117V150.872C148.117 151.72 148.077 152.336 148.389 152.968C148.957 154.12 150.469 154.304 151.933 154V152.968C150.693 153.168 149.845 153.096 149.461 152.376C149.253 152.008 149.285 151.552 149.285 150.824V146.368H151.933ZM161.407 150.008C161.495 146.96 159.991 145.12 157.431 145.12C154.935 145.12 153.343 146.888 153.343 149.72C153.343 152.456 154.959 154.24 157.479 154.24C159.151 154.24 160.551 153.384 161.239 151.872L160.143 151.448C159.607 152.528 158.663 153.112 157.431 153.112C155.711 153.112 154.695 151.984 154.599 150.008H161.407ZM157.463 146.2C159.071 146.2 159.991 147.16 160.175 149.024H154.623C154.807 147.208 155.799 146.2 157.463 146.2Z" fill="#545964"/>
<rect y="190.5" width="15" height="15" rx="2" fill="#49DD95"/>
<path d="M28.722 203V199.718H31.176C31.338 199.718 31.566 199.706 31.782 199.67C33.126 199.466 33.888 198.386 33.888 197.042C33.888 195.692 33.132 194.618 31.782 194.408C31.566 194.372 31.344 194.36 31.176 194.36H27.84V203H28.722ZM28.722 195.206H31.152C31.296 195.206 31.506 195.218 31.686 195.254C32.574 195.446 32.982 196.238 32.982 197.042C32.982 197.846 32.574 198.638 31.686 198.824C31.506 198.866 31.296 198.878 31.152 198.878H28.722V195.206ZM36.7782 196.946C36.5922 197.09 36.4122 197.3 36.2742 197.546V196.52H35.4822V203H36.3642V199.766C36.3642 198.992 36.4722 198.152 37.1202 197.642C37.5882 197.258 38.1882 197.234 38.6682 197.348V196.52C38.0982 196.376 37.2882 196.502 36.7782 196.946ZM42.7952 203.18C44.7152 203.18 45.8672 201.794 45.8672 199.754C45.8672 197.75 44.7392 196.34 42.7952 196.34C40.8992 196.34 39.7292 197.714 39.7292 199.754C39.7292 201.764 40.8632 203.18 42.7952 203.18ZM42.7952 202.334C41.3912 202.334 40.6652 201.314 40.6652 199.754C40.6652 198.242 41.3432 197.186 42.7952 197.186C44.2232 197.186 44.9312 198.194 44.9312 199.754C44.9312 201.284 44.2352 202.334 42.7952 202.334ZM48.6348 194.654C48.2808 195.038 48.2328 195.542 48.2328 196.04V196.52H47.1108V197.276H48.2328V203H49.1148V197.276H50.8848V196.52H49.1148V195.944C49.1148 195.242 49.4448 194.924 50.1168 194.924H50.8848V194.18H50.0568C49.5588 194.18 49.0248 194.228 48.6348 194.654ZM52.5828 194.186C52.2348 194.186 51.9708 194.45 51.9708 194.798C51.9708 195.14 52.2348 195.404 52.5828 195.404C52.9308 195.404 53.2008 195.14 53.2008 194.798C53.2008 194.45 52.9308 194.186 52.5828 194.186ZM53.0268 203V196.52H52.1448V203H53.0268ZM58.7493 197.276V196.52H56.7633V194.72H55.8873V196.52H54.5013V197.276H55.8873V200.654C55.8873 201.29 55.8573 201.752 56.0913 202.226C56.5173 203.09 57.6513 203.228 58.7493 203V202.226C57.8193 202.376 57.1833 202.322 56.8953 201.782C56.7393 201.506 56.7633 201.164 56.7633 200.618V197.276H58.7493ZM64.1759 204.638C62.7959 203.03 62.0819 201.02 62.0759 199.04C62.0819 197.036 62.7779 195.092 64.1759 193.43L63.5279 192.926C62.1179 194.546 61.2479 196.82 61.2659 199.04C61.2479 201.26 62.1179 203.534 63.5279 205.154L64.1759 204.638ZM71.2808 200.648C71.2808 199.478 70.7048 198.818 69.3128 198.398L67.6628 197.9C66.6608 197.594 66.2228 197.174 66.2228 196.526C66.2228 195.65 67.0328 195.02 68.1368 195.026C69.3068 195.038 70.1888 195.776 70.3568 196.874L71.2388 196.706C70.9928 195.314 70.0148 194.39 68.6168 194.216V193.166H67.7348V194.204C66.2828 194.342 65.3408 195.26 65.3408 196.562C65.3408 197.558 65.9408 198.272 67.0808 198.626L69.0008 199.226C70.0268 199.538 70.4228 199.94 70.4228 200.672C70.4228 201.662 69.5768 202.334 68.3168 202.334C67.0748 202.334 66.1388 201.65 65.8748 200.54L65.0168 200.69C65.2688 202.046 66.2948 202.964 67.7348 203.144V204.182H68.6168V203.168C70.2368 203.054 71.2808 202.082 71.2808 200.648ZM75.8672 196.34C74.9672 196.34 74.2772 196.694 73.8032 197.282V194.36H72.9152V203H73.7072V202.094C74.1752 202.766 74.8892 203.18 75.8312 203.18C77.6492 203.18 78.7052 201.698 78.7052 199.754C78.7052 197.822 77.6432 196.34 75.8672 196.34ZM75.7412 202.358C74.3612 202.358 73.7072 201.254 73.7072 199.754C73.7072 198.23 74.3732 197.162 75.7232 197.162C77.1152 197.162 77.7692 198.29 77.7692 199.754C77.7692 201.23 77.0912 202.358 75.7412 202.358ZM83.3928 196.358C82.4628 196.358 81.6948 196.718 81.2148 197.42V196.52H80.4168V203H81.3048V199.544C81.3048 198.08 81.9768 197.198 83.2248 197.198C84.5808 197.198 85.1028 198.266 85.1028 199.694V203H85.9908V199.436C85.9908 197.978 85.3368 196.358 83.3928 196.358ZM88.0434 205.154C89.4534 203.534 90.3234 201.26 90.3054 199.04C90.3234 196.82 89.4534 194.546 88.0434 192.926L87.3954 193.43C88.7934 195.092 89.4894 197.036 89.4954 199.04C89.4894 201.02 88.7754 203.03 87.3954 204.638L88.0434 205.154Z" fill="#545964"/>
<rect x="102" y="190.5" width="15" height="15" rx="2" fill="#333946"/>
<path d="M130.842 203V194.36H129.96V203H130.842ZM136.011 196.358C135.081 196.358 134.313 196.718 133.833 197.42V196.52H133.035V203H133.923V199.544C133.923 198.08 134.595 197.198 135.843 197.198C137.199 197.198 137.721 198.266 137.721 199.694V203H138.609V199.436C138.609 197.978 137.955 196.358 136.011 196.358ZM143.207 203.18C144.491 203.18 145.439 202.562 145.925 201.41L145.037 201.146C144.713 201.926 144.083 202.334 143.207 202.334C141.815 202.334 141.113 201.314 141.095 199.76C141.113 198.248 141.773 197.186 143.207 197.186C144.053 197.186 144.755 197.636 145.061 198.41L145.925 198.134C145.565 197.024 144.521 196.34 143.213 196.34C141.275 196.34 140.183 197.72 140.159 199.76C140.183 201.758 141.245 203.18 143.207 203.18ZM150.094 203.18C152.014 203.18 153.166 201.794 153.166 199.754C153.166 197.75 152.038 196.34 150.094 196.34C148.198 196.34 147.028 197.714 147.028 199.754C147.028 201.764 148.162 203.18 150.094 203.18ZM150.094 202.334C148.69 202.334 147.964 201.314 147.964 199.754C147.964 198.242 148.642 197.186 150.094 197.186C151.522 197.186 152.23 198.194 152.23 199.754C152.23 201.284 151.534 202.334 150.094 202.334ZM161.351 196.346C160.487 196.346 159.767 196.754 159.389 197.438C159.041 196.73 158.351 196.346 157.499 196.346C156.731 196.346 156.077 196.676 155.675 197.204V196.52H154.883V203H155.771V198.818C155.771 197.804 156.371 197.138 157.271 197.138C158.165 197.138 158.765 197.774 158.765 198.806L158.759 203H159.629L159.635 198.818C159.635 197.612 160.409 197.138 161.147 197.138C161.999 197.138 162.623 197.744 162.623 198.746L162.617 203H163.499L163.505 198.578C163.505 197.21 162.659 196.346 161.351 196.346ZM171.102 200.006C171.168 197.72 170.04 196.34 168.12 196.34C166.248 196.34 165.054 197.666 165.054 199.79C165.054 201.842 166.266 203.18 168.156 203.18C169.41 203.18 170.46 202.538 170.976 201.404L170.154 201.086C169.752 201.896 169.044 202.334 168.12 202.334C166.83 202.334 166.068 201.488 165.996 200.006H171.102ZM168.144 197.15C169.35 197.15 170.04 197.87 170.178 199.268H166.014C166.152 197.906 166.896 197.15 168.144 197.15ZM176.42 204.638C175.04 203.03 174.326 201.02 174.32 199.04C174.326 197.036 175.022 195.092 176.42 193.43L175.772 192.926C174.362 194.546 173.492 196.82 173.51 199.04C173.492 201.26 174.362 203.534 175.772 205.154L176.42 204.638ZM183.525 200.648C183.525 199.478 182.949 198.818 181.557 198.398L179.907 197.9C178.905 197.594 178.467 197.174 178.467 196.526C178.467 195.65 179.277 195.02 180.381 195.026C181.551 195.038 182.433 195.776 182.601 196.874L183.483 196.706C183.237 195.314 182.259 194.39 180.861 194.216V193.166H179.979V194.204C178.527 194.342 177.585 195.26 177.585 196.562C177.585 197.558 178.185 198.272 179.325 198.626L181.245 199.226C182.271 199.538 182.667 199.94 182.667 200.672C182.667 201.662 181.821 202.334 180.561 202.334C179.319 202.334 178.383 201.65 178.119 200.54L177.261 200.69C177.513 202.046 178.539 202.964 179.979 203.144V204.182H180.861V203.168C182.481 203.054 183.525 202.082 183.525 200.648ZM188.111 196.34C187.211 196.34 186.521 196.694 186.047 197.282V194.36H185.159V203H185.951V202.094C186.419 202.766 187.133 203.18 188.075 203.18C189.893 203.18 190.949 201.698 190.949 199.754C190.949 197.822 189.887 196.34 188.111 196.34ZM187.985 202.358C186.605 202.358 185.951 201.254 185.951 199.754C185.951 198.23 186.617 197.162 187.967 197.162C189.359 197.162 190.013 198.29 190.013 199.754C190.013 201.23 189.335 202.358 187.985 202.358ZM195.637 196.358C194.707 196.358 193.939 196.718 193.459 197.42V196.52H192.661V203H193.549V199.544C193.549 198.08 194.221 197.198 195.469 197.198C196.825 197.198 197.347 198.266 197.347 199.694V203H198.235V199.436C198.235 197.978 197.581 196.358 195.637 196.358ZM200.287 205.154C201.697 203.534 202.567 201.26 202.549 199.04C202.567 196.82 201.697 194.546 200.287 192.926L199.639 193.43C201.037 195.092 201.733 197.036 201.739 199.04C201.733 201.02 201.019 203.03 199.639 204.638L200.287 205.154Z" fill="#545964"/>
<path d="M139.016 265.376C139.856 264.626 140.24 264.026 140.24 262.94C140.24 261.398 139.046 260.18 137.474 260.18C135.872 260.18 134.654 261.35 134.654 262.928H135.554C135.542 261.914 136.358 261.026 137.462 261.026C138.524 261.026 139.346 261.866 139.346 262.934C139.346 263.534 139.178 264.062 138.512 264.662L134.606 268.19L134.6 268.994H140.24V268.148H135.944L139.016 265.376ZM142.762 269.066C143.11 269.066 143.38 268.802 143.38 268.46C143.38 268.112 143.11 267.848 142.762 267.848C142.414 267.848 142.15 268.112 142.15 268.46C142.15 268.802 142.414 269.066 142.762 269.066ZM148.183 263.426C147.535 263.426 146.905 263.666 146.431 264.08L146.605 261.206H150.415V260.36H145.801L145.537 264.854L146.341 265.19C146.695 264.65 147.289 264.254 148.105 264.254C149.197 264.254 150.139 265.142 150.139 266.282C150.139 267.386 149.257 268.316 148.105 268.316C147.217 268.316 146.371 267.734 146.137 266.798L145.291 267.026C145.633 268.286 146.737 269.18 148.081 269.18C149.683 269.18 151.021 267.866 151.021 266.282C151.021 264.686 149.773 263.426 148.183 263.426Z" fill="#545964"/>
<path d="M135 277.91C135 275.751 136.751 274 138.91 274H147.09C149.249 274 151 275.751 151 277.91V314H135V277.91Z" fill="#49DD95"/>
<path d="M162.532 246V244.326H163.474V243.486H162.532V240.966H161.644V243.486H158.59L161.482 237.36H160.492L157.6 243.486V244.326H161.644V246H162.532ZM165.762 246.066C166.11 246.066 166.38 245.802 166.38 245.46C166.38 245.112 166.11 244.848 165.762 244.848C165.414 244.848 165.15 245.112 165.15 245.46C165.15 245.802 165.414 246.066 165.762 246.066ZM171.351 246.18C172.953 246.18 174.171 244.962 174.171 243.36V240C174.171 238.398 172.953 237.18 171.351 237.18C169.749 237.18 168.531 238.398 168.531 240V243.36C168.531 244.962 169.749 246.18 171.351 246.18ZM171.351 245.328C170.289 245.328 169.425 244.464 169.425 243.402V239.958C169.425 238.89 170.289 238.026 171.351 238.026C172.413 238.026 173.277 238.89 173.277 239.958V243.402C173.277 244.464 172.413 245.328 171.351 245.328Z" fill="#545964"/>
<path d="M158.5 257.91C158.5 255.751 160.251 254 162.41 254H170.59C172.749 254 174.5 255.751 174.5 257.91V314H158.5V257.91Z" fill="#333946"/>
<path d="M211.814 254.218V253.36H206.822V254.206H210.692L207.722 256.948L208.166 257.65C208.46 257.506 208.826 257.41 209.138 257.41C210.254 257.41 211.004 258.19 211.004 259.366C211.004 260.524 210.302 261.298 209.15 261.322C208.322 261.34 207.608 260.89 207.32 260.032L206.48 260.284C206.846 261.454 207.878 262.174 209.162 262.174C210.752 262.174 211.916 261.028 211.916 259.366C211.916 257.752 210.854 256.624 209.282 256.636L211.814 254.218ZM214.551 262.066C214.899 262.066 215.169 261.802 215.169 261.46C215.169 261.112 214.899 260.848 214.551 260.848C214.203 260.848 213.939 261.112 213.939 261.46C213.939 261.802 214.203 262.066 214.551 262.066ZM220.14 262.18C221.742 262.18 222.96 260.962 222.96 259.36V256C222.96 254.398 221.742 253.18 220.14 253.18C218.538 253.18 217.32 254.398 217.32 256V259.36C217.32 260.962 218.538 262.18 220.14 262.18ZM220.14 261.328C219.078 261.328 218.214 260.464 218.214 259.402V255.958C218.214 254.89 219.078 254.026 220.14 254.026C221.202 254.026 222.066 254.89 222.066 255.958V259.402C222.066 260.464 221.202 261.328 220.14 261.328Z" fill="#545964"/>
<path d="M207 272.91C207 270.751 208.751 269 210.91 269H219.09C221.249 269 223 270.751 223 272.91V314H207V272.91Z" fill="#49DD95"/>
<path d="M234.016 271.376C234.856 270.626 235.24 270.026 235.24 268.94C235.24 267.398 234.046 266.18 232.474 266.18C230.872 266.18 229.654 267.35 229.654 268.928H230.554C230.542 267.914 231.358 267.026 232.462 267.026C233.524 267.026 234.346 267.866 234.346 268.934C234.346 269.534 234.178 270.062 233.512 270.662L229.606 274.19L229.6 274.994H235.24V274.148H230.944L234.016 271.376ZM237.762 275.066C238.11 275.066 238.38 274.802 238.38 274.46C238.38 274.112 238.11 273.848 237.762 273.848C237.414 273.848 237.15 274.112 237.15 274.46C237.15 274.802 237.414 275.066 237.762 275.066ZM243.351 275.18C244.953 275.18 246.171 273.962 246.171 272.36V269C246.171 267.398 244.953 266.18 243.351 266.18C241.749 266.18 240.531 267.398 240.531 269V272.36C240.531 273.962 241.749 275.18 243.351 275.18ZM243.351 274.328C242.289 274.328 241.425 273.464 241.425 272.402V268.958C241.425 267.89 242.289 267.026 243.351 267.026C244.413 267.026 245.277 267.89 245.277 268.958V272.402C245.277 273.464 244.413 274.328 243.351 274.328Z" fill="#545964"/>
<path d="M230.5 287.91C230.5 285.751 232.251 284 234.41 284H242.59C244.749 284 246.5 285.751 246.5 287.91V314H230.5V287.91Z" fill="#333946"/>
<path d="M284.532 244V242.326H285.474V241.486H284.532V238.966H283.644V241.486H280.59L283.482 235.36H282.492L279.6 241.486V242.326H283.644V244H284.532ZM287.762 244.066C288.11 244.066 288.38 243.802 288.38 243.46C288.38 243.112 288.11 242.848 287.762 242.848C287.414 242.848 287.15 243.112 287.15 243.46C287.15 243.802 287.414 244.066 287.762 244.066ZM291.489 244V235.36H290.595L288.969 236.332V237.322L290.595 236.344V244H291.489Z" fill="#545964"/>
<path d="M278 257.91C278 255.751 279.751 254 281.91 254H290.09C292.249 254 294 255.751 294 257.91V314H278V257.91Z" fill="#49DD95"/>
<path d="M304.814 254.218V253.36H299.822V254.206H303.692L300.722 256.948L301.166 257.65C301.46 257.506 301.826 257.41 302.138 257.41C303.254 257.41 304.004 258.19 304.004 259.366C304.004 260.524 303.302 261.298 302.15 261.322C301.322 261.34 300.608 260.89 300.32 260.032L299.48 260.284C299.846 261.454 300.878 262.174 302.162 262.174C303.752 262.174 304.916 261.028 304.916 259.366C304.916 257.752 303.854 256.624 302.282 256.636L304.814 254.218ZM307.551 262.066C307.899 262.066 308.169 261.802 308.169 261.46C308.169 261.112 307.899 260.848 307.551 260.848C307.203 260.848 306.939 261.112 306.939 261.46C306.939 261.802 307.203 262.066 307.551 262.066ZM313.14 262.18C314.742 262.18 315.96 260.962 315.96 259.36V256C315.96 254.398 314.742 253.18 313.14 253.18C311.538 253.18 310.32 254.398 310.32 256V259.36C310.32 260.962 311.538 262.18 313.14 262.18ZM313.14 261.328C312.078 261.328 311.214 260.464 311.214 259.402V255.958C311.214 254.89 312.078 254.026 313.14 254.026C314.202 254.026 315.066 254.89 315.066 255.958V259.402C315.066 260.464 314.202 261.328 313.14 261.328Z" fill="#545964"/>
<path d="M300 272.91C300 270.751 301.751 269 303.91 269H312.09C314.249 269 316 270.751 316 272.91V314H300V272.91Z" fill="#333946"/>
<path d="M0 314L451 314" stroke="#B8F2D6"/>
<path d="M149.34 333.18C151.146 333.18 152.496 332.25 152.496 330.642C152.496 329.004 151.098 328.578 150.396 328.38L148.704 327.882C148.032 327.69 147.168 327.396 147.168 326.52C147.168 325.662 148.026 325.02 149.184 325.026C150.39 325.038 151.35 325.752 151.524 326.874L152.448 326.706C152.166 325.152 150.918 324.192 149.19 324.186C147.486 324.18 146.238 325.098 146.238 326.556C146.238 327.714 147.024 328.314 148.08 328.626L150.27 329.28C150.87 329.46 151.596 329.79 151.596 330.678C151.596 331.698 150.654 332.334 149.376 332.334C148.086 332.334 147.09 331.662 146.802 330.54L145.902 330.69C146.196 332.226 147.534 333.18 149.34 333.18ZM159.823 330.006C159.889 327.72 158.761 326.34 156.841 326.34C154.969 326.34 153.775 327.666 153.775 329.79C153.775 331.842 154.987 333.18 156.877 333.18C158.131 333.18 159.181 332.538 159.697 331.404L158.875 331.086C158.473 331.896 157.765 332.334 156.841 332.334C155.551 332.334 154.789 331.488 154.717 330.006H159.823ZM156.865 327.15C158.071 327.15 158.761 327.87 158.899 329.268H154.735C154.873 327.906 155.617 327.15 156.865 327.15ZM164.324 326.34C163.364 326.34 162.638 326.742 162.164 327.414V326.52H161.372V335.88H162.26V332.226C162.728 332.82 163.412 333.18 164.288 333.18C166.106 333.18 167.162 331.698 167.162 329.754C167.162 327.822 166.1 326.34 164.324 326.34ZM164.198 332.358C162.818 332.358 162.164 331.254 162.164 329.754C162.164 328.23 162.83 327.162 164.18 327.162C165.572 327.162 166.226 328.29 166.226 329.754C166.226 331.23 165.548 332.358 164.198 332.358Z" fill="#B0B2B7"/>
<path d="M219.838 333.18C222.424 333.18 223.822 331.338 223.822 328.68C223.822 326.022 222.424 324.18 219.838 324.18C217.258 324.18 215.86 326.022 215.86 328.68C215.86 331.338 217.258 333.18 219.838 333.18ZM219.838 332.334C217.81 332.322 216.778 330.84 216.796 328.68C216.814 326.52 217.81 325.02 219.838 325.026C221.866 325.038 222.886 326.52 222.886 328.68C222.886 330.84 221.866 332.34 219.838 332.334ZM228.112 333.18C229.396 333.18 230.344 332.562 230.83 331.41L229.942 331.146C229.618 331.926 228.988 332.334 228.112 332.334C226.72 332.334 226.018 331.314 226 329.76C226.018 328.248 226.678 327.186 228.112 327.186C228.958 327.186 229.66 327.636 229.966 328.41L230.83 328.134C230.47 327.024 229.426 326.34 228.118 326.34C226.18 326.34 225.088 327.72 225.064 329.76C225.088 331.758 226.15 333.18 228.112 333.18ZM235.996 327.276V326.52H234.01V324.72H233.134V326.52H231.748V327.276H233.134V330.654C233.134 331.29 233.104 331.752 233.338 332.226C233.764 333.09 234.898 333.228 235.996 333V332.226C235.066 332.376 234.43 332.322 234.142 331.782C233.986 331.506 234.01 331.164 234.01 330.618V327.276H235.996Z" fill="#B0B2B7"/>
<path d="M285.228 325.914L289.986 333H290.874V324.36H289.986V331.44L285.228 324.36H284.34V333H285.228V325.914ZM295.661 333.18C297.581 333.18 298.733 331.794 298.733 329.754C298.733 327.75 297.605 326.34 295.661 326.34C293.765 326.34 292.595 327.714 292.595 329.754C292.595 331.764 293.729 333.18 295.661 333.18ZM295.661 332.334C294.257 332.334 293.531 331.314 293.531 329.754C293.531 328.242 294.209 327.186 295.661 327.186C297.089 327.186 297.797 328.194 297.797 329.754C297.797 331.284 297.101 332.334 295.661 332.334ZM302.886 333L305.238 326.52H304.332L302.43 331.848L300.516 326.52H299.622L301.974 333H302.886Z" fill="#B0B2B7"/>
</svg>
