<svg width="60" height="60" viewBox="0 0 60 60" fill="none" xmlns="http://www.w3.org/2000/svg">
<ellipse cx="29.6552" cy="30" rx="29.6552" ry="30" fill="#525A65"/>
<path d="M35.5861 26.16C35.5268 26.15 35.4576 26.15 35.3983 26.16C34.0341 26.11 32.9468 24.98 32.9468 23.58C32.9468 22.15 34.0836 21 35.4971 21C36.9107 21 38.0475 22.16 38.0475 23.58C38.0376 24.98 36.9502 26.11 35.5861 26.16Z" stroke="white" stroke-width="1.5" stroke-linecap="round" stroke-linejoin="round"/>
<path d="M34.5677 33.4399C35.922 33.6699 37.4146 33.4299 38.4625 32.7199C39.8563 31.7799 39.8563 30.2399 38.4625 29.2999C37.4048 28.5899 35.8923 28.3499 34.5381 28.5899" stroke="white" stroke-width="1.5" stroke-linecap="round" stroke-linejoin="round"/>
<path d="M23.6943 26.16C23.7536 26.15 23.8228 26.15 23.8821 26.16C25.2462 26.11 26.3336 24.98 26.3336 23.58C26.3336 22.15 25.1968 21 23.7833 21C22.3697 21 21.2329 22.16 21.2329 23.58C21.2428 24.98 22.3302 26.11 23.6943 26.16Z" stroke="white" stroke-width="1.5" stroke-linecap="round" stroke-linejoin="round"/>
<path d="M24.7125 33.4399C23.3583 33.6699 21.8656 33.4299 20.8178 32.7199C19.424 31.7799 19.424 30.2399 20.8178 29.2999C21.8755 28.5899 23.3879 28.3499 24.7422 28.5899" stroke="white" stroke-width="1.5" stroke-linecap="round" stroke-linejoin="round"/>
<path d="M29.6549 33.63C29.5956 33.62 29.5264 33.62 29.4671 33.63C28.103 33.58 27.0156 32.45 27.0156 31.05C27.0156 29.62 28.1524 28.47 29.566 28.47C30.9795 28.47 32.1163 29.63 32.1163 31.05C32.1064 32.45 31.0191 33.59 29.6549 33.63Z" stroke="white" stroke-width="1.5" stroke-linecap="round" stroke-linejoin="round"/>
<path d="M26.7783 36.7799C25.3845 37.7199 25.3845 39.2599 26.7783 40.1999C28.3599 41.2699 30.9497 41.2699 32.5314 40.1999C33.9252 39.2599 33.9252 37.7199 32.5314 36.7799C30.9596 35.7199 28.3599 35.7199 26.7783 36.7799Z" stroke="white" stroke-width="1.5" stroke-linecap="round" stroke-linejoin="round"/>
</svg>
