<svg width="25" height="24" viewBox="0 0 25 24" fill="none" xmlns="http://www.w3.org/2000/svg">
<path d="M22.25 6.72995C22.25 6.52995 22.17 6.33995 22.03 6.19995L18.31 2.47995C18.02 2.18995 17.54 2.18995 17.25 2.47995C16.96 2.76995 16.96 3.24995 17.25 3.53995L19.7 5.98995H3.5C3.09 5.98995 2.75 6.32995 2.75 6.73995C2.75 7.14995 3.09 7.47995 3.5 7.47995H19.69L17.25 9.91995C16.96 10.21 16.96 10.69 17.25 10.98C17.4 11.13 17.59 11.2 17.78 11.2C17.97 11.2 18.16 11.13 18.31 10.98L22.02 7.26995C22.09 7.19995 22.15 7.10995 22.19 7.00995C22.19 6.99995 22.19 6.98995 22.2 6.97995C22.23 6.89995 22.25 6.81995 22.25 6.72995Z" fill="#333946"/>
<path d="M21.5 16.52H5.31L7.75 14.08C8.04 13.79 8.04 13.31 7.75 13.02C7.46 12.73 6.98 12.73 6.69 13.02L2.98 16.73C2.91 16.8 2.85 16.89 2.81 16.99C2.81 17 2.81 17.01 2.8 17.02C2.77 17.1 2.75 17.19 2.75 17.28C2.75 17.48 2.83 17.67 2.97 17.81L6.69 21.53C6.84 21.68 7.03 21.75 7.22 21.75C7.41 21.75 7.6 21.68 7.75 21.53C8.04 21.24 8.04 20.76 7.75 20.47L5.3 18.02H21.5C21.91 18.02 22.25 17.68 22.25 17.27C22.25 16.86 21.91 16.52 21.5 16.52Z" fill="#333946"/>
</svg>
