<svg width="761" height="332" viewBox="0 0 761 332" fill="none" xmlns="http://www.w3.org/2000/svg">
<rect x="0.416667" y="0.416667" width="760.167" height="330.833" rx="6.97119" fill="white"/>
<path d="M32.595 45.24C31.4643 45.24 30.4883 44.9893 29.667 44.488C28.8457 43.9867 28.219 43.2853 27.787 42.384C27.3603 41.4773 27.147 40.4293 27.147 39.24C27.147 38.0507 27.3603 37.0053 27.787 36.104C28.219 35.1973 28.8457 34.4933 29.667 33.992C30.4883 33.4907 31.4643 33.24 32.595 33.24C33.4643 33.24 34.243 33.392 34.931 33.696C35.6243 33.9947 36.203 34.424 36.667 34.984C37.1363 35.5387 37.4857 36.1973 37.715 36.96L36.019 37.416C35.7843 36.5947 35.379 35.96 34.803 35.512C34.227 35.0587 33.491 34.832 32.595 34.832C31.7897 34.832 31.1123 35.016 30.563 35.384C30.0137 35.752 29.6003 36.2693 29.323 36.936C29.051 37.6027 28.915 38.3867 28.915 39.288C28.915 40.168 29.0537 40.936 29.331 41.592C29.6083 42.2427 30.0217 42.7493 30.571 43.112C31.1257 43.4693 31.8003 43.648 32.595 43.648C33.491 43.648 34.227 43.424 34.803 42.976C35.379 42.5227 35.7843 41.8853 36.019 41.064L37.715 41.52C37.4857 42.2827 37.1363 42.944 36.667 43.504C36.203 44.0587 35.6243 44.488 34.931 44.792C34.243 45.0907 33.4643 45.24 32.595 45.24ZM44.0685 36.128C44.9752 36.128 45.6818 36.3573 46.1885 36.816C46.7005 37.2693 47.0445 37.8 47.2205 38.408C47.3965 39.016 47.4845 39.6133 47.4845 40.2V45H45.7885V40.752C45.7885 39.904 45.6312 39.1867 45.3165 38.6C45.0018 38.008 44.4312 37.712 43.6045 37.712C42.9485 37.712 42.4178 37.936 42.0125 38.384C41.6125 38.832 41.4125 39.5387 41.4125 40.504V45H39.7165V33.48H41.2125V37.392C41.5378 36.9867 41.9405 36.6747 42.4205 36.456C42.9005 36.2373 43.4498 36.128 44.0685 36.128ZM56.5462 37.768C56.6689 38.0293 56.7489 38.3093 56.7862 38.608C56.8289 38.9013 56.8502 39.2587 56.8502 39.68V45H55.3702V43.744C55.0129 44.2507 54.5782 44.6267 54.0662 44.872C53.5596 45.1173 52.9569 45.24 52.2582 45.24C51.6396 45.24 51.1116 45.1253 50.6742 44.896C50.2369 44.6613 49.9036 44.3493 49.6742 43.96C49.4502 43.5653 49.3382 43.128 49.3382 42.648C49.3382 41.3733 50.0182 40.52 51.3782 40.088C51.7889 39.9653 52.2529 39.8613 52.7702 39.776C53.2929 39.6853 54.0156 39.576 54.9382 39.448L55.2022 39.416C55.1756 38.808 55.0102 38.3653 54.7062 38.088C54.4022 37.8053 53.9169 37.664 53.2502 37.664C52.7649 37.664 52.3382 37.776 51.9702 38C51.6022 38.224 51.3489 38.5653 51.2102 39.024L49.6502 38.544C49.8636 37.7813 50.2742 37.1867 50.8822 36.76C51.4956 36.3333 52.2902 36.12 53.2662 36.12C54.0609 36.12 54.7409 36.256 55.3062 36.528C55.8716 36.8 56.2849 37.2133 56.5462 37.768ZM52.5542 43.872C53.0076 43.872 53.4076 43.792 53.7542 43.632C54.1009 43.4667 54.3782 43.2533 54.5862 42.992C54.7996 42.7307 54.9409 42.4533 55.0102 42.16C55.1169 41.8507 55.1756 41.4 55.1862 40.808L54.9782 40.84C54.1996 40.952 53.6156 41.0427 53.2262 41.112C52.8422 41.1813 52.4956 41.2613 52.1862 41.352C51.8129 41.48 51.5196 41.6453 51.3062 41.848C51.0982 42.0507 50.9942 42.312 50.9942 42.632C50.9942 42.9893 51.1249 43.2853 51.3862 43.52C51.6529 43.7547 52.0422 43.872 52.5542 43.872ZM61.4656 36.848C61.7056 36.6667 61.983 36.5307 62.2976 36.44C62.6123 36.3493 62.9323 36.304 63.2576 36.304C63.4336 36.304 63.6283 36.3227 63.8416 36.36V37.928C63.6603 37.8747 63.4496 37.848 63.2096 37.848C62.9856 37.848 62.7643 37.8773 62.5456 37.936C62.3323 37.9893 62.135 38.0747 61.9536 38.192C61.2283 38.656 60.8656 39.472 60.8656 40.64V45H59.1776V36.36H60.6656V37.736C60.879 37.3573 61.1456 37.0613 61.4656 36.848ZM67.9911 37.704V41.52V41.976C67.9911 42.248 68.0018 42.4693 68.0231 42.64C68.0445 42.8053 68.0925 42.9493 68.1671 43.072C68.2951 43.2853 68.4738 43.44 68.7031 43.536C68.9378 43.6267 69.2231 43.672 69.5591 43.672C69.8471 43.672 70.1805 43.6427 70.5591 43.584V45C70.0631 45.096 69.6071 45.144 69.1911 45.144C68.5938 45.144 68.0711 45.048 67.6231 44.856C67.1805 44.664 66.8498 44.3627 66.6311 43.952C66.4978 43.7013 66.4098 43.4453 66.3671 43.184C66.3298 42.9173 66.3111 42.5947 66.3111 42.216V41.6V37.704H64.6551V36.36H66.3111V33.96H67.9911V36.36H70.5591V37.704H67.9911ZM77.7799 45H76.0839V33.48H77.7799L83.4519 42.04V33.48H85.1479V45H83.4519L77.7799 36.432V45ZM94.3587 37.768C94.4814 38.0293 94.5614 38.3093 94.5987 38.608C94.6414 38.9013 94.6627 39.2587 94.6627 39.68V45H93.1827V43.744C92.8254 44.2507 92.3907 44.6267 91.8787 44.872C91.3721 45.1173 90.7694 45.24 90.0707 45.24C89.4521 45.24 88.9241 45.1253 88.4867 44.896C88.0494 44.6613 87.7161 44.3493 87.4867 43.96C87.2627 43.5653 87.1507 43.128 87.1507 42.648C87.1507 41.3733 87.8307 40.52 89.1907 40.088C89.6014 39.9653 90.0654 39.8613 90.5827 39.776C91.1054 39.6853 91.8281 39.576 92.7507 39.448L93.0147 39.416C92.9881 38.808 92.8227 38.3653 92.5187 38.088C92.2147 37.8053 91.7294 37.664 91.0627 37.664C90.5774 37.664 90.1507 37.776 89.7827 38C89.4147 38.224 89.1614 38.5653 89.0227 39.024L87.4627 38.544C87.6761 37.7813 88.0867 37.1867 88.6947 36.76C89.3081 36.3333 90.1027 36.12 91.0787 36.12C91.8734 36.12 92.5534 36.256 93.1187 36.528C93.6841 36.8 94.0974 37.2133 94.3587 37.768ZM90.3667 43.872C90.8201 43.872 91.2201 43.792 91.5667 43.632C91.9134 43.4667 92.1907 43.2533 92.3987 42.992C92.6121 42.7307 92.7534 42.4533 92.8227 42.16C92.9294 41.8507 92.9881 41.4 92.9987 40.808L92.7907 40.84C92.0121 40.952 91.4281 41.0427 91.0387 41.112C90.6547 41.1813 90.3081 41.2613 89.9987 41.352C89.6254 41.48 89.3321 41.6453 89.1187 41.848C88.9107 42.0507 88.8067 42.312 88.8067 42.632C88.8067 42.9893 88.9374 43.2853 89.1987 43.52C89.4654 43.7547 89.8547 43.872 90.3667 43.872ZM106.086 36.144C106.694 36.144 107.219 36.272 107.662 36.528C108.105 36.7787 108.441 37.136 108.67 37.6C108.905 38.0587 109.022 38.5973 109.022 39.216L109.014 45H107.342L107.35 39.616C107.35 39.2107 107.278 38.8587 107.134 38.56C106.99 38.2613 106.785 38.032 106.518 37.872C106.257 37.712 105.953 37.632 105.606 37.632C105.281 37.632 104.985 37.7067 104.718 37.856C104.451 38.0053 104.238 38.2293 104.078 38.528C103.923 38.8213 103.846 39.1787 103.846 39.6L103.838 45H102.166L102.174 39.648C102.174 39.2373 102.102 38.88 101.958 38.576C101.814 38.272 101.609 38.04 101.342 37.88C101.081 37.7147 100.774 37.632 100.422 37.632C100.075 37.632 99.7688 37.7147 99.5021 37.88C99.2355 38.0453 99.0275 38.2773 98.8781 38.576C98.7341 38.8693 98.6621 39.2107 98.6621 39.6V45H96.9821V36.36H98.4701V37.288C98.7528 36.9307 99.1075 36.6507 99.5341 36.448C99.9661 36.2453 100.438 36.144 100.95 36.144C101.537 36.144 102.043 36.2667 102.47 36.512C102.897 36.7573 103.227 37.1013 103.462 37.544C103.729 37.1067 104.091 36.7653 104.55 36.52C105.014 36.2693 105.526 36.144 106.086 36.144ZM112.552 41.152C112.621 41.9573 112.864 42.5787 113.28 43.016C113.696 43.448 114.267 43.664 114.992 43.664C115.509 43.664 115.96 43.5467 116.344 43.312C116.728 43.0773 117.027 42.736 117.24 42.288L118.88 42.808C118.549 43.5707 118.043 44.168 117.36 44.6C116.677 45.0267 115.915 45.24 115.072 45.24C114.219 45.24 113.467 45.0533 112.816 44.68C112.165 44.3013 111.659 43.7733 111.296 43.096C110.939 42.4133 110.76 41.632 110.76 40.752C110.76 39.8187 110.936 39.0027 111.288 38.304C111.64 37.6053 112.136 37.0667 112.776 36.688C113.416 36.3093 114.155 36.12 114.992 36.12C115.819 36.12 116.533 36.304 117.136 36.672C117.739 37.04 118.2 37.568 118.52 38.256C118.845 38.9387 119.008 39.7467 119.008 40.68C119.008 40.7813 119.003 40.9387 118.992 41.152H112.552ZM115.056 37.6C114.347 37.6 113.784 37.792 113.368 38.176C112.957 38.5547 112.699 39.112 112.592 39.848H117.28C117.189 39.0853 116.96 38.52 116.592 38.152C116.229 37.784 115.717 37.6 115.056 37.6Z" fill="#667085"/>
<g opacity="0.5">
<path d="M26.0461 97.7226C26.5021 97.7826 26.9001 97.9386 27.2401 98.1906C27.5841 98.4386 27.8481 98.7586 28.0321 99.1506C28.2161 99.5386 28.3081 99.9666 28.3081 100.435C28.3081 100.975 28.1801 101.461 27.9241 101.893C27.6681 102.325 27.3201 102.665 26.8801 102.913C26.4401 103.157 25.9541 103.279 25.4221 103.279C24.9941 103.279 24.5901 103.199 24.2101 103.039C23.8341 102.875 23.5081 102.643 23.2321 102.343C22.9601 102.039 22.7641 101.685 22.6441 101.281L23.8561 100.945C23.9681 101.309 24.1641 101.591 24.4441 101.791C24.7241 101.991 25.0441 102.091 25.4041 102.091C25.7161 102.091 25.9941 102.021 26.2381 101.881C26.4861 101.737 26.6781 101.539 26.8141 101.287C26.9541 101.035 27.0241 100.751 27.0241 100.435C27.0241 100.119 26.9561 99.8346 26.8201 99.5826C26.6841 99.3306 26.4941 99.1346 26.2501 98.9946C26.0061 98.8506 25.7261 98.7786 25.4101 98.7786C25.1341 98.7786 24.8621 98.8506 24.5941 98.9946L24.0061 98.0046L26.6461 95.6706H22.9861V94.4766H28.1821V95.6706L26.0461 97.7226ZM31.1533 103.219C30.9293 103.219 30.7413 103.143 30.5893 102.991C30.4413 102.839 30.3673 102.655 30.3673 102.439C30.3673 102.219 30.4413 102.035 30.5893 101.887C30.7413 101.735 30.9293 101.659 31.1533 101.659C31.3773 101.659 31.5633 101.735 31.7113 101.887C31.8593 102.035 31.9333 102.219 31.9333 102.439C31.9333 102.659 31.8593 102.845 31.7113 102.997C31.5633 103.145 31.3773 103.219 31.1533 103.219ZM37.1168 103.297C36.5368 103.297 36.0188 103.169 35.5628 102.913C35.1068 102.653 34.7488 102.295 34.4888 101.839C34.2328 101.383 34.1048 100.865 34.1048 100.285V97.3086C34.1048 96.7286 34.2328 96.2106 34.4888 95.7546C34.7488 95.2986 35.1068 94.9426 35.5628 94.6866C36.0188 94.4266 36.5368 94.2966 37.1168 94.2966C37.6968 94.2966 38.2148 94.4266 38.6708 94.6866C39.1268 94.9426 39.4828 95.2986 39.7388 95.7546C39.9988 96.2106 40.1288 96.7286 40.1288 97.3086V100.285C40.1288 100.865 39.9988 101.383 39.7388 101.839C39.4828 102.295 39.1268 102.653 38.6708 102.913C38.2148 103.169 37.6968 103.297 37.1168 103.297ZM37.1168 102.097C37.4328 102.097 37.7228 102.021 37.9868 101.869C38.2548 101.713 38.4648 101.503 38.6168 101.239C38.7728 100.971 38.8508 100.679 38.8508 100.363V97.2186C38.8508 96.9026 38.7728 96.6126 38.6168 96.3486C38.4648 96.0846 38.2548 95.8766 37.9868 95.7246C37.7228 95.5686 37.4328 95.4906 37.1168 95.4906C36.8008 95.4906 36.5088 95.5686 36.2408 95.7246C35.9768 95.8766 35.7668 96.0846 35.6108 96.3486C35.4588 96.6126 35.3828 96.9026 35.3828 97.2186V100.363C35.3828 100.679 35.4588 100.971 35.6108 101.239C35.7668 101.503 35.9768 101.713 36.2408 101.869C36.5088 102.021 36.8008 102.097 37.1168 102.097ZM45.2161 103.297C44.6361 103.297 44.1181 103.169 43.6621 102.913C43.2061 102.653 42.8481 102.295 42.5881 101.839C42.3321 101.383 42.2041 100.865 42.2041 100.285V97.3086C42.2041 96.7286 42.3321 96.2106 42.5881 95.7546C42.8481 95.2986 43.2061 94.9426 43.6621 94.6866C44.1181 94.4266 44.6361 94.2966 45.2161 94.2966C45.7961 94.2966 46.3141 94.4266 46.7701 94.6866C47.2261 94.9426 47.5821 95.2986 47.8381 95.7546C48.0981 96.2106 48.2281 96.7286 48.2281 97.3086V100.285C48.2281 100.865 48.0981 101.383 47.8381 101.839C47.5821 102.295 47.2261 102.653 46.7701 102.913C46.3141 103.169 45.7961 103.297 45.2161 103.297ZM45.2161 102.097C45.5321 102.097 45.8221 102.021 46.0861 101.869C46.3541 101.713 46.5641 101.503 46.7161 101.239C46.8721 100.971 46.9501 100.679 46.9501 100.363V97.2186C46.9501 96.9026 46.8721 96.6126 46.7161 96.3486C46.5641 96.0846 46.3541 95.8766 46.0861 95.7246C45.8221 95.5686 45.5321 95.4906 45.2161 95.4906C44.9001 95.4906 44.6081 95.5686 44.3401 95.7246C44.0761 95.8766 43.8661 96.0846 43.7101 96.3486C43.5581 96.6126 43.4821 96.9026 43.4821 97.2186V100.363C43.4821 100.679 43.5581 100.971 43.7101 101.239C43.8661 101.503 44.0761 101.713 44.3401 101.869C44.6081 102.021 44.9001 102.097 45.2161 102.097Z" fill="#312C33"/>
<path d="M24.7021 137.31H28.6081V138.504H22.7641L22.7701 137.388L26.5321 134.016C26.8201 133.76 27.0221 133.512 27.1381 133.272C27.2581 133.032 27.3181 132.78 27.3181 132.516C27.3181 132.212 27.2501 131.936 27.1141 131.688C26.9781 131.436 26.7881 131.24 26.5441 131.1C26.3001 130.956 26.0261 130.884 25.7221 130.884C25.4101 130.884 25.1281 130.958 24.8761 131.106C24.6241 131.254 24.4261 131.454 24.2821 131.706C24.1421 131.954 24.0741 132.222 24.0781 132.51H22.7941C22.7941 131.958 22.9201 131.47 23.1721 131.046C23.4241 130.618 23.7741 130.286 24.2221 130.05C24.6701 129.81 25.1781 129.69 25.7461 129.69C26.2821 129.69 26.7681 129.814 27.2041 130.062C27.6401 130.306 27.9821 130.646 28.2301 131.082C28.4821 131.514 28.6081 131.998 28.6081 132.534C28.6081 132.918 28.5581 133.248 28.4581 133.524C28.3581 133.796 28.2101 134.046 28.0141 134.274C27.8221 134.502 27.5521 134.77 27.2041 135.078L24.7021 137.31ZM31.329 138.612C31.105 138.612 30.917 138.536 30.765 138.384C30.617 138.232 30.543 138.048 30.543 137.832C30.543 137.612 30.617 137.428 30.765 137.28C30.917 137.128 31.105 137.052 31.329 137.052C31.553 137.052 31.739 137.128 31.887 137.28C32.035 137.428 32.109 137.612 32.109 137.832C32.109 138.052 32.035 138.238 31.887 138.39C31.739 138.538 31.553 138.612 31.329 138.612ZM37.0406 132.96C37.5726 132.96 38.0506 133.084 38.4746 133.332C38.9026 133.576 39.2366 133.914 39.4766 134.346C39.7206 134.778 39.8426 135.26 39.8426 135.792C39.8426 136.316 39.7046 136.8 39.4286 137.244C39.1566 137.688 38.7906 138.04 38.3306 138.3C37.8706 138.56 37.3746 138.69 36.8426 138.69C36.4066 138.69 35.9966 138.6 35.6126 138.42C35.2286 138.236 34.8986 137.982 34.6226 137.658C34.3506 137.334 34.1566 136.964 34.0406 136.548L35.2466 136.224C35.3106 136.472 35.4246 136.692 35.5886 136.884C35.7566 137.072 35.9526 137.218 36.1766 137.322C36.4046 137.426 36.6386 137.478 36.8786 137.478C37.1906 137.478 37.4746 137.402 37.7306 137.25C37.9906 137.098 38.1966 136.894 38.3486 136.638C38.5006 136.378 38.5766 136.096 38.5766 135.792C38.5766 135.484 38.4986 135.2 38.3426 134.94C38.1906 134.68 37.9846 134.476 37.7246 134.328C37.4646 134.176 37.1826 134.1 36.8786 134.1C36.5506 134.1 36.2626 134.166 36.0146 134.298C35.7666 134.43 35.5666 134.596 35.4146 134.796L34.3226 134.412L34.5866 129.87H39.2486V131.052H35.7086L35.5646 133.428C35.7766 133.276 36.0106 133.16 36.2666 133.08C36.5226 133 36.7806 132.96 37.0406 132.96ZM44.6887 138.69C44.1087 138.69 43.5907 138.562 43.1347 138.306C42.6787 138.046 42.3207 137.688 42.0607 137.232C41.8047 136.776 41.6767 136.258 41.6767 135.678V132.702C41.6767 132.122 41.8047 131.604 42.0607 131.148C42.3207 130.692 42.6787 130.336 43.1347 130.08C43.5907 129.82 44.1087 129.69 44.6887 129.69C45.2687 129.69 45.7867 129.82 46.2427 130.08C46.6987 130.336 47.0547 130.692 47.3107 131.148C47.5707 131.604 47.7007 132.122 47.7007 132.702V135.678C47.7007 136.258 47.5707 136.776 47.3107 137.232C47.0547 137.688 46.6987 138.046 46.2427 138.306C45.7867 138.562 45.2687 138.69 44.6887 138.69ZM44.6887 137.49C45.0047 137.49 45.2947 137.414 45.5587 137.262C45.8267 137.106 46.0367 136.896 46.1887 136.632C46.3447 136.364 46.4227 136.072 46.4227 135.756V132.612C46.4227 132.296 46.3447 132.006 46.1887 131.742C46.0367 131.478 45.8267 131.27 45.5587 131.118C45.2947 130.962 45.0047 130.884 44.6887 130.884C44.3727 130.884 44.0807 130.962 43.8127 131.118C43.5487 131.27 43.3387 131.478 43.1827 131.742C43.0307 132.006 42.9547 132.296 42.9547 132.612V135.756C42.9547 136.072 43.0307 136.364 43.1827 136.632C43.3387 136.896 43.5487 137.106 43.8127 137.262C44.0807 137.414 44.3727 137.49 44.6887 137.49Z" fill="#312C33"/>
<path d="M24.7021 172.703H28.6081V173.897H22.7641L22.7701 172.781L26.5321 169.409C26.8201 169.153 27.0221 168.905 27.1381 168.665C27.2581 168.425 27.3181 168.173 27.3181 167.909C27.3181 167.605 27.2501 167.329 27.1141 167.081C26.9781 166.829 26.7881 166.633 26.5441 166.493C26.3001 166.349 26.0261 166.277 25.7221 166.277C25.4101 166.277 25.1281 166.351 24.8761 166.499C24.6241 166.647 24.4261 166.847 24.2821 167.099C24.1421 167.347 24.0741 167.615 24.0781 167.903H22.7941C22.7941 167.351 22.9201 166.863 23.1721 166.439C23.4241 166.011 23.7741 165.679 24.2221 165.443C24.6701 165.203 25.1781 165.083 25.7461 165.083C26.2821 165.083 26.7681 165.207 27.2041 165.455C27.6401 165.699 27.9821 166.039 28.2301 166.475C28.4821 166.907 28.6081 167.391 28.6081 167.927C28.6081 168.311 28.5581 168.641 28.4581 168.917C28.3581 169.189 28.2101 169.439 28.0141 169.667C27.8221 169.895 27.5521 170.163 27.2041 170.471L24.7021 172.703ZM31.329 174.005C31.105 174.005 30.917 173.929 30.765 173.777C30.617 173.625 30.543 173.441 30.543 173.225C30.543 173.005 30.617 172.821 30.765 172.673C30.917 172.521 31.105 172.445 31.329 172.445C31.553 172.445 31.739 172.521 31.887 172.673C32.035 172.821 32.109 173.005 32.109 173.225C32.109 173.445 32.035 173.631 31.887 173.783C31.739 173.931 31.553 174.005 31.329 174.005ZM37.2926 174.083C36.7126 174.083 36.1946 173.955 35.7386 173.699C35.2826 173.439 34.9246 173.081 34.6646 172.625C34.4086 172.169 34.2806 171.651 34.2806 171.071V168.095C34.2806 167.515 34.4086 166.997 34.6646 166.541C34.9246 166.085 35.2826 165.729 35.7386 165.473C36.1946 165.213 36.7126 165.083 37.2926 165.083C37.8726 165.083 38.3906 165.213 38.8466 165.473C39.3026 165.729 39.6586 166.085 39.9146 166.541C40.1746 166.997 40.3046 167.515 40.3046 168.095V171.071C40.3046 171.651 40.1746 172.169 39.9146 172.625C39.6586 173.081 39.3026 173.439 38.8466 173.699C38.3906 173.955 37.8726 174.083 37.2926 174.083ZM37.2926 172.883C37.6086 172.883 37.8986 172.807 38.1626 172.655C38.4306 172.499 38.6406 172.289 38.7926 172.025C38.9486 171.757 39.0266 171.465 39.0266 171.149V168.005C39.0266 167.689 38.9486 167.399 38.7926 167.135C38.6406 166.871 38.4306 166.663 38.1626 166.511C37.8986 166.355 37.6086 166.277 37.2926 166.277C36.9766 166.277 36.6846 166.355 36.4166 166.511C36.1526 166.663 35.9426 166.871 35.7866 167.135C35.6346 167.399 35.5586 167.689 35.5586 168.005V171.149C35.5586 171.465 35.6346 171.757 35.7866 172.025C35.9426 172.289 36.1526 172.499 36.4166 172.655C36.6846 172.807 36.9766 172.883 37.2926 172.883ZM45.3918 174.083C44.8118 174.083 44.2938 173.955 43.8378 173.699C43.3818 173.439 43.0238 173.081 42.7638 172.625C42.5078 172.169 42.3798 171.651 42.3798 171.071V168.095C42.3798 167.515 42.5078 166.997 42.7638 166.541C43.0238 166.085 43.3818 165.729 43.8378 165.473C44.2938 165.213 44.8118 165.083 45.3918 165.083C45.9718 165.083 46.4898 165.213 46.9458 165.473C47.4018 165.729 47.7578 166.085 48.0138 166.541C48.2738 166.997 48.4038 167.515 48.4038 168.095V171.071C48.4038 171.651 48.2738 172.169 48.0138 172.625C47.7578 173.081 47.4018 173.439 46.9458 173.699C46.4898 173.955 45.9718 174.083 45.3918 174.083ZM45.3918 172.883C45.7078 172.883 45.9978 172.807 46.2618 172.655C46.5298 172.499 46.7398 172.289 46.8918 172.025C47.0478 171.757 47.1258 171.465 47.1258 171.149V168.005C47.1258 167.689 47.0478 167.399 46.8918 167.135C46.7398 166.871 46.5298 166.663 46.2618 166.511C45.9978 166.355 45.7078 166.277 45.3918 166.277C45.0758 166.277 44.7838 166.355 44.5158 166.511C44.2518 166.663 44.0418 166.871 43.8858 167.135C43.7338 167.399 43.6578 167.689 43.6578 168.005V171.149C43.6578 171.465 43.7338 171.757 43.8858 172.025C44.0418 172.289 44.2518 172.499 44.5158 172.655C44.7838 172.807 45.0758 172.883 45.3918 172.883Z" fill="#312C33"/>
<path d="M25.7881 209.296H24.5101V202.036L22.8841 203.026V201.628L24.5101 200.656H25.7881V209.296ZM28.8681 209.398C28.6441 209.398 28.4561 209.322 28.3041 209.17C28.1561 209.018 28.0821 208.834 28.0821 208.618C28.0821 208.398 28.1561 208.214 28.3041 208.066C28.4561 207.914 28.6441 207.838 28.8681 207.838C29.0921 207.838 29.2781 207.914 29.4261 208.066C29.5741 208.214 29.6481 208.398 29.6481 208.618C29.6481 208.838 29.5741 209.024 29.4261 209.176C29.2781 209.324 29.0921 209.398 28.8681 209.398ZM34.5797 203.746C35.1117 203.746 35.5897 203.87 36.0137 204.118C36.4417 204.362 36.7757 204.7 37.0157 205.132C37.2597 205.564 37.3817 206.046 37.3817 206.578C37.3817 207.102 37.2437 207.586 36.9677 208.03C36.6957 208.474 36.3297 208.826 35.8697 209.086C35.4097 209.346 34.9137 209.476 34.3817 209.476C33.9457 209.476 33.5357 209.386 33.1517 209.206C32.7677 209.022 32.4377 208.768 32.1617 208.444C31.8897 208.12 31.6957 207.75 31.5797 207.334L32.7857 207.01C32.8497 207.258 32.9637 207.478 33.1277 207.67C33.2957 207.858 33.4917 208.004 33.7157 208.108C33.9437 208.212 34.1777 208.264 34.4177 208.264C34.7297 208.264 35.0137 208.188 35.2697 208.036C35.5297 207.884 35.7357 207.68 35.8877 207.424C36.0397 207.164 36.1157 206.882 36.1157 206.578C36.1157 206.27 36.0377 205.986 35.8817 205.726C35.7297 205.466 35.5237 205.262 35.2637 205.114C35.0037 204.962 34.7217 204.886 34.4177 204.886C34.0897 204.886 33.8017 204.952 33.5537 205.084C33.3057 205.216 33.1057 205.382 32.9537 205.582L31.8617 205.198L32.1257 200.656H36.7877V201.838H33.2477L33.1037 204.214C33.3157 204.062 33.5497 203.946 33.8057 203.866C34.0617 203.786 34.3197 203.746 34.5797 203.746ZM42.2278 209.476C41.6478 209.476 41.1298 209.348 40.6738 209.092C40.2178 208.832 39.8598 208.474 39.5998 208.018C39.3438 207.562 39.2158 207.044 39.2158 206.464V203.488C39.2158 202.908 39.3438 202.39 39.5998 201.934C39.8598 201.478 40.2178 201.122 40.6738 200.866C41.1298 200.606 41.6478 200.476 42.2278 200.476C42.8078 200.476 43.3258 200.606 43.7818 200.866C44.2378 201.122 44.5938 201.478 44.8498 201.934C45.1098 202.39 45.2398 202.908 45.2398 203.488V206.464C45.2398 207.044 45.1098 207.562 44.8498 208.018C44.5938 208.474 44.2378 208.832 43.7818 209.092C43.3258 209.348 42.8078 209.476 42.2278 209.476ZM42.2278 208.276C42.5438 208.276 42.8338 208.2 43.0978 208.048C43.3658 207.892 43.5758 207.682 43.7278 207.418C43.8838 207.15 43.9618 206.858 43.9618 206.542V203.398C43.9618 203.082 43.8838 202.792 43.7278 202.528C43.5758 202.264 43.3658 202.056 43.0978 201.904C42.8338 201.748 42.5438 201.67 42.2278 201.67C41.9118 201.67 41.6198 201.748 41.3518 201.904C41.0878 202.056 40.8778 202.264 40.7218 202.528C40.5698 202.792 40.4938 203.082 40.4938 203.398V206.542C40.4938 206.858 40.5698 207.15 40.7218 207.418C40.8778 207.682 41.0878 207.892 41.3518 208.048C41.6198 208.2 41.9118 208.276 42.2278 208.276Z" fill="#312C33"/>
<path d="M25.7881 244.689H24.5101V237.429L22.8841 238.419V237.021L24.5101 236.049H25.7881V244.689ZM28.8681 244.791C28.6441 244.791 28.4561 244.715 28.3041 244.563C28.1561 244.411 28.0821 244.227 28.0821 244.011C28.0821 243.791 28.1561 243.607 28.3041 243.459C28.4561 243.307 28.6441 243.231 28.8681 243.231C29.0921 243.231 29.2781 243.307 29.4261 243.459C29.5741 243.607 29.6481 243.791 29.6481 244.011C29.6481 244.231 29.5741 244.417 29.4261 244.569C29.2781 244.717 29.0921 244.791 28.8681 244.791ZM34.8317 244.869C34.2517 244.869 33.7337 244.741 33.2777 244.485C32.8217 244.225 32.4637 243.867 32.2037 243.411C31.9477 242.955 31.8197 242.437 31.8197 241.857V238.881C31.8197 238.301 31.9477 237.783 32.2037 237.327C32.4637 236.871 32.8217 236.515 33.2777 236.259C33.7337 235.999 34.2517 235.869 34.8317 235.869C35.4117 235.869 35.9297 235.999 36.3857 236.259C36.8417 236.515 37.1977 236.871 37.4537 237.327C37.7137 237.783 37.8437 238.301 37.8437 238.881V241.857C37.8437 242.437 37.7137 242.955 37.4537 243.411C37.1977 243.867 36.8417 244.225 36.3857 244.485C35.9297 244.741 35.4117 244.869 34.8317 244.869ZM34.8317 243.669C35.1477 243.669 35.4377 243.593 35.7017 243.441C35.9697 243.285 36.1797 243.075 36.3317 242.811C36.4877 242.543 36.5657 242.251 36.5657 241.935V238.791C36.5657 238.475 36.4877 238.185 36.3317 237.921C36.1797 237.657 35.9697 237.449 35.7017 237.297C35.4377 237.141 35.1477 237.063 34.8317 237.063C34.5157 237.063 34.2237 237.141 33.9557 237.297C33.6917 237.449 33.4817 237.657 33.3257 237.921C33.1737 238.185 33.0977 238.475 33.0977 238.791V241.935C33.0977 242.251 33.1737 242.543 33.3257 242.811C33.4817 243.075 33.6917 243.285 33.9557 243.441C34.2237 243.593 34.5157 243.669 34.8317 243.669ZM42.9309 244.869C42.3509 244.869 41.8329 244.741 41.3769 244.485C40.9209 244.225 40.5629 243.867 40.3029 243.411C40.0469 242.955 39.9189 242.437 39.9189 241.857V238.881C39.9189 238.301 40.0469 237.783 40.3029 237.327C40.5629 236.871 40.9209 236.515 41.3769 236.259C41.8329 235.999 42.3509 235.869 42.9309 235.869C43.5109 235.869 44.0289 235.999 44.4849 236.259C44.9409 236.515 45.2969 236.871 45.5529 237.327C45.8129 237.783 45.9429 238.301 45.9429 238.881V241.857C45.9429 242.437 45.8129 242.955 45.5529 243.411C45.2969 243.867 44.9409 244.225 44.4849 244.485C44.0289 244.741 43.5109 244.869 42.9309 244.869ZM42.9309 243.669C43.2469 243.669 43.5369 243.593 43.8009 243.441C44.0689 243.285 44.2789 243.075 44.4309 242.811C44.5869 242.543 44.6649 242.251 44.6649 241.935V238.791C44.6649 238.475 44.5869 238.185 44.4309 237.921C44.2789 237.657 44.0689 237.449 43.8009 237.297C43.5369 237.141 43.2469 237.063 42.9309 237.063C42.6149 237.063 42.3229 237.141 42.0549 237.297C41.7909 237.449 41.5809 237.657 41.4249 237.921C41.2729 238.185 41.1969 238.475 41.1969 238.791V241.935C41.1969 242.251 41.2729 242.543 41.4249 242.811C41.5809 243.075 41.7909 243.285 42.0549 243.441C42.3229 243.593 42.6149 243.669 42.9309 243.669Z" fill="#312C33"/>
<path d="M26.0161 280.262C25.4361 280.262 24.9181 280.134 24.4621 279.878C24.0061 279.618 23.6481 279.26 23.3881 278.804C23.1321 278.348 23.0041 277.83 23.0041 277.25V274.274C23.0041 273.694 23.1321 273.176 23.3881 272.72C23.6481 272.264 24.0061 271.908 24.4621 271.652C24.9181 271.392 25.4361 271.262 26.0161 271.262C26.5961 271.262 27.1141 271.392 27.5701 271.652C28.0261 271.908 28.3821 272.264 28.6381 272.72C28.8981 273.176 29.0281 273.694 29.0281 274.274V277.25C29.0281 277.83 28.8981 278.348 28.6381 278.804C28.3821 279.26 28.0261 279.618 27.5701 279.878C27.1141 280.134 26.5961 280.262 26.0161 280.262ZM26.0161 279.062C26.3321 279.062 26.6221 278.986 26.8861 278.834C27.1541 278.678 27.3641 278.468 27.5161 278.204C27.6721 277.936 27.7501 277.644 27.7501 277.328V274.184C27.7501 273.868 27.6721 273.578 27.5161 273.314C27.3641 273.05 27.1541 272.842 26.8861 272.69C26.6221 272.534 26.3321 272.456 26.0161 272.456C25.7001 272.456 25.4081 272.534 25.1401 272.69C24.8761 272.842 24.6661 273.05 24.5101 273.314C24.3581 273.578 24.2821 273.868 24.2821 274.184V277.328C24.2821 277.644 24.3581 277.936 24.5101 278.204C24.6661 278.468 24.8761 278.678 25.1401 278.834C25.4081 278.986 25.7001 279.062 26.0161 279.062ZM31.9853 280.184C31.7613 280.184 31.5733 280.108 31.4213 279.956C31.2733 279.804 31.1993 279.62 31.1993 279.404C31.1993 279.184 31.2733 279 31.4213 278.852C31.5733 278.7 31.7613 278.624 31.9853 278.624C32.2093 278.624 32.3953 278.7 32.5433 278.852C32.6913 279 32.7653 279.184 32.7653 279.404C32.7653 279.624 32.6913 279.81 32.5433 279.962C32.3953 280.11 32.2093 280.184 31.9853 280.184ZM37.6969 274.532C38.2289 274.532 38.7069 274.656 39.1309 274.904C39.5589 275.148 39.8929 275.486 40.1329 275.918C40.3769 276.35 40.4989 276.832 40.4989 277.364C40.4989 277.888 40.3609 278.372 40.0849 278.816C39.8129 279.26 39.4469 279.612 38.9869 279.872C38.5269 280.132 38.0309 280.262 37.4989 280.262C37.0629 280.262 36.6529 280.172 36.2689 279.992C35.8849 279.808 35.5549 279.554 35.2789 279.23C35.0069 278.906 34.8129 278.536 34.6969 278.12L35.9029 277.796C35.9669 278.044 36.0809 278.264 36.2449 278.456C36.4129 278.644 36.6089 278.79 36.8329 278.894C37.0609 278.998 37.2949 279.05 37.5349 279.05C37.8469 279.05 38.1309 278.974 38.3869 278.822C38.6469 278.67 38.8529 278.466 39.0049 278.21C39.1569 277.95 39.2329 277.668 39.2329 277.364C39.2329 277.056 39.1549 276.772 38.9989 276.512C38.8469 276.252 38.6409 276.048 38.3809 275.9C38.1209 275.748 37.8389 275.672 37.5349 275.672C37.2069 275.672 36.9189 275.738 36.6709 275.87C36.4229 276.002 36.2229 276.168 36.0709 276.368L34.9789 275.984L35.2429 271.442H39.9049V272.624H36.3649L36.2209 275C36.4329 274.848 36.6669 274.732 36.9229 274.652C37.1789 274.572 37.4369 274.532 37.6969 274.532ZM45.345 280.262C44.765 280.262 44.247 280.134 43.791 279.878C43.335 279.618 42.977 279.26 42.717 278.804C42.461 278.348 42.333 277.83 42.333 277.25V274.274C42.333 273.694 42.461 273.176 42.717 272.72C42.977 272.264 43.335 271.908 43.791 271.652C44.247 271.392 44.765 271.262 45.345 271.262C45.925 271.262 46.443 271.392 46.899 271.652C47.355 271.908 47.711 272.264 47.967 272.72C48.227 273.176 48.357 273.694 48.357 274.274V277.25C48.357 277.83 48.227 278.348 47.967 278.804C47.711 279.26 47.355 279.618 46.899 279.878C46.443 280.134 45.925 280.262 45.345 280.262ZM45.345 279.062C45.661 279.062 45.951 278.986 46.215 278.834C46.483 278.678 46.693 278.468 46.845 278.204C47.001 277.936 47.079 277.644 47.079 277.328V274.184C47.079 273.868 47.001 273.578 46.845 273.314C46.693 273.05 46.483 272.842 46.215 272.69C45.951 272.534 45.661 272.456 45.345 272.456C45.029 272.456 44.737 272.534 44.469 272.69C44.205 272.842 43.995 273.05 43.839 273.314C43.687 273.578 43.611 273.868 43.611 274.184V277.328C43.611 277.644 43.687 277.936 43.839 278.204C43.995 278.468 44.205 278.678 44.469 278.834C44.737 278.986 45.029 279.062 45.345 279.062Z" fill="#312C33"/>
</g>
<rect x="61.2461" y="90.1166" width="676.591" height="7.38786" fill="white"/>
<g filter="url(#filter0_i_2541_39031)">
<rect x="61.2461" y="97.5044" width="23.3307" height="36.9393" fill="white"/>
<rect x="84.5771" y="97.5044" width="23.3307" height="36.9393" fill="white"/>
<rect x="107.907" y="97.5044" width="23.3307" height="36.9393" fill="white"/>
<rect x="131.238" y="97.5044" width="23.3307" height="36.9393" fill="white"/>
<rect x="154.569" y="97.5044" width="23.3307" height="36.9393" fill="white"/>
<rect x="177.899" y="97.5044" width="23.3307" height="36.9393" fill="white"/>
<rect x="201.23" y="97.5044" width="23.3307" height="36.9393" fill="white"/>
<rect x="224.562" y="97.5044" width="23.3307" height="36.9393" fill="white"/>
<rect x="247.892" y="97.5044" width="23.3307" height="36.9393" fill="white"/>
<rect x="271.223" y="97.5044" width="23.3307" height="36.9393" fill="white"/>
<rect x="294.554" y="97.5044" width="23.3307" height="36.9393" fill="white"/>
<rect x="317.884" y="97.5044" width="23.3307" height="36.9393" fill="white"/>
<rect x="341.215" y="97.5044" width="23.3307" height="36.9393" fill="white"/>
<rect x="364.546" y="97.5044" width="23.3307" height="36.9393" fill="white"/>
<rect x="387.876" y="97.5044" width="23.3307" height="36.9393" fill="white"/>
<rect x="411.207" y="97.5044" width="23.3307" height="36.9393" fill="white"/>
<rect x="434.538" y="97.5044" width="23.3307" height="36.9393" fill="white"/>
<rect x="457.868" y="97.5044" width="23.3307" height="36.9393" fill="white"/>
<rect x="481.199" y="97.5044" width="23.3307" height="36.9393" fill="white"/>
<rect x="504.53" y="97.5044" width="23.3307" height="36.9393" fill="white"/>
<rect x="527.86" y="97.5044" width="23.3307" height="36.9393" fill="white"/>
<rect x="551.191" y="97.5044" width="23.3307" height="36.9393" fill="white"/>
<rect x="574.522" y="97.5044" width="23.3307" height="36.9393" fill="white"/>
<rect x="597.853" y="97.5044" width="23.3307" height="36.9393" fill="white"/>
<rect x="621.184" y="97.5044" width="23.3307" height="36.9393" fill="white"/>
<rect x="644.514" y="97.5044" width="23.3307" height="36.9393" fill="white"/>
<rect x="667.845" y="97.5044" width="23.3307" height="36.9393" fill="white"/>
<rect x="691.176" y="97.5044" width="23.3307" height="36.9393" fill="white"/>
<rect x="714.506" y="97.5044" width="23.3307" height="36.9393" fill="white"/>
</g>
<g filter="url(#filter1_i_2541_39031)">
<rect x="61.2461" y="134.444" width="23.3307" height="36.9393" fill="white"/>
<rect x="84.5771" y="134.444" width="23.3307" height="36.9393" fill="white"/>
<rect x="107.907" y="134.444" width="23.3307" height="36.9393" fill="white"/>
<rect x="131.238" y="134.444" width="23.3307" height="36.9393" fill="white"/>
<rect x="154.569" y="134.444" width="23.3307" height="36.9393" fill="white"/>
<rect x="177.899" y="134.444" width="23.3307" height="36.9393" fill="white"/>
<rect x="201.23" y="134.444" width="23.3307" height="36.9393" fill="white"/>
<rect x="224.562" y="134.444" width="23.3307" height="36.9393" fill="white"/>
<rect x="247.892" y="134.444" width="23.3307" height="36.9393" fill="white"/>
<rect x="271.223" y="134.444" width="23.3307" height="36.9393" fill="white"/>
<rect x="294.554" y="134.444" width="23.3307" height="36.9393" fill="white"/>
<rect x="317.884" y="134.444" width="23.3307" height="36.9393" fill="white"/>
<rect x="341.215" y="134.444" width="23.3307" height="36.9393" fill="white"/>
<rect x="364.546" y="134.444" width="23.3307" height="36.9393" fill="white"/>
<rect x="387.876" y="134.444" width="23.3307" height="36.9393" fill="white"/>
<rect x="411.207" y="134.444" width="23.3307" height="36.9393" fill="white"/>
<rect x="434.538" y="134.444" width="23.3307" height="36.9393" fill="white"/>
<rect x="457.868" y="134.444" width="23.3307" height="36.9393" fill="white"/>
<rect x="481.199" y="134.444" width="23.3307" height="36.9393" fill="white"/>
<rect x="504.53" y="134.444" width="23.3307" height="36.9393" fill="white"/>
<rect x="527.86" y="134.444" width="23.3307" height="36.9393" fill="white"/>
<rect x="551.191" y="134.444" width="23.3307" height="36.9393" fill="white"/>
<rect x="574.522" y="134.444" width="23.3307" height="36.9393" fill="white"/>
<rect x="597.853" y="134.444" width="23.3307" height="36.9393" fill="white"/>
<rect x="621.184" y="134.444" width="23.3307" height="36.9393" fill="white"/>
<rect x="644.514" y="134.444" width="23.3307" height="36.9393" fill="white"/>
<rect x="667.845" y="134.444" width="23.3307" height="36.9393" fill="white"/>
<rect x="691.176" y="134.444" width="23.3307" height="36.9393" fill="white"/>
<rect x="714.506" y="134.444" width="23.3307" height="36.9393" fill="white"/>
</g>
<g filter="url(#filter2_i_2541_39031)">
<rect x="61.2461" y="171.383" width="23.3307" height="36.9393" fill="white"/>
<rect x="84.5771" y="171.383" width="23.3307" height="36.9393" fill="white"/>
<rect x="107.907" y="171.383" width="23.3307" height="36.9393" fill="white"/>
<rect x="131.238" y="171.383" width="23.3307" height="36.9393" fill="white"/>
<rect x="154.569" y="171.383" width="23.3307" height="36.9393" fill="white"/>
<rect x="177.899" y="171.383" width="23.3307" height="36.9393" fill="white"/>
<rect x="201.23" y="171.383" width="23.3307" height="36.9393" fill="white"/>
<rect x="224.562" y="171.383" width="23.3307" height="36.9393" fill="white"/>
<rect x="247.892" y="171.383" width="23.3307" height="36.9393" fill="white"/>
<rect x="271.223" y="171.383" width="23.3307" height="36.9393" fill="white"/>
<rect x="294.554" y="171.383" width="23.3307" height="36.9393" fill="white"/>
<rect x="317.884" y="171.383" width="23.3307" height="36.9393" fill="white"/>
<rect x="341.215" y="171.383" width="23.3307" height="36.9393" fill="white"/>
<rect x="364.546" y="171.383" width="23.3307" height="36.9393" fill="white"/>
<rect x="387.876" y="171.383" width="23.3307" height="36.9393" fill="white"/>
<rect x="411.207" y="171.383" width="23.3307" height="36.9393" fill="white"/>
<rect x="434.538" y="171.383" width="23.3307" height="36.9393" fill="white"/>
<rect x="457.868" y="171.383" width="23.3307" height="36.9393" fill="white"/>
<rect x="481.199" y="171.383" width="23.3307" height="36.9393" fill="white"/>
<rect x="504.53" y="171.383" width="23.3307" height="36.9393" fill="white"/>
<rect x="527.86" y="171.383" width="23.3307" height="36.9393" fill="white"/>
<rect x="551.191" y="171.383" width="23.3307" height="36.9393" fill="white"/>
<rect x="574.522" y="171.383" width="23.3307" height="36.9393" fill="white"/>
<rect x="597.853" y="171.383" width="23.3307" height="36.9393" fill="white"/>
<rect x="621.184" y="171.383" width="23.3307" height="36.9393" fill="white"/>
<rect x="644.514" y="171.383" width="23.3307" height="36.9393" fill="white"/>
<rect x="667.845" y="171.383" width="23.3307" height="36.9393" fill="white"/>
<rect x="691.176" y="171.383" width="23.3307" height="36.9393" fill="white"/>
<rect x="714.506" y="171.383" width="23.3307" height="36.9393" fill="white"/>
</g>
<g filter="url(#filter3_i_2541_39031)">
<rect x="61.2461" y="208.322" width="23.3307" height="36.9393" fill="white"/>
<rect x="84.5771" y="208.322" width="23.3307" height="36.9393" fill="white"/>
<rect x="107.907" y="208.322" width="23.3307" height="36.9393" fill="white"/>
<rect x="131.238" y="208.322" width="23.3307" height="36.9393" fill="white"/>
<rect x="154.569" y="208.322" width="23.3307" height="36.9393" fill="white"/>
<rect x="177.899" y="208.322" width="23.3307" height="36.9393" fill="white"/>
<rect x="201.23" y="208.322" width="23.3307" height="36.9393" fill="white"/>
<rect x="224.562" y="208.322" width="23.3307" height="36.9393" fill="white"/>
<rect x="247.892" y="208.322" width="23.3307" height="36.9393" fill="white"/>
<rect x="271.223" y="208.322" width="23.3307" height="36.9393" fill="white"/>
<rect x="294.554" y="208.322" width="23.3307" height="36.9393" fill="white"/>
<rect x="317.884" y="208.322" width="23.3307" height="36.9393" fill="white"/>
<rect x="341.215" y="208.322" width="23.3307" height="36.9393" fill="white"/>
<rect x="364.546" y="208.322" width="23.3307" height="36.9393" fill="white"/>
<rect x="387.876" y="208.322" width="23.3307" height="36.9393" fill="white"/>
<rect x="411.207" y="208.322" width="23.3307" height="36.9393" fill="white"/>
<rect x="434.538" y="208.322" width="23.3307" height="36.9393" fill="white"/>
<rect x="457.868" y="208.322" width="23.3307" height="36.9393" fill="white"/>
<rect x="481.199" y="208.322" width="23.3307" height="36.9393" fill="white"/>
<rect x="504.53" y="208.322" width="23.3307" height="36.9393" fill="white"/>
<rect x="527.86" y="208.322" width="23.3307" height="36.9393" fill="white"/>
<rect x="551.191" y="208.322" width="23.3307" height="36.9393" fill="white"/>
<rect x="574.522" y="208.322" width="23.3307" height="36.9393" fill="white"/>
<rect x="597.853" y="208.322" width="23.3307" height="36.9393" fill="white"/>
<rect x="621.184" y="208.322" width="23.3307" height="36.9393" fill="white"/>
<rect x="644.514" y="208.322" width="23.3307" height="36.9393" fill="white"/>
<rect x="667.845" y="208.322" width="23.3307" height="36.9393" fill="white"/>
<rect x="691.176" y="208.322" width="23.3307" height="36.9393" fill="white"/>
<rect x="714.506" y="208.322" width="23.3307" height="36.9393" fill="white"/>
</g>
<g filter="url(#filter4_ii_2541_39031)">
<rect x="61.2461" y="245.262" width="23.3307" height="36.9393" fill="white"/>
<rect x="84.5771" y="245.262" width="23.3307" height="36.9393" fill="white"/>
<rect x="107.907" y="245.262" width="23.3307" height="36.9393" fill="white"/>
<rect x="131.238" y="245.262" width="23.3307" height="36.9393" fill="white"/>
<rect x="154.569" y="245.262" width="23.3307" height="36.9393" fill="white"/>
<rect x="177.899" y="245.262" width="23.3307" height="36.9393" fill="white"/>
<rect x="201.23" y="245.262" width="23.3307" height="36.9393" fill="white"/>
<rect x="224.562" y="245.262" width="23.3307" height="36.9393" fill="white"/>
<rect x="247.892" y="245.262" width="23.3307" height="36.9393" fill="white"/>
<rect x="271.223" y="245.262" width="23.3307" height="36.9393" fill="white"/>
<rect x="294.554" y="245.262" width="23.3307" height="36.9393" fill="white"/>
<rect x="317.884" y="245.262" width="23.3307" height="36.9393" fill="white"/>
<rect x="341.215" y="245.262" width="23.3307" height="36.9393" fill="white"/>
<rect x="364.546" y="245.262" width="23.3307" height="36.9393" fill="white"/>
<rect x="387.876" y="245.262" width="23.3307" height="36.9393" fill="white"/>
<rect x="411.207" y="245.262" width="23.3307" height="36.9393" fill="white"/>
<rect x="434.538" y="245.262" width="23.3307" height="36.9393" fill="white"/>
<rect x="457.868" y="245.262" width="23.3307" height="36.9393" fill="white"/>
<rect x="481.199" y="245.262" width="23.3307" height="36.9393" fill="white"/>
<rect x="504.53" y="245.262" width="23.3307" height="36.9393" fill="white"/>
<rect x="527.86" y="245.262" width="23.3307" height="36.9393" fill="white"/>
<rect x="551.191" y="245.262" width="23.3307" height="36.9393" fill="white"/>
<rect x="574.522" y="245.262" width="23.3307" height="36.9393" fill="white"/>
<rect x="597.853" y="245.262" width="23.3307" height="36.9393" fill="white"/>
<rect x="621.184" y="245.262" width="23.3307" height="36.9393" fill="white"/>
<rect x="644.514" y="245.262" width="23.3307" height="36.9393" fill="white"/>
<rect x="667.845" y="245.262" width="23.3307" height="36.9393" fill="white"/>
<rect x="691.176" y="245.262" width="23.3307" height="36.9393" fill="white"/>
<rect x="714.506" y="245.262" width="23.3307" height="36.9393" fill="white"/>
<path d="M59.8691 264.731L107.607 231.948L154.427 243.029L178.296 221.789L200.328 231.024L272.853 237.027L342.165 213.94L407.345 225.945L525.771 221.789L618.493 279.969L734.165 213.94V178.847L618.493 243.029L525.771 185.773L410.099 221.789L321.05 178.847L268.263 203.32L153.509 190.391L102.099 231.024H59.8691V264.731Z" fill="#E8FBF2"/>
</g>
<path d="M58.4922 265.117L108.066 230.487L154.886 242.03L178.296 220.328L201.705 230.487L271.476 235.566L341.247 216.173L411.476 225.869L525.34 219.867L618.371 279.431L735.083 212.017" stroke="#1BD47B" stroke-width="1.84696"/>
<rect x="61.2461" y="282.201" width="23.3307" height="7.38786" fill="white"/>
<rect x="84.5771" y="282.201" width="23.3307" height="7.38786" fill="white"/>
<rect x="107.907" y="282.201" width="23.3307" height="7.38786" fill="white"/>
<rect x="131.238" y="282.201" width="23.3307" height="7.38786" fill="white"/>
<rect x="154.569" y="282.201" width="23.3307" height="7.38786" fill="white"/>
<rect x="177.899" y="282.201" width="23.3307" height="7.38786" fill="white"/>
<rect x="201.23" y="282.201" width="23.3307" height="7.38786" fill="white"/>
<rect x="224.562" y="282.201" width="23.3307" height="7.38786" fill="white"/>
<rect x="247.892" y="282.201" width="23.3307" height="7.38786" fill="white"/>
<rect x="271.223" y="282.201" width="23.3307" height="7.38786" fill="white"/>
<rect x="294.554" y="282.201" width="23.3307" height="7.38786" fill="white"/>
<rect x="317.884" y="282.201" width="23.3307" height="7.38786" fill="white"/>
<rect x="341.215" y="282.201" width="23.3307" height="7.38786" fill="white"/>
<rect x="364.546" y="282.201" width="23.3307" height="7.38786" fill="white"/>
<rect x="387.876" y="282.201" width="23.3307" height="7.38786" fill="white"/>
<rect x="411.207" y="282.201" width="23.3307" height="7.38786" fill="white"/>
<rect x="434.538" y="282.201" width="23.3307" height="7.38786" fill="white"/>
<rect x="457.868" y="282.201" width="23.3307" height="7.38786" fill="white"/>
<rect x="481.199" y="282.201" width="23.3307" height="7.38786" fill="white"/>
<rect x="504.53" y="282.201" width="23.3307" height="7.38786" fill="white"/>
<rect x="527.86" y="282.201" width="23.3307" height="7.38786" fill="white"/>
<rect x="551.191" y="282.201" width="23.3307" height="7.38786" fill="white"/>
<rect x="574.522" y="282.201" width="23.3307" height="7.38786" fill="white"/>
<rect x="597.853" y="282.201" width="23.3307" height="7.38786" fill="white"/>
<rect x="621.184" y="282.201" width="23.3307" height="7.38786" fill="white"/>
<rect x="644.514" y="282.201" width="23.3307" height="7.38786" fill="white"/>
<rect x="667.845" y="282.201" width="23.3307" height="7.38786" fill="white"/>
<rect x="691.176" y="282.201" width="23.3307" height="7.38786" fill="white"/>
<rect x="714.506" y="282.201" width="23.3307" height="7.38786" fill="white"/>
<g opacity="0.5">
<path d="M160.898 302.589H159.596L158.954 300.639H155.408L154.778 302.589H153.476L156.284 293.949H158.09L160.898 302.589ZM157.172 295.203L155.792 299.463H158.57L157.172 295.203ZM166.808 296.109H168.074V302.589H166.958V301.815C166.714 302.119 166.412 302.353 166.052 302.517C165.692 302.681 165.28 302.763 164.816 302.763C164.136 302.763 163.604 302.593 163.22 302.253C162.84 301.909 162.584 301.509 162.452 301.053C162.32 300.597 162.254 300.149 162.254 299.709V296.109H163.526V299.295C163.526 299.931 163.644 300.471 163.88 300.915C164.116 301.355 164.544 301.575 165.164 301.575C165.656 301.575 166.052 301.407 166.352 301.071C166.656 300.735 166.808 300.205 166.808 299.481V296.109ZM174.663 296.109H175.773V302.763C175.773 303.143 175.745 303.463 175.689 303.723C175.557 304.363 175.241 304.843 174.741 305.163C174.241 305.487 173.603 305.649 172.827 305.649C172.291 305.649 171.793 305.525 171.333 305.277C170.877 305.033 170.519 304.685 170.259 304.233L171.417 303.645C171.553 303.909 171.747 304.107 171.999 304.239C172.255 304.375 172.535 304.443 172.839 304.443C173.379 304.443 173.795 304.299 174.087 304.011C174.379 303.723 174.521 303.303 174.513 302.751V302.139C174.037 302.559 173.443 302.769 172.731 302.769C172.143 302.769 171.627 302.621 171.183 302.325C170.739 302.025 170.397 301.615 170.157 301.095C169.917 300.575 169.797 299.991 169.797 299.343C169.797 298.691 169.917 298.107 170.157 297.591C170.401 297.071 170.745 296.665 171.189 296.373C171.637 296.077 172.159 295.929 172.755 295.929C173.151 295.929 173.509 295.995 173.829 296.127C174.149 296.259 174.427 296.447 174.663 296.691V296.109ZM172.905 301.635C173.497 301.635 173.937 301.431 174.225 301.023C174.517 300.611 174.663 300.051 174.663 299.343C174.663 298.643 174.519 298.089 174.231 297.681C173.947 297.269 173.519 297.063 172.947 297.063C172.543 297.063 172.205 297.163 171.933 297.363C171.661 297.559 171.459 297.829 171.327 298.173C171.195 298.517 171.129 298.907 171.129 299.343C171.129 299.783 171.195 300.175 171.327 300.519C171.459 300.863 171.657 301.135 171.921 301.335C172.189 301.535 172.517 301.635 172.905 301.635ZM183.702 297.195C184.158 297.255 184.556 297.411 184.896 297.663C185.24 297.911 185.504 298.231 185.688 298.623C185.872 299.011 185.964 299.439 185.964 299.907C185.964 300.447 185.836 300.933 185.58 301.365C185.324 301.797 184.976 302.137 184.536 302.385C184.096 302.629 183.61 302.751 183.078 302.751C182.65 302.751 182.246 302.671 181.866 302.511C181.49 302.347 181.164 302.115 180.888 301.815C180.616 301.511 180.42 301.157 180.3 300.753L181.512 300.417C181.624 300.781 181.82 301.063 182.1 301.263C182.38 301.463 182.7 301.563 183.06 301.563C183.372 301.563 183.65 301.493 183.894 301.353C184.142 301.209 184.334 301.011 184.47 300.759C184.61 300.507 184.68 300.223 184.68 299.907C184.68 299.591 184.612 299.307 184.476 299.055C184.34 298.803 184.15 298.607 183.906 298.467C183.662 298.323 183.382 298.251 183.066 298.251C182.79 298.251 182.518 298.323 182.25 298.467L181.662 297.477L184.302 295.143H180.642V293.949H185.838V295.143L183.702 297.195ZM190.939 302.769C190.359 302.769 189.841 302.641 189.385 302.385C188.929 302.125 188.571 301.767 188.311 301.311C188.055 300.855 187.927 300.337 187.927 299.757V296.781C187.927 296.201 188.055 295.683 188.311 295.227C188.571 294.771 188.929 294.415 189.385 294.159C189.841 293.899 190.359 293.769 190.939 293.769C191.519 293.769 192.037 293.899 192.493 294.159C192.949 294.415 193.305 294.771 193.561 295.227C193.821 295.683 193.951 296.201 193.951 296.781V299.757C193.951 300.337 193.821 300.855 193.561 301.311C193.305 301.767 192.949 302.125 192.493 302.385C192.037 302.641 191.519 302.769 190.939 302.769ZM190.939 301.569C191.255 301.569 191.545 301.493 191.809 301.341C192.077 301.185 192.287 300.975 192.439 300.711C192.595 300.443 192.673 300.151 192.673 299.835V296.691C192.673 296.375 192.595 296.085 192.439 295.821C192.287 295.557 192.077 295.349 191.809 295.197C191.545 295.041 191.255 294.963 190.939 294.963C190.623 294.963 190.331 295.041 190.063 295.197C189.799 295.349 189.589 295.557 189.433 295.821C189.281 296.085 189.205 296.375 189.205 296.691V299.835C189.205 300.151 189.281 300.443 189.433 300.711C189.589 300.975 189.799 301.185 190.063 301.341C190.331 301.493 190.623 301.569 190.939 301.569Z" fill="#312C33"/>
<path d="M383.025 302.769C382.405 302.769 381.845 302.663 381.345 302.451C380.845 302.235 380.433 301.927 380.109 301.527C379.789 301.123 379.583 300.651 379.491 300.111L380.799 299.913C380.887 300.261 381.039 300.561 381.255 300.813C381.475 301.065 381.743 301.257 382.059 301.389C382.375 301.521 382.721 301.587 383.097 301.587C383.445 301.587 383.767 301.531 384.063 301.419C384.359 301.307 384.593 301.147 384.765 300.939C384.941 300.731 385.029 300.487 385.029 300.207C385.029 299.911 384.933 299.675 384.741 299.499C384.553 299.319 384.287 299.177 383.943 299.073L381.729 298.419C381.181 298.259 380.727 298.015 380.367 297.687C380.007 297.359 379.827 296.881 379.827 296.253C379.827 295.737 379.961 295.293 380.229 294.921C380.497 294.545 380.863 294.261 381.327 294.069C381.795 293.873 382.321 293.775 382.905 293.775C383.485 293.775 384.007 293.875 384.471 294.075C384.939 294.275 385.327 294.565 385.635 294.945C385.947 295.325 386.161 295.779 386.277 296.307L384.933 296.535C384.869 296.211 384.737 295.931 384.537 295.695C384.341 295.455 384.097 295.273 383.805 295.149C383.513 295.025 383.197 294.963 382.857 294.963C382.545 294.963 382.259 295.015 381.999 295.119C381.739 295.223 381.533 295.369 381.381 295.557C381.229 295.745 381.153 295.957 381.153 296.193C381.153 296.513 381.275 296.757 381.519 296.925C381.767 297.089 382.093 297.227 382.497 297.339L384.093 297.789C384.485 297.897 384.835 298.025 385.143 298.173C385.455 298.321 385.731 298.555 385.971 298.875C386.215 299.191 386.337 299.607 386.337 300.123C386.337 300.683 386.187 301.163 385.887 301.563C385.591 301.959 385.191 302.259 384.687 302.463C384.187 302.667 383.633 302.769 383.025 302.769ZM389 299.703C389.052 300.307 389.234 300.773 389.546 301.101C389.858 301.425 390.286 301.587 390.83 301.587C391.218 301.587 391.556 301.499 391.844 301.323C392.132 301.147 392.356 300.891 392.516 300.555L393.746 300.945C393.498 301.517 393.118 301.965 392.606 302.289C392.094 302.609 391.522 302.769 390.89 302.769C390.25 302.769 389.686 302.629 389.198 302.349C388.71 302.065 388.33 301.669 388.058 301.161C387.79 300.649 387.656 300.063 387.656 299.403C387.656 298.703 387.788 298.091 388.052 297.567C388.316 297.043 388.688 296.639 389.168 296.355C389.648 296.071 390.202 295.929 390.83 295.929C391.45 295.929 391.986 296.067 392.438 296.343C392.89 296.619 393.236 297.015 393.476 297.531C393.72 298.043 393.842 298.649 393.842 299.349C393.842 299.425 393.838 299.543 393.83 299.703H389ZM390.878 297.039C390.346 297.039 389.924 297.183 389.612 297.471C389.304 297.755 389.11 298.173 389.03 298.725H392.546C392.478 298.153 392.306 297.729 392.03 297.453C391.758 297.177 391.374 297.039 390.878 297.039ZM398.418 295.929C399.014 295.929 399.534 296.077 399.978 296.373C400.426 296.665 400.77 297.071 401.01 297.591C401.254 298.107 401.376 298.691 401.376 299.343C401.376 299.991 401.256 300.575 401.016 301.095C400.776 301.615 400.434 302.025 399.99 302.325C399.546 302.621 399.03 302.769 398.442 302.769C397.73 302.769 397.134 302.557 396.654 302.133V305.469H395.394V296.109H396.51V296.691C396.746 296.447 397.024 296.259 397.344 296.127C397.664 295.995 398.022 295.929 398.418 295.929ZM398.268 301.635C398.656 301.635 398.982 301.535 399.246 301.335C399.514 301.135 399.714 300.863 399.846 300.519C399.978 300.175 400.044 299.783 400.044 299.343C400.044 298.907 399.978 298.517 399.846 298.173C399.714 297.829 399.512 297.559 399.24 297.363C398.968 297.163 398.63 297.063 398.226 297.063C397.654 297.063 397.224 297.269 396.936 297.681C396.652 298.089 396.51 298.643 396.51 299.343C396.51 300.051 396.654 300.611 396.942 301.023C397.234 301.431 397.676 301.635 398.268 301.635ZM408.945 297.195C409.401 297.255 409.799 297.411 410.139 297.663C410.483 297.911 410.747 298.231 410.931 298.623C411.115 299.011 411.207 299.439 411.207 299.907C411.207 300.447 411.079 300.933 410.823 301.365C410.567 301.797 410.219 302.137 409.779 302.385C409.339 302.629 408.853 302.751 408.321 302.751C407.893 302.751 407.489 302.671 407.109 302.511C406.733 302.347 406.407 302.115 406.131 301.815C405.859 301.511 405.663 301.157 405.543 300.753L406.755 300.417C406.867 300.781 407.063 301.063 407.343 301.263C407.623 301.463 407.943 301.563 408.303 301.563C408.615 301.563 408.893 301.493 409.137 301.353C409.385 301.209 409.577 301.011 409.713 300.759C409.853 300.507 409.923 300.223 409.923 299.907C409.923 299.591 409.855 299.307 409.719 299.055C409.583 298.803 409.393 298.607 409.149 298.467C408.905 298.323 408.625 298.251 408.309 298.251C408.033 298.251 407.761 298.323 407.493 298.467L406.905 297.477L409.545 295.143H405.885V293.949H411.081V295.143L408.945 297.195ZM416.183 302.769C415.603 302.769 415.085 302.641 414.629 302.385C414.173 302.125 413.815 301.767 413.555 301.311C413.299 300.855 413.171 300.337 413.171 299.757V296.781C413.171 296.201 413.299 295.683 413.555 295.227C413.815 294.771 414.173 294.415 414.629 294.159C415.085 293.899 415.603 293.769 416.183 293.769C416.763 293.769 417.281 293.899 417.737 294.159C418.193 294.415 418.549 294.771 418.805 295.227C419.065 295.683 419.195 296.201 419.195 296.781V299.757C419.195 300.337 419.065 300.855 418.805 301.311C418.549 301.767 418.193 302.125 417.737 302.385C417.281 302.641 416.763 302.769 416.183 302.769ZM416.183 301.569C416.499 301.569 416.789 301.493 417.053 301.341C417.321 301.185 417.531 300.975 417.683 300.711C417.839 300.443 417.917 300.151 417.917 299.835V296.691C417.917 296.375 417.839 296.085 417.683 295.821C417.531 295.557 417.321 295.349 417.053 295.197C416.789 295.041 416.499 294.963 416.183 294.963C415.867 294.963 415.575 295.041 415.307 295.197C415.043 295.349 414.833 295.557 414.677 295.821C414.525 296.085 414.449 296.375 414.449 296.691V299.835C414.449 300.151 414.525 300.443 414.677 300.711C414.833 300.975 415.043 301.185 415.307 301.341C415.575 301.493 415.867 301.569 416.183 301.569Z" fill="#312C33"/>
<path d="M610.963 302.769C610.115 302.769 609.383 302.581 608.767 302.205C608.151 301.829 607.681 301.303 607.357 300.627C607.037 299.947 606.877 299.161 606.877 298.269C606.877 297.377 607.037 296.593 607.357 295.917C607.681 295.237 608.151 294.709 608.767 294.333C609.383 293.957 610.115 293.769 610.963 293.769C611.811 293.769 612.541 293.957 613.153 294.333C613.769 294.709 614.237 295.237 614.557 295.917C614.881 296.593 615.043 297.377 615.043 298.269C615.043 299.161 614.881 299.947 614.557 300.627C614.237 301.303 613.769 301.829 613.153 302.205C612.541 302.581 611.811 302.769 610.963 302.769ZM610.999 301.575C611.591 301.575 612.089 301.439 612.493 301.167C612.901 300.891 613.205 300.505 613.405 300.009C613.609 299.513 613.711 298.933 613.711 298.269C613.711 297.597 613.607 297.013 613.399 296.517C613.191 296.021 612.879 295.639 612.463 295.371C612.047 295.099 611.535 294.963 610.927 294.963C610.331 294.963 609.829 295.101 609.421 295.377C609.017 295.653 608.713 296.041 608.509 296.541C608.309 297.037 608.209 297.619 608.209 298.287C608.209 298.955 608.313 299.535 608.521 300.027C608.733 300.519 609.047 300.901 609.463 301.173C609.879 301.441 610.391 301.575 610.999 301.575ZM619.412 302.769C618.764 302.769 618.204 302.623 617.732 302.331C617.264 302.039 616.906 301.635 616.658 301.119C616.41 300.603 616.284 300.013 616.28 299.349C616.284 298.681 616.412 298.089 616.664 297.573C616.92 297.053 617.284 296.649 617.756 296.361C618.232 296.073 618.79 295.929 619.43 295.929C619.898 295.929 620.324 296.009 620.708 296.169C621.096 296.329 621.42 296.557 621.68 296.853C621.944 297.149 622.13 297.499 622.238 297.903L620.99 298.263C620.866 297.903 620.662 297.621 620.378 297.417C620.098 297.213 619.776 297.111 619.412 297.111C618.82 297.111 618.372 297.315 618.068 297.723C617.768 298.127 617.616 298.669 617.612 299.349C617.616 300.037 617.772 300.583 618.08 300.987C618.388 301.387 618.832 301.587 619.412 301.587C619.804 301.587 620.126 301.497 620.378 301.317C620.634 301.133 620.83 300.863 620.966 300.507L622.238 300.807C622.026 301.443 621.676 301.929 621.188 302.265C620.7 302.601 620.108 302.769 619.412 302.769ZM625.642 297.117V299.979V300.321C625.642 300.525 625.65 300.691 625.666 300.819C625.682 300.943 625.718 301.051 625.774 301.143C625.87 301.303 626.004 301.419 626.176 301.491C626.352 301.559 626.566 301.593 626.818 301.593C627.034 301.593 627.284 301.571 627.568 301.527V302.589C627.196 302.661 626.854 302.697 626.542 302.697C626.094 302.697 625.702 302.625 625.366 302.481C625.034 302.337 624.786 302.111 624.622 301.803C624.522 301.615 624.456 301.423 624.424 301.227C624.396 301.027 624.382 300.785 624.382 300.501V300.039V297.117H623.14V296.109H624.382V294.309H625.642V296.109H627.568V297.117H625.642ZM635.179 297.195C635.635 297.255 636.033 297.411 636.373 297.663C636.717 297.911 636.981 298.231 637.165 298.623C637.349 299.011 637.441 299.439 637.441 299.907C637.441 300.447 637.313 300.933 637.057 301.365C636.801 301.797 636.453 302.137 636.013 302.385C635.573 302.629 635.087 302.751 634.555 302.751C634.127 302.751 633.723 302.671 633.343 302.511C632.967 302.347 632.641 302.115 632.365 301.815C632.093 301.511 631.897 301.157 631.777 300.753L632.989 300.417C633.101 300.781 633.297 301.063 633.577 301.263C633.857 301.463 634.177 301.563 634.537 301.563C634.849 301.563 635.127 301.493 635.371 301.353C635.619 301.209 635.811 301.011 635.947 300.759C636.087 300.507 636.157 300.223 636.157 299.907C636.157 299.591 636.089 299.307 635.953 299.055C635.817 298.803 635.627 298.607 635.383 298.467C635.139 298.323 634.859 298.251 634.543 298.251C634.267 298.251 633.995 298.323 633.727 298.467L633.139 297.477L635.779 295.143H632.119V293.949H637.315V295.143L635.179 297.195ZM642.188 302.589H640.91V295.329L639.284 296.319V294.921L640.91 293.949H642.188V302.589Z" fill="#312C33"/>
</g>
<path d="M58.4922 230.025H104.162L153.638 189.391L271.017 201.397L320.248 181.08L409.051 221.251L525.34 184.774L618.371 244.339L735.083 176.924" stroke="#212121" stroke-opacity="0.8" stroke-width="1.84696"/>
<circle cx="491.666" cy="38.3331" r="8.33333" fill="#212121" fill-opacity="0.8"/>
<path d="M513.863 42.9998H512.673L510.51 38.7998H507.675V42.9998H506.646V32.9198H510.538C510.785 32.9198 511.021 32.9384 511.245 32.9758C511.758 33.0551 512.199 33.2301 512.568 33.5008C512.937 33.7714 513.217 34.1098 513.408 34.5158C513.604 34.9218 513.702 35.3698 513.702 35.8598C513.702 36.2798 513.62 36.6811 513.457 37.0638C513.294 37.4418 513.053 37.7708 512.736 38.0508C512.423 38.3308 512.05 38.5338 511.616 38.6598L513.863 42.9998ZM507.675 33.9068V37.8128H510.51C510.785 37.8128 510.993 37.7941 511.133 37.7568C511.628 37.6308 512.003 37.3928 512.26 37.0428C512.517 36.6928 512.645 36.2984 512.645 35.8598C512.645 35.5751 512.589 35.3021 512.477 35.0408C512.365 34.7794 512.195 34.5531 511.966 34.3618C511.742 34.1658 511.464 34.0328 511.133 33.9628C510.946 33.9254 510.739 33.9068 510.51 33.9068H507.675ZM516.407 39.5068C516.449 40.3748 516.685 41.0444 517.114 41.5158C517.543 41.9871 518.134 42.2228 518.885 42.2228C519.422 42.2228 519.893 42.0991 520.299 41.8518C520.705 41.5998 521.025 41.2381 521.258 40.7668L522.217 41.1378C521.918 41.7958 521.48 42.3068 520.901 42.6708C520.322 43.0301 519.664 43.2098 518.927 43.2098C518.199 43.2098 517.562 43.0464 517.016 42.7198C516.47 42.3931 516.048 41.9334 515.749 41.3408C515.455 40.7434 515.308 40.0481 515.308 39.2548C515.308 38.4381 515.453 37.7264 515.742 37.1198C516.036 36.5131 516.451 36.0464 516.988 35.7198C517.529 35.3931 518.162 35.2298 518.885 35.2298C519.608 35.2298 520.229 35.3931 520.747 35.7198C521.27 36.0418 521.669 36.5084 521.944 37.1198C522.224 37.7264 522.364 38.4498 522.364 39.2898V39.5068H516.407ZM518.913 36.1748C518.19 36.1748 517.613 36.3871 517.184 36.8118C516.759 37.2364 516.507 37.8478 516.428 38.6458H521.286C521.211 37.8291 520.973 37.2131 520.572 36.7978C520.171 36.3824 519.618 36.1748 518.913 36.1748ZM527.002 42.9998H525.938L523.194 35.4398H524.237L526.47 41.6558L528.689 35.4398H529.746L527.002 42.9998ZM531.659 39.5068C531.701 40.3748 531.937 41.0444 532.366 41.5158C532.795 41.9871 533.386 42.2228 534.137 42.2228C534.674 42.2228 535.145 42.0991 535.551 41.8518C535.957 41.5998 536.277 41.2381 536.51 40.7668L537.469 41.1378C537.17 41.7958 536.732 42.3068 536.153 42.6708C535.574 43.0301 534.916 43.2098 534.179 43.2098C533.451 43.2098 532.814 43.0464 532.268 42.7198C531.722 42.3931 531.3 41.9334 531.001 41.3408C530.707 40.7434 530.56 40.0481 530.56 39.2548C530.56 38.4381 530.705 37.7264 530.994 37.1198C531.288 36.5131 531.703 36.0464 532.24 35.7198C532.781 35.3931 533.414 35.2298 534.137 35.2298C534.86 35.2298 535.481 35.3931 535.999 35.7198C536.522 36.0418 536.921 36.5084 537.196 37.1198C537.476 37.7264 537.616 38.4498 537.616 39.2898V39.5068H531.659ZM534.165 36.1748C533.442 36.1748 532.865 36.3871 532.436 36.8118C532.011 37.2364 531.759 37.8478 531.68 38.6458H536.538C536.463 37.8291 536.225 37.2131 535.824 36.7978C535.423 36.3824 534.87 36.1748 534.165 36.1748ZM542.679 35.2508C543.393 35.2508 543.977 35.4234 544.429 35.7688C544.882 36.1141 545.209 36.5598 545.409 37.1058C545.61 37.6471 545.71 38.2258 545.71 38.8418V42.9998H544.674V39.1428C544.674 38.2514 544.497 37.5444 544.142 37.0218C543.788 36.4944 543.235 36.2308 542.483 36.2308C541.765 36.2308 541.212 36.4711 540.824 36.9518C540.437 37.4324 540.243 38.1044 540.243 38.9678V42.9998H539.207V35.4398H540.138V36.4898C540.418 36.0838 540.775 35.7758 541.209 35.5658C541.643 35.3558 542.133 35.2508 542.679 35.2508ZM553.104 35.4398H554.133V42.9998H553.209V41.9498C552.929 42.3558 552.572 42.6638 552.138 42.8738C551.704 43.0838 551.214 43.1888 550.668 43.1888C549.954 43.1888 549.371 43.0161 548.918 42.6708C548.465 42.3254 548.139 41.8821 547.938 41.3408C547.737 40.7948 547.637 40.2138 547.637 39.5978V35.4398H548.673V39.2968C548.673 40.1881 548.85 40.8974 549.205 41.4248C549.56 41.9474 550.113 42.2088 550.864 42.2088C551.583 42.2088 552.136 41.9684 552.523 41.4878C552.91 41.0071 553.104 40.3351 553.104 39.4718V35.4398ZM557.018 39.5068C557.06 40.3748 557.296 41.0444 557.725 41.5158C558.155 41.9871 558.745 42.2228 559.496 42.2228C560.033 42.2228 560.504 42.0991 560.91 41.8518C561.316 41.5998 561.636 41.2381 561.869 40.7668L562.828 41.1378C562.53 41.7958 562.091 42.3068 561.512 42.6708C560.934 43.0301 560.276 43.2098 559.538 43.2098C558.81 43.2098 558.173 43.0464 557.627 42.7198C557.081 42.3931 556.659 41.9334 556.36 41.3408C556.066 40.7434 555.919 40.0481 555.919 39.2548C555.919 38.4381 556.064 37.7264 556.353 37.1198C556.647 36.5131 557.063 36.0464 557.599 35.7198C558.141 35.3931 558.773 35.2298 559.496 35.2298C560.22 35.2298 560.84 35.3931 561.358 35.7198C561.881 36.0418 562.28 36.5084 562.555 37.1198C562.835 37.7264 562.975 38.4498 562.975 39.2898V39.5068H557.018ZM559.524 36.1748C558.801 36.1748 558.225 36.3871 557.795 36.8118C557.371 37.2364 557.119 37.8478 557.039 38.6458H561.897C561.823 37.8291 561.585 37.2131 561.183 36.7978C560.782 36.3824 560.229 36.1748 559.524 36.1748Z" fill="#5C5A5A"/>
<circle cx="632.5" cy="38.3332" r="8.33333" fill="#1BD47B"/>
<path d="M648.683 42.9999H647.647V32.9199H648.683L654.234 41.1799V32.9199H655.27V42.9999H654.234L648.683 34.7329V42.9999ZM658.16 39.5069C658.202 40.3749 658.438 41.0445 658.867 41.5159C659.296 41.9872 659.887 42.2229 660.638 42.2229C661.175 42.2229 661.646 42.0992 662.052 41.8519C662.458 41.5999 662.778 41.2382 663.011 40.7669L663.97 41.1379C663.671 41.7959 663.233 42.3069 662.654 42.6709C662.075 43.0302 661.417 43.2099 660.68 43.2099C659.952 43.2099 659.315 43.0465 658.769 42.7199C658.223 42.3932 657.801 41.9335 657.502 41.3409C657.208 40.7435 657.061 40.0482 657.061 39.2549C657.061 38.4382 657.206 37.7265 657.495 37.1199C657.789 36.5132 658.204 36.0465 658.741 35.7199C659.282 35.3932 659.915 35.2299 660.638 35.2299C661.361 35.2299 661.982 35.3932 662.5 35.7199C663.023 36.0419 663.422 36.5085 663.697 37.1199C663.977 37.7265 664.117 38.4499 664.117 39.2899V39.5069H658.16ZM660.666 36.1749C659.943 36.1749 659.366 36.3872 658.937 36.8119C658.512 37.2365 658.26 37.8479 658.181 38.6459H663.039C662.964 37.8292 662.726 37.2132 662.325 36.7979C661.924 36.3825 661.371 36.1749 660.666 36.1749ZM667.719 36.3219V40.2209V40.6339C667.719 40.8672 667.729 41.0562 667.747 41.2009C667.766 41.3409 667.808 41.4669 667.873 41.5789C667.985 41.7935 668.146 41.9475 668.356 42.0409C668.566 42.1342 668.83 42.1809 669.147 42.1809C669.413 42.1809 669.71 42.1529 670.036 42.0969V42.9999C669.663 43.0745 669.315 43.1119 668.993 43.1119C668.513 43.1119 668.093 43.0302 667.733 42.8669C667.374 42.7035 667.108 42.4469 666.935 42.0969C666.837 41.8962 666.772 41.6909 666.739 41.4809C666.711 41.2709 666.697 41.0095 666.697 40.6969V40.2629V36.3219H665.08V35.4399H666.697V33.3399H667.719V35.4399H670.036V36.3219H667.719ZM675.998 42.9999H674.969V32.9199H675.998V42.9999ZM681.811 35.2509C682.525 35.2509 683.109 35.4235 683.561 35.7689C684.014 36.1142 684.341 36.5599 684.541 37.1059C684.742 37.6472 684.842 38.2259 684.842 38.8419V42.9999H683.806V39.1429C683.806 38.2515 683.629 37.5445 683.274 37.0219C682.92 36.4945 682.367 36.2309 681.615 36.2309C680.897 36.2309 680.344 36.4712 679.956 36.9519C679.569 37.4325 679.375 38.1045 679.375 38.9679V42.9999H678.339V35.4399H679.27V36.4899C679.55 36.0839 679.907 35.7759 680.341 35.5659C680.775 35.3559 681.265 35.2509 681.811 35.2509ZM689.99 43.2099C689.243 43.2099 688.604 43.0419 688.072 42.7059C687.545 42.3699 687.141 41.9009 686.861 41.2989C686.586 40.6969 686.443 40.0039 686.434 39.2199C686.443 38.4219 686.588 37.7242 686.868 37.1269C687.148 36.5249 687.554 36.0582 688.086 35.7269C688.618 35.3955 689.255 35.2299 689.997 35.2299C690.501 35.2299 690.968 35.3139 691.397 35.4819C691.826 35.6499 692.193 35.8925 692.496 36.2099C692.799 36.5225 693.021 36.8935 693.161 37.3229L692.153 37.6449C691.976 37.1969 691.693 36.8469 691.306 36.5949C690.923 36.3429 690.485 36.2169 689.99 36.2169C689.183 36.2169 688.571 36.4875 688.156 37.0289C687.745 37.5702 687.535 38.3005 687.526 39.2199C687.535 40.1485 687.75 40.8812 688.17 41.4179C688.59 41.9545 689.197 42.2229 689.99 42.2229C690.503 42.2229 690.94 42.1062 691.299 41.8729C691.663 41.6349 691.938 41.2895 692.125 40.8369L693.161 41.1449C692.876 41.8169 692.463 42.3302 691.922 42.6849C691.381 43.0349 690.737 43.2099 689.99 43.2099ZM697.808 43.2099C697.071 43.2099 696.431 43.0419 695.89 42.7059C695.353 42.3652 694.943 41.8939 694.658 41.2919C694.373 40.6899 694.231 39.9969 694.231 39.2129C694.231 38.4242 694.376 37.7289 694.665 37.1269C694.954 36.5249 695.367 36.0582 695.904 35.7269C696.445 35.3955 697.08 35.2299 697.808 35.2299C698.55 35.2299 699.189 35.3979 699.726 35.7339C700.267 36.0699 700.68 36.5389 700.965 37.1409C701.25 37.7429 701.392 38.4335 701.392 39.2129C701.392 40.0062 701.247 40.7039 700.958 41.3059C700.673 41.9079 700.26 42.3769 699.719 42.7129C699.182 43.0442 698.545 43.2099 697.808 43.2099ZM697.808 42.2229C698.354 42.2229 698.814 42.0992 699.187 41.8519C699.56 41.5999 699.838 41.2499 700.02 40.8019C700.207 40.3492 700.3 39.8195 700.3 39.2129C700.3 38.2795 700.088 37.5469 699.663 37.0149C699.243 36.4829 698.625 36.2169 697.808 36.2169C696.987 36.2169 696.366 36.4875 695.946 37.0289C695.531 37.5655 695.323 38.2935 695.323 39.2129C695.323 39.8242 695.416 40.3562 695.603 40.8089C695.794 41.2615 696.074 41.6115 696.443 41.8589C696.816 42.1015 697.271 42.2229 697.808 42.2229ZM710.725 35.2369C711.229 35.2369 711.67 35.3442 712.048 35.5589C712.431 35.7689 712.725 36.0699 712.93 36.4619C713.135 36.8539 713.238 37.3135 713.238 37.8409L713.231 42.9999H712.202L712.209 38.0369C712.209 37.6542 712.134 37.3229 711.985 37.0429C711.84 36.7582 711.637 36.5412 711.376 36.3919C711.115 36.2379 710.818 36.1609 710.487 36.1609C710.179 36.1609 709.892 36.2309 709.626 36.3709C709.36 36.5062 709.143 36.7209 708.975 37.0149C708.807 37.3089 708.723 37.6775 708.723 38.1209L708.716 42.9999H707.701L707.708 38.1069C707.708 37.7102 707.636 37.3649 707.491 37.0709C707.346 36.7769 707.141 36.5529 706.875 36.3989C706.614 36.2402 706.31 36.1609 705.965 36.1609C705.62 36.1609 705.314 36.2425 705.048 36.4059C704.782 36.5645 704.577 36.7932 704.432 37.0919C704.287 37.3859 704.215 37.7289 704.215 38.1209V42.9999H703.179V35.4399H704.103V36.2379C704.341 35.9252 704.644 35.6802 705.013 35.5029C705.382 35.3255 705.788 35.2369 706.231 35.2369C706.73 35.2369 707.171 35.3465 707.554 35.5659C707.941 35.7852 708.235 36.1002 708.436 36.5109C708.655 36.1095 708.966 35.7969 709.367 35.5729C709.768 35.3489 710.221 35.2369 710.725 35.2369ZM715.928 39.5069C715.97 40.3749 716.205 41.0445 716.635 41.5159C717.064 41.9872 717.654 42.2229 718.406 42.2229C718.942 42.2229 719.414 42.0992 719.82 41.8519C720.226 41.5999 720.545 41.2382 720.779 40.7669L721.738 41.1379C721.439 41.7959 721 42.3069 720.422 42.6709C719.843 43.0302 719.185 43.2099 718.448 43.2099C717.72 43.2099 717.083 43.0465 716.537 42.7199C715.991 42.3932 715.568 41.9335 715.27 41.3409C714.976 40.7435 714.829 40.0482 714.829 39.2549C714.829 38.4382 714.973 37.7265 715.263 37.1199C715.557 36.5132 715.972 36.0465 716.509 35.7199C717.05 35.3932 717.682 35.2299 718.406 35.2299C719.129 35.2299 719.75 35.3932 720.268 35.7199C720.79 36.0419 721.189 36.5085 721.465 37.1199C721.745 37.7265 721.885 38.4499 721.885 39.2899V39.5069H715.928ZM718.434 36.1749C717.71 36.1749 717.134 36.3872 716.705 36.8119C716.28 37.2365 716.028 37.8479 715.949 38.6459H720.807C720.732 37.8292 720.494 37.2132 720.093 36.7979C719.691 36.3825 719.138 36.1749 718.434 36.1749Z" fill="#5C5A5A"/>
<rect x="0.416667" y="0.416667" width="760.167" height="330.833" rx="6.97119" stroke="#D9D9D9" stroke-width="0.833333"/>
<defs>
<filter id="filter0_i_2541_39031" x="61.2461" y="97.5044" width="676.591" height="36.9393" filterUnits="userSpaceOnUse" color-interpolation-filters="sRGB">
<feFlood flood-opacity="0" result="BackgroundImageFix"/>
<feBlend mode="normal" in="SourceGraphic" in2="BackgroundImageFix" result="shape"/>
<feColorMatrix in="SourceAlpha" type="matrix" values="0 0 0 0 0 0 0 0 0 0 0 0 0 0 0 0 0 0 127 0" result="hardAlpha"/>
<feOffset dy="0.923482"/>
<feComposite in2="hardAlpha" operator="arithmetic" k2="-1" k3="1"/>
<feColorMatrix type="matrix" values="0 0 0 0 0 0 0 0 0 0 0 0 0 0 0 0 0 0 0.1 0"/>
<feBlend mode="normal" in2="shape" result="effect1_innerShadow_2541_39031"/>
</filter>
<filter id="filter1_i_2541_39031" x="61.2461" y="134.444" width="676.591" height="36.9393" filterUnits="userSpaceOnUse" color-interpolation-filters="sRGB">
<feFlood flood-opacity="0" result="BackgroundImageFix"/>
<feBlend mode="normal" in="SourceGraphic" in2="BackgroundImageFix" result="shape"/>
<feColorMatrix in="SourceAlpha" type="matrix" values="0 0 0 0 0 0 0 0 0 0 0 0 0 0 0 0 0 0 127 0" result="hardAlpha"/>
<feOffset dy="0.923482"/>
<feComposite in2="hardAlpha" operator="arithmetic" k2="-1" k3="1"/>
<feColorMatrix type="matrix" values="0 0 0 0 0 0 0 0 0 0 0 0 0 0 0 0 0 0 0.1 0"/>
<feBlend mode="normal" in2="shape" result="effect1_innerShadow_2541_39031"/>
</filter>
<filter id="filter2_i_2541_39031" x="61.2461" y="171.383" width="676.591" height="36.9393" filterUnits="userSpaceOnUse" color-interpolation-filters="sRGB">
<feFlood flood-opacity="0" result="BackgroundImageFix"/>
<feBlend mode="normal" in="SourceGraphic" in2="BackgroundImageFix" result="shape"/>
<feColorMatrix in="SourceAlpha" type="matrix" values="0 0 0 0 0 0 0 0 0 0 0 0 0 0 0 0 0 0 127 0" result="hardAlpha"/>
<feOffset dy="0.923482"/>
<feComposite in2="hardAlpha" operator="arithmetic" k2="-1" k3="1"/>
<feColorMatrix type="matrix" values="0 0 0 0 0 0 0 0 0 0 0 0 0 0 0 0 0 0 0.1 0"/>
<feBlend mode="normal" in2="shape" result="effect1_innerShadow_2541_39031"/>
</filter>
<filter id="filter3_i_2541_39031" x="61.2461" y="208.322" width="676.591" height="36.9393" filterUnits="userSpaceOnUse" color-interpolation-filters="sRGB">
<feFlood flood-opacity="0" result="BackgroundImageFix"/>
<feBlend mode="normal" in="SourceGraphic" in2="BackgroundImageFix" result="shape"/>
<feColorMatrix in="SourceAlpha" type="matrix" values="0 0 0 0 0 0 0 0 0 0 0 0 0 0 0 0 0 0 127 0" result="hardAlpha"/>
<feOffset dy="0.923482"/>
<feComposite in2="hardAlpha" operator="arithmetic" k2="-1" k3="1"/>
<feColorMatrix type="matrix" values="0 0 0 0 0 0 0 0 0 0 0 0 0 0 0 0 0 0 0.1 0"/>
<feBlend mode="normal" in2="shape" result="effect1_innerShadow_2541_39031"/>
</filter>
<filter id="filter4_ii_2541_39031" x="59.8691" y="178.847" width="677.968" height="103.354" filterUnits="userSpaceOnUse" color-interpolation-filters="sRGB">
<feFlood flood-opacity="0" result="BackgroundImageFix"/>
<feBlend mode="normal" in="SourceGraphic" in2="BackgroundImageFix" result="shape"/>
<feColorMatrix in="SourceAlpha" type="matrix" values="0 0 0 0 0 0 0 0 0 0 0 0 0 0 0 0 0 0 127 0" result="hardAlpha"/>
<feOffset dy="0.923482"/>
<feComposite in2="hardAlpha" operator="arithmetic" k2="-1" k3="1"/>
<feColorMatrix type="matrix" values="0 0 0 0 0 0 0 0 0 0 0 0 0 0 0 0 0 0 0.1 0"/>
<feBlend mode="normal" in2="shape" result="effect1_innerShadow_2541_39031"/>
<feColorMatrix in="SourceAlpha" type="matrix" values="0 0 0 0 0 0 0 0 0 0 0 0 0 0 0 0 0 0 127 0" result="hardAlpha"/>
<feOffset dy="-0.923482"/>
<feComposite in2="hardAlpha" operator="arithmetic" k2="-1" k3="1"/>
<feColorMatrix type="matrix" values="0 0 0 0 0 0 0 0 0 0 0 0 0 0 0 0 0 0 0.1 0"/>
<feBlend mode="normal" in2="effect1_innerShadow_2541_39031" result="effect2_innerShadow_2541_39031"/>
</filter>
</defs>
</svg>
