<svg width="343" height="252" viewBox="0 0 343 252" fill="none" xmlns="http://www.w3.org/2000/svg">
<rect width="343" height="252" rx="8" fill="#1BD47B"/>
<path d="M27.136 27.832C28.048 28.224 28.752 28.796 29.248 29.548C29.752 30.292 30.004 31.16 30.004 32.152C30.004 33.136 29.792 33.996 29.368 34.732C28.944 35.46 28.348 36.02 27.58 36.412C26.812 36.804 25.92 37 24.904 37H17.68V19.72H24.352C25.296 19.72 26.132 19.92 26.86 20.32C27.588 20.712 28.152 21.248 28.552 21.928C28.96 22.608 29.164 23.356 29.164 24.172C29.164 24.956 28.98 25.672 28.612 26.32C28.252 26.968 27.76 27.472 27.136 27.832ZM19.456 21.388V27.088H24.34C24.892 27.088 25.396 26.964 25.852 26.716C26.308 26.46 26.668 26.108 26.932 25.66C27.204 25.212 27.34 24.708 27.34 24.148C27.34 23.612 27.212 23.136 26.956 22.72C26.7 22.296 26.344 21.968 25.888 21.736C25.432 21.504 24.916 21.388 24.34 21.388H19.456ZM24.472 35.308C25.176 35.308 25.808 35.184 26.368 34.936C26.928 34.68 27.368 34.316 27.688 33.844C28.016 33.372 28.18 32.816 28.18 32.176C28.18 31.544 28.032 30.968 27.736 30.448C27.44 29.928 27.036 29.516 26.524 29.212C26.012 28.908 25.436 28.756 24.796 28.756H19.456V35.308H24.472ZM42.2628 26.272C42.5188 26.896 42.6468 27.788 42.6468 28.948V37H41.0748V34.852C40.5708 35.676 39.8988 36.3 39.0588 36.724C38.2188 37.148 37.2468 37.36 36.1428 37.36C35.1988 37.36 34.3908 37.188 33.7188 36.844C33.0548 36.5 32.5548 36.036 32.2188 35.452C31.8828 34.868 31.7148 34.224 31.7148 33.52C31.7148 32.512 32.0068 31.7 32.5908 31.084C33.1748 30.468 33.9828 30.024 35.0148 29.752C35.6468 29.6 36.3508 29.464 37.1268 29.344C37.9108 29.224 38.8148 29.096 39.8388 28.96L40.9188 28.816C40.9028 27.624 40.6228 26.748 40.0788 26.188C39.5428 25.628 38.6708 25.348 37.4628 25.348C36.5508 25.348 35.7908 25.552 35.1828 25.96C34.5828 26.368 34.1628 26.996 33.9228 27.844L32.2068 27.34C32.5108 26.172 33.1108 25.272 34.0068 24.64C34.9108 24 36.0708 23.68 37.4868 23.68C38.6708 23.68 39.6748 23.904 40.4988 24.352C41.3308 24.8 41.9188 25.44 42.2628 26.272ZM36.3468 35.836C37.1468 35.836 37.8588 35.692 38.4828 35.404C39.1068 35.108 39.6068 34.704 39.9828 34.192C40.3668 33.672 40.6148 33.084 40.7268 32.428C40.8388 31.932 40.8948 31.244 40.8948 30.364C40.5828 30.396 40.3588 30.424 40.2228 30.448C39.1348 30.576 38.2508 30.692 37.5708 30.796C36.8908 30.892 36.2748 31.016 35.7228 31.168C34.2268 31.608 33.4788 32.392 33.4788 33.52C33.4788 33.92 33.5748 34.296 33.7668 34.648C33.9668 35 34.2828 35.288 34.7148 35.512C35.1468 35.728 35.6908 35.836 36.3468 35.836ZM50.6427 37.348C49.6347 37.348 48.7387 37.2 47.9547 36.904C47.1707 36.608 46.5307 36.184 46.0347 35.632C45.5467 35.072 45.2307 34.404 45.0867 33.628L46.8867 33.328C47.0707 34.072 47.5067 34.66 48.1947 35.092C48.8827 35.524 49.7307 35.74 50.7387 35.74C51.7227 35.74 52.4987 35.536 53.0667 35.128C53.6347 34.712 53.9187 34.148 53.9187 33.436C53.9187 33.02 53.8227 32.692 53.6307 32.452C53.4467 32.204 53.0947 31.976 52.5747 31.768C52.0547 31.56 51.2227 31.3 50.0787 30.988C48.8867 30.668 47.9627 30.348 47.3067 30.028C46.6507 29.7 46.1827 29.332 45.9027 28.924C45.6227 28.508 45.4827 27.992 45.4827 27.376C45.4827 26.648 45.6867 26.004 46.0947 25.444C46.5107 24.884 47.0907 24.452 47.8347 24.148C48.5787 23.836 49.4347 23.68 50.4027 23.68C51.3707 23.68 52.2427 23.84 53.0187 24.16C53.7947 24.472 54.4187 24.916 54.8907 25.492C55.3627 26.06 55.6427 26.716 55.7307 27.46L53.9307 27.784C53.8027 27.008 53.4107 26.4 52.7547 25.96C52.0987 25.512 51.2667 25.288 50.2587 25.288C49.6747 25.288 49.1547 25.372 48.6987 25.54C48.2507 25.708 47.8987 25.944 47.6427 26.248C47.3947 26.552 47.2707 26.9 47.2707 27.292C47.2707 27.652 47.3747 27.952 47.5827 28.192C47.7987 28.424 48.1707 28.648 48.6987 28.864C49.2347 29.072 50.0227 29.308 51.0627 29.572C52.2787 29.884 53.2187 30.208 53.8827 30.544C54.5547 30.872 55.0347 31.264 55.3227 31.72C55.6107 32.168 55.7547 32.732 55.7547 33.412C55.7547 34.22 55.5507 34.92 55.1427 35.512C54.7347 36.104 54.1467 36.56 53.3787 36.88C52.6107 37.192 51.6987 37.348 50.6427 37.348ZM60.4561 37H58.6921V24.04H60.4561V37ZM59.5681 21.808C59.2241 21.808 58.9321 21.692 58.6921 21.46C58.4601 21.228 58.3441 20.94 58.3441 20.596C58.3441 20.244 58.4601 19.952 58.6921 19.72C58.9321 19.488 59.2241 19.372 59.5681 19.372C59.9201 19.372 60.2121 19.492 60.4441 19.732C60.6841 19.964 60.8041 20.252 60.8041 20.596C60.8041 20.94 60.6841 21.228 60.4441 21.46C60.2121 21.692 59.9201 21.808 59.5681 21.808ZM69.4656 37.36C68.1856 37.36 67.0896 37.072 66.1776 36.496C65.2736 35.92 64.5816 35.116 64.1016 34.084C63.6296 33.052 63.3856 31.864 63.3696 30.52C63.3856 29.152 63.6336 27.956 64.1136 26.932C64.5936 25.9 65.2896 25.1 66.2016 24.532C67.1136 23.964 68.2056 23.68 69.4776 23.68C70.3416 23.68 71.1416 23.824 71.8776 24.112C72.6136 24.4 73.2416 24.816 73.7616 25.36C74.2816 25.896 74.6616 26.532 74.9016 27.268L73.1736 27.82C72.8696 27.052 72.3856 26.452 71.7216 26.02C71.0656 25.588 70.3136 25.372 69.4656 25.372C68.0816 25.372 67.0336 25.836 66.3216 26.764C65.6176 27.692 65.2576 28.944 65.2416 30.52C65.2576 32.112 65.6256 33.368 66.3456 34.288C67.0656 35.208 68.1056 35.668 69.4656 35.668C70.3456 35.668 71.0936 35.468 71.7096 35.068C72.3336 34.66 72.8056 34.068 73.1256 33.292L74.9016 33.82C74.4136 34.972 73.7056 35.852 72.7776 36.46C71.8496 37.06 70.7456 37.36 69.4656 37.36Z" fill="white"/>
<path d="M18.296 82H17.12V70.48H23.736V71.656H18.296V75.656H22.776V76.824H18.296V82ZM28.5561 82.24C27.7135 82.24 26.9828 82.048 26.3641 81.664C25.7508 81.2747 25.2815 80.736 24.9561 80.048C24.6308 79.36 24.4681 78.568 24.4681 77.672C24.4681 76.7707 24.6335 75.976 24.9641 75.288C25.2948 74.6 25.7668 74.0667 26.3801 73.688C26.9988 73.3093 27.7241 73.12 28.5561 73.12C29.4041 73.12 30.1348 73.312 30.7481 73.696C31.3668 74.08 31.8388 74.616 32.1641 75.304C32.4895 75.992 32.6521 76.7813 32.6521 77.672C32.6521 78.5787 32.4868 79.376 32.1561 80.064C31.8308 80.752 31.3588 81.288 30.7401 81.672C30.1268 82.0507 29.3988 82.24 28.5561 82.24ZM28.5561 81.112C29.1801 81.112 29.7055 80.9707 30.1321 80.688C30.5588 80.4 30.8761 80 31.0841 79.488C31.2975 78.9707 31.4041 78.3653 31.4041 77.672C31.4041 76.6053 31.1615 75.768 30.6761 75.16C30.1961 74.552 29.4895 74.248 28.5561 74.248C27.6175 74.248 26.9081 74.5573 26.4281 75.176C25.9535 75.7893 25.7161 76.6213 25.7161 77.672C25.7161 78.3707 25.8228 78.9787 26.0361 79.496C26.2548 80.0133 26.5748 80.4133 26.9961 80.696C27.4228 80.9733 27.9428 81.112 28.5561 81.112ZM36.1449 73.928C36.3849 73.7147 36.6702 73.5547 37.0009 73.448C37.3369 73.3413 37.6755 73.288 38.0169 73.288C38.2462 73.288 38.4622 73.312 38.6649 73.36V74.464C38.4355 74.4107 38.2142 74.384 38.0009 74.384C37.4462 74.384 36.9795 74.5413 36.6009 74.856C36.2062 75.1653 35.9395 75.56 35.8009 76.04C35.6622 76.52 35.5929 77.0693 35.5929 77.688V82H34.4169V73.36H35.4729V74.728C35.6595 74.3973 35.8835 74.1307 36.1449 73.928ZM47.3136 73.12C48.0816 73.12 48.751 73.3173 49.3216 73.712C49.8976 74.1067 50.3376 74.6507 50.6416 75.344C50.9456 76.032 51.0976 76.808 51.0976 77.672C51.0976 78.5413 50.9456 79.3227 50.6416 80.016C50.3376 80.7093 49.895 81.2533 49.3136 81.648C48.7376 82.0427 48.055 82.24 47.2656 82.24C46.6523 82.24 46.1056 82.1147 45.6256 81.864C45.151 81.608 44.7536 81.2507 44.4336 80.792V82H43.3776V70.48H44.5616V74.376C44.887 73.976 45.279 73.6667 45.7376 73.448C46.2016 73.2293 46.727 73.12 47.3136 73.12ZM47.1456 81.144C47.727 81.144 48.2203 80.9947 48.6256 80.696C49.031 80.3973 49.335 79.9867 49.5376 79.464C49.7456 78.936 49.8496 78.3387 49.8496 77.672C49.8496 77.0053 49.7483 76.4133 49.5456 75.896C49.3483 75.3733 49.0443 74.9627 48.6336 74.664C48.223 74.3653 47.719 74.216 47.1216 74.216C46.535 74.216 46.039 74.36 45.6336 74.648C45.2336 74.936 44.9323 75.3413 44.7296 75.864C44.5323 76.3813 44.4336 76.984 44.4336 77.672C44.4336 78.3547 44.5323 78.9573 44.7296 79.48C44.9323 79.9973 45.2363 80.4053 45.6416 80.704C46.047 80.9973 46.5483 81.144 47.1456 81.144ZM59.4064 74.848C59.577 75.264 59.6624 75.8587 59.6624 76.632V82H58.6144V80.568C58.2784 81.1173 57.8304 81.5333 57.2704 81.816C56.7104 82.0987 56.0624 82.24 55.3264 82.24C54.697 82.24 54.1584 82.1253 53.7104 81.896C53.2677 81.6667 52.9344 81.3573 52.7104 80.968C52.4864 80.5787 52.3744 80.1493 52.3744 79.68C52.3744 79.008 52.569 78.4667 52.9584 78.056C53.3477 77.6453 53.8864 77.3493 54.5744 77.168C54.9957 77.0667 55.465 76.976 55.9824 76.896C56.505 76.816 57.1077 76.7307 57.7904 76.64L58.5104 76.544C58.4997 75.7493 58.313 75.1653 57.9504 74.792C57.593 74.4187 57.0117 74.232 56.2064 74.232C55.5984 74.232 55.0917 74.368 54.6864 74.64C54.2864 74.912 54.0064 75.3307 53.8464 75.896L52.7024 75.56C52.905 74.7813 53.305 74.1813 53.9024 73.76C54.505 73.3333 55.2784 73.12 56.2224 73.12C57.0117 73.12 57.681 73.2693 58.2304 73.568C58.785 73.8667 59.177 74.2933 59.4064 74.848ZM55.4624 81.224C55.9957 81.224 56.4704 81.128 56.8864 80.936C57.3024 80.7387 57.6357 80.4693 57.8864 80.128C58.1424 79.7813 58.3077 79.3893 58.3824 78.952C58.457 78.6213 58.4944 78.1627 58.4944 77.576C58.2864 77.5973 58.137 77.616 58.0464 77.632C57.321 77.7173 56.7317 77.7947 56.2784 77.864C55.825 77.928 55.4144 78.0107 55.0464 78.112C54.049 78.4053 53.5504 78.928 53.5504 79.68C53.5504 79.9467 53.6144 80.1973 53.7424 80.432C53.8757 80.6667 54.0864 80.8587 54.3744 81.008C54.6624 81.152 55.025 81.224 55.4624 81.224ZM64.969 82.232C64.297 82.232 63.6997 82.1333 63.177 81.936C62.6543 81.7387 62.2277 81.456 61.897 81.088C61.5717 80.7147 61.361 80.2693 61.265 79.752L62.465 79.552C62.5877 80.048 62.8783 80.44 63.337 80.728C63.7957 81.016 64.361 81.16 65.033 81.16C65.689 81.16 66.2063 81.024 66.585 80.752C66.9637 80.4747 67.153 80.0987 67.153 79.624C67.153 79.3467 67.089 79.128 66.961 78.968C66.8383 78.8027 66.6037 78.6507 66.257 78.512C65.9103 78.3733 65.3557 78.2 64.593 77.992C63.7983 77.7787 63.1823 77.5653 62.745 77.352C62.3077 77.1333 61.9957 76.888 61.809 76.616C61.6223 76.3387 61.529 75.9947 61.529 75.584C61.529 75.0987 61.665 74.6693 61.937 74.296C62.2143 73.9227 62.601 73.6347 63.097 73.432C63.593 73.224 64.1637 73.12 64.809 73.12C65.4543 73.12 66.0357 73.2267 66.553 73.44C67.0703 73.648 67.4863 73.944 67.801 74.328C68.1157 74.7067 68.3023 75.144 68.361 75.64L67.161 75.856C67.0757 75.3387 66.8143 74.9333 66.377 74.64C65.9397 74.3413 65.385 74.192 64.713 74.192C64.3237 74.192 63.977 74.248 63.673 74.36C63.3743 74.472 63.1397 74.6293 62.969 74.832C62.8037 75.0347 62.721 75.2667 62.721 75.528C62.721 75.768 62.7903 75.968 62.929 76.128C63.073 76.2827 63.321 76.432 63.673 76.576C64.0303 76.7147 64.5557 76.872 65.249 77.048C66.0597 77.256 66.6863 77.472 67.129 77.696C67.577 77.9147 67.897 78.176 68.089 78.48C68.281 78.7787 68.377 79.1547 68.377 79.608C68.377 80.1467 68.241 80.6133 67.969 81.008C67.697 81.4027 67.305 81.7067 66.793 81.92C66.281 82.128 65.673 82.232 64.969 82.232ZM71.4873 82H70.3113V73.36H71.4873V82ZM70.8953 71.872C70.6659 71.872 70.4713 71.7947 70.3113 71.64C70.1566 71.4853 70.0793 71.2933 70.0793 71.064C70.0793 70.8293 70.1566 70.6347 70.3113 70.48C70.4713 70.3253 70.6659 70.248 70.8953 70.248C71.1299 70.248 71.3246 70.328 71.4793 70.488C71.6393 70.6427 71.7193 70.8347 71.7193 71.064C71.7193 71.2933 71.6393 71.4853 71.4793 71.64C71.3246 71.7947 71.1299 71.872 70.8953 71.872ZM77.4696 82.24C76.6163 82.24 75.8856 82.048 75.2776 81.664C74.675 81.28 74.2136 80.744 73.8936 80.056C73.579 79.368 73.4163 78.576 73.4056 77.68C73.4163 76.768 73.5816 75.9707 73.9016 75.288C74.2216 74.6 74.6856 74.0667 75.2936 73.688C75.9016 73.3093 76.6296 73.12 77.4776 73.12C78.0536 73.12 78.587 73.216 79.0776 73.408C79.5683 73.6 79.987 73.8773 80.3336 74.24C80.6803 74.5973 80.9336 75.0213 81.0936 75.512L79.9416 75.88C79.739 75.368 79.4163 74.968 78.9736 74.68C78.5363 74.392 78.035 74.248 77.4696 74.248C76.547 74.248 75.8483 74.5573 75.3736 75.176C74.9043 75.7947 74.6643 76.6293 74.6536 77.68C74.6643 78.7413 74.9096 79.5787 75.3896 80.192C75.8696 80.8053 76.563 81.112 77.4696 81.112C78.0563 81.112 78.555 80.9787 78.9656 80.712C79.3816 80.44 79.6963 80.0453 79.9096 79.528L81.0936 79.88C80.7683 80.648 80.2963 81.2347 79.6776 81.64C79.059 82.04 78.323 82.24 77.4696 82.24ZM92.0361 73.36H93.2121V82H92.1561V80.8C91.8361 81.264 91.4281 81.616 90.9321 81.856C90.4361 82.096 89.8761 82.216 89.2521 82.216C88.4361 82.216 87.7695 82.0187 87.2521 81.624C86.7348 81.2293 86.3615 80.7227 86.1321 80.104C85.9028 79.48 85.7881 78.816 85.7881 78.112V73.36H86.9721V77.768C86.9721 78.7867 87.1748 79.5973 87.5801 80.2C87.9855 80.7973 88.6175 81.096 89.4761 81.096C90.2975 81.096 90.9295 80.8213 91.3721 80.272C91.8148 79.7227 92.0361 78.9547 92.0361 77.968V73.36ZM98.6721 82.232C98.0001 82.232 97.4028 82.1333 96.8801 81.936C96.3575 81.7387 95.9308 81.456 95.6001 81.088C95.2748 80.7147 95.0641 80.2693 94.9681 79.752L96.1681 79.552C96.2908 80.048 96.5815 80.44 97.0401 80.728C97.4988 81.016 98.0641 81.16 98.7361 81.16C99.3921 81.16 99.9095 81.024 100.288 80.752C100.667 80.4747 100.856 80.0987 100.856 79.624C100.856 79.3467 100.792 79.128 100.664 78.968C100.541 78.8027 100.307 78.6507 99.9601 78.512C99.6135 78.3733 99.0588 78.2 98.2961 77.992C97.5015 77.7787 96.8855 77.5653 96.4481 77.352C96.0108 77.1333 95.6988 76.888 95.5121 76.616C95.3255 76.3387 95.2321 75.9947 95.2321 75.584C95.2321 75.0987 95.3681 74.6693 95.6401 74.296C95.9175 73.9227 96.3041 73.6347 96.8001 73.432C97.2961 73.224 97.8668 73.12 98.5121 73.12C99.1575 73.12 99.7388 73.2267 100.256 73.44C100.773 73.648 101.189 73.944 101.504 74.328C101.819 74.7067 102.005 75.144 102.064 75.64L100.864 75.856C100.779 75.3387 100.517 74.9333 100.08 74.64C99.6428 74.3413 99.0881 74.192 98.4161 74.192C98.0268 74.192 97.6801 74.248 97.3761 74.36C97.0775 74.472 96.8428 74.6293 96.6721 74.832C96.5068 75.0347 96.4241 75.2667 96.4241 75.528C96.4241 75.768 96.4935 75.968 96.6321 76.128C96.7761 76.2827 97.0241 76.432 97.3761 76.576C97.7335 76.7147 98.2588 76.872 98.9521 77.048C99.7628 77.256 100.389 77.472 100.832 77.696C101.28 77.9147 101.6 78.176 101.792 78.48C101.984 78.7787 102.08 79.1547 102.08 79.608C102.08 80.1467 101.944 80.6133 101.672 81.008C101.4 81.4027 101.008 81.7067 100.496 81.92C99.9841 82.128 99.3761 82.232 98.6721 82.232ZM104.63 78.008C104.678 79 104.948 79.7653 105.438 80.304C105.929 80.8427 106.604 81.112 107.462 81.112C108.076 81.112 108.614 80.9707 109.078 80.688C109.542 80.4 109.908 79.9867 110.174 79.448L111.27 79.872C110.929 80.624 110.428 81.208 109.766 81.624C109.105 82.0347 108.353 82.24 107.51 82.24C106.678 82.24 105.95 82.0533 105.326 81.68C104.702 81.3067 104.22 80.7813 103.878 80.104C103.542 79.4213 103.374 78.6267 103.374 77.72C103.374 76.7867 103.54 75.9733 103.87 75.28C104.206 74.5867 104.681 74.0533 105.294 73.68C105.913 73.3067 106.636 73.12 107.462 73.12C108.289 73.12 108.998 73.3067 109.59 73.68C110.188 74.048 110.644 74.5813 110.958 75.28C111.278 75.9733 111.438 76.8 111.438 77.76V78.008H104.63ZM107.494 74.2C106.668 74.2 106.009 74.4427 105.518 74.928C105.033 75.4133 104.745 76.112 104.654 77.024H110.206C110.121 76.0907 109.849 75.3867 109.39 74.912C108.932 74.4373 108.3 74.2 107.494 74.2ZM114.942 73.928C115.182 73.7147 115.467 73.5547 115.798 73.448C116.134 73.3413 116.472 73.288 116.814 73.288C117.043 73.288 117.259 73.312 117.462 73.36V74.464C117.232 74.4107 117.011 74.384 116.798 74.384C116.243 74.384 115.776 74.5413 115.398 74.856C115.003 75.1653 114.736 75.56 114.598 76.04C114.459 76.52 114.39 77.0693 114.39 77.688V82H113.214V73.36H114.27V74.728C114.456 74.3973 114.68 74.1307 114.942 73.928ZM121.891 82.232C121.219 82.232 120.622 82.1333 120.099 81.936C119.576 81.7387 119.15 81.456 118.819 81.088C118.494 80.7147 118.283 80.2693 118.187 79.752L119.387 79.552C119.51 80.048 119.8 80.44 120.259 80.728C120.718 81.016 121.283 81.16 121.955 81.16C122.611 81.16 123.128 81.024 123.507 80.752C123.886 80.4747 124.075 80.0987 124.075 79.624C124.075 79.3467 124.011 79.128 123.883 78.968C123.76 78.8027 123.526 78.6507 123.179 78.512C122.832 78.3733 122.278 78.2 121.515 77.992C120.72 77.7787 120.104 77.5653 119.667 77.352C119.23 77.1333 118.918 76.888 118.731 76.616C118.544 76.3387 118.451 75.9947 118.451 75.584C118.451 75.0987 118.587 74.6693 118.859 74.296C119.136 73.9227 119.523 73.6347 120.019 73.432C120.515 73.224 121.086 73.12 121.731 73.12C122.376 73.12 122.958 73.2267 123.475 73.44C123.992 73.648 124.408 73.944 124.723 74.328C125.038 74.7067 125.224 75.144 125.283 75.64L124.083 75.856C123.998 75.3387 123.736 74.9333 123.299 74.64C122.862 74.3413 122.307 74.192 121.635 74.192C121.246 74.192 120.899 74.248 120.595 74.36C120.296 74.472 120.062 74.6293 119.891 74.832C119.726 75.0347 119.643 75.2667 119.643 75.528C119.643 75.768 119.712 75.968 119.851 76.128C119.995 76.2827 120.243 76.432 120.595 76.576C120.952 76.7147 121.478 76.872 122.171 77.048C122.982 77.256 123.608 77.472 124.051 77.696C124.499 77.9147 124.819 78.176 125.011 78.48C125.203 78.7787 125.299 79.1547 125.299 79.608C125.299 80.1467 125.163 80.6133 124.891 81.008C124.619 81.4027 124.227 81.7067 123.715 81.92C123.203 82.128 122.595 82.232 121.891 82.232Z" fill="white"/>
<path d="M327 111H16V113H327V111Z" fill="white" mask="url(#path-2-inside-1_3930_48106)"/>
<circle cx="24" cy="139" r="8" fill="white"/>
<path d="M21 139.5L23.4 141L27 137" stroke="#1BD47B" stroke-width="1.25" stroke-linecap="round" stroke-linejoin="round"/>
<path d="M51.48 144.21C50.78 144.21 50.1477 144.093 49.583 143.86C49.0183 143.622 48.5517 143.286 48.183 142.852C47.819 142.413 47.581 141.898 47.469 141.305L48.519 141.13C48.631 141.559 48.827 141.933 49.107 142.25C49.3917 142.563 49.7393 142.803 50.15 142.971C50.5653 143.139 51.0227 143.223 51.522 143.223C52.0167 143.223 52.46 143.144 52.852 142.985C53.2487 142.826 53.5567 142.602 53.776 142.313C54 142.019 54.112 141.678 54.112 141.291C54.112 140.829 53.9673 140.477 53.678 140.234C53.3887 139.987 53.0177 139.795 52.565 139.66L50.01 138.897C48.5773 138.472 47.861 137.667 47.861 136.482C47.861 135.927 48.008 135.441 48.302 135.026C48.596 134.606 49.002 134.284 49.52 134.06C50.038 133.831 50.626 133.717 51.284 133.717C51.9513 133.717 52.5533 133.836 53.09 134.074C53.6313 134.307 54.0747 134.646 54.42 135.089C54.77 135.532 54.9987 136.055 55.106 136.657L54.028 136.853C53.9627 136.424 53.8017 136.046 53.545 135.719C53.2883 135.392 52.964 135.14 52.572 134.963C52.18 134.786 51.7483 134.697 51.277 134.697C50.8383 134.697 50.4417 134.774 50.087 134.928C49.7323 135.077 49.4523 135.285 49.247 135.551C49.0463 135.817 48.946 136.113 48.946 136.44C48.946 136.757 49.0347 137.021 49.212 137.231C49.3893 137.436 49.6017 137.597 49.849 137.714C50.101 137.826 50.3973 137.931 50.738 138.029L52.712 138.61C53.1227 138.727 53.4983 138.869 53.839 139.037C54.1797 139.205 54.4853 139.471 54.756 139.835C55.0267 140.194 55.162 140.666 55.162 141.249C55.162 141.86 55.0033 142.39 54.686 142.838C54.3687 143.281 53.93 143.622 53.37 143.86C52.8147 144.093 52.1847 144.21 51.48 144.21ZM58.406 137.322V141.221V141.634C58.406 141.867 58.4153 142.056 58.434 142.201C58.4526 142.341 58.4946 142.467 58.56 142.579C58.672 142.794 58.833 142.948 59.043 143.041C59.253 143.134 59.5166 143.181 59.834 143.181C60.1 143.181 60.3963 143.153 60.723 143.097V144C60.3496 144.075 60.002 144.112 59.68 144.112C59.1993 144.112 58.7793 144.03 58.42 143.867C58.0606 143.704 57.7946 143.447 57.622 143.097C57.524 142.896 57.4586 142.691 57.426 142.481C57.398 142.271 57.384 142.01 57.384 141.697V141.263V137.322H55.767V136.44H57.384V134.34H58.406V136.44H60.723V137.322H58.406ZM65.096 144.21C64.3587 144.21 63.7193 144.042 63.178 143.706C62.6413 143.365 62.2307 142.894 61.946 142.292C61.6613 141.69 61.519 140.997 61.519 140.213C61.519 139.424 61.6637 138.729 61.953 138.127C62.2423 137.525 62.6553 137.058 63.192 136.727C63.7333 136.396 64.368 136.23 65.096 136.23C65.838 136.23 66.4773 136.398 67.014 136.734C67.5553 137.07 67.9683 137.539 68.253 138.141C68.5377 138.743 68.68 139.434 68.68 140.213C68.68 141.006 68.5353 141.704 68.246 142.306C67.9613 142.908 67.5483 143.377 67.007 143.713C66.4703 144.044 65.8333 144.21 65.096 144.21ZM65.096 143.223C65.642 143.223 66.1017 143.099 66.475 142.852C66.8483 142.6 67.126 142.25 67.308 141.802C67.4947 141.349 67.588 140.82 67.588 140.213C67.588 139.28 67.3757 138.547 66.951 138.015C66.531 137.483 65.9127 137.217 65.096 137.217C64.2747 137.217 63.654 137.488 63.234 138.029C62.8187 138.566 62.611 139.294 62.611 140.213C62.611 140.824 62.7043 141.356 62.891 141.809C63.0823 142.262 63.3623 142.612 63.731 142.859C64.1043 143.102 64.5593 143.223 65.096 143.223ZM73.3601 144.21C72.6135 144.21 71.9741 144.042 71.4421 143.706C70.9148 143.37 70.5111 142.901 70.2311 142.299C69.9558 141.697 69.8135 141.004 69.8041 140.22C69.8135 139.422 69.9581 138.724 70.2381 138.127C70.5181 137.525 70.9241 137.058 71.4561 136.727C71.9881 136.396 72.6251 136.23 73.3671 136.23C73.8711 136.23 74.3378 136.314 74.7671 136.482C75.1965 136.65 75.5628 136.893 75.8661 137.21C76.1695 137.523 76.3911 137.894 76.5311 138.323L75.5231 138.645C75.3458 138.197 75.0635 137.847 74.6761 137.595C74.2935 137.343 73.8548 137.217 73.3601 137.217C72.5528 137.217 71.9415 137.488 71.5261 138.029C71.1155 138.57 70.9055 139.301 70.8961 140.22C70.9055 141.149 71.1201 141.881 71.5401 142.418C71.9601 142.955 72.5668 143.223 73.3601 143.223C73.8735 143.223 74.3098 143.106 74.6691 142.873C75.0331 142.635 75.3085 142.29 75.4951 141.837L76.5311 142.145C76.2465 142.817 75.8335 143.33 75.2921 143.685C74.7508 144.035 74.1068 144.21 73.3601 144.21ZM83.9051 144H82.6801L79.6841 140.318L78.9631 141.011V144H77.9691L77.9761 133.92H78.9631V139.73L82.4421 136.44H83.7231L80.3841 139.646L83.9051 144ZM88.8931 144H87.8641V136.44H88.8931V144ZM88.3751 135.138C88.1745 135.138 88.0041 135.07 87.8641 134.935C87.7288 134.8 87.6611 134.632 87.6611 134.431C87.6611 134.226 87.7288 134.055 87.8641 133.92C88.0041 133.785 88.1745 133.717 88.3751 133.717C88.5805 133.717 88.7508 133.787 88.8861 133.927C89.0261 134.062 89.0961 134.23 89.0961 134.431C89.0961 134.632 89.0261 134.8 88.8861 134.935C88.7508 135.07 88.5805 135.138 88.3751 135.138ZM94.4567 136.251C95.1707 136.251 95.7541 136.424 96.2067 136.769C96.6594 137.114 96.9861 137.56 97.1867 138.106C97.3874 138.647 97.4877 139.226 97.4877 139.842V144H96.4517V140.143C96.4517 139.252 96.2744 138.545 95.9197 138.022C95.5651 137.495 95.0121 137.231 94.2607 137.231C93.5421 137.231 92.9891 137.471 92.6017 137.952C92.2144 138.433 92.0207 139.105 92.0207 139.968V144H90.9847V136.44H91.9157V137.49C92.1957 137.084 92.5527 136.776 92.9867 136.566C93.4207 136.356 93.9107 136.251 94.4567 136.251ZM102.251 134.578C101.855 134.578 101.561 134.676 101.369 134.872C101.178 135.063 101.082 135.362 101.082 135.768V136.44H103.147V137.322H101.082V144H100.053V137.322H98.7442V136.44H100.053V135.88C100.053 135.53 100.084 135.224 100.144 134.963C100.21 134.702 100.336 134.468 100.522 134.263C100.728 134.039 100.966 133.892 101.236 133.822C101.507 133.747 101.822 133.71 102.181 133.71H103.147V134.578H102.251ZM107.151 144.21C106.413 144.21 105.774 144.042 105.233 143.706C104.696 143.365 104.285 142.894 104.001 142.292C103.716 141.69 103.574 140.997 103.574 140.213C103.574 139.424 103.718 138.729 104.008 138.127C104.297 137.525 104.71 137.058 105.247 136.727C105.788 136.396 106.423 136.23 107.151 136.23C107.893 136.23 108.532 136.398 109.069 136.734C109.61 137.07 110.023 137.539 110.308 138.141C110.592 138.743 110.735 139.434 110.735 140.213C110.735 141.006 110.59 141.704 110.301 142.306C110.016 142.908 109.603 143.377 109.062 143.713C108.525 144.044 107.888 144.21 107.151 144.21ZM107.151 143.223C107.697 143.223 108.156 143.099 108.53 142.852C108.903 142.6 109.181 142.25 109.363 141.802C109.549 141.349 109.643 140.82 109.643 140.213C109.643 139.28 109.43 138.547 109.006 138.015C108.586 137.483 107.967 137.217 107.151 137.217C106.329 137.217 105.709 137.488 105.289 138.029C104.873 138.566 104.666 139.294 104.666 140.213C104.666 140.824 104.759 141.356 104.946 141.809C105.137 142.262 105.417 142.612 105.786 142.859C106.159 143.102 106.614 143.223 107.151 143.223ZM119.818 136.237C120.322 136.237 120.763 136.344 121.141 136.559C121.523 136.769 121.817 137.07 122.023 137.462C122.228 137.854 122.331 138.314 122.331 138.841L122.324 144H121.295L121.302 139.037C121.302 138.654 121.227 138.323 121.078 138.043C120.933 137.758 120.73 137.541 120.469 137.392C120.207 137.238 119.911 137.161 119.58 137.161C119.272 137.161 118.985 137.231 118.719 137.371C118.453 137.506 118.236 137.721 118.068 138.015C117.9 138.309 117.816 138.678 117.816 139.121L117.809 144H116.794L116.801 139.107C116.801 138.71 116.728 138.365 116.584 138.071C116.439 137.777 116.234 137.553 115.968 137.399C115.706 137.24 115.403 137.161 115.058 137.161C114.712 137.161 114.407 137.243 114.141 137.406C113.875 137.565 113.669 137.793 113.525 138.092C113.38 138.386 113.308 138.729 113.308 139.121V144H112.272V136.44H113.196V137.238C113.434 136.925 113.737 136.68 114.106 136.503C114.474 136.326 114.88 136.237 115.324 136.237C115.823 136.237 116.264 136.347 116.647 136.566C117.034 136.785 117.328 137.1 117.529 137.511C117.748 137.11 118.058 136.797 118.46 136.573C118.861 136.349 119.314 136.237 119.818 136.237ZM129.879 137.742C130.028 138.106 130.103 138.626 130.103 139.303V144H129.186V142.747C128.892 143.228 128.5 143.592 128.01 143.839C127.52 144.086 126.953 144.21 126.309 144.21C125.758 144.21 125.287 144.11 124.895 143.909C124.508 143.708 124.216 143.438 124.02 143.097C123.824 142.756 123.726 142.381 123.726 141.97C123.726 141.382 123.896 140.908 124.237 140.549C124.578 140.19 125.049 139.931 125.651 139.772C126.02 139.683 126.43 139.604 126.883 139.534C127.34 139.464 127.868 139.389 128.465 139.31L129.095 139.226C129.086 138.531 128.922 138.02 128.605 137.693C128.292 137.366 127.784 137.203 127.079 137.203C126.547 137.203 126.104 137.322 125.749 137.56C125.399 137.798 125.154 138.164 125.014 138.659L124.013 138.365C124.19 137.684 124.54 137.159 125.063 136.79C125.59 136.417 126.267 136.23 127.093 136.23C127.784 136.23 128.369 136.361 128.85 136.622C129.335 136.883 129.678 137.257 129.879 137.742ZM126.428 143.321C126.895 143.321 127.31 143.237 127.674 143.069C128.038 142.896 128.33 142.661 128.549 142.362C128.773 142.059 128.918 141.716 128.983 141.333C129.048 141.044 129.081 140.642 129.081 140.129C128.899 140.148 128.768 140.164 128.689 140.178C128.054 140.253 127.539 140.32 127.142 140.381C126.745 140.437 126.386 140.509 126.064 140.598C125.191 140.855 124.755 141.312 124.755 141.97C124.755 142.203 124.811 142.423 124.923 142.628C125.04 142.833 125.224 143.001 125.476 143.132C125.728 143.258 126.045 143.321 126.428 143.321ZM133.724 137.322V141.221V141.634C133.724 141.867 133.734 142.056 133.752 142.201C133.771 142.341 133.813 142.467 133.878 142.579C133.99 142.794 134.151 142.948 134.361 143.041C134.571 143.134 134.835 143.181 135.152 143.181C135.418 143.181 135.715 143.153 136.041 143.097V144C135.668 144.075 135.32 144.112 134.998 144.112C134.518 144.112 134.098 144.03 133.738 143.867C133.379 143.704 133.113 143.447 132.94 143.097C132.842 142.896 132.777 142.691 132.744 142.481C132.716 142.271 132.702 142.01 132.702 141.697V141.263V137.322H131.085V136.44H132.702V134.34H133.724V136.44H136.041V137.322H133.724ZM138.7 144H137.671V136.44H138.7V144ZM138.182 135.138C137.981 135.138 137.811 135.07 137.671 134.935C137.535 134.8 137.468 134.632 137.468 134.431C137.468 134.226 137.535 134.055 137.671 133.92C137.811 133.785 137.981 133.717 138.182 133.717C138.387 133.717 138.557 133.787 138.693 133.927C138.833 134.062 138.903 134.23 138.903 134.431C138.903 134.632 138.833 134.8 138.693 134.935C138.557 135.07 138.387 135.138 138.182 135.138ZM143.955 144.21C143.218 144.21 142.579 144.042 142.037 143.706C141.501 143.365 141.09 142.894 140.805 142.292C140.521 141.69 140.378 140.997 140.378 140.213C140.378 139.424 140.523 138.729 140.812 138.127C141.102 137.525 141.515 137.058 142.051 136.727C142.593 136.396 143.227 136.23 143.955 136.23C144.697 136.23 145.337 136.398 145.873 136.734C146.415 137.07 146.828 137.539 147.112 138.141C147.397 138.743 147.539 139.434 147.539 140.213C147.539 141.006 147.395 141.704 147.105 142.306C146.821 142.908 146.408 143.377 145.866 143.713C145.33 144.044 144.693 144.21 143.955 144.21ZM143.955 143.223C144.501 143.223 144.961 143.099 145.334 142.852C145.708 142.6 145.985 142.25 146.167 141.802C146.354 141.349 146.447 140.82 146.447 140.213C146.447 139.28 146.235 138.547 145.81 138.015C145.39 137.483 144.772 137.217 143.955 137.217C143.134 137.217 142.513 137.488 142.093 138.029C141.678 138.566 141.47 139.294 141.47 140.213C141.47 140.824 141.564 141.356 141.75 141.809C141.942 142.262 142.222 142.612 142.59 142.859C142.964 143.102 143.419 143.223 143.955 143.223ZM152.549 136.251C153.263 136.251 153.846 136.424 154.299 136.769C154.751 137.114 155.078 137.56 155.279 138.106C155.479 138.647 155.58 139.226 155.58 139.842V144H154.544V140.143C154.544 139.252 154.366 138.545 154.012 138.022C153.657 137.495 153.104 137.231 152.353 137.231C151.634 137.231 151.081 137.471 150.694 137.952C150.306 138.433 150.113 139.105 150.113 139.968V144H149.077V136.44H150.008V137.49C150.288 137.084 150.645 136.776 151.079 136.566C151.513 136.356 152.003 136.251 152.549 136.251Z" fill="white"/>
<circle cx="24" cy="169" r="8" fill="white"/>
<path d="M21 169.5L23.4 171L27 167" stroke="#1BD47B" stroke-width="1.25" stroke-linecap="round" stroke-linejoin="round"/>
<path d="M50.48 174.21C52.587 174.21 54.162 173.125 54.162 171.249C54.162 169.338 52.531 168.841 51.712 168.61L49.738 168.029C48.954 167.805 47.946 167.462 47.946 166.44C47.946 165.439 48.947 164.69 50.298 164.697C51.705 164.711 52.825 165.544 53.028 166.853L54.106 166.657C53.777 164.844 52.321 163.724 50.305 163.717C48.317 163.71 46.861 164.781 46.861 166.482C46.861 167.833 47.778 168.533 49.01 168.897L51.565 169.66C52.265 169.87 53.112 170.255 53.112 171.291C53.112 172.481 52.013 173.223 50.522 173.223C49.017 173.223 47.855 172.439 47.519 171.13L46.469 171.305C46.812 173.097 48.373 174.21 50.48 174.21ZM59.072 166.251C57.987 166.251 57.091 166.671 56.531 167.49V163.92H55.6V174H56.636V169.968C56.636 168.26 57.42 167.231 58.876 167.231C60.458 167.231 61.067 168.477 61.067 170.143V174H62.103V169.842C62.103 168.141 61.34 166.251 59.072 166.251ZM69.6525 167.742C69.2535 166.762 68.2455 166.23 66.8665 166.23C65.2005 166.23 64.1365 167.014 63.7865 168.365L64.7875 168.659C65.0745 167.651 65.8165 167.203 66.8525 167.203C68.2875 167.203 68.8545 167.861 68.8685 169.226C67.8605 169.366 66.4465 169.527 65.4245 169.772C64.2975 170.073 63.4995 170.731 63.4995 171.97C63.4995 173.174 64.3675 174.21 66.0825 174.21C67.3705 174.21 68.3715 173.706 68.9595 172.747V174H69.8765V169.303C69.8765 168.743 69.8345 168.183 69.6525 167.742ZM66.2015 173.321C64.9835 173.321 64.5285 172.628 64.5285 171.97C64.5285 171.151 65.1935 170.787 65.8375 170.598C66.6705 170.367 67.8605 170.248 68.8545 170.129C68.8545 170.472 68.8405 170.962 68.7565 171.333C68.5605 172.474 67.6435 173.321 66.2015 173.321ZM73.2108 166.937C72.9938 167.105 72.7838 167.35 72.6228 167.637V166.44H71.6988V174H72.7278V170.227C72.7278 169.324 72.8538 168.344 73.6098 167.749C74.1558 167.301 74.8558 167.273 75.4158 167.406V166.44C74.7508 166.272 73.8058 166.419 73.2108 166.937ZM83.243 170.507C83.32 167.84 82.004 166.23 79.764 166.23C77.58 166.23 76.187 167.777 76.187 170.255C76.187 172.649 77.601 174.21 79.806 174.21C81.269 174.21 82.494 173.461 83.096 172.138L82.137 171.767C81.668 172.712 80.842 173.223 79.764 173.223C78.259 173.223 77.37 172.236 77.286 170.507H83.243ZM79.792 167.175C81.199 167.175 82.004 168.015 82.165 169.646H77.307C77.468 168.057 78.336 167.175 79.792 167.175ZM93.3321 167.742C92.9331 166.762 91.9251 166.23 90.5461 166.23C88.8801 166.23 87.8161 167.014 87.4661 168.365L88.4671 168.659C88.7541 167.651 89.4961 167.203 90.5321 167.203C91.9671 167.203 92.5341 167.861 92.5481 169.226C91.5401 169.366 90.1261 169.527 89.1041 169.772C87.9771 170.073 87.1791 170.731 87.1791 171.97C87.1791 173.174 88.0471 174.21 89.7621 174.21C91.0501 174.21 92.0511 173.706 92.6391 172.747V174H93.5561V169.303C93.5561 168.743 93.5141 168.183 93.3321 167.742ZM89.8811 173.321C88.6631 173.321 88.2081 172.628 88.2081 171.97C88.2081 171.151 88.8731 170.787 89.5171 170.598C90.3501 170.367 91.5401 170.248 92.5341 170.129C92.5341 170.472 92.5201 170.962 92.4361 171.333C92.2401 172.474 91.3231 173.321 89.8811 173.321ZM101.002 174.203C102.857 174.203 103.984 173.335 103.984 171.907C103.984 170.738 103.333 170.199 101.247 169.667C99.4622 169.219 99.0352 168.939 99.0352 168.337C99.0352 167.623 99.7772 167.147 100.848 167.168C101.982 167.189 102.773 167.735 102.92 168.624L103.97 168.435C103.816 167.119 102.57 166.23 100.862 166.23C99.1542 166.23 97.9922 167.098 97.9922 168.386C97.9922 169.443 98.6222 169.94 100.673 170.493C102.591 171.011 102.913 171.221 102.913 171.921C102.913 172.747 102.206 173.265 101.058 173.265C99.8822 173.265 99.0282 172.719 98.8112 171.858L97.7612 172.033C98.0202 173.398 99.2312 174.203 101.002 174.203ZM109.653 167.322V166.44H107.336V164.34H106.314V166.44H104.697V167.322H106.314V171.263C106.314 172.005 106.279 172.544 106.552 173.097C107.049 174.105 108.372 174.266 109.653 174V173.097C108.568 173.272 107.826 173.209 107.49 172.579C107.308 172.257 107.336 171.858 107.336 171.221V167.322H109.653ZM114.026 174.21C116.266 174.21 117.61 172.593 117.61 170.213C117.61 167.875 116.294 166.23 114.026 166.23C111.814 166.23 110.449 167.833 110.449 170.213C110.449 172.558 111.772 174.21 114.026 174.21ZM114.026 173.223C112.388 173.223 111.541 172.033 111.541 170.213C111.541 168.449 112.332 167.217 114.026 167.217C115.692 167.217 116.518 168.393 116.518 170.213C116.518 171.998 115.706 173.223 114.026 173.223ZM122.29 174.21C123.788 174.21 124.894 173.489 125.461 172.145L124.425 171.837C124.047 172.747 123.312 173.223 122.29 173.223C120.666 173.223 119.847 172.033 119.826 170.22C119.847 168.456 120.617 167.217 122.29 167.217C123.277 167.217 124.096 167.742 124.453 168.645L125.461 168.323C125.041 167.028 123.823 166.23 122.297 166.23C120.036 166.23 118.762 167.84 118.734 170.22C118.762 172.551 120.001 174.21 122.29 174.21ZM132.835 174L129.314 169.646L132.653 166.44H131.372L127.893 169.73V163.92H126.906L126.899 174H127.893V171.011L128.614 170.318L131.61 174H132.835Z" fill="white"/>
<circle cx="24" cy="199" r="8" fill="white"/>
<path d="M21 199.5L23.4 201L27 197" stroke="#1BD47B" stroke-width="1.25" stroke-linecap="round" stroke-linejoin="round"/>
<path d="M51.061 204.21C53.399 204.21 54.904 202.915 55.457 200.899L54.407 200.626C53.98 202.215 52.867 203.223 51.061 203.223C48.695 203.223 47.491 201.48 47.505 198.96C47.526 196.44 48.695 194.697 51.061 194.697C52.867 194.697 53.98 195.705 54.407 197.294L55.457 197.021C54.904 195.005 53.399 193.71 51.061 193.71C48.051 193.71 46.42 195.859 46.42 198.96C46.42 202.061 48.051 204.21 51.061 204.21ZM60.1585 204.21C62.3985 204.21 63.7425 202.593 63.7425 200.213C63.7425 197.875 62.4265 196.23 60.1585 196.23C57.9465 196.23 56.5815 197.833 56.5815 200.213C56.5815 202.558 57.9045 204.21 60.1585 204.21ZM60.1585 203.223C58.5205 203.223 57.6735 202.033 57.6735 200.213C57.6735 198.449 58.4645 197.217 60.1585 197.217C61.8245 197.217 62.6505 198.393 62.6505 200.213C62.6505 201.998 61.8385 203.223 60.1585 203.223ZM72.8256 196.237C71.8176 196.237 70.9776 196.713 70.5366 197.511C70.1306 196.685 69.3256 196.237 68.3316 196.237C67.4356 196.237 66.6726 196.622 66.2036 197.238V196.44H65.2796V204H66.3156V199.121C66.3156 197.938 67.0156 197.161 68.0656 197.161C69.1086 197.161 69.8086 197.903 69.8086 199.107L69.8016 204H70.8166L70.8236 199.121C70.8236 197.714 71.7266 197.161 72.5876 197.161C73.5816 197.161 74.3096 197.868 74.3096 199.037L74.3026 204H75.3316L75.3386 198.841C75.3386 197.245 74.3516 196.237 72.8256 196.237ZM80.5908 196.23C79.4708 196.23 78.6238 196.699 78.0708 197.483V196.44H77.1468V207.36H78.1828V203.097C78.7288 203.79 79.5268 204.21 80.5488 204.21C82.6698 204.21 83.9018 202.481 83.9018 200.213C83.9018 197.959 82.6628 196.23 80.5908 196.23ZM80.4438 203.251C78.8338 203.251 78.0708 201.963 78.0708 200.213C78.0708 198.435 78.8478 197.189 80.4228 197.189C82.0468 197.189 82.8098 198.505 82.8098 200.213C82.8098 201.935 82.0188 203.251 80.4438 203.251ZM91.172 197.742C90.773 196.762 89.765 196.23 88.386 196.23C86.72 196.23 85.656 197.014 85.306 198.365L86.307 198.659C86.594 197.651 87.336 197.203 88.372 197.203C89.807 197.203 90.374 197.861 90.388 199.226C89.38 199.366 87.966 199.527 86.944 199.772C85.817 200.073 85.019 200.731 85.019 201.97C85.019 203.174 85.887 204.21 87.602 204.21C88.89 204.21 89.891 203.706 90.479 202.747V204H91.396V199.303C91.396 198.743 91.354 198.183 91.172 197.742ZM87.721 203.321C86.503 203.321 86.048 202.628 86.048 201.97C86.048 201.151 86.713 200.787 87.357 200.598C88.19 200.367 89.38 200.248 90.374 200.129C90.374 200.472 90.36 200.962 90.276 201.333C90.08 202.474 89.163 203.321 87.721 203.321ZM96.6833 196.251C95.5983 196.251 94.7023 196.671 94.1423 197.49V196.44H93.2113V204H94.2473V199.968C94.2473 198.26 95.0313 197.231 96.4873 197.231C98.0693 197.231 98.6783 198.477 98.6783 200.143V204H99.7143V199.842C99.7143 198.141 98.9513 196.251 96.6833 196.251ZM101.6 196.44H100.508L103.581 203.986L102.335 207.36H103.364L107.424 196.44H106.374L104.078 202.656L101.6 196.44ZM112.472 204V199.471H116.392V198.449H112.472V194.949H117.232V193.92H111.443V204H112.472ZM123.825 200.472C123.825 202.18 123.041 203.209 121.585 203.209C120.003 203.209 119.394 201.963 119.394 200.297V196.44H118.358V200.598C118.358 202.299 119.121 204.189 121.389 204.189C122.474 204.189 123.37 203.769 123.93 202.95V204H124.854V196.44H123.825V200.472ZM130.275 196.251C129.19 196.251 128.294 196.671 127.734 197.49V196.44H126.803V204H127.839V199.968C127.839 198.26 128.623 197.231 130.079 197.231C131.661 197.231 132.27 198.477 132.27 200.143V204H133.306V199.842C133.306 198.141 132.543 196.251 130.275 196.251ZM140.367 197.329C139.814 196.643 139.009 196.23 137.959 196.23C135.887 196.23 134.648 197.959 134.648 200.213C134.648 202.481 135.88 204.21 138.001 204.21C139.1 204.21 139.933 203.727 140.479 202.943V204H141.403V193.92H140.367V197.329ZM138.106 203.251C136.531 203.251 135.74 201.935 135.74 200.213C135.74 198.505 136.503 197.189 138.127 197.189C139.702 197.189 140.479 198.435 140.479 200.213C140.479 201.963 139.716 203.251 138.106 203.251ZM149.1 197.742C148.701 196.762 147.693 196.23 146.314 196.23C144.648 196.23 143.584 197.014 143.234 198.365L144.235 198.659C144.522 197.651 145.264 197.203 146.3 197.203C147.735 197.203 148.302 197.861 148.316 199.226C147.308 199.366 145.894 199.527 144.872 199.772C143.745 200.073 142.947 200.731 142.947 201.97C142.947 203.174 143.815 204.21 145.53 204.21C146.818 204.21 147.819 203.706 148.407 202.747V204H149.324V199.303C149.324 198.743 149.282 198.183 149.1 197.742ZM145.649 203.321C144.431 203.321 143.976 202.628 143.976 201.97C143.976 201.151 144.641 200.787 145.285 200.598C146.118 200.367 147.308 200.248 148.302 200.129C148.302 200.472 148.288 200.962 148.204 201.333C148.008 202.474 147.091 203.321 145.649 203.321ZM158.685 196.237C157.677 196.237 156.837 196.713 156.396 197.511C155.99 196.685 155.185 196.237 154.191 196.237C153.295 196.237 152.532 196.622 152.063 197.238V196.44H151.139V204H152.175V199.121C152.175 197.938 152.875 197.161 153.925 197.161C154.968 197.161 155.668 197.903 155.668 199.107L155.661 204H156.676L156.683 199.121C156.683 197.714 157.586 197.161 158.447 197.161C159.441 197.161 160.169 197.868 160.169 199.037L160.162 204H161.191L161.198 198.841C161.198 197.245 160.211 196.237 158.685 196.237ZM169.595 200.507C169.672 197.84 168.356 196.23 166.116 196.23C163.932 196.23 162.539 197.777 162.539 200.255C162.539 202.649 163.953 204.21 166.158 204.21C167.621 204.21 168.846 203.461 169.448 202.138L168.489 201.767C168.02 202.712 167.194 203.223 166.116 203.223C164.611 203.223 163.722 202.236 163.638 200.507H169.595ZM166.144 197.175C167.551 197.175 168.356 198.015 168.517 199.646H163.659C163.82 198.057 164.688 197.175 166.144 197.175ZM174.408 196.251C173.323 196.251 172.427 196.671 171.867 197.49V196.44H170.936V204H171.972V199.968C171.972 198.26 172.756 197.231 174.212 197.231C175.794 197.231 176.403 198.477 176.403 200.143V204H177.439V199.842C177.439 198.141 176.676 196.251 174.408 196.251ZM183.371 197.322V196.44H181.054V194.34H180.032V196.44H178.415V197.322H180.032V201.263C180.032 202.005 179.997 202.544 180.27 203.097C180.767 204.105 182.09 204.266 183.371 204V203.097C182.286 203.272 181.544 203.209 181.208 202.579C181.026 202.257 181.054 201.858 181.054 201.221V197.322H183.371ZM190.594 197.742C190.195 196.762 189.187 196.23 187.808 196.23C186.142 196.23 185.078 197.014 184.728 198.365L185.729 198.659C186.016 197.651 186.758 197.203 187.794 197.203C189.229 197.203 189.796 197.861 189.81 199.226C188.802 199.366 187.388 199.527 186.366 199.772C185.239 200.073 184.441 200.731 184.441 201.97C184.441 203.174 185.309 204.21 187.024 204.21C188.312 204.21 189.313 203.706 189.901 202.747V204H190.818V199.303C190.818 198.743 190.776 198.183 190.594 197.742ZM187.143 203.321C185.925 203.321 185.47 202.628 185.47 201.97C185.47 201.151 186.135 200.787 186.779 200.598C187.612 200.367 188.802 200.248 189.796 200.129C189.796 200.472 189.782 200.962 189.698 201.333C189.502 202.474 188.585 203.321 187.143 203.321ZM193.809 204V193.71H192.78V204H193.809ZM198.729 204.203C200.584 204.203 201.711 203.335 201.711 201.907C201.711 200.738 201.06 200.199 198.974 199.667C197.189 199.219 196.762 198.939 196.762 198.337C196.762 197.623 197.504 197.147 198.575 197.168C199.709 197.189 200.5 197.735 200.647 198.624L201.697 198.435C201.543 197.119 200.297 196.23 198.589 196.23C196.881 196.23 195.719 197.098 195.719 198.386C195.719 199.443 196.349 199.94 198.4 200.493C200.318 201.011 200.64 201.221 200.64 201.921C200.64 202.747 199.933 203.265 198.785 203.265C197.609 203.265 196.755 202.719 196.538 201.858L195.488 202.033C195.747 203.398 196.958 204.203 198.729 204.203Z" fill="white"/>
<circle cx="24" cy="229" r="8" fill="white"/>
<path d="M21 229.5L23.4 231L27 227" stroke="#1BD47B" stroke-width="1.25" stroke-linecap="round" stroke-linejoin="round"/>
<path d="M46.28 234H47.351L48.198 231.557H52.671L53.518 234H54.589L51.117 223.92H49.752L46.28 234ZM50.424 225.075L52.335 230.591H48.527L50.424 225.075ZM58.989 234.21C60.487 234.21 61.593 233.489 62.16 232.145L61.124 231.837C60.746 232.747 60.011 233.223 58.989 233.223C57.365 233.223 56.546 232.033 56.525 230.22C56.546 228.456 57.316 227.217 58.989 227.217C59.976 227.217 60.795 227.742 61.152 228.645L62.16 228.323C61.74 227.028 60.522 226.23 58.996 226.23C56.735 226.23 55.461 227.84 55.433 230.22C55.461 232.551 56.7 234.21 58.989 234.21ZM66.5359 234.21C68.0339 234.21 69.1399 233.489 69.7069 232.145L68.6709 231.837C68.2929 232.747 67.5579 233.223 66.5359 233.223C64.9119 233.223 64.0929 232.033 64.0719 230.22C64.0929 228.456 64.8629 227.217 66.5359 227.217C67.5229 227.217 68.3419 227.742 68.6989 228.645L69.7069 228.323C69.2869 227.028 68.0689 226.23 66.5429 226.23C64.2819 226.23 63.0079 227.84 62.9799 230.22C63.0079 232.551 64.2469 234.21 66.5359 234.21ZM77.5828 230.507C77.6598 227.84 76.3438 226.23 74.1038 226.23C71.9198 226.23 70.5268 227.777 70.5268 230.255C70.5268 232.649 71.9408 234.21 74.1458 234.21C75.6088 234.21 76.8338 233.461 77.4358 232.138L76.4768 231.767C76.0078 232.712 75.1818 233.223 74.1038 233.223C72.5988 233.223 71.7098 232.236 71.6258 230.507H77.5828ZM74.1318 227.175C75.5388 227.175 76.3438 228.015 76.5048 229.646H71.6468C71.8078 228.057 72.6758 227.175 74.1318 227.175ZM81.9573 234.203C83.8123 234.203 84.9393 233.335 84.9393 231.907C84.9393 230.738 84.2883 230.199 82.2023 229.667C80.4173 229.219 79.9903 228.939 79.9903 228.337C79.9903 227.623 80.7323 227.147 81.8033 227.168C82.9373 227.189 83.7283 227.735 83.8753 228.624L84.9253 228.435C84.7713 227.119 83.5253 226.23 81.8173 226.23C80.1093 226.23 78.9473 227.098 78.9473 228.386C78.9473 229.443 79.5773 229.94 81.6283 230.493C83.5463 231.011 83.8683 231.221 83.8683 231.921C83.8683 232.747 83.1613 233.265 82.0132 233.265C80.8373 233.265 79.9833 232.719 79.7663 231.858L78.7163 232.033C78.9753 233.398 80.1863 234.203 81.9573 234.203ZM89.3127 234.203C91.1677 234.203 92.2947 233.335 92.2947 231.907C92.2947 230.738 91.6437 230.199 89.5577 229.667C87.7727 229.219 87.3457 228.939 87.3457 228.337C87.3457 227.623 88.0877 227.147 89.1587 227.168C90.2927 227.189 91.0837 227.735 91.2307 228.624L92.2807 228.435C92.1267 227.119 90.8807 226.23 89.1727 226.23C87.4647 226.23 86.3027 227.098 86.3027 228.386C86.3027 229.443 86.9327 229.94 88.9837 230.493C90.9017 231.011 91.2237 231.221 91.2237 231.921C91.2237 232.747 90.5167 233.265 89.3687 233.265C88.1927 233.265 87.3387 232.719 87.1217 231.858L86.0717 232.033C86.3307 233.398 87.5417 234.203 89.3127 234.203ZM100.766 227.322V226.44H98.4489V224.34H97.4269V226.44H95.8099V227.322H97.4269V231.263C97.4269 232.005 97.3919 232.544 97.6649 233.097C98.1619 234.105 99.4849 234.266 100.766 234V233.097C99.6809 233.272 98.9389 233.209 98.6029 232.579C98.4209 232.257 98.4489 231.858 98.4489 231.221V227.322H100.766ZM105.139 234.21C107.379 234.21 108.723 232.593 108.723 230.213C108.723 227.875 107.407 226.23 105.139 226.23C102.927 226.23 101.562 227.833 101.562 230.213C101.562 232.558 102.885 234.21 105.139 234.21ZM105.139 233.223C103.501 233.223 102.654 232.033 102.654 230.213C102.654 228.449 103.445 227.217 105.139 227.217C106.805 227.217 107.631 228.393 107.631 230.213C107.631 231.998 106.819 233.223 105.139 233.223ZM116.227 234.21C118.467 234.21 119.811 232.593 119.811 230.213C119.811 227.875 118.495 226.23 116.227 226.23C114.015 226.23 112.65 227.833 112.65 230.213C112.65 232.558 113.973 234.21 116.227 234.21ZM116.227 233.223C114.589 233.223 113.742 232.033 113.742 230.213C113.742 228.449 114.533 227.217 116.227 227.217C117.893 227.217 118.719 228.393 118.719 230.213C118.719 231.998 117.907 233.223 116.227 233.223ZM124.82 226.251C123.735 226.251 122.839 226.671 122.279 227.49V226.44H121.348V234H122.384V229.968C122.384 228.26 123.168 227.231 124.624 227.231C126.206 227.231 126.815 228.477 126.815 230.143V234H127.851V229.842C127.851 228.141 127.088 226.251 124.82 226.251ZM130.837 234V223.71H129.808V234H130.837ZM133.278 226.44H132.186L135.259 233.986L134.013 237.36H135.042L139.102 226.44H138.052L135.756 232.656L133.278 226.44ZM145.921 234V223.92H144.878L142.981 225.054V226.209L144.878 225.068V234H145.921ZM153.448 229.772C154.428 228.897 154.876 228.197 154.876 226.93C154.876 225.131 153.483 223.71 151.649 223.71C149.78 223.71 148.359 225.075 148.359 226.916H149.409C149.395 225.733 150.347 224.697 151.635 224.697C152.874 224.697 153.833 225.677 153.833 226.923C153.833 227.623 153.637 228.239 152.86 228.939L148.303 233.055L148.296 233.993H154.876V233.006H149.864L153.448 229.772ZM162.184 234.203C164.039 234.203 165.166 233.335 165.166 231.907C165.166 230.738 164.515 230.199 162.429 229.667C160.644 229.219 160.217 228.939 160.217 228.337C160.217 227.623 160.959 227.147 162.03 227.168C163.164 227.189 163.955 227.735 164.102 228.624L165.152 228.435C164.998 227.119 163.752 226.23 162.044 226.23C160.336 226.23 159.174 227.098 159.174 228.386C159.174 229.443 159.804 229.94 161.855 230.493C163.773 231.011 164.095 231.221 164.095 231.921C164.095 232.747 163.388 233.265 162.24 233.265C161.064 233.265 160.21 232.719 159.993 231.858L158.943 232.033C159.202 233.398 160.413 234.203 162.184 234.203ZM170.834 227.322V226.44H168.517V224.34H167.495V226.44H165.878V227.322H167.495V231.263C167.495 232.005 167.46 232.544 167.733 233.097C168.23 234.105 169.553 234.266 170.834 234V233.097C169.749 233.272 169.007 233.209 168.671 232.579C168.489 232.257 168.517 231.858 168.517 231.221V227.322H170.834ZM175.207 234.21C177.447 234.21 178.791 232.593 178.791 230.213C178.791 227.875 177.475 226.23 175.207 226.23C172.995 226.23 171.63 227.833 171.63 230.213C171.63 232.558 172.953 234.21 175.207 234.21ZM175.207 233.223C173.569 233.223 172.722 232.033 172.722 230.213C172.722 228.449 173.513 227.217 175.207 227.217C176.873 227.217 177.699 228.393 177.699 230.213C177.699 231.998 176.887 233.223 175.207 233.223ZM183.471 234.21C184.969 234.21 186.075 233.489 186.642 232.145L185.606 231.837C185.228 232.747 184.493 233.223 183.471 233.223C181.847 233.223 181.028 232.033 181.007 230.22C181.028 228.456 181.798 227.217 183.471 227.217C184.458 227.217 185.277 227.742 185.634 228.645L186.642 228.323C186.222 227.028 185.004 226.23 183.478 226.23C181.217 226.23 179.943 227.84 179.915 230.22C179.943 232.551 181.182 234.21 183.471 234.21ZM194.016 234L190.495 229.646L193.834 226.44H192.553L189.074 229.73V223.92H188.087L188.08 234H189.074V231.011L189.795 230.318L192.791 234H194.016ZM199.347 226.937C199.13 227.105 198.92 227.35 198.759 227.637V226.44H197.835V234H198.864V230.227C198.864 229.324 198.99 228.344 199.746 227.749C200.292 227.301 200.992 227.273 201.552 227.406V226.44C200.887 226.272 199.942 226.419 199.347 226.937ZM209.38 230.507C209.457 227.84 208.141 226.23 205.901 226.23C203.717 226.23 202.324 227.777 202.324 230.255C202.324 232.649 203.738 234.21 205.943 234.21C207.406 234.21 208.631 233.461 209.233 232.138L208.274 231.767C207.805 232.712 206.979 233.223 205.901 233.223C204.396 233.223 203.507 232.236 203.423 230.507H209.38ZM205.929 227.175C207.336 227.175 208.141 228.015 208.302 229.646H203.444C203.605 228.057 204.473 227.175 205.929 227.175ZM214.069 234.21C215.567 234.21 216.673 233.489 217.24 232.145L216.204 231.837C215.826 232.747 215.091 233.223 214.069 233.223C212.445 233.223 211.626 232.033 211.605 230.22C211.626 228.456 212.396 227.217 214.069 227.217C215.056 227.217 215.875 227.742 216.232 228.645L217.24 228.323C216.82 227.028 215.602 226.23 214.076 226.23C211.815 226.23 210.541 227.84 210.513 230.22C210.541 232.551 211.78 234.21 214.069 234.21ZM221.637 234.21C223.877 234.21 225.221 232.593 225.221 230.213C225.221 227.875 223.905 226.23 221.637 226.23C219.425 226.23 218.06 227.833 218.06 230.213C218.06 232.558 219.383 234.21 221.637 234.21ZM221.637 233.223C219.999 233.223 219.152 232.033 219.152 230.213C219.152 228.449 219.943 227.217 221.637 227.217C223.303 227.217 224.129 228.393 224.129 230.213C224.129 231.998 223.317 233.223 221.637 233.223ZM234.304 226.237C233.296 226.237 232.456 226.713 232.015 227.511C231.609 226.685 230.804 226.237 229.81 226.237C228.914 226.237 228.151 226.622 227.682 227.238V226.44H226.758V234H227.794V229.121C227.794 227.938 228.494 227.161 229.544 227.161C230.587 227.161 231.287 227.903 231.287 229.107L231.28 234H232.295L232.302 229.121C232.302 227.714 233.205 227.161 234.066 227.161C235.06 227.161 235.788 227.868 235.788 229.037L235.781 234H236.81L236.817 228.841C236.817 227.245 235.83 226.237 234.304 226.237ZM246.171 226.237C245.163 226.237 244.323 226.713 243.882 227.511C243.476 226.685 242.671 226.237 241.677 226.237C240.781 226.237 240.018 226.622 239.549 227.238V226.44H238.625V234H239.661V229.121C239.661 227.938 240.361 227.161 241.411 227.161C242.454 227.161 243.154 227.903 243.154 229.107L243.147 234H244.162L244.169 229.121C244.169 227.714 245.072 227.161 245.933 227.161C246.927 227.161 247.655 227.868 247.655 229.037L247.648 234H248.677L248.684 228.841C248.684 227.245 247.697 226.237 246.171 226.237ZM257.081 230.507C257.158 227.84 255.842 226.23 253.602 226.23C251.418 226.23 250.025 227.777 250.025 230.255C250.025 232.649 251.439 234.21 253.644 234.21C255.107 234.21 256.332 233.461 256.934 232.138L255.975 231.767C255.506 232.712 254.68 233.223 253.602 233.223C252.097 233.223 251.208 232.236 251.124 230.507H257.081ZM253.63 227.175C255.037 227.175 255.842 228.015 256.003 229.646H251.145C251.306 228.057 252.174 227.175 253.63 227.175ZM261.894 226.251C260.809 226.251 259.913 226.671 259.353 227.49V226.44H258.422V234H259.458V229.968C259.458 228.26 260.242 227.231 261.698 227.231C263.28 227.231 263.889 228.477 263.889 230.143V234H264.925V229.842C264.925 228.141 264.162 226.251 261.894 226.251ZM271.986 227.329C271.433 226.643 270.628 226.23 269.578 226.23C267.506 226.23 266.267 227.959 266.267 230.213C266.267 232.481 267.499 234.21 269.62 234.21C270.719 234.21 271.552 233.727 272.098 232.943V234H273.022V223.92H271.986V227.329ZM269.725 233.251C268.15 233.251 267.359 231.935 267.359 230.213C267.359 228.505 268.122 227.189 269.746 227.189C271.321 227.189 272.098 228.435 272.098 230.213C272.098 231.963 271.335 233.251 269.725 233.251ZM280.719 227.742C280.32 226.762 279.312 226.23 277.933 226.23C276.267 226.23 275.203 227.014 274.853 228.365L275.854 228.659C276.141 227.651 276.883 227.203 277.919 227.203C279.354 227.203 279.921 227.861 279.935 229.226C278.927 229.366 277.513 229.527 276.491 229.772C275.364 230.073 274.566 230.731 274.566 231.97C274.566 233.174 275.434 234.21 277.149 234.21C278.437 234.21 279.438 233.706 280.026 232.747V234H280.943V229.303C280.943 228.743 280.901 228.183 280.719 227.742ZM277.268 233.321C276.05 233.321 275.595 232.628 275.595 231.97C275.595 231.151 276.26 230.787 276.904 230.598C277.737 230.367 278.927 230.248 279.921 230.129C279.921 230.472 279.907 230.962 279.823 231.333C279.627 232.474 278.71 233.321 277.268 233.321ZM286.881 227.322V226.44H284.564V224.34H283.542V226.44H281.925V227.322H283.542V231.263C283.542 232.005 283.507 232.544 283.78 233.097C284.277 234.105 285.6 234.266 286.881 234V233.097C285.796 233.272 285.054 233.209 284.718 232.579C284.536 232.257 284.564 231.858 284.564 231.221V227.322H286.881ZM289.022 225.138C289.428 225.138 289.743 224.83 289.743 224.431C289.743 224.025 289.428 223.717 289.022 223.717C288.616 223.717 288.308 224.025 288.308 224.431C288.308 224.83 288.616 225.138 289.022 225.138ZM289.54 234V226.44H288.511V234H289.54ZM294.795 234.21C297.035 234.21 298.379 232.593 298.379 230.213C298.379 227.875 297.063 226.23 294.795 226.23C292.583 226.23 291.218 227.833 291.218 230.213C291.218 232.558 292.541 234.21 294.795 234.21ZM294.795 233.223C293.157 233.223 292.31 232.033 292.31 230.213C292.31 228.449 293.101 227.217 294.795 227.217C296.461 227.217 297.287 228.393 297.287 230.213C297.287 231.998 296.475 233.223 294.795 233.223ZM303.388 226.251C302.303 226.251 301.407 226.671 300.847 227.49V226.44H299.916V234H300.952V229.968C300.952 228.26 301.736 227.231 303.192 227.231C304.774 227.231 305.383 228.477 305.383 230.143V234H306.419V229.842C306.419 228.141 305.656 226.251 303.388 226.251Z" fill="white"/>
</svg>
