<svg width="921" height="310" viewBox="0 0 921 310" fill="none" xmlns="http://www.w3.org/2000/svg">
<rect width="921" height="310" rx="8" fill="#1BD47B"/>
<path d="M29.74 64V53.06H37.92C38.46 53.06 39.22 53.02 39.94 52.9C44.42 52.22 46.96 48.62 46.96 44.14C46.96 39.64 44.44 36.06 39.94 35.36C39.22 35.24 38.48 35.2 37.92 35.2H26.8V64H29.74ZM29.74 38.02H37.84C38.32 38.02 39.02 38.06 39.62 38.18C42.58 38.82 43.94 41.46 43.94 44.14C43.94 46.82 42.58 49.46 39.62 50.08C39.02 50.22 38.32 50.26 37.84 50.26H29.74V38.02ZM55.2606 43.82C54.6406 44.3 54.0406 45 53.5806 45.82V42.4H50.9406V64H53.8806V53.22C53.8806 50.64 54.2406 47.84 56.4006 46.14C57.9606 44.86 59.9606 44.78 61.5606 45.16V42.4C59.6606 41.92 56.9606 42.34 55.2606 43.82ZM83.9241 54.02C84.1441 46.4 80.3841 41.8 73.9841 41.8C67.7441 41.8 63.7641 46.22 63.7641 53.3C63.7641 60.14 67.8041 64.6 74.1041 64.6C78.2841 64.6 81.7841 62.46 83.5041 58.68L80.7641 57.62C79.4241 60.32 77.0641 61.78 73.9841 61.78C69.6841 61.78 67.1441 58.96 66.9041 54.02H83.9241ZM74.0641 44.5C78.0841 44.5 80.3841 46.9 80.8441 51.56H66.9641C67.4241 47.02 69.9041 44.5 74.0641 44.5ZM109.317 41.82C106.437 41.82 104.037 43.18 102.777 45.46C101.617 43.1 99.3166 41.82 96.4766 41.82C93.9166 41.82 91.7366 42.92 90.3966 44.68V42.4H87.7566V64H90.7166V50.06C90.7166 46.68 92.7166 44.46 95.7166 44.46C98.6966 44.46 100.697 46.58 100.697 50.02L100.677 64H103.577L103.597 50.06C103.597 46.04 106.177 44.46 108.637 44.46C111.477 44.46 113.557 46.48 113.557 49.82L113.537 64H116.477L116.497 49.26C116.497 44.7 113.677 41.82 109.317 41.82ZM123.543 38.68C124.703 38.68 125.603 37.8 125.603 36.66C125.603 35.5 124.703 34.62 123.543 34.62C122.383 34.62 121.503 35.5 121.503 36.66C121.503 37.8 122.383 38.68 123.543 38.68ZM125.023 64V42.4H122.083V64H125.023ZM146.239 53.92C146.239 58.8 143.999 61.74 139.839 61.74C135.319 61.74 133.579 58.18 133.579 53.42V42.4H130.619V54.28C130.619 59.14 132.799 64.54 139.279 64.54C142.379 64.54 144.939 63.34 146.539 61V64H149.179V42.4H146.239V53.92ZM176.309 41.82C173.429 41.82 171.029 43.18 169.769 45.46C168.609 43.1 166.309 41.82 163.469 41.82C160.909 41.82 158.729 42.92 157.389 44.68V42.4H154.749V64H157.709V50.06C157.709 46.68 159.709 44.46 162.709 44.46C165.689 44.46 167.689 46.58 167.689 50.02L167.669 64H170.569L170.589 50.06C170.589 46.04 173.169 44.46 175.629 44.46C178.469 44.46 180.549 46.48 180.549 49.82L180.529 64H183.469L183.489 49.26C183.489 44.7 180.669 41.82 176.309 41.82Z" fill="white"/>
<path d="M26.792 112V107.08H30.984V105.4H26.792V102.152H31.944V100.48H25.12V112H26.792ZM37.4033 112.24C39.9793 112.24 41.6433 110.376 41.6433 107.672C41.6433 105 39.9953 103.12 37.4033 103.12C34.8593 103.12 33.1713 104.968 33.1713 107.672C33.1713 110.352 34.8113 112.24 37.4033 112.24ZM37.4033 110.664C35.7873 110.664 34.9473 109.496 34.9473 107.672C34.9473 105.912 35.7233 104.696 37.4033 104.696C39.0353 104.696 39.8673 105.864 39.8673 107.672C39.8673 109.44 39.0513 110.664 37.4033 110.664ZM46.1893 103.848C45.8613 104.064 45.5893 104.376 45.3893 104.736V103.36H43.9013V112H45.5893V107.64C45.5893 106.624 45.8613 105.712 46.6773 105.192C47.2533 104.824 48.0053 104.776 48.5653 104.928V103.36C47.7893 103.216 46.8373 103.368 46.1893 103.848ZM61.0199 104.768C60.4839 103.632 59.2839 103.12 57.7399 103.12C55.7399 103.12 54.5399 104.064 54.1239 105.544L55.6839 106.024C55.9799 105.064 56.8119 104.664 57.7239 104.664C59.0759 104.664 59.6199 105.224 59.6759 106.416C58.2759 106.608 56.8519 106.792 55.8519 107.088C54.5159 107.512 53.8119 108.344 53.8119 109.648C53.8119 111.056 54.8199 112.24 56.7319 112.24C58.1319 112.24 59.1319 111.76 59.8439 110.744V112H61.3239V106.68C61.3239 105.96 61.2919 105.336 61.0199 104.768ZM57.0279 110.872C55.9559 110.872 55.4679 110.304 55.4679 109.632C55.4679 108.952 55.9719 108.584 56.6599 108.352C57.3879 108.136 58.3559 108 59.6599 107.808C59.6519 108.208 59.6199 108.76 59.4839 109.16C59.2919 110 58.4519 110.872 57.0279 110.872ZM69.7173 103.952C69.1173 103.424 68.3333 103.12 67.3653 103.12C64.9333 103.12 63.4213 105.064 63.4213 107.672C63.4213 110.264 64.9253 112.24 67.3333 112.24C68.4213 112.24 69.2853 111.856 69.9093 111.208V112H71.3973V100.48H69.7173V103.952ZM67.5653 110.728C65.9573 110.728 65.1973 109.384 65.1973 107.672C65.1973 105.976 65.9573 104.632 67.6213 104.632C69.1973 104.632 69.9093 105.88 69.9093 107.672C69.9093 109.464 69.2133 110.728 67.5653 110.728ZM78.1676 112L81.3036 103.36H79.6156L77.3196 109.904L75.0236 103.36H73.3356L76.4716 112H78.1676ZM89.4886 104.768C88.9526 103.632 87.7526 103.12 86.2086 103.12C84.2086 103.12 83.0086 104.064 82.5926 105.544L84.1526 106.024C84.4486 105.064 85.2806 104.664 86.1926 104.664C87.5446 104.664 88.0886 105.224 88.1446 106.416C86.7446 106.608 85.3206 106.792 84.3206 107.088C82.9846 107.512 82.2806 108.344 82.2806 109.648C82.2806 111.056 83.2886 112.24 85.2006 112.24C86.6006 112.24 87.6006 111.76 88.3126 110.744V112H89.7926V106.68C89.7926 105.96 89.7606 105.336 89.4886 104.768ZM85.4966 110.872C84.4246 110.872 83.9366 110.304 83.9366 109.632C83.9366 108.952 84.4406 108.584 85.1286 108.352C85.8566 108.136 86.8246 108 88.1286 107.808C88.1206 108.208 88.0886 108.76 87.9526 109.16C87.7606 110 86.9206 110.872 85.4966 110.872ZM96.714 103.128C95.466 103.128 94.49 103.592 93.858 104.392V103.36H92.362V112H94.058V107.504C94.058 105.456 95.05 104.712 96.25 104.712C98.09 104.712 98.434 106.408 98.434 107.752V112H100.13V107.2C100.13 105.864 99.69 103.128 96.714 103.128ZM106.3 112.24C108.156 112.24 109.5 111.32 110.068 109.624L108.372 109.224C108.02 110.152 107.372 110.664 106.3 110.664C104.716 110.664 103.908 109.464 103.9 107.68C103.908 105.952 104.66 104.696 106.3 104.696C107.268 104.696 108.076 105.264 108.404 106.232L110.068 105.752C109.636 104.128 108.212 103.12 106.324 103.12C103.708 103.12 102.14 105.008 102.124 107.68C102.14 110.312 103.652 112.24 106.3 112.24ZM119.716 108.152C119.892 105.056 118.356 103.12 115.716 103.12C113.188 103.12 111.484 104.92 111.484 107.752C111.484 110.424 113.212 112.24 115.796 112.24C117.468 112.24 118.932 111.352 119.604 109.808L117.964 109.288C117.54 110.176 116.756 110.664 115.716 110.664C114.26 110.664 113.412 109.76 113.276 108.152H119.716ZM115.78 104.6C117.108 104.6 117.828 105.32 118.004 106.848H113.316C113.532 105.384 114.356 104.6 115.78 104.6ZM127.827 103.952C127.227 103.424 126.443 103.12 125.475 103.12C123.043 103.12 121.531 105.064 121.531 107.672C121.531 110.264 123.035 112.24 125.443 112.24C126.531 112.24 127.395 111.856 128.019 111.208V112H129.507V100.48H127.827V103.952ZM125.675 110.728C124.067 110.728 123.307 109.384 123.307 107.672C123.307 105.976 124.067 104.632 125.731 104.632C127.307 104.632 128.019 105.88 128.019 107.672C128.019 109.464 127.323 110.728 125.675 110.728ZM141.86 107.856C141.86 109.904 140.868 110.648 139.668 110.648C137.828 110.648 137.484 108.952 137.484 107.608V103.36H135.788V108.16C135.788 109.496 136.228 112.232 139.204 112.232C140.452 112.232 141.428 111.768 142.06 110.968V112H143.548V103.36H141.86V107.856ZM149.596 112.232C151.78 112.232 153.1 111.208 153.1 109.496C153.1 108.16 152.356 107.496 150.18 106.936C148.156 106.424 147.764 106.2 147.764 105.624C147.764 104.968 148.452 104.552 149.468 104.592C150.524 104.632 151.22 105.144 151.34 105.968L153.052 105.656C152.86 104.12 151.436 103.12 149.452 103.12C147.42 103.12 146.092 104.144 146.092 105.712C146.092 106.984 146.828 107.6 149.06 108.184C151.092 108.728 151.38 108.904 151.38 109.56C151.38 110.312 150.748 110.76 149.708 110.76C148.556 110.76 147.74 110.216 147.524 109.312L145.812 109.576C146.108 111.264 147.492 112.232 149.596 112.232ZM163.122 108.152C163.298 105.056 161.762 103.12 159.122 103.12C156.594 103.12 154.89 104.92 154.89 107.752C154.89 110.424 156.618 112.24 159.202 112.24C160.874 112.24 162.338 111.352 163.01 109.808L161.37 109.288C160.946 110.176 160.162 110.664 159.122 110.664C157.666 110.664 156.818 109.76 156.682 108.152H163.122ZM159.186 104.6C160.514 104.6 161.234 105.32 161.41 106.848H156.722C156.938 105.384 157.762 104.6 159.186 104.6ZM167.705 103.848C167.377 104.064 167.105 104.376 166.905 104.736V103.36H165.417V112H167.105V107.64C167.105 106.624 167.377 105.712 168.193 105.192C168.769 104.824 169.521 104.776 170.081 104.928V103.36C169.305 103.216 168.353 103.368 167.705 103.848ZM175.096 112.232C177.28 112.232 178.6 111.208 178.6 109.496C178.6 108.16 177.856 107.496 175.68 106.936C173.656 106.424 173.264 106.2 173.264 105.624C173.264 104.968 173.952 104.552 174.968 104.592C176.024 104.632 176.72 105.144 176.84 105.968L178.552 105.656C178.36 104.12 176.936 103.12 174.952 103.12C172.92 103.12 171.592 104.144 171.592 105.712C171.592 106.984 172.328 107.6 174.56 108.184C176.592 108.728 176.88 108.904 176.88 109.56C176.88 110.312 176.248 110.76 175.208 110.76C174.056 110.76 173.24 110.216 173.024 109.312L171.312 109.576C171.608 111.264 172.992 112.232 175.096 112.232Z" fill="white"/>
<path d="M623.816 68.432L629.488 77H631.184V65.48H629.488V74.04L623.816 65.48H622.12V77H623.816V68.432ZM641.669 73.152C641.845 70.056 640.309 68.12 637.669 68.12C635.141 68.12 633.437 69.92 633.437 72.752C633.437 75.424 635.165 77.24 637.749 77.24C639.421 77.24 640.885 76.352 641.557 74.808L639.917 74.288C639.493 75.176 638.709 75.664 637.669 75.664C636.213 75.664 635.365 74.76 635.229 73.152H641.669ZM637.733 69.6C639.061 69.6 639.781 70.32 639.957 71.848H635.269C635.485 70.384 636.309 69.6 637.733 69.6ZM644.683 77L646.899 73.936L649.099 77H651.091L647.851 72.632L651.011 68.36H649.027L646.899 71.328L644.747 68.36H642.763L645.923 72.632L642.691 77H644.683ZM657.814 69.704V68.36H655.246V65.96H653.566V68.36H651.91V69.704H653.566V73.6C653.566 74.544 653.51 75.24 653.886 75.952C654.518 77.152 656.19 77.32 657.814 77V75.584C656.686 75.752 655.806 75.728 655.422 75.072C655.214 74.72 655.246 74.216 655.246 73.52V69.704H657.814ZM667.863 68.12C666.791 68.12 665.935 68.496 665.319 69.136V68.36H663.831V80.84H665.511V76.392C666.119 76.928 666.911 77.24 667.895 77.24C670.303 77.24 671.807 75.264 671.807 72.672C671.807 70.064 670.295 68.12 667.863 68.12ZM667.663 75.728C666.015 75.728 665.319 74.464 665.319 72.672C665.319 70.88 666.031 69.632 667.607 69.632C669.271 69.632 670.031 70.976 670.031 72.672C670.031 74.384 669.271 75.728 667.663 75.728ZM680.801 69.768C680.265 68.632 679.065 68.12 677.521 68.12C675.521 68.12 674.321 69.064 673.905 70.544L675.465 71.024C675.761 70.064 676.593 69.664 677.505 69.664C678.857 69.664 679.401 70.224 679.457 71.416C678.057 71.608 676.633 71.792 675.633 72.088C674.297 72.512 673.593 73.344 673.593 74.648C673.593 76.056 674.601 77.24 676.513 77.24C677.913 77.24 678.913 76.76 679.625 75.744V77H681.105V71.68C681.105 70.96 681.073 70.336 680.801 69.768ZM676.809 75.872C675.737 75.872 675.249 75.304 675.249 74.632C675.249 73.952 675.753 73.584 676.441 73.352C677.169 73.136 678.137 73 679.441 72.808C679.433 73.208 679.401 73.76 679.265 74.16C679.073 75 678.233 75.872 676.809 75.872ZM684.038 68.36H682.294L685.79 76.96L684.366 80.84H685.958L690.726 68.36H689.03L686.598 74.848L684.038 68.36ZM701.575 68.144C700.447 68.144 699.479 68.672 698.951 69.544C698.495 68.672 697.631 68.144 696.439 68.144C695.399 68.144 694.511 68.584 693.959 69.288V68.36H692.471V77H694.151V71.6C694.151 70.424 694.855 69.632 695.911 69.632C696.975 69.632 697.663 70.4 697.663 71.648L697.655 77H699.327L699.335 71.6C699.335 70.296 700.143 69.632 701.095 69.632C702.135 69.632 702.839 70.376 702.839 71.616L702.831 77H704.503L704.511 71.216C704.511 69.36 703.431 68.144 701.575 68.144ZM714.731 73.152C714.907 70.056 713.371 68.12 710.731 68.12C708.203 68.12 706.499 69.92 706.499 72.752C706.499 75.424 708.227 77.24 710.811 77.24C712.483 77.24 713.947 76.352 714.619 74.808L712.979 74.288C712.555 75.176 711.771 75.664 710.731 75.664C709.275 75.664 708.427 74.76 708.291 73.152H714.731ZM710.795 69.6C712.123 69.6 712.843 70.32 713.019 71.848H708.331C708.547 70.384 709.371 69.6 710.795 69.6ZM721.136 68.128C719.888 68.128 718.912 68.592 718.28 69.392V68.36H716.784V77H718.48V72.504C718.48 70.456 719.472 69.712 720.672 69.712C722.512 69.712 722.856 71.408 722.856 72.752V77H724.552V72.2C724.552 70.864 724.112 68.128 721.136 68.128ZM732.08 69.704V68.36H729.512V65.96H727.832V68.36H726.176V69.704H727.832V73.6C727.832 74.544 727.776 75.24 728.152 75.952C728.784 77.152 730.456 77.32 732.08 77V75.584C730.952 75.752 730.072 75.728 729.688 75.072C729.48 74.72 729.512 74.216 729.512 73.52V69.704H732.08ZM743.92 68.952C743.32 68.424 742.536 68.12 741.568 68.12C739.136 68.12 737.624 70.064 737.624 72.672C737.624 75.264 739.128 77.24 741.536 77.24C742.624 77.24 743.488 76.856 744.112 76.208V77H745.6V65.48H743.92V68.952ZM741.768 75.728C740.16 75.728 739.4 74.384 739.4 72.672C739.4 70.976 740.16 69.632 741.824 69.632C743.4 69.632 744.112 70.88 744.112 72.672C744.112 74.464 743.416 75.728 741.768 75.728ZM754.251 72.856C754.251 74.904 753.259 75.648 752.059 75.648C750.219 75.648 749.875 73.952 749.875 72.608V68.36H748.179V73.16C748.179 74.496 748.619 77.232 751.595 77.232C752.843 77.232 753.819 76.768 754.451 75.968V77H755.939V68.36H754.251V72.856ZM766.435 73.152C766.611 70.056 765.075 68.12 762.435 68.12C759.907 68.12 758.203 69.92 758.203 72.752C758.203 75.424 759.931 77.24 762.515 77.24C764.187 77.24 765.651 76.352 766.323 74.808L764.683 74.288C764.259 75.176 763.475 75.664 762.435 75.664C760.979 75.664 760.131 74.76 759.995 73.152H766.435ZM762.499 69.6C763.827 69.6 764.547 70.32 764.723 71.848H760.035C760.251 70.384 761.075 69.6 762.499 69.6ZM770.265 71.384C770.865 71.384 771.313 70.928 771.313 70.344C771.313 69.76 770.865 69.304 770.265 69.304C769.665 69.304 769.217 69.76 769.217 70.344C769.217 70.928 769.665 71.384 770.265 71.384ZM770.257 76.016C770.857 76.016 771.297 75.552 771.297 74.976C771.297 74.392 770.857 73.936 770.257 73.936C769.657 73.936 769.209 74.392 769.209 74.976C769.209 75.552 769.657 76.016 770.257 76.016ZM783.783 72.424C785.031 71.328 785.655 70.608 785.655 69.032C785.655 66.848 784.015 65.24 781.839 65.24C779.543 65.24 777.903 66.768 777.903 69H779.615C779.599 67.84 780.527 66.832 781.807 66.832C783.047 66.832 783.935 67.776 783.935 69.008C783.935 69.664 783.695 70.288 782.887 71.008L777.871 75.504L777.863 76.992H785.655V75.4H780.447L783.783 72.424ZM791.753 69.6C791.073 69.6 790.353 69.816 789.785 70.224L789.977 67.056H794.697V65.48H788.481L788.129 71.536L789.585 72.048C789.945 71.568 790.593 71.12 791.537 71.12C792.769 71.12 793.801 72.112 793.801 73.376C793.801 74.608 792.801 75.624 791.537 75.624C790.577 75.624 789.625 74.976 789.361 73.952L787.753 74.384C788.225 76.064 789.713 77.24 791.489 77.24C793.641 77.24 795.489 75.52 795.489 73.376C795.489 71.216 793.905 69.6 791.753 69.6ZM797.741 77H799.429L802.501 65.48H800.813L797.741 77ZM808.801 77V65.48H807.097L804.929 66.776V68.64L807.097 67.32V77H808.801ZM817.939 72.424C819.187 71.328 819.811 70.608 819.811 69.032C819.811 66.848 818.171 65.24 815.995 65.24C813.699 65.24 812.059 66.768 812.059 69H813.771C813.755 67.84 814.683 66.832 815.963 66.832C817.203 66.832 818.091 67.776 818.091 69.008C818.091 69.664 817.851 70.288 817.043 71.008L812.027 75.504L812.019 76.992H819.811V75.4H814.603L817.939 72.424ZM822.069 77H823.757L826.829 65.48H825.141L822.069 77ZM835.017 72.424C836.265 71.328 836.889 70.608 836.889 69.032C836.889 66.848 835.249 65.24 833.073 65.24C830.777 65.24 829.137 66.768 829.137 69H830.849C830.833 67.84 831.761 66.832 833.041 66.832C834.281 66.832 835.169 67.776 835.169 69.008C835.169 69.664 834.929 70.288 834.121 71.008L829.105 75.504L829.097 76.992H836.889V75.4H831.681L835.017 72.424ZM843.324 77.24C845.668 77.24 847.34 75.568 847.34 73.224V69.256C847.34 66.912 845.668 65.24 843.324 65.24C840.98 65.24 839.308 66.912 839.308 69.256V73.224C839.308 75.568 840.98 77.24 843.324 77.24ZM843.324 75.64C842.036 75.64 841.012 74.616 841.012 73.328V69.136C841.012 67.856 842.036 66.832 843.324 66.832C844.612 66.832 845.636 67.856 845.636 69.136V73.328C845.636 74.616 844.612 75.64 843.324 75.64ZM855.673 72.424C856.921 71.328 857.545 70.608 857.545 69.032C857.545 66.848 855.905 65.24 853.729 65.24C851.433 65.24 849.793 66.768 849.793 69H851.505C851.489 67.84 852.417 66.832 853.697 66.832C854.937 66.832 855.825 67.776 855.825 69.008C855.825 69.664 855.585 70.288 854.777 71.008L849.761 75.504L849.753 76.992H857.545V75.4H852.337L855.673 72.424ZM865.564 72.424C866.812 71.328 867.436 70.608 867.436 69.032C867.436 66.848 865.796 65.24 863.62 65.24C861.324 65.24 859.684 66.768 859.684 69H861.396C861.38 67.84 862.308 66.832 863.588 66.832C864.828 66.832 865.716 67.776 865.716 69.008C865.716 69.664 865.476 70.288 864.668 71.008L859.652 75.504L859.644 76.992H867.436V75.4H862.228L865.564 72.424Z" fill="white"/>
<path d="M879 141H24V143H879V141Z" fill="white" mask="url(#path-2-inside-1_3736_54501)"/>
<circle cx="34" cy="178" r="10" fill="white"/>
<path d="M30.25 178.625L33.25 180.5L37.75 175.5" stroke="#1BD47B" stroke-width="1.25" stroke-linecap="round" stroke-linejoin="round"/>
<path d="M60.12 184.24C62.528 184.24 64.328 183 64.328 180.856C64.328 178.672 62.464 178.104 61.528 177.84L59.272 177.176C58.376 176.92 57.224 176.528 57.224 175.36C57.224 174.216 58.368 173.36 59.912 173.368C61.52 173.384 62.8 174.336 63.032 175.832L64.264 175.608C63.888 173.536 62.224 172.256 59.92 172.248C57.648 172.24 55.984 173.464 55.984 175.408C55.984 176.952 57.032 177.752 58.44 178.168L61.36 179.04C62.16 179.28 63.128 179.72 63.128 180.904C63.128 182.264 61.872 183.112 60.168 183.112C58.448 183.112 57.12 182.216 56.736 180.72L55.536 180.92C55.928 182.968 57.712 184.24 60.12 184.24ZM71.1834 176.368V175.36H68.5354V172.96H67.3674V175.36H65.5194V176.368H67.3674V180.872C67.3674 181.72 67.3274 182.336 67.6394 182.968C68.2074 184.12 69.7194 184.304 71.1834 184V182.968C69.9434 183.168 69.0954 183.096 68.7114 182.376C68.5034 182.008 68.5354 181.552 68.5354 180.824V176.368H71.1834ZM76.6811 184.24C79.2411 184.24 80.7771 182.392 80.7771 179.672C80.7771 177 79.2731 175.12 76.6811 175.12C74.1531 175.12 72.5931 176.952 72.5931 179.672C72.5931 182.352 74.1051 184.24 76.6811 184.24ZM76.6811 183.112C74.8091 183.112 73.8411 181.752 73.8411 179.672C73.8411 177.656 74.7451 176.248 76.6811 176.248C78.5851 176.248 79.5291 177.592 79.5291 179.672C79.5291 181.712 78.6011 183.112 76.6811 183.112ZM86.6259 184.24C88.3379 184.24 89.6019 183.416 90.2499 181.88L89.0659 181.528C88.6339 182.568 87.7939 183.112 86.6259 183.112C84.7699 183.112 83.8339 181.752 83.8099 179.68C83.8339 177.664 84.7139 176.248 86.6259 176.248C87.7539 176.248 88.6899 176.848 89.0979 177.88L90.2499 177.512C89.7699 176.032 88.3779 175.12 86.6339 175.12C84.0499 175.12 82.5939 176.96 82.5619 179.68C82.5939 182.344 84.0099 184.24 86.6259 184.24ZM99.1773 184L95.1533 179.024L98.9693 175.36H97.5053L93.5293 179.12V172.48H92.4013L92.3933 184H93.5293V180.584L94.3533 179.792L97.7773 184H99.1773ZM105.286 173.872C105.75 173.872 106.11 173.52 106.11 173.064C106.11 172.6 105.75 172.248 105.286 172.248C104.822 172.248 104.47 172.6 104.47 173.064C104.47 173.52 104.822 173.872 105.286 173.872ZM105.878 184V175.36H104.702V184H105.878ZM112.736 175.144C111.496 175.144 110.472 175.624 109.832 176.56V175.36H108.768V184H109.952V179.392C109.952 177.44 110.848 176.264 112.512 176.264C114.32 176.264 115.016 177.688 115.016 179.592V184H116.2V179.248C116.2 177.304 115.328 175.144 112.736 175.144ZM123.168 173.232V172.24H122.064C121.4 172.24 120.688 172.304 120.168 172.872C119.696 173.384 119.632 174.056 119.632 174.72V175.36H118.136V176.368H119.632V184H120.808V176.368H123.168V175.36H120.808V174.592C120.808 173.656 121.248 173.232 122.144 173.232H123.168ZM128.244 184.24C130.804 184.24 132.34 182.392 132.34 179.672C132.34 177 130.836 175.12 128.244 175.12C125.716 175.12 124.156 176.952 124.156 179.672C124.156 182.352 125.668 184.24 128.244 184.24ZM128.244 183.112C126.372 183.112 125.404 181.752 125.404 179.672C125.404 177.656 126.308 176.248 128.244 176.248C130.148 176.248 131.092 177.592 131.092 179.672C131.092 181.712 130.164 183.112 128.244 183.112ZM143.22 175.128C142.068 175.128 141.108 175.672 140.604 176.584C140.14 175.64 139.22 175.128 138.084 175.128C137.06 175.128 136.188 175.568 135.652 176.272V175.36H134.596V184H135.78V178.424C135.78 177.072 136.58 176.184 137.78 176.184C138.972 176.184 139.772 177.032 139.772 178.408L139.764 184H140.924L140.932 178.424C140.932 176.816 141.964 176.184 142.948 176.184C144.084 176.184 144.916 176.992 144.916 178.328L144.908 184H146.084L146.092 178.104C146.092 176.28 144.964 175.128 143.22 175.128ZM155.219 176.848C154.763 175.728 153.611 175.12 152.035 175.12C150.131 175.12 148.915 176.016 148.515 177.56L149.659 177.896C149.987 176.744 150.835 176.232 152.019 176.232C153.659 176.232 154.307 176.984 154.323 178.544C153.171 178.704 151.555 178.888 150.387 179.168C149.099 179.512 148.187 180.264 148.187 181.68C148.187 183.056 149.179 184.24 151.139 184.24C152.611 184.24 153.755 183.664 154.427 182.568V184H155.475V178.632C155.475 177.992 155.427 177.352 155.219 176.848ZM151.275 183.224C149.883 183.224 149.363 182.432 149.363 181.68C149.363 180.744 150.123 180.328 150.859 180.112C151.811 179.848 153.171 179.712 154.307 179.576C154.307 179.968 154.291 180.528 154.195 180.952C153.971 182.256 152.923 183.224 151.275 183.224ZM162.762 176.368V175.36H160.114V172.96H158.946V175.36H157.098V176.368H158.946V180.872C158.946 181.72 158.906 182.336 159.218 182.968C159.786 184.12 161.298 184.304 162.762 184V182.968C161.522 183.168 160.674 183.096 160.29 182.376C160.082 182.008 160.114 181.552 160.114 180.824V176.368H162.762ZM165.708 173.872C166.172 173.872 166.532 173.52 166.532 173.064C166.532 172.6 166.172 172.248 165.708 172.248C165.244 172.248 164.892 172.6 164.892 173.064C164.892 173.52 165.244 173.872 165.708 173.872ZM166.3 184V175.36H165.124V184H166.3ZM172.806 184.24C175.366 184.24 176.902 182.392 176.902 179.672C176.902 177 175.398 175.12 172.806 175.12C170.278 175.12 168.718 176.952 168.718 179.672C168.718 182.352 170.23 184.24 172.806 184.24ZM172.806 183.112C170.934 183.112 169.966 181.752 169.966 179.672C169.966 177.656 170.87 176.248 172.806 176.248C174.71 176.248 175.654 177.592 175.654 179.672C175.654 181.712 174.726 183.112 172.806 183.112ZM183.127 175.144C181.887 175.144 180.863 175.624 180.223 176.56V175.36H179.159V184H180.343V179.392C180.343 177.44 181.239 176.264 182.903 176.264C184.711 176.264 185.407 177.688 185.407 179.592V184H186.591V179.248C186.591 177.304 185.719 175.144 183.127 175.144Z" fill="white"/>
<circle cx="34" cy="226" r="10" fill="white"/>
<path d="M30.25 226.625L33.25 228.5L37.75 223.5" stroke="#1BD47B" stroke-width="1.25" stroke-linecap="round" stroke-linejoin="round"/>
<path d="M59.784 232.24C62.456 232.24 64.176 230.76 64.808 228.456L63.608 228.144C63.12 229.96 61.848 231.112 59.784 231.112C57.08 231.112 55.704 229.12 55.72 226.24C55.744 223.36 57.08 221.368 59.784 221.368C61.848 221.368 63.12 222.52 63.608 224.336L64.808 224.024C64.176 221.72 62.456 220.24 59.784 220.24C56.344 220.24 54.48 222.696 54.48 226.24C54.48 229.784 56.344 232.24 59.784 232.24ZM70.6811 232.24C73.2411 232.24 74.7771 230.392 74.7771 227.672C74.7771 225 73.2731 223.12 70.6811 223.12C68.1531 223.12 66.5931 224.952 66.5931 227.672C66.5931 230.352 68.1051 232.24 70.6811 232.24ZM70.6811 231.112C68.8091 231.112 67.8411 229.752 67.8411 227.672C67.8411 225.656 68.7451 224.248 70.6811 224.248C72.5851 224.248 73.5291 225.592 73.5291 227.672C73.5291 229.712 72.6011 231.112 70.6811 231.112ZM85.6579 223.128C84.5059 223.128 83.5459 223.672 83.0419 224.584C82.5779 223.64 81.6579 223.128 80.5219 223.128C79.4979 223.128 78.6259 223.568 78.0899 224.272V223.36H77.0339V232H78.2179V226.424C78.2179 225.072 79.0179 224.184 80.2179 224.184C81.4099 224.184 82.2099 225.032 82.2099 226.408L82.2019 232H83.3619L83.3699 226.424C83.3699 224.816 84.4019 224.184 85.3859 224.184C86.5219 224.184 87.3539 224.992 87.3539 226.328L87.3459 232H88.5219L88.5299 226.104C88.5299 224.28 87.4019 223.128 85.6579 223.128ZM95.0324 223.12C93.7524 223.12 92.7844 223.656 92.1524 224.552V223.36H91.0964V235.84H92.2804V230.968C92.9044 231.76 93.8164 232.24 94.9844 232.24C97.4084 232.24 98.8164 230.264 98.8164 227.672C98.8164 225.096 97.4004 223.12 95.0324 223.12ZM94.8644 231.144C93.0244 231.144 92.1524 229.672 92.1524 227.672C92.1524 225.64 93.0404 224.216 94.8404 224.216C96.6964 224.216 97.5684 225.72 97.5684 227.672C97.5684 229.64 96.6644 231.144 94.8644 231.144ZM107.625 224.848C107.169 223.728 106.017 223.12 104.441 223.12C102.537 223.12 101.321 224.016 100.921 225.56L102.065 225.896C102.393 224.744 103.241 224.232 104.425 224.232C106.065 224.232 106.713 224.984 106.729 226.544C105.577 226.704 103.961 226.888 102.793 227.168C101.505 227.512 100.593 228.264 100.593 229.68C100.593 231.056 101.585 232.24 103.545 232.24C105.017 232.24 106.161 231.664 106.833 230.568V232H107.881V226.632C107.881 225.992 107.833 225.352 107.625 224.848ZM103.681 231.224C102.289 231.224 101.769 230.432 101.769 229.68C101.769 228.744 102.529 228.328 103.265 228.112C104.217 227.848 105.577 227.712 106.713 227.576C106.713 227.968 106.697 228.528 106.601 228.952C106.377 230.256 105.329 231.224 103.681 231.224ZM112.192 223.928C111.944 224.12 111.704 224.4 111.52 224.728V223.36H110.464V232H111.64V227.688C111.64 226.656 111.784 225.536 112.648 224.856C113.272 224.344 114.072 224.312 114.712 224.464V223.36C113.952 223.168 112.872 223.336 112.192 223.928ZM124.157 228.008C124.245 224.96 122.741 223.12 120.181 223.12C117.685 223.12 116.093 224.888 116.093 227.72C116.093 230.456 117.709 232.24 120.229 232.24C121.901 232.24 123.301 231.384 123.989 229.872L122.893 229.448C122.357 230.528 121.413 231.112 120.181 231.112C118.461 231.112 117.445 229.984 117.349 228.008H124.157ZM120.213 224.2C121.821 224.2 122.741 225.16 122.925 227.024H117.373C117.557 225.208 118.549 224.2 120.213 224.2ZM133.36 232.232C135.48 232.232 136.768 231.24 136.768 229.608C136.768 228.272 136.024 227.656 133.64 227.048C131.6 226.536 131.112 226.216 131.112 225.528C131.112 224.712 131.96 224.168 133.184 224.192C134.48 224.216 135.384 224.84 135.552 225.856L136.752 225.64C136.576 224.136 135.152 223.12 133.2 223.12C131.248 223.12 129.92 224.112 129.92 225.584C129.92 226.792 130.64 227.36 132.984 227.992C135.176 228.584 135.544 228.824 135.544 229.624C135.544 230.568 134.736 231.16 133.424 231.16C132.08 231.16 131.104 230.536 130.856 229.552L129.656 229.752C129.952 231.312 131.336 232.232 133.36 232.232ZM143.746 224.368V223.36H141.098V220.96H139.93V223.36H138.082V224.368H139.93V228.872C139.93 229.72 139.89 230.336 140.202 230.968C140.77 232.12 142.282 232.304 143.746 232V230.968C142.506 231.168 141.658 231.096 141.274 230.376C141.066 230.008 141.098 229.552 141.098 228.824V224.368H143.746ZM149.244 232.24C151.804 232.24 153.34 230.392 153.34 227.672C153.34 225 151.836 223.12 149.244 223.12C146.716 223.12 145.156 224.952 145.156 227.672C145.156 230.352 146.668 232.24 149.244 232.24ZM149.244 231.112C147.372 231.112 146.404 229.752 146.404 227.672C146.404 225.656 147.308 224.248 149.244 224.248C151.148 224.248 152.092 225.592 152.092 227.672C152.092 229.712 151.164 231.112 149.244 231.112ZM159.188 232.24C160.9 232.24 162.164 231.416 162.812 229.88L161.628 229.528C161.196 230.568 160.356 231.112 159.188 231.112C157.332 231.112 156.396 229.752 156.372 227.68C156.396 225.664 157.276 224.248 159.188 224.248C160.316 224.248 161.252 224.848 161.66 225.88L162.812 225.512C162.332 224.032 160.94 223.12 159.196 223.12C156.612 223.12 155.156 224.96 155.124 227.68C155.156 230.344 156.572 232.24 159.188 232.24ZM171.74 232L167.716 227.024L171.532 223.36H170.068L166.092 227.12V220.48H164.964L164.956 232H166.092V228.584L166.916 227.792L170.34 232H171.74ZM176.469 232.232C178.589 232.232 179.877 231.24 179.877 229.608C179.877 228.272 179.133 227.656 176.749 227.048C174.709 226.536 174.221 226.216 174.221 225.528C174.221 224.712 175.069 224.168 176.293 224.192C177.589 224.216 178.493 224.84 178.661 225.856L179.861 225.64C179.685 224.136 178.261 223.12 176.309 223.12C174.357 223.12 173.029 224.112 173.029 225.584C173.029 226.792 173.749 227.36 176.093 227.992C178.285 228.584 178.653 228.824 178.653 229.624C178.653 230.568 177.845 231.16 176.533 231.16C175.189 231.16 174.213 230.536 173.965 229.552L172.765 229.752C173.061 231.312 174.445 232.232 176.469 232.232Z" fill="white"/>
<circle cx="34" cy="274" r="10" fill="white"/>
<path d="M30.25 274.625L33.25 276.5L37.75 271.5" stroke="#1BD47B" stroke-width="1.25" stroke-linecap="round" stroke-linejoin="round"/>
<path d="M54.32 280H55.544L56.512 277.208H61.624L62.592 280H63.816L59.848 268.48H58.288L54.32 280ZM59.056 269.8L61.24 276.104H56.888L59.056 269.8ZM67.0966 280V268.48H65.9206V280H67.0966ZM77.6261 271.12C76.3461 271.12 75.3781 271.656 74.7461 272.552V271.36H73.6901V283.84H74.8741V278.968C75.4981 279.76 76.4101 280.24 77.5781 280.24C80.0021 280.24 81.4101 278.264 81.4101 275.672C81.4101 273.096 79.9941 271.12 77.6261 271.12ZM77.4581 279.144C75.6181 279.144 74.7461 277.672 74.7461 275.672C74.7461 273.64 75.6341 272.216 77.4341 272.216C79.2901 272.216 80.1621 273.72 80.1621 275.672C80.1621 277.64 79.2581 279.144 77.4581 279.144ZM85.3949 271.928C85.1469 272.12 84.9069 272.4 84.7229 272.728V271.36H83.6669V280H84.8429V275.688C84.8429 274.656 84.9869 273.536 85.8509 272.856C86.4749 272.344 87.2749 272.312 87.9149 272.464V271.36C87.1549 271.168 86.0749 271.336 85.3949 271.928ZM97.3603 276.008C97.4483 272.96 95.9443 271.12 93.3843 271.12C90.8883 271.12 89.2963 272.888 89.2963 275.72C89.2963 278.456 90.9123 280.24 93.4323 280.24C95.1043 280.24 96.5043 279.384 97.1923 277.872L96.0963 277.448C95.5603 278.528 94.6163 279.112 93.3843 279.112C91.6643 279.112 90.6483 277.984 90.5523 276.008H97.3603ZM93.4163 272.2C95.0243 272.2 95.9443 273.16 96.1283 275.024H90.5763C90.7603 273.208 91.7523 272.2 93.4163 272.2ZM105.692 272.376C105.06 271.592 104.14 271.12 102.94 271.12C100.572 271.12 99.1556 273.096 99.1556 275.672C99.1556 278.264 100.564 280.24 102.988 280.24C104.244 280.24 105.196 279.688 105.82 278.792V280H106.876V268.48H105.692V272.376ZM103.108 279.144C101.308 279.144 100.404 277.64 100.404 275.672C100.404 273.72 101.276 272.216 103.132 272.216C104.932 272.216 105.82 273.64 105.82 275.672C105.82 277.672 104.948 279.144 103.108 279.144ZM110.364 269.872C110.828 269.872 111.188 269.52 111.188 269.064C111.188 268.6 110.828 268.248 110.364 268.248C109.9 268.248 109.548 268.6 109.548 269.064C109.548 269.52 109.9 269.872 110.364 269.872ZM110.956 280V271.36H109.78V280H110.956ZM117.438 280.24C119.15 280.24 120.414 279.416 121.062 277.88L119.878 277.528C119.446 278.568 118.606 279.112 117.438 279.112C115.582 279.112 114.646 277.752 114.622 275.68C114.646 273.664 115.526 272.248 117.438 272.248C118.566 272.248 119.502 272.848 119.91 273.88L121.062 273.512C120.582 272.032 119.19 271.12 117.446 271.12C114.862 271.12 113.406 272.96 113.374 275.68C113.406 278.344 114.822 280.24 117.438 280.24ZM127.918 272.368V271.36H125.27V268.96H124.102V271.36H122.254V272.368H124.102V276.872C124.102 277.72 124.062 278.336 124.374 278.968C124.942 280.12 126.454 280.304 127.918 280V278.968C126.678 279.168 125.83 279.096 125.446 278.376C125.238 278.008 125.27 277.552 125.27 276.824V272.368H127.918ZM130.864 269.872C131.328 269.872 131.688 269.52 131.688 269.064C131.688 268.6 131.328 268.248 130.864 268.248C130.4 268.248 130.048 268.6 130.048 269.064C130.048 269.52 130.4 269.872 130.864 269.872ZM131.456 280V271.36H130.28V280H131.456ZM137.962 280.24C140.522 280.24 142.058 278.392 142.058 275.672C142.058 273 140.554 271.12 137.962 271.12C135.434 271.12 133.874 272.952 133.874 275.672C133.874 278.352 135.386 280.24 137.962 280.24ZM137.962 279.112C136.09 279.112 135.122 277.752 135.122 275.672C135.122 273.656 136.026 272.248 137.962 272.248C139.866 272.248 140.81 273.592 140.81 275.672C140.81 277.712 139.882 279.112 137.962 279.112ZM148.283 271.144C147.043 271.144 146.019 271.624 145.379 272.56V271.36H144.315V280H145.499V275.392C145.499 273.44 146.395 272.264 148.059 272.264C149.867 272.264 150.563 273.688 150.563 275.592V280H151.747V275.248C151.747 273.304 150.875 271.144 148.283 271.144ZM157.547 280.232C159.667 280.232 160.955 279.24 160.955 277.608C160.955 276.272 160.211 275.656 157.827 275.048C155.787 274.536 155.299 274.216 155.299 273.528C155.299 272.712 156.147 272.168 157.371 272.192C158.667 272.216 159.571 272.84 159.739 273.856L160.939 273.64C160.763 272.136 159.339 271.12 157.387 271.12C155.435 271.12 154.107 272.112 154.107 273.584C154.107 274.792 154.827 275.36 157.171 275.992C159.363 276.584 159.731 276.824 159.731 277.624C159.731 278.568 158.923 279.16 157.611 279.16C156.267 279.16 155.291 278.536 155.043 277.552L153.843 277.752C154.139 279.312 155.523 280.232 157.547 280.232Z" fill="white"/>
<circle cx="490" cy="182" r="10" fill="white"/>
<path d="M486.25 182.625L489.25 184.5L493.75 179.5" stroke="#1BD47B" stroke-width="1.25" stroke-linecap="round" stroke-linejoin="round"/>
<path d="M512.296 188V183.624H515.568C515.784 183.624 516.088 183.608 516.376 183.56C518.168 183.288 519.184 181.848 519.184 180.056C519.184 178.256 518.176 176.824 516.376 176.544C516.088 176.496 515.792 176.48 515.568 176.48H511.12V188H512.296ZM512.296 177.608H515.536C515.728 177.608 516.008 177.624 516.248 177.672C517.432 177.928 517.976 178.984 517.976 180.056C517.976 181.128 517.432 182.184 516.248 182.432C516.008 182.488 515.728 182.504 515.536 182.504H512.296V177.608ZM523.004 179.928C522.756 180.12 522.516 180.4 522.332 180.728V179.36H521.276V188H522.452V183.688C522.452 182.656 522.596 181.536 523.46 180.856C524.084 180.344 524.884 180.312 525.524 180.464V179.36C524.764 179.168 523.684 179.336 523.004 179.928ZM528.286 177.872C528.75 177.872 529.11 177.52 529.11 177.064C529.11 176.6 528.75 176.248 528.286 176.248C527.822 176.248 527.47 176.6 527.47 177.064C527.47 177.52 527.822 177.872 528.286 177.872ZM528.878 188V179.36H527.702V188H528.878ZM535.36 188.24C537.072 188.24 538.336 187.416 538.984 185.88L537.8 185.528C537.368 186.568 536.528 187.112 535.36 187.112C533.504 187.112 532.568 185.752 532.544 183.68C532.568 181.664 533.448 180.248 535.36 180.248C536.488 180.248 537.424 180.848 537.832 181.88L538.984 181.512C538.504 180.032 537.112 179.12 535.368 179.12C532.784 179.12 531.328 180.96 531.296 183.68C531.328 186.344 532.744 188.24 535.36 188.24ZM548.485 184.008C548.573 180.96 547.069 179.12 544.509 179.12C542.013 179.12 540.421 180.888 540.421 183.72C540.421 186.456 542.037 188.24 544.557 188.24C546.229 188.24 547.629 187.384 548.317 185.872L547.221 185.448C546.685 186.528 545.741 187.112 544.509 187.112C542.789 187.112 541.773 185.984 541.677 184.008H548.485ZM544.541 180.2C546.149 180.2 547.069 181.16 547.253 183.024H541.701C541.885 181.208 542.877 180.2 544.541 180.2ZM561.016 180.848C560.56 179.728 559.408 179.12 557.832 179.12C555.928 179.12 554.712 180.016 554.312 181.56L555.456 181.896C555.784 180.744 556.632 180.232 557.816 180.232C559.456 180.232 560.104 180.984 560.12 182.544C558.968 182.704 557.352 182.888 556.184 183.168C554.896 183.512 553.984 184.264 553.984 185.68C553.984 187.056 554.976 188.24 556.936 188.24C558.408 188.24 559.552 187.664 560.224 186.568V188H561.272V182.632C561.272 181.992 561.224 181.352 561.016 180.848ZM557.072 187.224C555.68 187.224 555.16 186.432 555.16 185.68C555.16 184.744 555.92 184.328 556.656 184.112C557.608 183.848 558.968 183.712 560.104 183.576C560.104 183.968 560.088 184.528 559.992 184.952C559.768 186.256 558.72 187.224 557.072 187.224ZM565.19 188V176.24H564.014V188H565.19ZM575.673 184.008C575.761 180.96 574.257 179.12 571.697 179.12C569.201 179.12 567.609 180.888 567.609 183.72C567.609 186.456 569.225 188.24 571.745 188.24C573.417 188.24 574.817 187.384 575.505 185.872L574.409 185.448C573.873 186.528 572.929 187.112 571.697 187.112C569.977 187.112 568.961 185.984 568.865 184.008H575.673ZM571.729 180.2C573.337 180.2 574.257 181.16 574.441 183.024H568.889C569.073 181.208 570.065 180.2 571.729 180.2ZM579.676 179.928C579.428 180.12 579.188 180.4 579.004 180.728V179.36H577.948V188H579.124V183.688C579.124 182.656 579.268 181.536 580.132 180.856C580.756 180.344 581.556 180.312 582.196 180.464V179.36C581.436 179.168 580.356 179.336 579.676 179.928ZM588.918 180.368V179.36H586.27V176.96H585.102V179.36H583.254V180.368H585.102V184.872C585.102 185.72 585.062 186.336 585.374 186.968C585.942 188.12 587.454 188.304 588.918 188V186.968C587.678 187.168 586.83 187.096 586.446 186.376C586.238 186.008 586.27 185.552 586.27 184.824V180.368H588.918ZM594.344 188.232C596.464 188.232 597.752 187.24 597.752 185.608C597.752 184.272 597.008 183.656 594.624 183.048C592.584 182.536 592.096 182.216 592.096 181.528C592.096 180.712 592.944 180.168 594.168 180.192C595.464 180.216 596.368 180.84 596.536 181.856L597.736 181.64C597.56 180.136 596.136 179.12 594.184 179.12C592.232 179.12 590.904 180.112 590.904 181.584C590.904 182.792 591.624 183.36 593.968 183.992C596.16 184.584 596.528 184.824 596.528 185.624C596.528 186.568 595.72 187.16 594.408 187.16C593.064 187.16 592.088 186.536 591.84 185.552L590.64 185.752C590.936 187.312 592.32 188.232 594.344 188.232Z" fill="white"/>
<circle cx="490" cy="226" r="10" fill="white"/>
<path d="M486.25 226.625L489.25 228.5L493.75 223.5" stroke="#1BD47B" stroke-width="1.25" stroke-linecap="round" stroke-linejoin="round"/>
<path d="M510.32 232H511.544L512.512 229.208H517.624L518.592 232H519.816L515.848 220.48H514.288L510.32 232ZM515.056 221.8L517.24 228.104H512.888L515.056 221.8ZM527.849 227.968C527.849 229.92 526.953 231.096 525.289 231.096C523.481 231.096 522.785 229.672 522.785 227.768V223.36H521.601V228.112C521.601 230.056 522.473 232.216 525.065 232.216C526.305 232.216 527.329 231.736 527.969 230.8V232H529.025V223.36H527.849V227.968ZM536.465 224.368V223.36H533.817V220.96H532.649V223.36H530.801V224.368H532.649V228.872C532.649 229.72 532.609 230.336 532.921 230.968C533.489 232.12 535.001 232.304 536.465 232V230.968C535.225 231.168 534.377 231.096 533.993 230.376C533.785 230.008 533.817 229.552 533.817 228.824V224.368H536.465ZM541.962 232.24C544.522 232.24 546.058 230.392 546.058 227.672C546.058 225 544.554 223.12 541.962 223.12C539.434 223.12 537.874 224.952 537.874 227.672C537.874 230.352 539.386 232.24 541.962 232.24ZM541.962 231.112C540.09 231.112 539.122 229.752 539.122 227.672C539.122 225.656 540.026 224.248 541.962 224.248C543.866 224.248 544.81 225.592 544.81 227.672C544.81 229.712 543.882 231.112 541.962 231.112ZM555.25 232.232C557.37 232.232 558.658 231.24 558.658 229.608C558.658 228.272 557.914 227.656 555.53 227.048C553.49 226.536 553.002 226.216 553.002 225.528C553.002 224.712 553.85 224.168 555.074 224.192C556.37 224.216 557.274 224.84 557.442 225.856L558.642 225.64C558.466 224.136 557.042 223.12 555.09 223.12C553.138 223.12 551.81 224.112 551.81 225.584C551.81 226.792 552.53 227.36 554.874 227.992C557.066 228.584 557.434 228.824 557.434 229.624C557.434 230.568 556.626 231.16 555.314 231.16C553.97 231.16 552.994 230.536 552.746 229.552L551.546 229.752C551.842 231.312 553.226 232.232 555.25 232.232ZM565.637 224.368V223.36H562.989V220.96H561.821V223.36H559.973V224.368H561.821V228.872C561.821 229.72 561.781 230.336 562.093 230.968C562.661 232.12 564.173 232.304 565.637 232V230.968C564.397 231.168 563.549 231.096 563.165 230.376C562.957 230.008 562.989 229.552 562.989 228.824V224.368H565.637ZM571.134 232.24C573.694 232.24 575.23 230.392 575.23 227.672C575.23 225 573.726 223.12 571.134 223.12C568.606 223.12 567.046 224.952 567.046 227.672C567.046 230.352 568.558 232.24 571.134 232.24ZM571.134 231.112C569.262 231.112 568.294 229.752 568.294 227.672C568.294 225.656 569.198 224.248 571.134 224.248C573.038 224.248 573.982 225.592 573.982 227.672C573.982 229.712 573.054 231.112 571.134 231.112ZM581.079 232.24C582.791 232.24 584.055 231.416 584.703 229.88L583.519 229.528C583.087 230.568 582.247 231.112 581.079 231.112C579.223 231.112 578.287 229.752 578.263 227.68C578.287 225.664 579.167 224.248 581.079 224.248C582.207 224.248 583.143 224.848 583.551 225.88L584.703 225.512C584.223 224.032 582.831 223.12 581.087 223.12C578.503 223.12 577.047 224.96 577.015 227.68C577.047 230.344 578.463 232.24 581.079 232.24ZM593.63 232L589.606 227.024L593.422 223.36H591.958L587.982 227.12V220.48H586.854L586.846 232H587.982V228.584L588.806 227.792L592.23 232H593.63ZM598.36 232.232C600.48 232.232 601.768 231.24 601.768 229.608C601.768 228.272 601.024 227.656 598.64 227.048C596.6 226.536 596.112 226.216 596.112 225.528C596.112 224.712 596.96 224.168 598.184 224.192C599.48 224.216 600.384 224.84 600.552 225.856L601.752 225.64C601.576 224.136 600.152 223.12 598.2 223.12C596.248 223.12 594.92 224.112 594.92 225.584C594.92 226.792 595.64 227.36 597.984 227.992C600.176 228.584 600.544 228.824 600.544 229.624C600.544 230.568 599.736 231.16 598.424 231.16C597.08 231.16 596.104 230.536 595.856 229.552L594.656 229.752C594.952 231.312 596.336 232.232 598.36 232.232ZM611.329 232.24C613.041 232.24 614.305 231.416 614.953 229.88L613.769 229.528C613.337 230.568 612.497 231.112 611.329 231.112C609.473 231.112 608.537 229.752 608.513 227.68C608.537 225.664 609.417 224.248 611.329 224.248C612.457 224.248 613.393 224.848 613.801 225.88L614.953 225.512C614.473 224.032 613.081 223.12 611.337 223.12C608.753 223.12 607.297 224.96 607.265 227.68C607.297 230.344 608.713 232.24 611.329 232.24ZM623.594 224.848C623.138 223.728 621.986 223.12 620.41 223.12C618.506 223.12 617.29 224.016 616.89 225.56L618.034 225.896C618.362 224.744 619.21 224.232 620.394 224.232C622.034 224.232 622.682 224.984 622.698 226.544C621.546 226.704 619.93 226.888 618.762 227.168C617.474 227.512 616.562 228.264 616.562 229.68C616.562 231.056 617.554 232.24 619.514 232.24C620.986 232.24 622.13 231.664 622.802 230.568V232H623.85V226.632C623.85 225.992 623.802 225.352 623.594 224.848ZM619.65 231.224C618.258 231.224 617.738 230.432 617.738 229.68C617.738 228.744 618.498 228.328 619.234 228.112C620.186 227.848 621.546 227.712 622.682 227.576C622.682 227.968 622.666 228.528 622.57 228.952C622.346 230.256 621.298 231.224 619.65 231.224ZM627.769 232V220.24H626.593V232H627.769ZM634.251 232.24C635.963 232.24 637.227 231.416 637.875 229.88L636.691 229.528C636.259 230.568 635.419 231.112 634.251 231.112C632.395 231.112 631.459 229.752 631.435 227.68C631.459 225.664 632.339 224.248 634.251 224.248C635.379 224.248 636.315 224.848 636.723 225.88L637.875 225.512C637.395 224.032 636.003 223.12 634.259 223.12C631.675 223.12 630.219 224.96 630.187 227.68C630.219 230.344 631.635 232.24 634.251 232.24ZM646.114 227.968C646.114 229.92 645.218 231.096 643.554 231.096C641.746 231.096 641.05 229.672 641.05 227.768V223.36H639.866V228.112C639.866 230.056 640.738 232.216 643.33 232.216C644.57 232.216 645.594 231.736 646.234 230.8V232H647.29V223.36H646.114V227.968ZM651.362 232V220.24H650.186V232H651.362ZM660.813 224.848C660.357 223.728 659.205 223.12 657.629 223.12C655.725 223.12 654.509 224.016 654.109 225.56L655.253 225.896C655.581 224.744 656.429 224.232 657.613 224.232C659.253 224.232 659.901 224.984 659.917 226.544C658.765 226.704 657.149 226.888 655.981 227.168C654.693 227.512 653.781 228.264 653.781 229.68C653.781 231.056 654.773 232.24 656.733 232.24C658.205 232.24 659.349 231.664 660.021 230.568V232H661.069V226.632C661.069 225.992 661.021 225.352 660.813 224.848ZM656.869 231.224C655.477 231.224 654.957 230.432 654.957 229.68C654.957 228.744 655.717 228.328 656.453 228.112C657.405 227.848 658.765 227.712 659.901 227.576C659.901 227.968 659.885 228.528 659.789 228.952C659.565 230.256 658.517 231.224 656.869 231.224ZM668.355 224.368V223.36H665.707V220.96H664.539V223.36H662.691V224.368H664.539V228.872C664.539 229.72 664.499 230.336 664.811 230.968C665.379 232.12 666.891 232.304 668.355 232V230.968C667.115 231.168 666.267 231.096 665.883 230.376C665.675 230.008 665.707 229.552 665.707 228.824V224.368H668.355ZM673.853 232.24C676.413 232.24 677.949 230.392 677.949 227.672C677.949 225 676.445 223.12 673.853 223.12C671.325 223.12 669.765 224.952 669.765 227.672C669.765 230.352 671.277 232.24 673.853 232.24ZM673.853 231.112C671.981 231.112 671.013 229.752 671.013 227.672C671.013 225.656 671.917 224.248 673.853 224.248C675.757 224.248 676.701 225.592 676.701 227.672C676.701 229.712 675.773 231.112 673.853 231.112ZM681.942 223.928C681.694 224.12 681.454 224.4 681.27 224.728V223.36H680.214V232H681.39V227.688C681.39 226.656 681.534 225.536 682.398 224.856C683.022 224.344 683.822 224.312 684.462 224.464V223.36C683.702 223.168 682.622 223.336 681.942 223.928Z" fill="white"/>
<circle cx="490" cy="270" r="10" fill="white"/>
<path d="M486.25 270.625L489.25 272.5L493.75 267.5" stroke="#1BD47B" stroke-width="1.25" stroke-linecap="round" stroke-linejoin="round"/>
<path d="M510.32 276H511.544L512.512 273.208H517.624L518.592 276H519.816L515.848 264.48H514.288L510.32 276ZM515.056 265.8L517.24 272.104H512.888L515.056 265.8ZM525.721 267.144C524.481 267.144 523.457 267.624 522.817 268.56V267.36H521.753V276H522.937V271.392C522.937 269.44 523.833 268.264 525.497 268.264C527.305 268.264 528.001 269.688 528.001 271.592V276H529.185V271.248C529.185 269.304 528.313 267.144 525.721 267.144ZM538.313 268.848C537.857 267.728 536.705 267.12 535.129 267.12C533.225 267.12 532.009 268.016 531.609 269.56L532.753 269.896C533.081 268.744 533.929 268.232 535.113 268.232C536.753 268.232 537.401 268.984 537.417 270.544C536.265 270.704 534.649 270.888 533.481 271.168C532.193 271.512 531.281 272.264 531.281 273.68C531.281 275.056 532.273 276.24 534.233 276.24C535.705 276.24 536.849 275.664 537.521 274.568V276H538.569V270.632C538.569 269.992 538.521 269.352 538.313 268.848ZM534.369 275.224C532.977 275.224 532.457 274.432 532.457 273.68C532.457 272.744 533.217 272.328 533.953 272.112C534.905 271.848 536.265 271.712 537.401 271.576C537.401 271.968 537.385 272.528 537.289 272.952C537.065 274.256 536.017 275.224 534.369 275.224ZM542.487 276V264.24H541.311V276H542.487ZM545.778 267.36H544.53L548.042 275.984L546.618 279.84H547.794L552.434 267.36H551.234L548.61 274.464L545.778 267.36ZM559.668 268.368V267.36H557.02V264.96H555.852V267.36H554.004V268.368H555.852V272.872C555.852 273.72 555.812 274.336 556.124 274.968C556.692 276.12 558.204 276.304 559.668 276V274.968C558.428 275.168 557.58 275.096 557.196 274.376C556.988 274.008 557.02 273.552 557.02 272.824V268.368H559.668ZM562.614 265.872C563.078 265.872 563.438 265.52 563.438 265.064C563.438 264.6 563.078 264.248 562.614 264.248C562.15 264.248 561.798 264.6 561.798 265.064C561.798 265.52 562.15 265.872 562.614 265.872ZM563.206 276V267.36H562.03V276H563.206ZM569.688 276.24C571.4 276.24 572.664 275.416 573.312 273.88L572.128 273.528C571.696 274.568 570.856 275.112 569.688 275.112C567.832 275.112 566.896 273.752 566.872 271.68C566.896 269.664 567.776 268.248 569.688 268.248C570.816 268.248 571.752 268.848 572.16 269.88L573.312 269.512C572.832 268.032 571.44 267.12 569.696 267.12C567.112 267.12 565.656 268.96 565.624 271.68C565.656 274.344 567.072 276.24 569.688 276.24ZM578.688 276.232C580.808 276.232 582.096 275.24 582.096 273.608C582.096 272.272 581.352 271.656 578.968 271.048C576.928 270.536 576.44 270.216 576.44 269.528C576.44 268.712 577.288 268.168 578.512 268.192C579.808 268.216 580.712 268.84 580.88 269.856L582.08 269.64C581.904 268.136 580.48 267.12 578.528 267.12C576.576 267.12 575.248 268.112 575.248 269.584C575.248 270.792 575.968 271.36 578.312 271.992C580.504 272.584 580.872 272.824 580.872 273.624C580.872 274.568 580.064 275.16 578.752 275.16C577.408 275.16 576.432 274.536 576.184 273.552L574.984 273.752C575.28 275.312 576.664 276.232 578.688 276.232Z" fill="white"/>
</svg>
