<svg width="24" height="25" viewBox="0 0 24 25" fill="none" xmlns="http://www.w3.org/2000/svg">
<path d="M12.1605 11.12C12.0605 11.11 11.9405 11.11 11.8305 11.12C9.45055 11.04 7.56055 9.09 7.56055 6.69C7.56055 4.24 9.54055 2.25 12.0005 2.25C14.4505 2.25 16.4405 4.24 16.4405 6.69C16.4305 9.09 14.5405 11.04 12.1605 11.12Z" stroke="#292D32" stroke-width="1.5" stroke-linecap="round" stroke-linejoin="round"/>
<path d="M7.1607 14.81C4.7407 16.43 4.7407 19.07 7.1607 20.68C9.9107 22.52 14.4207 22.52 17.1707 20.68C19.5907 19.06 19.5907 16.42 17.1707 14.81C14.4307 12.98 9.9207 12.98 7.1607 14.81Z" stroke="#292D32" stroke-width="1.5" stroke-linecap="round" stroke-linejoin="round"/>
</svg>
