<svg width="921" height="310" viewBox="0 0 921 310" fill="none" xmlns="http://www.w3.org/2000/svg">
<rect width="921" height="310" rx="8" fill="#1BD47B"/>
<path d="M36.8 64.6C42.82 64.6 47.32 61.5 47.32 56.14C47.32 50.68 42.66 49.26 40.32 48.6L34.68 46.94C32.44 46.3 29.56 45.32 29.56 42.4C29.56 39.54 32.42 37.4 36.28 37.42C40.3 37.46 43.5 39.84 44.08 43.58L47.16 43.02C46.22 37.84 42.06 34.64 36.3 34.62C30.62 34.6 26.46 37.66 26.46 42.52C26.46 46.38 29.08 48.38 32.6 49.42L39.9 51.6C41.9 52.2 44.32 53.3 44.32 56.26C44.32 59.66 41.18 61.78 36.92 61.78C32.62 61.78 29.3 59.54 28.34 55.8L25.34 56.3C26.32 61.42 30.78 64.6 36.8 64.6ZM63.2084 44.92V42.4H56.5884V36.4H53.6684V42.4H49.0484V44.92H53.6684V56.18C53.6684 58.3 53.5684 59.84 54.3484 61.42C55.7684 64.3 59.5484 64.76 63.2084 64V61.42C60.1084 61.92 57.9884 61.74 57.0284 59.94C56.5084 59.02 56.5884 57.88 56.5884 56.06V44.92H63.2084ZM83.8441 46.12C82.7041 43.32 79.8241 41.8 75.8841 41.8C71.1241 41.8 68.0841 44.04 67.0841 47.9L69.9441 48.74C70.7641 45.86 72.8841 44.58 75.8441 44.58C79.9441 44.58 81.5641 46.46 81.6041 50.36C78.7241 50.76 74.6841 51.22 71.7641 51.92C68.5441 52.78 66.2641 54.66 66.2641 58.2C66.2641 61.64 68.7441 64.6 73.6441 64.6C77.3241 64.6 80.1841 63.16 81.8641 60.42V64H84.4841V50.58C84.4841 48.98 84.3641 47.38 83.8441 46.12ZM73.9841 62.06C70.5041 62.06 69.2041 60.08 69.2041 58.2C69.2041 55.86 71.1041 54.82 72.9441 54.28C75.3241 53.62 78.7241 53.28 81.5641 52.94C81.5641 53.92 81.5241 55.32 81.2841 56.38C80.7241 59.64 78.1041 62.06 73.9841 62.06ZM99.5906 41.86C96.4906 41.86 93.9306 43.06 92.3306 45.4V42.4H89.6706V64H92.6306V52.48C92.6306 47.6 94.8706 44.66 99.0306 44.66C103.551 44.66 105.291 48.22 105.291 52.98V64H108.251V52.12C108.251 47.26 106.071 41.86 99.5906 41.86ZM128.424 44.94C126.844 42.98 124.544 41.8 121.544 41.8C115.624 41.8 112.084 46.74 112.084 53.18C112.084 59.66 115.604 64.6 121.664 64.6C124.804 64.6 127.184 63.22 128.744 60.98V64H131.384V35.2H128.424V44.94ZM121.964 61.86C117.464 61.86 115.204 58.1 115.204 53.18C115.204 48.3 117.384 44.54 122.024 44.54C126.524 44.54 128.744 48.1 128.744 53.18C128.744 58.18 126.564 61.86 121.964 61.86ZM153.375 46.12C152.235 43.32 149.355 41.8 145.415 41.8C140.655 41.8 137.615 44.04 136.615 47.9L139.475 48.74C140.295 45.86 142.415 44.58 145.375 44.58C149.475 44.58 151.095 46.46 151.135 50.36C148.255 50.76 144.215 51.22 141.295 51.92C138.075 52.78 135.795 54.66 135.795 58.2C135.795 61.64 138.275 64.6 143.175 64.6C146.855 64.6 149.715 63.16 151.395 60.42V64H154.015V50.58C154.015 48.98 153.895 47.38 153.375 46.12ZM143.515 62.06C140.035 62.06 138.735 60.08 138.735 58.2C138.735 55.86 140.635 54.82 142.475 54.28C144.855 53.62 148.255 53.28 151.095 52.94C151.095 53.92 151.055 55.32 150.815 56.38C150.255 59.64 147.635 62.06 143.515 62.06ZM163.542 43.82C162.922 44.3 162.322 45 161.862 45.82V42.4H159.222V64H162.162V53.22C162.162 50.64 162.522 47.84 164.682 46.14C166.242 44.86 168.242 44.78 169.842 45.16V42.4C167.942 41.92 165.242 42.34 163.542 43.82ZM188.385 44.94C186.805 42.98 184.505 41.8 181.505 41.8C175.585 41.8 172.045 46.74 172.045 53.18C172.045 59.66 175.565 64.6 181.625 64.6C184.765 64.6 187.145 63.22 188.705 60.98V64H191.345V35.2H188.385V44.94ZM181.925 61.86C177.425 61.86 175.165 58.1 175.165 53.18C175.165 48.3 177.345 44.54 181.985 44.54C186.485 44.54 188.705 48.1 188.705 53.18C188.705 58.18 186.525 61.86 181.925 61.86Z" fill="white"/>
<path d="M26.792 112V107.08H30.984V105.4H26.792V102.152H31.944V100.48H25.12V112H26.792ZM37.4033 112.24C39.9793 112.24 41.6433 110.376 41.6433 107.672C41.6433 105 39.9953 103.12 37.4033 103.12C34.8593 103.12 33.1713 104.968 33.1713 107.672C33.1713 110.352 34.8113 112.24 37.4033 112.24ZM37.4033 110.664C35.7873 110.664 34.9473 109.496 34.9473 107.672C34.9473 105.912 35.7233 104.696 37.4033 104.696C39.0353 104.696 39.8673 105.864 39.8673 107.672C39.8673 109.44 39.0513 110.664 37.4033 110.664ZM46.1893 103.848C45.8613 104.064 45.5893 104.376 45.3893 104.736V103.36H43.9013V112H45.5893V107.64C45.5893 106.624 45.8613 105.712 46.6773 105.192C47.2533 104.824 48.0053 104.776 48.5653 104.928V103.36C47.7893 103.216 46.8373 103.368 46.1893 103.848ZM58.3159 103.12C57.2439 103.12 56.3879 103.496 55.7719 104.136V103.36H54.2839V115.84H55.9639V111.392C56.5719 111.928 57.3639 112.24 58.3479 112.24C60.7559 112.24 62.2599 110.264 62.2599 107.672C62.2599 105.064 60.7479 103.12 58.3159 103.12ZM58.1159 110.728C56.4679 110.728 55.7719 109.464 55.7719 107.672C55.7719 105.88 56.4839 104.632 58.0599 104.632C59.7239 104.632 60.4839 105.976 60.4839 107.672C60.4839 109.384 59.7239 110.728 58.1159 110.728ZM68.2783 112.24C70.8543 112.24 72.5183 110.376 72.5183 107.672C72.5183 105 70.8703 103.12 68.2783 103.12C65.7343 103.12 64.0463 104.968 64.0463 107.672C64.0463 110.352 65.6863 112.24 68.2783 112.24ZM68.2783 110.664C66.6623 110.664 65.8223 109.496 65.8223 107.672C65.8223 105.912 66.5983 104.696 68.2783 104.696C69.9103 104.696 70.7423 105.864 70.7423 107.672C70.7423 109.44 69.9263 110.664 68.2783 110.664ZM77.6478 112L79.6718 105.744L81.6878 112H83.0318L85.6718 103.36H84.0238L82.2158 109.288L80.3918 103.36H78.9518L77.1278 109.288L75.3198 103.36L73.6638 103.352L76.3038 112H77.6478ZM95.0439 108.152C95.2199 105.056 93.6839 103.12 91.0439 103.12C88.5159 103.12 86.8119 104.92 86.8119 107.752C86.8119 110.424 88.5399 112.24 91.1239 112.24C92.7959 112.24 94.2599 111.352 94.9319 109.808L93.2919 109.288C92.8679 110.176 92.0839 110.664 91.0439 110.664C89.5879 110.664 88.7399 109.76 88.6039 108.152H95.0439ZM91.1079 104.6C92.4359 104.6 93.1559 105.32 93.3319 106.848H88.6439C88.8599 105.384 89.6839 104.6 91.1079 104.6ZM99.6268 103.848C99.2988 104.064 99.0268 104.376 98.8268 104.736V103.36H97.3388V112H99.0268V107.64C99.0268 106.624 99.2988 105.712 100.115 105.192C100.691 104.824 101.443 104.776 102.003 104.928V103.36C101.227 103.216 100.275 103.368 99.6268 103.848ZM113.641 107.856C113.641 109.904 112.649 110.648 111.449 110.648C109.609 110.648 109.265 108.952 109.265 107.608V103.36H107.569V108.16C107.569 109.496 108.009 112.232 110.985 112.232C112.233 112.232 113.209 111.768 113.841 110.968V112H115.329V103.36H113.641V107.856ZM121.377 112.232C123.561 112.232 124.881 111.208 124.881 109.496C124.881 108.16 124.137 107.496 121.961 106.936C119.937 106.424 119.545 106.2 119.545 105.624C119.545 104.968 120.233 104.552 121.249 104.592C122.305 104.632 123.001 105.144 123.121 105.968L124.833 105.656C124.641 104.12 123.217 103.12 121.233 103.12C119.201 103.12 117.873 104.144 117.873 105.712C117.873 106.984 118.609 107.6 120.841 108.184C122.873 108.728 123.161 108.904 123.161 109.56C123.161 110.312 122.529 110.76 121.489 110.76C120.337 110.76 119.521 110.216 119.305 109.312L117.593 109.576C117.889 111.264 119.273 112.232 121.377 112.232ZM134.903 108.152C135.079 105.056 133.543 103.12 130.903 103.12C128.375 103.12 126.671 104.92 126.671 107.752C126.671 110.424 128.399 112.24 130.983 112.24C132.655 112.24 134.119 111.352 134.791 109.808L133.151 109.288C132.727 110.176 131.943 110.664 130.903 110.664C129.447 110.664 128.599 109.76 128.463 108.152H134.903ZM130.967 104.6C132.295 104.6 133.015 105.32 133.191 106.848H128.503C128.719 105.384 129.543 104.6 130.967 104.6ZM139.486 103.848C139.158 104.064 138.886 104.376 138.686 104.736V103.36H137.198V112H138.886V107.64C138.886 106.624 139.158 105.712 139.974 105.192C140.55 104.824 141.302 104.776 141.862 104.928V103.36C141.086 103.216 140.134 103.368 139.486 103.848ZM146.877 112.232C149.061 112.232 150.381 111.208 150.381 109.496C150.381 108.16 149.637 107.496 147.461 106.936C145.437 106.424 145.045 106.2 145.045 105.624C145.045 104.968 145.733 104.552 146.749 104.592C147.805 104.632 148.501 105.144 148.621 105.968L150.333 105.656C150.141 104.12 148.717 103.12 146.733 103.12C144.701 103.12 143.373 104.144 143.373 105.712C143.373 106.984 144.109 107.6 146.341 108.184C148.373 108.728 148.661 108.904 148.661 109.56C148.661 110.312 148.029 110.76 146.989 110.76C145.837 110.76 145.021 110.216 144.805 109.312L143.093 109.576C143.389 111.264 144.773 112.232 146.877 112.232Z" fill="white"/>
<path d="M623.816 68.432L629.488 77H631.184V65.48H629.488V74.04L623.816 65.48H622.12V77H623.816V68.432ZM641.669 73.152C641.845 70.056 640.309 68.12 637.669 68.12C635.141 68.12 633.437 69.92 633.437 72.752C633.437 75.424 635.165 77.24 637.749 77.24C639.421 77.24 640.885 76.352 641.557 74.808L639.917 74.288C639.493 75.176 638.709 75.664 637.669 75.664C636.213 75.664 635.365 74.76 635.229 73.152H641.669ZM637.733 69.6C639.061 69.6 639.781 70.32 639.957 71.848H635.269C635.485 70.384 636.309 69.6 637.733 69.6ZM644.683 77L646.899 73.936L649.099 77H651.091L647.851 72.632L651.011 68.36H649.027L646.899 71.328L644.747 68.36H642.763L645.923 72.632L642.691 77H644.683ZM657.814 69.704V68.36H655.246V65.96H653.566V68.36H651.91V69.704H653.566V73.6C653.566 74.544 653.51 75.24 653.886 75.952C654.518 77.152 656.19 77.32 657.814 77V75.584C656.686 75.752 655.806 75.728 655.422 75.072C655.214 74.72 655.246 74.216 655.246 73.52V69.704H657.814ZM667.863 68.12C666.791 68.12 665.935 68.496 665.319 69.136V68.36H663.831V80.84H665.511V76.392C666.119 76.928 666.911 77.24 667.895 77.24C670.303 77.24 671.807 75.264 671.807 72.672C671.807 70.064 670.295 68.12 667.863 68.12ZM667.663 75.728C666.015 75.728 665.319 74.464 665.319 72.672C665.319 70.88 666.031 69.632 667.607 69.632C669.271 69.632 670.031 70.976 670.031 72.672C670.031 74.384 669.271 75.728 667.663 75.728ZM680.801 69.768C680.265 68.632 679.065 68.12 677.521 68.12C675.521 68.12 674.321 69.064 673.905 70.544L675.465 71.024C675.761 70.064 676.593 69.664 677.505 69.664C678.857 69.664 679.401 70.224 679.457 71.416C678.057 71.608 676.633 71.792 675.633 72.088C674.297 72.512 673.593 73.344 673.593 74.648C673.593 76.056 674.601 77.24 676.513 77.24C677.913 77.24 678.913 76.76 679.625 75.744V77H681.105V71.68C681.105 70.96 681.073 70.336 680.801 69.768ZM676.809 75.872C675.737 75.872 675.249 75.304 675.249 74.632C675.249 73.952 675.753 73.584 676.441 73.352C677.169 73.136 678.137 73 679.441 72.808C679.433 73.208 679.401 73.76 679.265 74.16C679.073 75 678.233 75.872 676.809 75.872ZM684.038 68.36H682.294L685.79 76.96L684.366 80.84H685.958L690.726 68.36H689.03L686.598 74.848L684.038 68.36ZM701.575 68.144C700.447 68.144 699.479 68.672 698.951 69.544C698.495 68.672 697.631 68.144 696.439 68.144C695.399 68.144 694.511 68.584 693.959 69.288V68.36H692.471V77H694.151V71.6C694.151 70.424 694.855 69.632 695.911 69.632C696.975 69.632 697.663 70.4 697.663 71.648L697.655 77H699.327L699.335 71.6C699.335 70.296 700.143 69.632 701.095 69.632C702.135 69.632 702.839 70.376 702.839 71.616L702.831 77H704.503L704.511 71.216C704.511 69.36 703.431 68.144 701.575 68.144ZM714.731 73.152C714.907 70.056 713.371 68.12 710.731 68.12C708.203 68.12 706.499 69.92 706.499 72.752C706.499 75.424 708.227 77.24 710.811 77.24C712.483 77.24 713.947 76.352 714.619 74.808L712.979 74.288C712.555 75.176 711.771 75.664 710.731 75.664C709.275 75.664 708.427 74.76 708.291 73.152H714.731ZM710.795 69.6C712.123 69.6 712.843 70.32 713.019 71.848H708.331C708.547 70.384 709.371 69.6 710.795 69.6ZM721.136 68.128C719.888 68.128 718.912 68.592 718.28 69.392V68.36H716.784V77H718.48V72.504C718.48 70.456 719.472 69.712 720.672 69.712C722.512 69.712 722.856 71.408 722.856 72.752V77H724.552V72.2C724.552 70.864 724.112 68.128 721.136 68.128ZM732.08 69.704V68.36H729.512V65.96H727.832V68.36H726.176V69.704H727.832V73.6C727.832 74.544 727.776 75.24 728.152 75.952C728.784 77.152 730.456 77.32 732.08 77V75.584C730.952 75.752 730.072 75.728 729.688 75.072C729.48 74.72 729.512 74.216 729.512 73.52V69.704H732.08ZM743.92 68.952C743.32 68.424 742.536 68.12 741.568 68.12C739.136 68.12 737.624 70.064 737.624 72.672C737.624 75.264 739.128 77.24 741.536 77.24C742.624 77.24 743.488 76.856 744.112 76.208V77H745.6V65.48H743.92V68.952ZM741.768 75.728C740.16 75.728 739.4 74.384 739.4 72.672C739.4 70.976 740.16 69.632 741.824 69.632C743.4 69.632 744.112 70.88 744.112 72.672C744.112 74.464 743.416 75.728 741.768 75.728ZM754.251 72.856C754.251 74.904 753.259 75.648 752.059 75.648C750.219 75.648 749.875 73.952 749.875 72.608V68.36H748.179V73.16C748.179 74.496 748.619 77.232 751.595 77.232C752.843 77.232 753.819 76.768 754.451 75.968V77H755.939V68.36H754.251V72.856ZM766.435 73.152C766.611 70.056 765.075 68.12 762.435 68.12C759.907 68.12 758.203 69.92 758.203 72.752C758.203 75.424 759.931 77.24 762.515 77.24C764.187 77.24 765.651 76.352 766.323 74.808L764.683 74.288C764.259 75.176 763.475 75.664 762.435 75.664C760.979 75.664 760.131 74.76 759.995 73.152H766.435ZM762.499 69.6C763.827 69.6 764.547 70.32 764.723 71.848H760.035C760.251 70.384 761.075 69.6 762.499 69.6ZM770.265 71.384C770.865 71.384 771.313 70.928 771.313 70.344C771.313 69.76 770.865 69.304 770.265 69.304C769.665 69.304 769.217 69.76 769.217 70.344C769.217 70.928 769.665 71.384 770.265 71.384ZM770.257 76.016C770.857 76.016 771.297 75.552 771.297 74.976C771.297 74.392 770.857 73.936 770.257 73.936C769.657 73.936 769.209 74.392 769.209 74.976C769.209 75.552 769.657 76.016 770.257 76.016ZM783.783 72.424C785.031 71.328 785.655 70.608 785.655 69.032C785.655 66.848 784.015 65.24 781.839 65.24C779.543 65.24 777.903 66.768 777.903 69H779.615C779.599 67.84 780.527 66.832 781.807 66.832C783.047 66.832 783.935 67.776 783.935 69.008C783.935 69.664 783.695 70.288 782.887 71.008L777.871 75.504L777.863 76.992H785.655V75.4H780.447L783.783 72.424ZM791.753 69.6C791.073 69.6 790.353 69.816 789.785 70.224L789.977 67.056H794.697V65.48H788.481L788.129 71.536L789.585 72.048C789.945 71.568 790.593 71.12 791.537 71.12C792.769 71.12 793.801 72.112 793.801 73.376C793.801 74.608 792.801 75.624 791.537 75.624C790.577 75.624 789.625 74.976 789.361 73.952L787.753 74.384C788.225 76.064 789.713 77.24 791.489 77.24C793.641 77.24 795.489 75.52 795.489 73.376C795.489 71.216 793.905 69.6 791.753 69.6ZM797.741 77H799.429L802.501 65.48H800.813L797.741 77ZM808.801 77V65.48H807.097L804.929 66.776V68.64L807.097 67.32V77H808.801ZM817.939 72.424C819.187 71.328 819.811 70.608 819.811 69.032C819.811 66.848 818.171 65.24 815.995 65.24C813.699 65.24 812.059 66.768 812.059 69H813.771C813.755 67.84 814.683 66.832 815.963 66.832C817.203 66.832 818.091 67.776 818.091 69.008C818.091 69.664 817.851 70.288 817.043 71.008L812.027 75.504L812.019 76.992H819.811V75.4H814.603L817.939 72.424ZM822.069 77H823.757L826.829 65.48H825.141L822.069 77ZM835.017 72.424C836.265 71.328 836.889 70.608 836.889 69.032C836.889 66.848 835.249 65.24 833.073 65.24C830.777 65.24 829.137 66.768 829.137 69H830.849C830.833 67.84 831.761 66.832 833.041 66.832C834.281 66.832 835.169 67.776 835.169 69.008C835.169 69.664 834.929 70.288 834.121 71.008L829.105 75.504L829.097 76.992H836.889V75.4H831.681L835.017 72.424ZM843.324 77.24C845.668 77.24 847.34 75.568 847.34 73.224V69.256C847.34 66.912 845.668 65.24 843.324 65.24C840.98 65.24 839.308 66.912 839.308 69.256V73.224C839.308 75.568 840.98 77.24 843.324 77.24ZM843.324 75.64C842.036 75.64 841.012 74.616 841.012 73.328V69.136C841.012 67.856 842.036 66.832 843.324 66.832C844.612 66.832 845.636 67.856 845.636 69.136V73.328C845.636 74.616 844.612 75.64 843.324 75.64ZM855.673 72.424C856.921 71.328 857.545 70.608 857.545 69.032C857.545 66.848 855.905 65.24 853.729 65.24C851.433 65.24 849.793 66.768 849.793 69H851.505C851.489 67.84 852.417 66.832 853.697 66.832C854.937 66.832 855.825 67.776 855.825 69.008C855.825 69.664 855.585 70.288 854.777 71.008L849.761 75.504L849.753 76.992H857.545V75.4H852.337L855.673 72.424ZM865.564 72.424C866.812 71.328 867.436 70.608 867.436 69.032C867.436 66.848 865.796 65.24 863.62 65.24C861.324 65.24 859.684 66.768 859.684 69H861.396C861.38 67.84 862.308 66.832 863.588 66.832C864.828 66.832 865.716 67.776 865.716 69.008C865.716 69.664 865.476 70.288 864.668 71.008L859.652 75.504L859.644 76.992H867.436V75.4H862.228L865.564 72.424Z" fill="white"/>
<path d="M879 141H24V143H879V141Z" fill="white" mask="url(#path-2-inside-1_3736_54722)"/>
<circle cx="34" cy="178" r="10" fill="white"/>
<path d="M30.25 178.625L33.25 180.5L37.75 175.5" stroke="#1BD47B" stroke-width="1.25" stroke-linecap="round" stroke-linejoin="round"/>
<path d="M60.12 184.24C62.528 184.24 64.328 183 64.328 180.856C64.328 178.672 62.464 178.104 61.528 177.84L59.272 177.176C58.376 176.92 57.224 176.528 57.224 175.36C57.224 174.216 58.368 173.36 59.912 173.368C61.52 173.384 62.8 174.336 63.032 175.832L64.264 175.608C63.888 173.536 62.224 172.256 59.92 172.248C57.648 172.24 55.984 173.464 55.984 175.408C55.984 176.952 57.032 177.752 58.44 178.168L61.36 179.04C62.16 179.28 63.128 179.72 63.128 180.904C63.128 182.264 61.872 183.112 60.168 183.112C58.448 183.112 57.12 182.216 56.736 180.72L55.536 180.92C55.928 182.968 57.712 184.24 60.12 184.24ZM71.1834 176.368V175.36H68.5354V172.96H67.3674V175.36H65.5194V176.368H67.3674V180.872C67.3674 181.72 67.3274 182.336 67.6394 182.968C68.2074 184.12 69.7194 184.304 71.1834 184V182.968C69.9434 183.168 69.0954 183.096 68.7114 182.376C68.5034 182.008 68.5354 181.552 68.5354 180.824V176.368H71.1834ZM76.6811 184.24C79.2411 184.24 80.7771 182.392 80.7771 179.672C80.7771 177 79.2731 175.12 76.6811 175.12C74.1531 175.12 72.5931 176.952 72.5931 179.672C72.5931 182.352 74.1051 184.24 76.6811 184.24ZM76.6811 183.112C74.8091 183.112 73.8411 181.752 73.8411 179.672C73.8411 177.656 74.7451 176.248 76.6811 176.248C78.5851 176.248 79.5291 177.592 79.5291 179.672C79.5291 181.712 78.6011 183.112 76.6811 183.112ZM86.6259 184.24C88.3379 184.24 89.6019 183.416 90.2499 181.88L89.0659 181.528C88.6339 182.568 87.7939 183.112 86.6259 183.112C84.7699 183.112 83.8339 181.752 83.8099 179.68C83.8339 177.664 84.7139 176.248 86.6259 176.248C87.7539 176.248 88.6899 176.848 89.0979 177.88L90.2499 177.512C89.7699 176.032 88.3779 175.12 86.6339 175.12C84.0499 175.12 82.5939 176.96 82.5619 179.68C82.5939 182.344 84.0099 184.24 86.6259 184.24ZM99.1773 184L95.1533 179.024L98.9693 175.36H97.5053L93.5293 179.12V172.48H92.4013L92.3933 184H93.5293V180.584L94.3533 179.792L97.7773 184H99.1773ZM105.286 173.872C105.75 173.872 106.11 173.52 106.11 173.064C106.11 172.6 105.75 172.248 105.286 172.248C104.822 172.248 104.47 172.6 104.47 173.064C104.47 173.52 104.822 173.872 105.286 173.872ZM105.878 184V175.36H104.702V184H105.878ZM112.736 175.144C111.496 175.144 110.472 175.624 109.832 176.56V175.36H108.768V184H109.952V179.392C109.952 177.44 110.848 176.264 112.512 176.264C114.32 176.264 115.016 177.688 115.016 179.592V184H116.2V179.248C116.2 177.304 115.328 175.144 112.736 175.144ZM123.168 173.232V172.24H122.064C121.4 172.24 120.688 172.304 120.168 172.872C119.696 173.384 119.632 174.056 119.632 174.72V175.36H118.136V176.368H119.632V184H120.808V176.368H123.168V175.36H120.808V174.592C120.808 173.656 121.248 173.232 122.144 173.232H123.168ZM128.244 184.24C130.804 184.24 132.34 182.392 132.34 179.672C132.34 177 130.836 175.12 128.244 175.12C125.716 175.12 124.156 176.952 124.156 179.672C124.156 182.352 125.668 184.24 128.244 184.24ZM128.244 183.112C126.372 183.112 125.404 181.752 125.404 179.672C125.404 177.656 126.308 176.248 128.244 176.248C130.148 176.248 131.092 177.592 131.092 179.672C131.092 181.712 130.164 183.112 128.244 183.112ZM143.22 175.128C142.068 175.128 141.108 175.672 140.604 176.584C140.14 175.64 139.22 175.128 138.084 175.128C137.06 175.128 136.188 175.568 135.652 176.272V175.36H134.596V184H135.78V178.424C135.78 177.072 136.58 176.184 137.78 176.184C138.972 176.184 139.772 177.032 139.772 178.408L139.764 184H140.924L140.932 178.424C140.932 176.816 141.964 176.184 142.948 176.184C144.084 176.184 144.916 176.992 144.916 178.328L144.908 184H146.084L146.092 178.104C146.092 176.28 144.964 175.128 143.22 175.128ZM155.219 176.848C154.763 175.728 153.611 175.12 152.035 175.12C150.131 175.12 148.915 176.016 148.515 177.56L149.659 177.896C149.987 176.744 150.835 176.232 152.019 176.232C153.659 176.232 154.307 176.984 154.323 178.544C153.171 178.704 151.555 178.888 150.387 179.168C149.099 179.512 148.187 180.264 148.187 181.68C148.187 183.056 149.179 184.24 151.139 184.24C152.611 184.24 153.755 183.664 154.427 182.568V184H155.475V178.632C155.475 177.992 155.427 177.352 155.219 176.848ZM151.275 183.224C149.883 183.224 149.363 182.432 149.363 181.68C149.363 180.744 150.123 180.328 150.859 180.112C151.811 179.848 153.171 179.712 154.307 179.576C154.307 179.968 154.291 180.528 154.195 180.952C153.971 182.256 152.923 183.224 151.275 183.224ZM162.762 176.368V175.36H160.114V172.96H158.946V175.36H157.098V176.368H158.946V180.872C158.946 181.72 158.906 182.336 159.218 182.968C159.786 184.12 161.298 184.304 162.762 184V182.968C161.522 183.168 160.674 183.096 160.29 182.376C160.082 182.008 160.114 181.552 160.114 180.824V176.368H162.762ZM165.708 173.872C166.172 173.872 166.532 173.52 166.532 173.064C166.532 172.6 166.172 172.248 165.708 172.248C165.244 172.248 164.892 172.6 164.892 173.064C164.892 173.52 165.244 173.872 165.708 173.872ZM166.3 184V175.36H165.124V184H166.3ZM172.806 184.24C175.366 184.24 176.902 182.392 176.902 179.672C176.902 177 175.398 175.12 172.806 175.12C170.278 175.12 168.718 176.952 168.718 179.672C168.718 182.352 170.23 184.24 172.806 184.24ZM172.806 183.112C170.934 183.112 169.966 181.752 169.966 179.672C169.966 177.656 170.87 176.248 172.806 176.248C174.71 176.248 175.654 177.592 175.654 179.672C175.654 181.712 174.726 183.112 172.806 183.112ZM183.127 175.144C181.887 175.144 180.863 175.624 180.223 176.56V175.36H179.159V184H180.343V179.392C180.343 177.44 181.239 176.264 182.903 176.264C184.711 176.264 185.407 177.688 185.407 179.592V184H186.591V179.248C186.591 177.304 185.719 175.144 183.127 175.144Z" fill="white"/>
<circle cx="34" cy="226" r="10" fill="white"/>
<path d="M30.25 226.625L33.25 228.5L37.75 223.5" stroke="#1BD47B" stroke-width="1.25" stroke-linecap="round" stroke-linejoin="round"/>
<path d="M59.12 232.24C61.528 232.24 63.328 231 63.328 228.856C63.328 226.672 61.464 226.104 60.528 225.84L58.272 225.176C57.376 224.92 56.224 224.528 56.224 223.36C56.224 222.216 57.368 221.36 58.912 221.368C60.52 221.384 61.8 222.336 62.032 223.832L63.264 223.608C62.888 221.536 61.224 220.256 58.92 220.248C56.648 220.24 54.984 221.464 54.984 223.408C54.984 224.952 56.032 225.752 57.44 226.168L60.36 227.04C61.16 227.28 62.128 227.72 62.128 228.904C62.128 230.264 60.872 231.112 59.168 231.112C57.448 231.112 56.12 230.216 55.736 228.72L54.536 228.92C54.928 230.968 56.712 232.24 59.12 232.24ZM69.4394 223.144C68.1994 223.144 67.1754 223.624 66.5354 224.56V220.48H65.4714V232H66.6554V227.392C66.6554 225.44 67.5514 224.264 69.2154 224.264C71.0234 224.264 71.7194 225.688 71.7194 227.592V232H72.9034V227.248C72.9034 225.304 72.0314 223.144 69.4394 223.144ZM82.0314 224.848C81.5754 223.728 80.4234 223.12 78.8474 223.12C76.9434 223.12 75.7274 224.016 75.3274 225.56L76.4714 225.896C76.7994 224.744 77.6474 224.232 78.8314 224.232C80.4714 224.232 81.1194 224.984 81.1354 226.544C79.9834 226.704 78.3674 226.888 77.1994 227.168C75.9114 227.512 74.9994 228.264 74.9994 229.68C74.9994 231.056 75.9914 232.24 77.9514 232.24C79.4234 232.24 80.5674 231.664 81.2394 230.568V232H82.2874V226.632C82.2874 225.992 82.2394 225.352 82.0314 224.848ZM78.0874 231.224C76.6954 231.224 76.1754 230.432 76.1754 229.68C76.1754 228.744 76.9354 228.328 77.6714 228.112C78.6234 227.848 79.9834 227.712 81.1194 227.576C81.1194 227.968 81.1034 228.528 81.0074 228.952C80.7834 230.256 79.7354 231.224 78.0874 231.224ZM86.598 223.928C86.35 224.12 86.11 224.4 85.926 224.728V223.36H84.87V232H86.046V227.688C86.046 226.656 86.19 225.536 87.054 224.856C87.678 224.344 88.478 224.312 89.118 224.464V223.36C88.358 223.168 87.278 223.336 86.598 223.928ZM98.5634 228.008C98.6514 224.96 97.1474 223.12 94.5874 223.12C92.0914 223.12 90.4994 224.888 90.4994 227.72C90.4994 230.456 92.1154 232.24 94.6354 232.24C96.3074 232.24 97.7074 231.384 98.3954 229.872L97.2994 229.448C96.7634 230.528 95.8194 231.112 94.5874 231.112C92.8674 231.112 91.8514 229.984 91.7554 228.008H98.5634ZM94.6194 224.2C96.2274 224.2 97.1474 225.16 97.3314 227.024H91.7794C91.9634 225.208 92.9554 224.2 94.6194 224.2ZM107.766 232.232C109.886 232.232 111.174 231.24 111.174 229.608C111.174 228.272 110.43 227.656 108.046 227.048C106.006 226.536 105.518 226.216 105.518 225.528C105.518 224.712 106.366 224.168 107.59 224.192C108.886 224.216 109.79 224.84 109.958 225.856L111.158 225.64C110.982 224.136 109.558 223.12 107.606 223.12C105.654 223.12 104.326 224.112 104.326 225.584C104.326 226.792 105.046 227.36 107.39 227.992C109.582 228.584 109.95 228.824 109.95 229.624C109.95 230.568 109.142 231.16 107.83 231.16C106.486 231.16 105.51 230.536 105.262 229.552L104.062 229.752C104.358 231.312 105.742 232.232 107.766 232.232ZM118.152 224.368V223.36H115.504V220.96H114.336V223.36H112.488V224.368H114.336V228.872C114.336 229.72 114.296 230.336 114.608 230.968C115.176 232.12 116.688 232.304 118.152 232V230.968C116.912 231.168 116.064 231.096 115.68 230.376C115.472 230.008 115.504 229.552 115.504 228.824V224.368H118.152ZM123.65 232.24C126.21 232.24 127.746 230.392 127.746 227.672C127.746 225 126.242 223.12 123.65 223.12C121.122 223.12 119.562 224.952 119.562 227.672C119.562 230.352 121.074 232.24 123.65 232.24ZM123.65 231.112C121.778 231.112 120.81 229.752 120.81 227.672C120.81 225.656 121.714 224.248 123.65 224.248C125.554 224.248 126.498 225.592 126.498 227.672C126.498 229.712 125.57 231.112 123.65 231.112ZM133.595 232.24C135.307 232.24 136.571 231.416 137.219 229.88L136.035 229.528C135.603 230.568 134.763 231.112 133.595 231.112C131.739 231.112 130.803 229.752 130.779 227.68C130.803 225.664 131.683 224.248 133.595 224.248C134.723 224.248 135.659 224.848 136.067 225.88L137.219 225.512C136.739 224.032 135.347 223.12 133.603 223.12C131.019 223.12 129.563 224.96 129.531 227.68C129.563 230.344 130.979 232.24 133.595 232.24ZM146.146 232L142.122 227.024L145.938 223.36H144.474L140.498 227.12V220.48H139.37L139.362 232H140.498V228.584L141.322 227.792L144.746 232H146.146ZM150.875 232.232C152.995 232.232 154.283 231.24 154.283 229.608C154.283 228.272 153.539 227.656 151.155 227.048C149.115 226.536 148.627 226.216 148.627 225.528C148.627 224.712 149.475 224.168 150.699 224.192C151.995 224.216 152.899 224.84 153.067 225.856L154.267 225.64C154.091 224.136 152.667 223.12 150.715 223.12C148.763 223.12 147.435 224.112 147.435 225.584C147.435 226.792 148.155 227.36 150.499 227.992C152.691 228.584 153.059 228.824 153.059 229.624C153.059 230.568 152.251 231.16 150.939 231.16C149.595 231.16 148.619 230.536 148.371 229.552L147.171 229.752C147.467 231.312 148.851 232.232 150.875 232.232Z" fill="white"/>
<circle cx="34" cy="274" r="10" fill="white"/>
<path d="M30.25 274.625L33.25 276.5L37.75 271.5" stroke="#1BD47B" stroke-width="1.25" stroke-linecap="round" stroke-linejoin="round"/>
<path d="M59.616 280.24C62.248 280.24 64.112 278.488 64.112 275.84V268.48H62.928V275.688C62.928 278.08 61.112 279.128 59.616 279.128C58.136 279.128 56.304 278.088 56.304 275.688V268.48L55.12 268.488V275.84C55.12 278.504 56.984 280.24 59.616 280.24ZM70.8144 271.144C69.5744 271.144 68.5504 271.624 67.9104 272.56V271.36H66.8464V280H68.0304V275.392C68.0304 273.44 68.9264 272.264 70.5904 272.264C72.3984 272.264 73.0944 273.688 73.0944 275.592V280H74.2784V275.248C74.2784 273.304 73.4064 271.144 70.8144 271.144ZM78.1904 280V268.24H77.0144V280H78.1904ZM81.8328 269.872C82.2968 269.872 82.6568 269.52 82.6568 269.064C82.6568 268.6 82.2968 268.248 81.8328 268.248C81.3688 268.248 81.0168 268.6 81.0168 269.064C81.0168 269.52 81.3688 269.872 81.8328 269.872ZM82.4248 280V271.36H81.2488V280H82.4248ZM93.9391 271.128C92.7871 271.128 91.8271 271.672 91.3231 272.584C90.8591 271.64 89.9391 271.128 88.8031 271.128C87.7791 271.128 86.9071 271.568 86.3711 272.272V271.36H85.3151V280H86.4991V274.424C86.4991 273.072 87.2991 272.184 88.4991 272.184C89.6911 272.184 90.4911 273.032 90.4911 274.408L90.4831 280H91.6431L91.6511 274.424C91.6511 272.816 92.6831 272.184 93.6671 272.184C94.8031 272.184 95.6351 272.992 95.6351 274.328L95.6271 280H96.8031L96.8111 274.104C96.8111 272.28 95.6831 271.128 93.9391 271.128ZM104.09 272.368V271.36H101.442V268.96H100.274V271.36H98.4256V272.368H100.274V276.872C100.274 277.72 100.234 278.336 100.546 278.968C101.114 280.12 102.626 280.304 104.09 280V278.968C102.85 279.168 102.002 279.096 101.618 278.376C101.41 278.008 101.442 277.552 101.442 276.824V272.368H104.09ZM113.563 276.008C113.651 272.96 112.147 271.12 109.587 271.12C107.091 271.12 105.499 272.888 105.499 275.72C105.499 278.456 107.115 280.24 109.635 280.24C111.307 280.24 112.707 279.384 113.395 277.872L112.299 277.448C111.763 278.528 110.819 279.112 109.587 279.112C107.867 279.112 106.851 277.984 106.755 276.008H113.563ZM109.619 272.2C111.227 272.2 112.147 273.16 112.331 275.024H106.779C106.963 273.208 107.955 272.2 109.619 272.2ZM121.895 272.376C121.263 271.592 120.343 271.12 119.143 271.12C116.775 271.12 115.359 273.096 115.359 275.672C115.359 278.264 116.767 280.24 119.191 280.24C120.447 280.24 121.399 279.688 122.023 278.792V280H123.079V268.48H121.895V272.376ZM119.311 279.144C117.511 279.144 116.607 277.64 116.607 275.672C116.607 273.72 117.479 272.216 119.335 272.216C121.135 272.216 122.023 273.64 122.023 275.672C122.023 277.672 121.151 279.144 119.311 279.144ZM136.078 272.848C135.622 271.728 134.47 271.12 132.894 271.12C130.99 271.12 129.774 272.016 129.374 273.56L130.518 273.896C130.846 272.744 131.694 272.232 132.878 272.232C134.518 272.232 135.166 272.984 135.182 274.544C134.03 274.704 132.414 274.888 131.246 275.168C129.958 275.512 129.046 276.264 129.046 277.68C129.046 279.056 130.038 280.24 131.998 280.24C133.47 280.24 134.614 279.664 135.286 278.568V280H136.334V274.632C136.334 273.992 136.286 273.352 136.078 272.848ZM132.134 279.224C130.742 279.224 130.222 278.432 130.222 277.68C130.222 276.744 130.982 276.328 131.718 276.112C132.67 275.848 134.03 275.712 135.166 275.576C135.166 275.968 135.15 276.528 135.054 276.952C134.83 278.256 133.782 279.224 132.134 279.224ZM142.501 280.24C144.213 280.24 145.477 279.416 146.125 277.88L144.941 277.528C144.509 278.568 143.669 279.112 142.501 279.112C140.645 279.112 139.709 277.752 139.685 275.68C139.709 273.664 140.589 272.248 142.501 272.248C143.629 272.248 144.565 272.848 144.973 273.88L146.125 273.512C145.645 272.032 144.253 271.12 142.509 271.12C139.925 271.12 138.469 272.96 138.437 275.68C138.469 278.344 139.885 280.24 142.501 280.24ZM151.626 280.24C153.338 280.24 154.602 279.416 155.25 277.88L154.066 277.528C153.634 278.568 152.794 279.112 151.626 279.112C149.77 279.112 148.834 277.752 148.81 275.68C148.834 273.664 149.714 272.248 151.626 272.248C152.754 272.248 153.69 272.848 154.098 273.88L155.25 273.512C154.77 272.032 153.378 271.12 151.634 271.12C149.05 271.12 147.594 272.96 147.562 275.68C147.594 278.344 149.01 280.24 151.626 280.24ZM164.751 276.008C164.839 272.96 163.335 271.12 160.775 271.12C158.279 271.12 156.687 272.888 156.687 275.72C156.687 278.456 158.303 280.24 160.823 280.24C162.495 280.24 163.895 279.384 164.583 277.872L163.487 277.448C162.951 278.528 162.007 279.112 160.775 279.112C159.055 279.112 158.039 277.984 157.943 276.008H164.751ZM160.807 272.2C162.415 272.2 163.335 273.16 163.519 275.024H157.967C158.151 273.208 159.143 272.2 160.807 272.2ZM170.25 280.232C172.37 280.232 173.658 279.24 173.658 277.608C173.658 276.272 172.914 275.656 170.53 275.048C168.49 274.536 168.002 274.216 168.002 273.528C168.002 272.712 168.85 272.168 170.074 272.192C171.37 272.216 172.274 272.84 172.442 273.856L173.642 273.64C173.466 272.136 172.042 271.12 170.09 271.12C168.138 271.12 166.81 272.112 166.81 273.584C166.81 274.792 167.53 275.36 169.874 275.992C172.066 276.584 172.434 276.824 172.434 277.624C172.434 278.568 171.626 279.16 170.314 279.16C168.97 279.16 167.994 278.536 167.746 277.552L166.546 277.752C166.842 279.312 168.226 280.232 170.25 280.232ZM179.157 280.232C181.277 280.232 182.565 279.24 182.565 277.608C182.565 276.272 181.821 275.656 179.437 275.048C177.397 274.536 176.909 274.216 176.909 273.528C176.909 272.712 177.757 272.168 178.981 272.192C180.277 272.216 181.181 272.84 181.349 273.856L182.549 273.64C182.373 272.136 180.949 271.12 178.997 271.12C177.045 271.12 175.717 272.112 175.717 273.584C175.717 274.792 176.437 275.36 178.781 275.992C180.973 276.584 181.341 276.824 181.341 277.624C181.341 278.568 180.533 279.16 179.22 279.16C177.877 279.16 176.901 278.536 176.653 277.552L175.453 277.752C175.749 279.312 177.133 280.232 179.157 280.232ZM193.246 272.368V271.36H190.598V268.96H189.43V271.36H187.582V272.368H189.43V276.872C189.43 277.72 189.39 278.336 189.702 278.968C190.27 280.12 191.782 280.304 193.246 280V278.968C192.006 279.168 191.158 279.096 190.774 278.376C190.566 278.008 190.598 277.552 190.598 276.824V272.368H193.246ZM198.744 280.24C201.304 280.24 202.84 278.392 202.84 275.672C202.84 273 201.336 271.12 198.744 271.12C196.216 271.12 194.656 272.952 194.656 275.672C194.656 278.352 196.168 280.24 198.744 280.24ZM198.744 279.112C196.872 279.112 195.904 277.752 195.904 275.672C195.904 273.656 196.808 272.248 198.744 272.248C200.648 272.248 201.592 273.592 201.592 275.672C201.592 277.712 200.664 279.112 198.744 279.112ZM215.36 272.848C214.904 271.728 213.752 271.12 212.176 271.12C210.272 271.12 209.056 272.016 208.656 273.56L209.799 273.896C210.128 272.744 210.976 272.232 212.16 272.232C213.8 272.232 214.448 272.984 214.464 274.544C213.312 274.704 211.696 274.888 210.528 275.168C209.24 275.512 208.328 276.264 208.328 277.68C208.328 279.056 209.32 280.24 211.28 280.24C212.752 280.24 213.896 279.664 214.568 278.568V280H215.616V274.632C215.616 273.992 215.568 273.352 215.36 272.848ZM211.416 279.224C210.024 279.224 209.504 278.432 209.504 277.68C209.504 276.744 210.264 276.328 211 276.112C211.952 275.848 213.312 275.712 214.448 275.576C214.448 275.968 214.432 276.528 214.336 276.952C214.112 278.256 213.064 279.224 211.416 279.224ZM219.534 280V268.24H218.358V280H219.534ZM223.769 280V268.24H222.593V280H223.769ZM233.594 280.232C235.714 280.232 237.002 279.24 237.002 277.608C237.002 276.272 236.258 275.656 233.874 275.048C231.834 274.536 231.346 274.216 231.346 273.528C231.346 272.712 232.194 272.168 233.418 272.192C234.714 272.216 235.618 272.84 235.786 273.856L236.986 273.64C236.81 272.136 235.386 271.12 233.434 271.12C231.482 271.12 230.154 272.112 230.154 273.584C230.154 274.792 230.874 275.36 233.218 275.992C235.41 276.584 235.778 276.824 235.778 277.624C235.778 278.568 234.97 279.16 233.658 279.16C232.314 279.16 231.338 278.536 231.09 277.552L229.89 277.752C230.186 279.312 231.57 280.232 233.594 280.232ZM243.98 272.368V271.36H241.332V268.96H240.164V271.36H238.316V272.368H240.164V276.872C240.164 277.72 240.124 278.336 240.436 278.968C241.004 280.12 242.516 280.304 243.98 280V278.968C242.74 279.168 241.892 279.096 241.508 278.376C241.3 278.008 241.332 277.552 241.332 276.824V272.368H243.98ZM249.478 280.24C252.038 280.24 253.574 278.392 253.574 275.672C253.574 273 252.07 271.12 249.478 271.12C246.95 271.12 245.39 272.952 245.39 275.672C245.39 278.352 246.902 280.24 249.478 280.24ZM249.478 279.112C247.606 279.112 246.638 277.752 246.638 275.672C246.638 273.656 247.542 272.248 249.478 272.248C251.382 272.248 252.326 273.592 252.326 275.672C252.326 277.712 251.398 279.112 249.478 279.112ZM259.423 280.24C261.135 280.24 262.399 279.416 263.047 277.88L261.863 277.528C261.431 278.568 260.591 279.112 259.423 279.112C257.567 279.112 256.631 277.752 256.607 275.68C256.631 273.664 257.511 272.248 259.423 272.248C260.551 272.248 261.487 272.848 261.895 273.88L263.047 273.512C262.567 272.032 261.175 271.12 259.431 271.12C256.847 271.12 255.391 272.96 255.359 275.68C255.391 278.344 256.807 280.24 259.423 280.24ZM271.974 280L267.95 275.024L271.766 271.36H270.302L266.326 275.12V268.48H265.198L265.19 280H266.326V276.584L267.15 275.792L270.574 280H271.974ZM276.703 280.232C278.823 280.232 280.111 279.24 280.111 277.608C280.111 276.272 279.367 275.656 276.983 275.048C274.943 274.536 274.455 274.216 274.455 273.528C274.455 272.712 275.303 272.168 276.527 272.192C277.823 272.216 278.727 272.84 278.895 273.856L280.095 273.64C279.919 272.136 278.495 271.12 276.543 271.12C274.591 271.12 273.263 272.112 273.263 273.584C273.263 274.792 273.983 275.36 276.327 275.992C278.519 276.584 278.887 276.824 278.887 277.624C278.887 278.568 278.079 279.16 276.767 279.16C275.423 279.16 274.447 278.536 274.199 277.552L272.999 277.752C273.295 279.312 274.679 280.232 276.703 280.232Z" fill="white"/>
<circle cx="490" cy="178" r="10" fill="white"/>
<path d="M486.25 178.625L489.25 180.5L493.75 175.5" stroke="#1BD47B" stroke-width="1.25" stroke-linecap="round" stroke-linejoin="round"/>
<path d="M510.32 184H511.544L512.512 181.208H517.624L518.592 184H519.816L515.848 172.48H514.288L510.32 184ZM515.056 173.8L517.24 180.104H512.888L515.056 173.8ZM525.345 184.24C527.057 184.24 528.321 183.416 528.969 181.88L527.785 181.528C527.353 182.568 526.513 183.112 525.345 183.112C523.489 183.112 522.553 181.752 522.529 179.68C522.553 177.664 523.433 176.248 525.345 176.248C526.473 176.248 527.409 176.848 527.817 177.88L528.969 177.512C528.489 176.032 527.097 175.12 525.353 175.12C522.769 175.12 521.313 176.96 521.281 179.68C521.313 182.344 522.729 184.24 525.345 184.24ZM534.47 184.24C536.182 184.24 537.446 183.416 538.094 181.88L536.91 181.528C536.478 182.568 535.638 183.112 534.47 183.112C532.614 183.112 531.678 181.752 531.654 179.68C531.678 177.664 532.558 176.248 534.47 176.248C535.598 176.248 536.534 176.848 536.942 177.88L538.094 177.512C537.614 176.032 536.222 175.12 534.478 175.12C531.894 175.12 530.438 176.96 530.406 179.68C530.438 182.344 531.854 184.24 534.47 184.24ZM547.595 180.008C547.683 176.96 546.179 175.12 543.619 175.12C541.123 175.12 539.531 176.888 539.531 179.72C539.531 182.456 541.147 184.24 543.667 184.24C545.339 184.24 546.739 183.384 547.427 181.872L546.331 181.448C545.795 182.528 544.851 183.112 543.619 183.112C541.899 183.112 540.883 181.984 540.787 180.008H547.595ZM543.651 176.2C545.259 176.2 546.179 177.16 546.363 179.024H540.811C540.995 177.208 541.987 176.2 543.651 176.2ZM553.094 184.232C555.214 184.232 556.502 183.24 556.502 181.608C556.502 180.272 555.758 179.656 553.374 179.048C551.334 178.536 550.846 178.216 550.846 177.528C550.846 176.712 551.694 176.168 552.918 176.192C554.214 176.216 555.118 176.84 555.286 177.856L556.486 177.64C556.31 176.136 554.886 175.12 552.934 175.12C550.982 175.12 549.654 176.112 549.654 177.584C549.654 178.792 550.374 179.36 552.718 179.992C554.91 180.584 555.278 180.824 555.278 181.624C555.278 182.568 554.47 183.16 553.158 183.16C551.814 183.16 550.838 182.536 550.59 181.552L549.39 181.752C549.686 183.312 551.07 184.232 553.094 184.232ZM562 184.232C564.12 184.232 565.408 183.24 565.408 181.608C565.408 180.272 564.664 179.656 562.28 179.048C560.24 178.536 559.752 178.216 559.752 177.528C559.752 176.712 560.6 176.168 561.824 176.192C563.12 176.216 564.024 176.84 564.192 177.856L565.392 177.64C565.216 176.136 563.792 175.12 561.84 175.12C559.888 175.12 558.56 176.112 558.56 177.584C558.56 178.792 559.28 179.36 561.624 179.992C563.816 180.584 564.184 180.824 564.184 181.624C564.184 182.568 563.376 183.16 562.064 183.16C560.72 183.16 559.744 182.536 559.496 181.552L558.296 181.752C558.592 183.312 559.976 184.232 562 184.232ZM576.09 176.368V175.36H573.442V172.96H572.274V175.36H570.426V176.368H572.274V180.872C572.274 181.72 572.234 182.336 572.546 182.968C573.114 184.12 574.626 184.304 576.09 184V182.968C574.85 183.168 574.002 183.096 573.618 182.376C573.41 182.008 573.442 181.552 573.442 180.824V176.368H576.09ZM581.587 184.24C584.147 184.24 585.683 182.392 585.683 179.672C585.683 177 584.179 175.12 581.587 175.12C579.059 175.12 577.499 176.952 577.499 179.672C577.499 182.352 579.011 184.24 581.587 184.24ZM581.587 183.112C579.715 183.112 578.747 181.752 578.747 179.672C578.747 177.656 579.651 176.248 581.587 176.248C583.491 176.248 584.435 177.592 584.435 179.672C584.435 181.712 583.507 183.112 581.587 183.112ZM594.875 184.232C596.995 184.232 598.283 183.24 598.283 181.608C598.283 180.272 597.539 179.656 595.155 179.048C593.115 178.536 592.627 178.216 592.627 177.528C592.627 176.712 593.475 176.168 594.699 176.192C595.995 176.216 596.899 176.84 597.067 177.856L598.267 177.64C598.091 176.136 596.667 175.12 594.715 175.12C592.763 175.12 591.435 176.112 591.435 177.584C591.435 178.792 592.155 179.36 594.499 179.992C596.691 180.584 597.059 180.824 597.059 181.624C597.059 182.568 596.251 183.16 594.939 183.16C593.595 183.16 592.619 182.536 592.371 181.552L591.171 181.752C591.467 183.312 592.851 184.232 594.875 184.232ZM609.174 175.128C608.022 175.128 607.062 175.672 606.558 176.584C606.094 175.64 605.174 175.128 604.038 175.128C603.014 175.128 602.142 175.568 601.606 176.272V175.36H600.55V184H601.734V178.424C601.734 177.072 602.534 176.184 603.734 176.184C604.926 176.184 605.726 177.032 605.726 178.408L605.718 184H606.878L606.886 178.424C606.886 176.816 607.918 176.184 608.902 176.184C610.038 176.184 610.87 176.992 610.87 178.328L610.862 184H612.038L612.046 178.104C612.046 176.28 610.918 175.128 609.174 175.128ZM621.172 176.848C620.716 175.728 619.564 175.12 617.988 175.12C616.084 175.12 614.868 176.016 614.468 177.56L615.612 177.896C615.94 176.744 616.788 176.232 617.972 176.232C619.612 176.232 620.26 176.984 620.276 178.544C619.124 178.704 617.508 178.888 616.34 179.168C615.052 179.512 614.14 180.264 614.14 181.68C614.14 183.056 615.132 184.24 617.092 184.24C618.564 184.24 619.708 183.664 620.38 182.568V184H621.428V178.632C621.428 177.992 621.38 177.352 621.172 176.848ZM617.228 183.224C615.836 183.224 615.316 182.432 615.316 181.68C615.316 180.744 616.076 180.328 616.812 180.112C617.764 179.848 619.124 179.712 620.26 179.576C620.26 179.968 620.244 180.528 620.148 180.952C619.924 182.256 618.876 183.224 617.228 183.224ZM625.347 184V172.24H624.171V184H625.347ZM629.581 184V172.24H628.405V184H629.581ZM639.766 184.24C641.479 184.24 642.743 183.416 643.391 181.88L642.207 181.528C641.775 182.568 640.935 183.112 639.766 183.112C637.911 183.112 636.975 181.752 636.951 179.68C636.975 177.664 637.855 176.248 639.766 176.248C640.895 176.248 641.831 176.848 642.239 177.88L643.391 177.512C642.911 176.032 641.519 175.12 639.775 175.12C637.191 175.12 635.735 176.96 635.703 179.68C635.735 182.344 637.151 184.24 639.766 184.24ZM652.031 176.848C651.575 175.728 650.423 175.12 648.847 175.12C646.943 175.12 645.727 176.016 645.327 177.56L646.471 177.896C646.799 176.744 647.647 176.232 648.831 176.232C650.471 176.232 651.119 176.984 651.135 178.544C649.983 178.704 648.367 178.888 647.199 179.168C645.911 179.512 644.999 180.264 644.999 181.68C644.999 183.056 645.991 184.24 647.951 184.24C649.423 184.24 650.567 183.664 651.239 182.568V184H652.287V178.632C652.287 177.992 652.239 177.352 652.031 176.848ZM648.087 183.224C646.695 183.224 646.175 182.432 646.175 181.68C646.175 180.744 646.935 180.328 647.671 180.112C648.623 179.848 649.983 179.712 651.119 179.576C651.119 179.968 651.103 180.528 651.007 180.952C650.783 182.256 649.735 183.224 648.087 183.224ZM658.798 175.12C657.518 175.12 656.55 175.656 655.918 176.552V175.36H654.862V187.84H656.046V182.968C656.67 183.76 657.582 184.24 658.75 184.24C661.174 184.24 662.582 182.264 662.582 179.672C662.582 177.096 661.166 175.12 658.798 175.12ZM658.63 183.144C656.79 183.144 655.918 181.672 655.918 179.672C655.918 177.64 656.806 176.216 658.606 176.216C660.462 176.216 661.334 177.72 661.334 179.672C661.334 181.64 660.43 183.144 658.63 183.144ZM667.985 184.232C670.105 184.232 671.393 183.24 671.393 181.608C671.393 180.272 670.649 179.656 668.265 179.048C666.225 178.536 665.737 178.216 665.737 177.528C665.737 176.712 666.585 176.168 667.809 176.192C669.105 176.216 670.009 176.84 670.177 177.856L671.377 177.64C671.201 176.136 669.777 175.12 667.825 175.12C665.873 175.12 664.545 176.112 664.545 177.584C664.545 178.792 665.265 179.36 667.609 179.992C669.801 180.584 670.169 180.824 670.169 181.624C670.169 182.568 669.361 183.16 668.049 183.16C666.705 183.16 665.729 182.536 665.481 181.552L664.281 181.752C664.577 183.312 665.961 184.232 667.985 184.232ZM680.594 184.232C682.714 184.232 684.002 183.24 684.002 181.608C684.002 180.272 683.258 179.656 680.874 179.048C678.834 178.536 678.346 178.216 678.346 177.528C678.346 176.712 679.194 176.168 680.418 176.192C681.714 176.216 682.618 176.84 682.786 177.856L683.986 177.64C683.81 176.136 682.386 175.12 680.434 175.12C678.482 175.12 677.154 176.112 677.154 177.584C677.154 178.792 677.874 179.36 680.218 179.992C682.41 180.584 682.778 180.824 682.778 181.624C682.778 182.568 681.97 183.16 680.658 183.16C679.314 183.16 678.338 182.536 678.09 181.552L676.89 181.752C677.186 183.312 678.57 184.232 680.594 184.232ZM690.98 176.368V175.36H688.332V172.96H687.164V175.36H685.316V176.368H687.164V180.872C687.164 181.72 687.124 182.336 687.436 182.968C688.004 184.12 689.516 184.304 690.98 184V182.968C689.74 183.168 688.892 183.096 688.508 182.376C688.3 182.008 688.332 181.552 688.332 180.824V176.368H690.98ZM696.478 184.24C699.038 184.24 700.574 182.392 700.574 179.672C700.574 177 699.07 175.12 696.478 175.12C693.95 175.12 692.39 176.952 692.39 179.672C692.39 182.352 693.902 184.24 696.478 184.24ZM696.478 183.112C694.606 183.112 693.638 181.752 693.638 179.672C693.638 177.656 694.542 176.248 696.478 176.248C698.382 176.248 699.326 177.592 699.326 179.672C699.326 181.712 698.398 183.112 696.478 183.112ZM706.423 184.24C708.135 184.24 709.399 183.416 710.047 181.88L708.863 181.528C708.431 182.568 707.591 183.112 706.423 183.112C704.567 183.112 703.631 181.752 703.607 179.68C703.631 177.664 704.511 176.248 706.423 176.248C707.551 176.248 708.487 176.848 708.895 177.88L710.047 177.512C709.567 176.032 708.175 175.12 706.431 175.12C703.847 175.12 702.391 176.96 702.359 179.68C702.391 182.344 703.807 184.24 706.423 184.24ZM718.974 184L714.95 179.024L718.766 175.36H717.302L713.326 179.12V172.48H712.198L712.19 184H713.326V180.584L714.15 179.792L717.574 184H718.974ZM723.703 184.232C725.823 184.232 727.111 183.24 727.111 181.608C727.111 180.272 726.367 179.656 723.983 179.048C721.943 178.536 721.455 178.216 721.455 177.528C721.455 176.712 722.303 176.168 723.527 176.192C724.823 176.216 725.727 176.84 725.895 177.856L727.095 177.64C726.919 176.136 725.495 175.12 723.543 175.12C721.591 175.12 720.263 176.112 720.263 177.584C720.263 178.792 720.983 179.36 723.327 179.992C725.519 180.584 725.887 180.824 725.887 181.624C725.887 182.568 725.079 183.16 723.767 183.16C722.423 183.16 721.447 182.536 721.199 181.552L719.999 181.752C720.295 183.312 721.679 184.232 723.703 184.232Z" fill="white"/>
<circle cx="490" cy="222" r="10" fill="white"/>
<path d="M486.25 222.625L489.25 224.5L493.75 219.5" stroke="#1BD47B" stroke-width="1.25" stroke-linecap="round" stroke-linejoin="round"/>
<path d="M510.32 228H511.544L512.512 225.208H517.624L518.592 228H519.816L515.848 216.48H514.288L510.32 228ZM515.056 217.8L517.24 224.104H512.888L515.056 217.8ZM525.345 228.24C527.057 228.24 528.321 227.416 528.969 225.88L527.785 225.528C527.353 226.568 526.513 227.112 525.345 227.112C523.489 227.112 522.553 225.752 522.529 223.68C522.553 221.664 523.433 220.248 525.345 220.248C526.473 220.248 527.409 220.848 527.817 221.88L528.969 221.512C528.489 220.032 527.097 219.12 525.353 219.12C522.769 219.12 521.313 220.96 521.281 223.68C521.313 226.344 522.729 228.24 525.345 228.24ZM534.47 228.24C536.182 228.24 537.446 227.416 538.094 225.88L536.91 225.528C536.478 226.568 535.638 227.112 534.47 227.112C532.614 227.112 531.678 225.752 531.654 223.68C531.678 221.664 532.558 220.248 534.47 220.248C535.598 220.248 536.534 220.848 536.942 221.88L538.094 221.512C537.614 220.032 536.222 219.12 534.478 219.12C531.894 219.12 530.438 220.96 530.406 223.68C530.438 226.344 531.854 228.24 534.47 228.24ZM547.595 224.008C547.683 220.96 546.179 219.12 543.619 219.12C541.123 219.12 539.531 220.888 539.531 223.72C539.531 226.456 541.147 228.24 543.667 228.24C545.339 228.24 546.739 227.384 547.427 225.872L546.331 225.448C545.795 226.528 544.851 227.112 543.619 227.112C541.899 227.112 540.883 225.984 540.787 224.008H547.595ZM543.651 220.2C545.259 220.2 546.179 221.16 546.363 223.024H540.811C540.995 221.208 541.987 220.2 543.651 220.2ZM553.094 228.232C555.214 228.232 556.502 227.24 556.502 225.608C556.502 224.272 555.758 223.656 553.374 223.048C551.334 222.536 550.846 222.216 550.846 221.528C550.846 220.712 551.694 220.168 552.918 220.192C554.214 220.216 555.118 220.84 555.286 221.856L556.486 221.64C556.31 220.136 554.886 219.12 552.934 219.12C550.982 219.12 549.654 220.112 549.654 221.584C549.654 222.792 550.374 223.36 552.718 223.992C554.91 224.584 555.278 224.824 555.278 225.624C555.278 226.568 554.47 227.16 553.158 227.16C551.814 227.16 550.838 226.536 550.59 225.552L549.39 225.752C549.686 227.312 551.07 228.232 553.094 228.232ZM562 228.232C564.12 228.232 565.408 227.24 565.408 225.608C565.408 224.272 564.664 223.656 562.28 223.048C560.24 222.536 559.752 222.216 559.752 221.528C559.752 220.712 560.6 220.168 561.824 220.192C563.12 220.216 564.024 220.84 564.192 221.856L565.392 221.64C565.216 220.136 563.792 219.12 561.84 219.12C559.888 219.12 558.56 220.112 558.56 221.584C558.56 222.792 559.28 223.36 561.624 223.992C563.816 224.584 564.184 224.824 564.184 225.624C564.184 226.568 563.376 227.16 562.064 227.16C560.72 227.16 559.744 226.536 559.496 225.552L558.296 225.752C558.592 227.312 559.976 228.232 562 228.232ZM576.09 220.368V219.36H573.442V216.96H572.274V219.36H570.426V220.368H572.274V224.872C572.274 225.72 572.234 226.336 572.546 226.968C573.114 228.12 574.626 228.304 576.09 228V226.968C574.85 227.168 574.002 227.096 573.618 226.376C573.41 226.008 573.442 225.552 573.442 224.824V220.368H576.09ZM581.587 228.24C584.147 228.24 585.683 226.392 585.683 223.672C585.683 221 584.179 219.12 581.587 219.12C579.059 219.12 577.499 220.952 577.499 223.672C577.499 226.352 579.011 228.24 581.587 228.24ZM581.587 227.112C579.715 227.112 578.747 225.752 578.747 223.672C578.747 221.656 579.651 220.248 581.587 220.248C583.491 220.248 584.435 221.592 584.435 223.672C584.435 225.712 583.507 227.112 581.587 227.112ZM600.267 219.128C599.115 219.128 598.155 219.672 597.651 220.584C597.187 219.64 596.267 219.128 595.131 219.128C594.107 219.128 593.235 219.568 592.699 220.272V219.36H591.643V228H592.827V222.424C592.827 221.072 593.627 220.184 594.827 220.184C596.019 220.184 596.819 221.032 596.819 222.408L596.811 228H597.971L597.979 222.424C597.979 220.816 599.011 220.184 599.995 220.184C601.131 220.184 601.963 220.992 601.963 222.328L601.955 228H603.131L603.139 222.104C603.139 220.28 602.011 219.128 600.267 219.128ZM609.259 228.24C611.819 228.24 613.355 226.392 613.355 223.672C613.355 221 611.851 219.12 609.259 219.12C606.731 219.12 605.171 220.952 605.171 223.672C605.171 226.352 606.683 228.24 609.259 228.24ZM609.259 227.112C607.387 227.112 606.419 225.752 606.419 223.672C606.419 221.656 607.323 220.248 609.259 220.248C611.163 220.248 612.107 221.592 612.107 223.672C612.107 225.712 611.179 227.112 609.259 227.112ZM617.348 219.928C617.1 220.12 616.86 220.4 616.676 220.728V219.36H615.62V228H616.796V223.688C616.796 222.656 616.94 221.536 617.804 220.856C618.428 220.344 619.228 220.312 619.868 220.464V219.36C619.108 219.168 618.028 219.336 617.348 219.928ZM629.313 224.008C629.401 220.96 627.897 219.12 625.337 219.12C622.841 219.12 621.249 220.888 621.249 223.72C621.249 226.456 622.865 228.24 625.385 228.24C627.057 228.24 628.457 227.384 629.145 225.872L628.049 225.448C627.513 226.528 626.569 227.112 625.337 227.112C623.617 227.112 622.601 225.984 622.505 224.008H629.313ZM625.369 220.2C626.977 220.2 627.897 221.16 628.081 223.024H622.529C622.713 221.208 623.705 220.2 625.369 220.2ZM636.684 216.872C636.212 217.384 636.148 218.056 636.148 218.72V219.36H634.652V220.368H636.148V228H637.324V220.368H639.684V219.36H637.324V218.592C637.324 217.656 637.764 217.232 638.66 217.232H639.684V216.24H638.58C637.916 216.24 637.204 216.304 636.684 216.872ZM641.948 216.248C641.484 216.248 641.132 216.6 641.132 217.064C641.132 217.52 641.484 217.872 641.948 217.872C642.412 217.872 642.772 217.52 642.772 217.064C642.772 216.6 642.412 216.248 641.948 216.248ZM642.54 228V219.36H641.364V228H642.54ZM646.769 228V216.24H645.593V228H646.769ZM654.371 220.368V219.36H651.723V216.96H650.555V219.36H648.707V220.368H650.555V224.872C650.555 225.72 650.515 226.336 650.827 226.968C651.395 228.12 652.907 228.304 654.371 228V226.968C653.131 227.168 652.283 227.096 651.899 226.376C651.691 226.008 651.723 225.552 651.723 224.824V220.368H654.371ZM663.845 224.008C663.933 220.96 662.429 219.12 659.869 219.12C657.373 219.12 655.781 220.888 655.781 223.72C655.781 226.456 657.397 228.24 659.917 228.24C661.589 228.24 662.989 227.384 663.677 225.872L662.581 225.448C662.045 226.528 661.101 227.112 659.869 227.112C658.149 227.112 657.133 225.984 657.037 224.008H663.845ZM659.901 220.2C661.509 220.2 662.429 221.16 662.613 223.024H657.061C657.245 221.208 658.237 220.2 659.901 220.2ZM667.848 219.928C667.6 220.12 667.36 220.4 667.176 220.728V219.36H666.12V228H667.296V223.688C667.296 222.656 667.44 221.536 668.304 220.856C668.928 220.344 669.728 220.312 670.368 220.464V219.36C669.608 219.168 668.528 219.336 667.848 219.928ZM675.297 228.232C677.417 228.232 678.705 227.24 678.705 225.608C678.705 224.272 677.961 223.656 675.577 223.048C673.537 222.536 673.049 222.216 673.049 221.528C673.049 220.712 673.897 220.168 675.121 220.192C676.417 220.216 677.321 220.84 677.489 221.856L678.689 221.64C678.513 220.136 677.089 219.12 675.137 219.12C673.185 219.12 671.857 220.112 671.857 221.584C671.857 222.792 672.577 223.36 674.921 223.992C677.113 224.584 677.481 224.824 677.481 225.624C677.481 226.568 676.673 227.16 675.361 227.16C674.017 227.16 673.041 226.536 672.793 225.552L671.593 225.752C671.889 227.312 673.273 228.232 675.297 228.232Z" fill="white"/>
</svg>
