<svg width="209" height="87" viewBox="0 0 209 87" fill="none" xmlns="http://www.w3.org/2000/svg">
<rect y="0.119751" width="208.5" height="86" rx="8" fill="#1BD47B"/>
<path fill-rule="evenodd" clip-rule="evenodd" d="M19.3083 27.4948C17.4812 27.4948 16 28.9948 16 30.8427V50.9323C16 52.7812 17.4812 54.2802 19.3083 54.2802H30.3385V56.5125H25.926V58.7447H43.574V56.5125H39.1615V54.2802H50.1917C52.0187 54.2802 53.5 52.7812 53.5 50.9323V30.8427C53.5 28.9948 52.0187 27.4948 50.1917 27.4948H19.3083ZM32.5437 56.5125V54.2802H36.9562V56.5125H32.5437ZM23.7208 31.9593H25.9271V34.1916H28.1333V36.4239H25.9271V38.6552H23.7208V36.4239H21.5146V34.1916H23.7208V31.9593ZM21.5146 43.1198C21.5146 42.5031 22.0083 42.0041 22.6177 42.0041H27.0292C27.6385 42.0041 28.1323 42.5041 28.1323 43.1198V47.5843C28.1323 48.2 27.6385 48.7 27.0292 48.7H22.6177C22.0083 48.7 21.5135 48.2 21.5135 47.5843V43.1198H21.5146ZM31.4417 33.075C31.4417 32.4593 31.9344 31.9593 32.5437 31.9593H36.9552C37.5646 31.9593 38.0594 32.4593 38.0594 33.075V37.5395C38.0594 38.1562 37.5646 38.6552 36.9552 38.6552H32.5437C31.9344 38.6552 31.4406 38.1552 31.4406 37.5395V33.075H31.4417ZM31.4417 43.1198C31.4417 42.5031 31.9344 42.0041 32.5437 42.0041H36.9552C37.5646 42.0041 38.0594 42.5041 38.0594 43.1198V47.5843C38.0594 48.2 37.5646 48.7 36.9552 48.7H32.5437C31.9344 48.7 31.4406 48.2 31.4406 47.5843V43.1198H31.4417ZM41.3677 33.075C41.3677 32.4593 41.8615 31.9593 42.4708 31.9593H46.8823C47.4917 31.9593 47.9854 32.4593 47.9854 33.075V37.5395C47.9854 38.1562 47.4917 38.6552 46.8812 38.6552H42.4708C41.8615 38.6552 41.3667 38.1552 41.3667 37.5395V33.075H41.3677Z" fill="#1F2226"/>
<path d="M70.62 34.1198V22.5998H74.228C74.8253 22.5998 75.3027 22.6238 75.66 22.6718C76.54 22.7838 77.2893 23.1011 77.908 23.6238C78.532 24.1464 79.004 24.8184 79.324 25.6398C79.644 26.4611 79.804 27.3678 79.804 28.3598C79.804 29.3518 79.644 30.2584 79.324 31.0798C79.004 31.9011 78.532 32.5731 77.908 33.0958C77.2893 33.6184 76.54 33.9358 75.66 34.0478C75.3027 34.0958 74.8253 34.1198 74.228 34.1198H70.62ZM74.228 32.5278C74.82 32.5278 75.2573 32.5011 75.54 32.4478C76.1053 32.3411 76.572 32.0931 76.94 31.7038C77.3133 31.3144 77.588 30.8318 77.764 30.2558C77.94 29.6798 78.028 29.0478 78.028 28.3598C78.028 27.6611 77.9373 27.0238 77.756 26.4478C77.58 25.8664 77.3053 25.3838 76.932 24.9998C76.5587 24.6158 76.0947 24.3731 75.54 24.2718C75.2573 24.2184 74.82 24.1918 74.228 24.1918H72.332V32.5278H74.228ZM85.4189 34.3598C84.5709 34.3598 83.8269 34.1678 83.1869 33.7838C82.5469 33.3944 82.0535 32.8558 81.7069 32.1678C81.3602 31.4744 81.1869 30.6824 81.1869 29.7918C81.1869 28.8958 81.3629 28.1038 81.7149 27.4158C82.0669 26.7278 82.5629 26.1944 83.2029 25.8158C83.8429 25.4318 84.5815 25.2398 85.4189 25.2398C86.2669 25.2398 87.0109 25.4318 87.6509 25.8158C88.2962 26.1998 88.7922 26.7384 89.1389 27.4318C89.4855 28.1198 89.6589 28.9064 89.6589 29.7918C89.6589 30.6878 89.4829 31.4824 89.1309 32.1758C88.7842 32.8638 88.2909 33.3998 87.6509 33.7838C87.0109 34.1678 86.2669 34.3598 85.4189 34.3598ZM85.4189 32.7838C86.2189 32.7838 86.8295 32.5144 87.2509 31.9758C87.6722 31.4318 87.8829 30.7038 87.8829 29.7918C87.8829 28.8691 87.6722 28.1438 87.2509 27.6158C86.8295 27.0824 86.2189 26.8158 85.4189 26.8158C84.6082 26.8158 83.9949 27.0824 83.5789 27.6158C83.1682 28.1491 82.9629 28.8744 82.9629 29.7918C82.9629 30.7198 83.1735 31.4504 83.5949 31.9838C84.0162 32.5171 84.6242 32.7838 85.4189 32.7838ZM94.2884 34.1198H92.9444L90.3044 25.4718L91.9604 25.4798L93.7684 31.4078L95.5924 25.4798H97.0324L98.8564 31.4078L100.664 25.4798H102.312L99.6724 34.1198H98.3284L96.3124 27.8638L94.2884 34.1198ZM108.089 25.2478C108.996 25.2478 109.702 25.4771 110.209 25.9358C110.721 26.3891 111.065 26.9198 111.241 27.5278C111.417 28.1358 111.505 28.7331 111.505 29.3198V34.1198H109.809V29.8718C109.809 29.0238 109.652 28.3064 109.337 27.7198C109.022 27.1278 108.452 26.8318 107.625 26.8318C106.969 26.8318 106.438 27.0558 106.033 27.5038C105.633 27.9518 105.433 28.6584 105.433 29.6238V34.1198H103.737V25.4798H105.233V26.5118C105.558 26.1064 105.961 25.7944 106.441 25.5758C106.921 25.3571 107.47 25.2478 108.089 25.2478ZM115.421 34.1198H113.749V22.3598H115.421V34.1198ZM121.575 34.3598C120.727 34.3598 119.983 34.1678 119.343 33.7838C118.703 33.3944 118.21 32.8558 117.863 32.1678C117.516 31.4744 117.343 30.6824 117.343 29.7918C117.343 28.8958 117.519 28.1038 117.871 27.4158C118.223 26.7278 118.719 26.1944 119.359 25.8158C119.999 25.4318 120.738 25.2398 121.575 25.2398C122.423 25.2398 123.167 25.4318 123.807 25.8158C124.452 26.1998 124.948 26.7384 125.295 27.4318C125.642 28.1198 125.815 28.9064 125.815 29.7918C125.815 30.6878 125.639 31.4824 125.287 32.1758C124.94 32.8638 124.447 33.3998 123.807 33.7838C123.167 34.1678 122.423 34.3598 121.575 34.3598ZM121.575 32.7838C122.375 32.7838 122.986 32.5144 123.407 31.9758C123.828 31.4318 124.039 30.7038 124.039 29.7918C124.039 28.8691 123.828 28.1438 123.407 27.6158C122.986 27.0824 122.375 26.8158 121.575 26.8158C120.764 26.8158 120.151 27.0824 119.735 27.6158C119.324 28.1491 119.119 28.8744 119.119 29.7918C119.119 30.7198 119.33 31.4504 119.751 31.9838C120.172 32.5171 120.78 32.7838 121.575 32.7838ZM134.301 26.8878C134.424 27.1491 134.504 27.4291 134.541 27.7278C134.584 28.0211 134.605 28.3784 134.605 28.7998V34.1198H133.125V32.8638C132.768 33.3704 132.333 33.7464 131.821 33.9918C131.314 34.2371 130.712 34.3598 130.013 34.3598C129.394 34.3598 128.866 34.2451 128.429 34.0158C127.992 33.7811 127.658 33.4691 127.429 33.0798C127.205 32.6851 127.093 32.2478 127.093 31.7678C127.093 30.4931 127.773 29.6398 129.133 29.2078C129.544 29.0851 130.008 28.9811 130.525 28.8958C131.048 28.8051 131.77 28.6958 132.693 28.5678L132.957 28.5358C132.93 27.9278 132.765 27.4851 132.461 27.2078C132.157 26.9251 131.672 26.7838 131.005 26.7838C130.52 26.7838 130.093 26.8958 129.725 27.1198C129.357 27.3438 129.104 27.6851 128.965 28.1438L127.405 27.6638C127.618 26.9011 128.029 26.3064 128.637 25.8798C129.25 25.4531 130.045 25.2398 131.021 25.2398C131.816 25.2398 132.496 25.3758 133.061 25.6478C133.626 25.9198 134.04 26.3331 134.301 26.8878ZM130.309 32.9918C130.762 32.9918 131.162 32.9118 131.509 32.7518C131.856 32.5864 132.133 32.3731 132.341 32.1118C132.554 31.8504 132.696 31.5731 132.765 31.2798C132.872 30.9704 132.93 30.5198 132.941 29.9278L132.733 29.9598C131.954 30.0718 131.37 30.1624 130.981 30.2318C130.597 30.3011 130.25 30.3811 129.941 30.4718C129.568 30.5998 129.274 30.7651 129.061 30.9678C128.853 31.1704 128.749 31.4318 128.749 31.7518C128.749 32.1091 128.88 32.4051 129.141 32.6398C129.408 32.8744 129.797 32.9918 130.309 32.9918ZM142.499 22.5998H144.179V34.1198H142.691V33.3278C142.371 33.6584 141.995 33.9144 141.563 34.0958C141.131 34.2718 140.648 34.3598 140.115 34.3598C139.331 34.3598 138.643 34.1624 138.051 33.7678C137.459 33.3678 137.003 32.8211 136.683 32.1278C136.363 31.4344 136.203 30.6558 136.203 29.7918C136.203 28.9224 136.363 28.1438 136.683 27.4558C137.008 26.7624 137.467 26.2211 138.059 25.8318C138.656 25.4371 139.352 25.2398 140.147 25.2398C141.085 25.2398 141.869 25.5171 142.499 26.0718V22.5998ZM140.347 32.8478C141.136 32.8478 141.723 32.5758 142.107 32.0318C142.496 31.4824 142.691 30.7358 142.691 29.7918C142.691 28.8584 142.499 28.1198 142.115 27.5758C141.736 27.0264 141.165 26.7518 140.403 26.7518C139.864 26.7518 139.413 26.8851 139.051 27.1518C138.688 27.4131 138.419 27.7731 138.243 28.2318C138.067 28.6904 137.979 29.2104 137.979 29.7918C137.979 30.3784 138.067 30.9011 138.243 31.3598C138.419 31.8184 138.683 32.1811 139.035 32.4478C139.392 32.7144 139.829 32.8478 140.347 32.8478Z" fill="#1F2226"/>
<path d="M70.9 63.1198V48.7198H75.49C76.21 48.7198 76.7933 48.7464 77.24 48.7998C78.3533 48.9398 79.3067 49.3398 80.1 49.9998C80.9 50.6531 81.5067 51.4964 81.92 52.5298C82.3333 53.5564 82.54 54.6864 82.54 55.9198C82.54 57.1598 82.3333 58.2931 81.92 59.3198C81.5067 60.3464 80.9 61.1898 80.1 61.8498C79.3067 62.5031 78.3533 62.8998 77.24 63.0398C76.8 63.0931 76.2167 63.1198 75.49 63.1198H70.9ZM75.49 60.8498C76.19 60.8498 76.72 60.8131 77.08 60.7398C77.7333 60.6131 78.2767 60.3164 78.71 59.8498C79.15 59.3831 79.4733 58.8098 79.68 58.1298C79.8867 57.4431 79.99 56.7064 79.99 55.9198C79.99 55.1131 79.8833 54.3698 79.67 53.6898C79.4567 53.0031 79.13 52.4298 78.69 51.9698C78.2567 51.5098 77.72 51.2198 77.08 51.0998C76.72 51.0264 76.19 50.9898 75.49 50.9898H73.35V60.8498H75.49ZM86.8839 58.3898C86.9772 59.2831 87.2606 59.9698 87.7339 60.4498C88.2139 60.9231 88.8606 61.1598 89.6739 61.1598C90.2606 61.1598 90.7706 61.0298 91.2039 60.7698C91.6372 60.5031 91.9706 60.1198 92.2039 59.6198L94.5839 60.3398C94.3106 60.9798 93.9306 61.5331 93.4439 61.9998C92.9639 62.4598 92.4106 62.8131 91.7839 63.0598C91.1639 63.2998 90.5072 63.4198 89.8139 63.4198C88.7339 63.4198 87.7772 63.1831 86.9439 62.7098C86.1106 62.2364 85.4606 61.5764 84.9939 60.7298C84.5339 59.8831 84.3039 58.9198 84.3039 57.8398C84.3039 56.6731 84.5272 55.6531 84.9739 54.7798C85.4272 53.8998 86.0606 53.2198 86.8739 52.7397C87.6872 52.2598 88.6206 52.0198 89.6739 52.0198C90.7139 52.0198 91.6139 52.2498 92.3739 52.7098C93.1339 53.1698 93.7172 53.8264 94.1239 54.6798C94.5306 55.5264 94.7339 56.5231 94.7339 57.6698C94.7339 57.8964 94.7239 58.1364 94.7039 58.3898H86.8839ZM89.7739 54.1298C88.1739 54.1298 87.2306 54.9431 86.9439 56.5698H92.2639C92.1572 55.7298 91.9006 55.1131 91.4939 54.7198C91.0939 54.3264 90.5206 54.1298 89.7739 54.1298ZM101.105 63.4198C99.7718 63.4198 98.6885 63.1198 97.8552 62.5198C97.0218 61.9198 96.5152 61.0764 96.3352 59.9898L98.7952 59.6098C98.9152 60.1498 99.1918 60.5731 99.6252 60.8798C100.065 61.1798 100.615 61.3298 101.275 61.3298C101.848 61.3298 102.295 61.2164 102.615 60.9898C102.935 60.7564 103.095 60.4398 103.095 60.0398C103.095 59.7798 103.032 59.5798 102.905 59.4398C102.785 59.2998 102.542 59.1631 102.175 59.0298C101.808 58.8898 101.198 58.7064 100.345 58.4798C99.4318 58.2398 98.7085 57.9831 98.1752 57.7098C97.6485 57.4298 97.2685 57.1031 97.0352 56.7298C96.8018 56.3498 96.6852 55.8864 96.6852 55.3398C96.6852 54.6731 96.8585 54.0898 97.2052 53.5898C97.5585 53.0898 98.0552 52.7031 98.6952 52.4298C99.3418 52.1564 100.088 52.0198 100.935 52.0198C101.768 52.0198 102.512 52.1498 103.165 52.4097C103.818 52.6698 104.345 53.0431 104.745 53.5298C105.152 54.0098 105.398 54.5698 105.485 55.2098L103.025 55.6498C102.958 55.1898 102.745 54.8264 102.385 54.5598C102.032 54.2931 101.562 54.1431 100.975 54.1098C100.408 54.0831 99.9518 54.1731 99.6052 54.3798C99.2585 54.5798 99.0852 54.8598 99.0852 55.2198C99.0852 55.4398 99.1552 55.6198 99.2952 55.7598C99.4418 55.8998 99.7185 56.0431 100.125 56.1898C100.532 56.3298 101.168 56.5098 102.035 56.7298C102.908 56.9564 103.598 57.2098 104.105 57.4898C104.618 57.7698 104.988 58.1064 105.215 58.4998C105.448 58.8864 105.565 59.3631 105.565 59.9298C105.565 60.6498 105.385 61.2731 105.025 61.7998C104.672 62.3198 104.158 62.7198 103.485 62.9998C102.818 63.2798 102.025 63.4198 101.105 63.4198ZM117.355 63.1198H114.735L111.085 58.3298L110.025 59.3998V63.1198H107.735L107.755 48.7198H110.025V56.4398L114.205 52.3198H117.035L112.565 56.8298L117.355 63.1198ZM121.677 54.2098V58.5698V59.1398C121.677 59.4864 121.691 59.7664 121.717 59.9798C121.744 60.1931 121.804 60.3698 121.897 60.5098C122.051 60.7631 122.264 60.9431 122.537 61.0498C122.817 61.1564 123.161 61.2098 123.567 61.2098C123.941 61.2098 124.367 61.1731 124.847 61.0998V63.1198C124.194 63.2464 123.584 63.3098 123.017 63.3098C122.244 63.3098 121.567 63.1898 120.987 62.9498C120.407 62.7031 119.974 62.3164 119.687 61.7898C119.514 61.4764 119.401 61.1531 119.347 60.8198C119.294 60.4864 119.267 60.0898 119.267 59.6298L119.277 58.7098V54.2098H117.317V52.3198H119.277V49.3197H121.677V52.3198H124.847V54.2098H121.677ZM131.393 63.4198C130.326 63.4198 129.386 63.1798 128.573 62.6998C127.759 62.2131 127.129 61.5398 126.683 60.6798C126.243 59.8131 126.023 58.8264 126.023 57.7198C126.023 56.5998 126.246 55.6098 126.693 54.7498C127.146 53.8831 127.779 53.2131 128.593 52.7397C129.406 52.2598 130.339 52.0198 131.393 52.0198C132.466 52.0198 133.409 52.2631 134.223 52.7498C135.036 53.2298 135.666 53.9031 136.113 54.7698C136.559 55.6298 136.783 56.6131 136.783 57.7198C136.783 58.8331 136.556 59.8231 136.103 60.6898C135.656 61.5498 135.023 62.2198 134.203 62.6998C133.389 63.1798 132.453 63.4198 131.393 63.4198ZM131.393 61.1598C132.319 61.1598 133.023 60.8498 133.503 60.2298C133.989 59.6098 134.233 58.7731 134.233 57.7198C134.233 56.6531 133.989 55.8131 133.503 55.1998C133.023 54.5864 132.319 54.2798 131.393 54.2798C130.453 54.2798 129.746 54.5898 129.273 55.2098C128.806 55.8231 128.573 56.6598 128.573 57.7198C128.573 58.7931 128.813 59.6364 129.293 60.2498C129.779 60.8564 130.479 61.1598 131.393 61.1598ZM144.086 52.0198C145.086 52.0198 145.966 52.2664 146.726 52.7598C147.486 53.2464 148.073 53.9231 148.486 54.7898C148.899 55.6498 149.106 56.6264 149.106 57.7198C149.106 58.7998 148.903 59.7731 148.496 60.6398C148.089 61.4998 147.509 62.1798 146.756 62.6798C146.009 63.1731 145.149 63.4198 144.176 63.4198C143.089 63.4198 142.163 63.1364 141.396 62.5698V67.9198H138.966V52.3198H141.096V53.0998C141.889 52.3798 142.886 52.0198 144.086 52.0198ZM143.806 61.2598C144.413 61.2598 144.919 61.1064 145.326 60.7998C145.739 60.4931 146.046 60.0731 146.246 59.5398C146.453 59.0064 146.556 58.3998 146.556 57.7198C146.556 57.0464 146.453 56.4431 146.246 55.9098C146.039 55.3764 145.723 54.9564 145.296 54.6498C144.876 54.3364 144.353 54.1798 143.726 54.1798C142.839 54.1798 142.179 54.4964 141.746 55.1298C141.313 55.7564 141.096 56.6198 141.096 57.7198C141.096 58.8198 141.316 59.6864 141.756 60.3198C142.196 60.9464 142.879 61.2598 143.806 61.2598ZM166.924 63.1198H164.444L163.454 59.9998H157.774L156.794 63.1198H154.314L158.854 48.7198H162.384L166.924 63.1198ZM160.594 51.0498L158.484 57.7498H162.734L160.594 51.0498ZM173.832 52.0198C174.832 52.0198 175.712 52.2664 176.472 52.7598C177.232 53.2464 177.819 53.9231 178.232 54.7898C178.645 55.6498 178.852 56.6264 178.852 57.7198C178.852 58.7998 178.649 59.7731 178.242 60.6398C177.835 61.4998 177.255 62.1798 176.502 62.6798C175.755 63.1731 174.895 63.4198 173.922 63.4198C172.835 63.4198 171.909 63.1364 171.142 62.5698V67.9198H168.712V52.3198H170.842V53.0998C171.635 52.3798 172.632 52.0198 173.832 52.0198ZM173.552 61.2598C174.159 61.2598 174.665 61.1064 175.072 60.7998C175.485 60.4931 175.792 60.0731 175.992 59.5398C176.199 59.0064 176.302 58.3998 176.302 57.7198C176.302 57.0464 176.199 56.4431 175.992 55.9098C175.785 55.3764 175.469 54.9564 175.042 54.6498C174.622 54.3364 174.099 54.1798 173.472 54.1798C172.585 54.1798 171.925 54.4964 171.492 55.1298C171.059 55.7564 170.842 56.6198 170.842 57.7198C170.842 58.8198 171.062 59.6864 171.502 60.3198C171.942 60.9464 172.625 61.2598 173.552 61.2598ZM186.156 52.0198C187.156 52.0198 188.036 52.2664 188.796 52.7598C189.556 53.2464 190.143 53.9231 190.556 54.7898C190.97 55.6498 191.176 56.6264 191.176 57.7198C191.176 58.7998 190.973 59.7731 190.566 60.6398C190.16 61.4998 189.58 62.1798 188.826 62.6798C188.08 63.1731 187.22 63.4198 186.246 63.4198C185.16 63.4198 184.233 63.1364 183.466 62.5698V67.9198H181.036V52.3198H183.166V53.0998C183.96 52.3798 184.956 52.0198 186.156 52.0198ZM185.876 61.2598C186.483 61.2598 186.99 61.1064 187.396 60.7998C187.81 60.4931 188.116 60.0731 188.316 59.5398C188.523 59.0064 188.626 58.3998 188.626 57.7198C188.626 57.0464 188.523 56.4431 188.316 55.9098C188.11 55.3764 187.793 54.9564 187.366 54.6498C186.946 54.3364 186.423 54.1798 185.796 54.1798C184.91 54.1798 184.25 54.4964 183.816 55.1298C183.383 55.7564 183.166 56.6198 183.166 57.7198C183.166 58.8198 183.386 59.6864 183.826 60.3198C184.266 60.9464 184.95 61.2598 185.876 61.2598Z" fill="#1F2226"/>
</svg>
