<svg width="448" height="274" viewBox="0 0 448 274" fill="none" xmlns="http://www.w3.org/2000/svg">
<path d="M5.12 18.24C4.32 18.24 3.59733 18.1067 2.952 17.84C2.30667 17.568 1.77333 17.184 1.352 16.688C0.936 16.1867 0.664 15.5973 0.536 14.92L1.736 14.72C1.864 15.2107 2.088 15.6373 2.408 16C2.73333 16.3573 3.13067 16.632 3.6 16.824C4.07467 17.016 4.59733 17.112 5.168 17.112C5.73333 17.112 6.24 17.0213 6.688 16.84C7.14133 16.6587 7.49333 16.4027 7.744 16.072C8 15.736 8.128 15.3467 8.128 14.904C8.128 14.376 7.96267 13.9733 7.632 13.696C7.30133 13.4133 6.87733 13.1947 6.36 13.04L3.44 12.168C1.80267 11.6827 0.984 10.7627 0.984 9.408C0.984 8.77333 1.152 8.21867 1.488 7.744C1.824 7.264 2.288 6.896 2.88 6.64C3.472 6.37867 4.144 6.248 4.896 6.248C5.65867 6.248 6.34667 6.384 6.96 6.656C7.57867 6.92267 8.08533 7.30933 8.48 7.816C8.88 8.32267 9.14133 8.92 9.264 9.608L8.032 9.832C7.95733 9.34133 7.77333 8.90933 7.48 8.536C7.18667 8.16267 6.816 7.87467 6.368 7.672C5.92 7.46933 5.42667 7.368 4.888 7.368C4.38667 7.368 3.93333 7.456 3.528 7.632C3.12267 7.80267 2.80267 8.04 2.568 8.344C2.33867 8.648 2.224 8.98667 2.224 9.36C2.224 9.72267 2.32533 10.024 2.528 10.264C2.73067 10.4987 2.97333 10.6827 3.256 10.816C3.544 10.944 3.88267 11.064 4.272 11.176L6.528 11.84C6.99733 11.9733 7.42667 12.136 7.816 12.328C8.20533 12.52 8.55467 12.824 8.864 13.24C9.17333 13.6507 9.328 14.1893 9.328 14.856C9.328 15.5547 9.14667 16.16 8.784 16.672C8.42133 17.1787 7.92 17.568 7.28 17.84C6.64533 18.1067 5.92533 18.24 5.12 18.24ZM13.0354 10.368V14.824V15.296C13.0354 15.5627 13.046 15.7787 13.0674 15.944C13.0887 16.104 13.1367 16.248 13.2114 16.376C13.3394 16.6213 13.5234 16.7973 13.7634 16.904C14.0034 17.0107 14.3047 17.064 14.6674 17.064C14.9714 17.064 15.31 17.032 15.6834 16.968V18C15.2567 18.0853 14.8594 18.128 14.4914 18.128C13.942 18.128 13.462 18.0347 13.0514 17.848C12.6407 17.6613 12.3367 17.368 12.1394 16.968C12.0274 16.7387 11.9527 16.504 11.9154 16.264C11.8834 16.024 11.8674 15.7253 11.8674 15.368V14.872V10.368H10.0194V9.36H11.8674V6.96H13.0354V9.36H15.6834V10.368H13.0354ZM20.6811 18.24C19.8385 18.24 19.1078 18.048 18.4891 17.664C17.8758 17.2747 17.4065 16.736 17.0811 16.048C16.7558 15.36 16.5931 14.568 16.5931 13.672C16.5931 12.7707 16.7585 11.976 17.0891 11.288C17.4198 10.6 17.8918 10.0667 18.5051 9.688C19.1238 9.30933 19.8491 9.12 20.6811 9.12C21.5291 9.12 22.2598 9.312 22.8731 9.696C23.4918 10.08 23.9638 10.616 24.2891 11.304C24.6145 11.992 24.7771 12.7813 24.7771 13.672C24.7771 14.5787 24.6118 15.376 24.2811 16.064C23.9558 16.752 23.4838 17.288 22.8651 17.672C22.2518 18.0507 21.5238 18.24 20.6811 18.24ZM20.6811 17.112C21.3051 17.112 21.8305 16.9707 22.2571 16.688C22.6838 16.4 23.0011 16 23.2091 15.488C23.4225 14.9707 23.5291 14.3653 23.5291 13.672C23.5291 12.6053 23.2865 11.768 22.8011 11.16C22.3211 10.552 21.6145 10.248 20.6811 10.248C19.7425 10.248 19.0331 10.5573 18.5531 11.176C18.0785 11.7893 17.8411 12.6213 17.8411 13.672C17.8411 14.3707 17.9478 14.9787 18.1611 15.496C18.3798 16.0133 18.6998 16.4133 19.1211 16.696C19.5478 16.9733 20.0678 17.112 20.6811 17.112ZM30.1259 18.24C29.2725 18.24 28.5419 18.048 27.9339 17.664C27.3312 17.28 26.8699 16.744 26.5499 16.056C26.2352 15.368 26.0725 14.576 26.0619 13.68C26.0725 12.768 26.2379 11.9707 26.5579 11.288C26.8779 10.6 27.3419 10.0667 27.9499 9.688C28.5579 9.30933 29.2859 9.12 30.1339 9.12C30.7099 9.12 31.2432 9.216 31.7339 9.408C32.2245 9.6 32.6432 9.87733 32.9899 10.24C33.3365 10.5973 33.5899 11.0213 33.7499 11.512L32.5979 11.88C32.3952 11.368 32.0725 10.968 31.6299 10.68C31.1925 10.392 30.6912 10.248 30.1259 10.248C29.2032 10.248 28.5045 10.5573 28.0299 11.176C27.5605 11.7947 27.3205 12.6293 27.3099 13.68C27.3205 14.7413 27.5659 15.5787 28.0459 16.192C28.5259 16.8053 29.2192 17.112 30.1259 17.112C30.7125 17.112 31.2112 16.9787 31.6219 16.712C32.0379 16.44 32.3525 16.0453 32.5659 15.528L33.7499 15.88C33.4245 16.648 32.9525 17.2347 32.3339 17.64C31.7152 18.04 30.9792 18.24 30.1259 18.24ZM42.1773 18H40.7773L37.3533 13.792L36.5293 14.584V18H35.3933L35.4013 6.48H36.5293V13.12L40.5053 9.36H41.9693L38.1533 13.024L42.1773 18ZM46.5419 18V6.48H50.9899C51.2725 6.48 51.5419 6.50133 51.7979 6.544C52.3845 6.63467 52.8885 6.84267 53.3099 7.168C53.7365 7.49333 54.0592 7.90667 54.2779 8.408C54.4965 8.904 54.6059 9.45333 54.6059 10.056C54.6059 10.6587 54.4939 11.208 54.2699 11.704C54.0512 12.2 53.7312 12.6107 53.3099 12.936C52.8885 13.2613 52.3845 13.4693 51.7979 13.56C51.5419 13.6027 51.2725 13.624 50.9899 13.624H47.7179V18H46.5419ZM50.9579 12.504C51.2245 12.504 51.4619 12.48 51.6699 12.432C52.0485 12.352 52.3659 12.1947 52.6219 11.96C52.8832 11.7253 53.0779 11.4427 53.2059 11.112C53.3339 10.776 53.3979 10.424 53.3979 10.056C53.3979 9.688 53.3339 9.33867 53.2059 9.008C53.0779 8.672 52.8832 8.38667 52.6219 8.152C52.3659 7.912 52.0485 7.752 51.6699 7.672C51.4565 7.62933 51.2192 7.608 50.9579 7.608H47.7179V12.504H50.9579ZM57.9261 9.928C58.1661 9.71467 58.4515 9.55467 58.7821 9.448C59.1181 9.34133 59.4568 9.288 59.7981 9.288C60.0275 9.288 60.2435 9.312 60.4461 9.36V10.464C60.2168 10.4107 59.9955 10.384 59.7821 10.384C59.2275 10.384 58.7608 10.5413 58.3821 10.856C57.9875 11.1653 57.7208 11.56 57.5821 12.04C57.4435 12.52 57.3741 13.0693 57.3741 13.688V18H56.1981V9.36H57.2541V10.728C57.4408 10.3973 57.6648 10.1307 57.9261 9.928ZM63.2998 18H62.1238V9.36H63.2998V18ZM62.7078 7.872C62.4784 7.872 62.2838 7.79467 62.1238 7.64C61.9691 7.48533 61.8918 7.29333 61.8918 7.064C61.8918 6.82933 61.9691 6.63467 62.1238 6.48C62.2838 6.32533 62.4784 6.248 62.7078 6.248C62.9424 6.248 63.1371 6.328 63.2918 6.488C63.4518 6.64267 63.5318 6.83467 63.5318 7.064C63.5318 7.29333 63.4518 7.48533 63.2918 7.64C63.1371 7.79467 62.9424 7.872 62.7078 7.872ZM69.2821 18.24C68.4288 18.24 67.6981 18.048 67.0901 17.664C66.4875 17.28 66.0261 16.744 65.7061 16.056C65.3915 15.368 65.2288 14.576 65.2181 13.68C65.2288 12.768 65.3941 11.9707 65.7141 11.288C66.0341 10.6 66.4981 10.0667 67.1061 9.688C67.7141 9.30933 68.4421 9.12 69.2901 9.12C69.8661 9.12 70.3995 9.216 70.8901 9.408C71.3808 9.6 71.7995 9.87733 72.1461 10.24C72.4928 10.5973 72.7461 11.0213 72.9061 11.512L71.7541 11.88C71.5515 11.368 71.2288 10.968 70.7861 10.68C70.3488 10.392 69.8475 10.248 69.2821 10.248C68.3595 10.248 67.6608 10.5573 67.1861 11.176C66.7168 11.7947 66.4768 12.6293 66.4661 13.68C66.4768 14.7413 66.7221 15.5787 67.2021 16.192C67.6821 16.8053 68.3755 17.112 69.2821 17.112C69.8688 17.112 70.3675 16.9787 70.7781 16.712C71.1941 16.44 71.5088 16.0453 71.7221 15.528L72.9061 15.88C72.5808 16.648 72.1088 17.2347 71.4901 17.64C70.8715 18.04 70.1355 18.24 69.2821 18.24ZM75.0991 14.008C75.1471 15 75.4165 15.7653 75.9071 16.304C76.3978 16.8427 77.0725 17.112 77.9311 17.112C78.5445 17.112 79.0831 16.9707 79.5471 16.688C80.0111 16.4 80.3765 15.9867 80.6431 15.448L81.7391 15.872C81.3978 16.624 80.8965 17.208 80.2351 17.624C79.5738 18.0347 78.8218 18.24 77.9791 18.24C77.1471 18.24 76.4191 18.0533 75.7951 17.68C75.1711 17.3067 74.6885 16.7813 74.3471 16.104C74.0111 15.4213 73.8431 14.6267 73.8431 13.72C73.8431 12.7867 74.0085 11.9733 74.3391 11.28C74.6751 10.5867 75.1498 10.0533 75.7631 9.68C76.3818 9.30667 77.1045 9.12 77.9311 9.12C78.7578 9.12 79.4671 9.30667 80.0591 9.68C80.6565 10.048 81.1125 10.5813 81.4271 11.28C81.7471 11.9733 81.9071 12.8 81.9071 13.76V14.008H75.0991ZM77.9631 10.2C77.1365 10.2 76.4778 10.4427 75.9871 10.928C75.5018 11.4133 75.2138 12.112 75.1231 13.024H80.6751C80.5898 12.0907 80.3178 11.3867 79.8591 10.912C79.4005 10.4373 78.7685 10.2 77.9631 10.2Z" fill="#66717E"/>
<path d="M394.413 15.31C394.413 16.012 394.254 16.642 393.936 17.2C393.618 17.752 393.168 18.202 392.586 18.55C392.004 18.898 391.323 19.12 390.543 19.216V20.791H388.662V19.189C387.582 19.015 386.688 18.586 385.98 17.902C385.272 17.212 384.831 16.339 384.657 15.283L386.52 14.986C386.64 15.496 386.853 15.94 387.159 16.318C387.465 16.696 387.843 16.987 388.293 17.191C388.743 17.395 389.241 17.497 389.787 17.497C390.321 17.497 390.798 17.41 391.218 17.236C391.638 17.056 391.965 16.81 392.199 16.498C392.433 16.18 392.55 15.82 392.55 15.418C392.55 14.986 392.421 14.638 392.163 14.374C391.905 14.104 391.479 13.873 390.885 13.681L387.843 12.745C386.961 12.469 386.289 12.058 385.827 11.512C385.371 10.966 385.143 10.297 385.143 9.505C385.143 8.845 385.284 8.257 385.566 7.741C385.854 7.219 386.262 6.796 386.79 6.472C387.324 6.142 387.948 5.929 388.662 5.833V4.249H390.543V5.869C391.539 6.043 392.364 6.451 393.018 7.093C393.672 7.729 394.11 8.557 394.332 9.577L392.415 9.919C392.331 9.451 392.151 9.04 391.875 8.686C391.605 8.326 391.26 8.05 390.84 7.858C390.42 7.66 389.955 7.561 389.445 7.561C388.989 7.561 388.575 7.642 388.203 7.804C387.837 7.966 387.549 8.188 387.339 8.47C387.129 8.752 387.024 9.067 387.024 9.415C387.024 9.811 387.177 10.15 387.483 10.432C387.789 10.708 388.272 10.942 388.932 11.134L391.317 11.827C392.409 12.151 393.198 12.586 393.684 13.132C394.17 13.678 394.413 14.404 394.413 15.31ZM404.15 5.779C404.978 5.779 405.731 5.98 406.409 6.382C407.087 6.778 407.621 7.327 408.011 8.029C408.407 8.731 408.605 9.52 408.605 10.396V14.527C408.605 15.463 408.41 16.291 408.02 17.011C407.63 17.725 407.081 18.28 406.373 18.676C405.671 19.072 404.867 19.27 403.961 19.27C403.271 19.27 402.626 19.141 402.026 18.883C401.432 18.619 400.916 18.235 400.478 17.731L401.855 16.444C402.107 16.768 402.416 17.023 402.782 17.209C403.154 17.395 403.547 17.488 403.961 17.488C404.483 17.488 404.951 17.362 405.365 17.11C405.779 16.858 406.103 16.525 406.337 16.111C406.571 15.691 406.688 15.244 406.688 14.77V13.222C406.322 13.588 405.896 13.873 405.41 14.077C404.93 14.281 404.426 14.383 403.898 14.383C403.106 14.383 402.389 14.197 401.747 13.825C401.111 13.453 400.61 12.943 400.244 12.295C399.884 11.647 399.704 10.924 399.704 10.126C399.704 9.334 399.905 8.605 400.307 7.939C400.709 7.273 401.249 6.748 401.927 6.364C402.611 5.974 403.352 5.779 404.15 5.779ZM404.141 12.664C404.603 12.664 405.029 12.55 405.419 12.322C405.809 12.094 406.118 11.788 406.346 11.404C406.574 11.014 406.688 10.588 406.688 10.126C406.688 9.67 406.574 9.247 406.346 8.857C406.118 8.467 405.809 8.158 405.419 7.93C405.035 7.702 404.612 7.588 404.15 7.588C403.688 7.588 403.262 7.702 402.872 7.93C402.488 8.158 402.182 8.467 401.954 8.857C401.726 9.241 401.612 9.664 401.612 10.126C401.612 10.588 401.723 11.014 401.945 11.404C402.173 11.788 402.479 12.094 402.863 12.322C403.253 12.55 403.679 12.664 404.141 12.664ZM415.68 10.909C416.364 10.999 416.961 11.233 417.471 11.611C417.987 11.983 418.383 12.463 418.659 13.051C418.935 13.633 419.073 14.275 419.073 14.977C419.073 15.787 418.881 16.516 418.497 17.164C418.113 17.812 417.591 18.322 416.931 18.694C416.271 19.06 415.542 19.243 414.744 19.243C414.102 19.243 413.496 19.123 412.926 18.883C412.362 18.637 411.873 18.289 411.459 17.839C411.051 17.383 410.757 16.852 410.577 16.246L412.395 15.742C412.563 16.288 412.857 16.711 413.277 17.011C413.697 17.311 414.177 17.461 414.717 17.461C415.185 17.461 415.602 17.356 415.968 17.146C416.34 16.93 416.628 16.633 416.832 16.255C417.042 15.877 417.147 15.451 417.147 14.977C417.147 14.503 417.045 14.077 416.841 13.699C416.637 13.321 416.352 13.027 415.986 12.817C415.62 12.601 415.2 12.493 414.726 12.493C414.312 12.493 413.904 12.601 413.502 12.817L412.62 11.332L416.58 7.831H411.09V6.04H418.884V7.831L415.68 10.909ZM422.741 19.153C422.405 19.153 422.123 19.039 421.895 18.811C421.673 18.583 421.562 18.307 421.562 17.983C421.562 17.653 421.673 17.377 421.895 17.155C422.123 16.927 422.405 16.813 422.741 16.813C423.077 16.813 423.356 16.927 423.578 17.155C423.8 17.377 423.911 17.653 423.911 17.983C423.911 18.313 423.8 18.592 423.578 18.82C423.356 19.042 423.077 19.153 422.741 19.153ZM429.116 17.2H434.975V18.991H426.209L426.218 17.317L431.861 12.259C432.293 11.875 432.596 11.503 432.77 11.143C432.95 10.783 433.04 10.405 433.04 10.009C433.04 9.553 432.938 9.139 432.734 8.767C432.53 8.389 432.245 8.095 431.879 7.885C431.513 7.669 431.102 7.561 430.646 7.561C430.178 7.561 429.755 7.672 429.377 7.894C428.999 8.116 428.702 8.416 428.486 8.794C428.276 9.166 428.174 9.568 428.18 10H426.254C426.254 9.172 426.443 8.44 426.821 7.804C427.199 7.162 427.724 6.664 428.396 6.31C429.068 5.95 429.83 5.77 430.682 5.77C431.486 5.77 432.215 5.956 432.869 6.328C433.523 6.694 434.036 7.204 434.408 7.858C434.786 8.506 434.975 9.232 434.975 10.036C434.975 10.612 434.9 11.107 434.75 11.521C434.6 11.929 434.378 12.304 434.084 12.646C433.796 12.988 433.391 13.39 432.869 13.852L429.116 17.2ZM441.651 19.27C440.781 19.27 440.004 19.078 439.32 18.694C438.636 18.304 438.099 17.767 437.709 17.083C437.325 16.399 437.133 15.622 437.133 14.752V10.288C437.133 9.418 437.325 8.641 437.709 7.957C438.099 7.273 438.636 6.739 439.32 6.355C440.004 5.965 440.781 5.77 441.651 5.77C442.521 5.77 443.298 5.965 443.982 6.355C444.666 6.739 445.2 7.273 445.584 7.957C445.974 8.641 446.169 9.418 446.169 10.288V14.752C446.169 15.622 445.974 16.399 445.584 17.083C445.2 17.767 444.666 18.304 443.982 18.694C443.298 19.078 442.521 19.27 441.651 19.27ZM441.651 17.47C442.125 17.47 442.56 17.356 442.956 17.128C443.358 16.894 443.673 16.579 443.901 16.183C444.135 15.781 444.252 15.343 444.252 14.869V10.153C444.252 9.679 444.135 9.244 443.901 8.848C443.673 8.452 443.358 8.14 442.956 7.912C442.56 7.678 442.125 7.561 441.651 7.561C441.177 7.561 440.739 7.678 440.337 7.912C439.941 8.14 439.626 8.452 439.392 8.848C439.164 9.244 439.05 9.679 439.05 10.153V14.869C439.05 15.343 439.164 15.781 439.392 16.183C439.626 16.579 439.941 16.894 440.337 17.128C440.739 17.356 441.177 17.47 441.651 17.47Z" fill="#66717E"/>
<rect x="314.5" y="63.5" width="35" height="29" rx="9.5" fill="#96EBC2"/>
<path d="M327.78 83H326.737V74.068L324.84 75.209V74.054L326.737 72.92H327.78V83ZM330.685 83V72.92H333.744C334.285 72.92 334.717 72.941 335.039 72.983C335.781 73.0857 336.411 73.3657 336.929 73.823C337.452 74.2803 337.844 74.866 338.105 75.58C338.366 76.294 338.497 77.0873 338.497 77.96C338.497 78.8373 338.366 79.633 338.105 80.347C337.844 81.061 337.454 81.6467 336.936 82.104C336.418 82.5567 335.786 82.8343 335.039 82.937C334.726 82.979 334.295 83 333.744 83H330.685ZM333.744 82.013C334.253 82.013 334.649 81.985 334.934 81.929C335.774 81.7843 336.395 81.355 336.796 80.641C337.202 79.927 337.405 79.0333 337.405 77.96C337.405 76.882 337.202 75.9883 336.796 75.279C336.39 74.5697 335.769 74.1403 334.934 73.991C334.649 73.935 334.253 73.907 333.744 73.907H331.749V82.013H333.744Z" fill="#1A1919"/>
<rect x="314.5" y="63.5" width="35" height="29" rx="9.5" stroke="#F4F5F6"/>
<path d="M372.268 82.006H377.28V82.993H370.7L370.707 82.055L375.264 77.939C375.633 77.6077 375.887 77.2833 376.027 76.966C376.167 76.6487 376.237 76.301 376.237 75.923C376.237 75.5123 376.139 75.139 375.943 74.803C375.752 74.4623 375.488 74.194 375.152 73.998C374.816 73.7973 374.445 73.697 374.039 73.697C373.619 73.697 373.239 73.7997 372.898 74.005C372.557 74.2057 372.289 74.4763 372.093 74.817C371.902 75.1577 371.808 75.524 371.813 75.916H370.763C370.763 75.314 370.905 74.768 371.19 74.278C371.479 73.788 371.874 73.4053 372.373 73.13C372.877 72.85 373.437 72.71 374.053 72.71C374.655 72.71 375.201 72.8523 375.691 73.137C376.186 73.4217 376.573 73.8113 376.853 74.306C377.138 74.796 377.28 75.3373 377.28 75.93C377.28 76.3453 377.229 76.7117 377.126 77.029C377.028 77.3417 376.876 77.6333 376.671 77.904C376.47 78.1747 376.197 78.464 375.852 78.772L372.268 82.006ZM382.413 83H381.377L378.465 72.92H379.536L381.895 81.243L384.24 72.927L385.318 72.92L387.677 81.243L390.022 72.92H391.1L388.195 83H387.159L384.779 74.733L382.413 83Z" fill="#66717E"/>
<path d="M416.487 76.504C417.098 76.504 417.658 76.6533 418.167 76.952C418.676 77.246 419.075 77.6473 419.364 78.156C419.658 78.6647 419.805 79.227 419.805 79.843C419.805 80.4543 419.651 81.019 419.343 81.537C419.035 82.0503 418.617 82.4587 418.09 82.762C417.567 83.0607 417 83.21 416.389 83.21C415.764 83.21 415.19 83.0583 414.667 82.755C414.149 82.447 413.738 82.027 413.435 81.495C413.132 80.963 412.98 80.375 412.98 79.731V76.238C412.98 75.5753 413.132 74.9757 413.435 74.439C413.738 73.9023 414.154 73.4823 414.681 73.179C415.213 72.871 415.808 72.717 416.466 72.717C417.04 72.717 417.572 72.843 418.062 73.095C418.552 73.347 418.956 73.6993 419.273 74.152L418.482 74.803C418.267 74.467 417.98 74.1987 417.621 73.998C417.262 73.7973 416.877 73.697 416.466 73.697C416.004 73.697 415.586 73.809 415.213 74.033C414.84 74.257 414.548 74.558 414.338 74.936C414.128 75.3093 414.023 75.713 414.023 76.147V77.694C414.326 77.3253 414.693 77.036 415.122 76.826C415.551 76.6113 416.006 76.504 416.487 76.504ZM416.389 82.209C416.823 82.209 417.222 82.104 417.586 81.894C417.95 81.684 418.237 81.397 418.447 81.033C418.662 80.669 418.769 80.2723 418.769 79.843C418.769 79.409 418.662 79.01 418.447 78.646C418.237 78.282 417.95 77.995 417.586 77.785C417.222 77.5703 416.825 77.463 416.396 77.463C415.967 77.463 415.57 77.5703 415.206 77.785C414.842 77.995 414.553 78.282 414.338 78.646C414.128 79.01 414.023 79.409 414.023 79.843C414.023 80.2723 414.128 80.669 414.338 81.033C414.548 81.3923 414.835 81.6793 415.199 81.894C415.563 82.104 415.96 82.209 416.389 82.209ZM422.899 83H421.912V72.92H422.857L426.819 81.397L430.76 72.92H431.719V82.993H430.739V75.216L427.148 83H426.483L422.899 75.216V83Z" fill="#66717E"/>
<path d="M92.3304 264.323C92.8544 264.323 93.3344 264.451 93.7704 264.707C94.2064 264.959 94.5484 265.303 94.7964 265.739C95.0484 266.175 95.1744 266.657 95.1744 267.185C95.1744 267.709 95.0424 268.193 94.7784 268.637C94.5144 269.077 94.1564 269.427 93.7044 269.687C93.2564 269.943 92.7704 270.071 92.2464 270.071C91.7104 270.071 91.2184 269.941 90.7704 269.681C90.3264 269.417 89.9744 269.057 89.7144 268.601C89.4544 268.145 89.3244 267.641 89.3244 267.089V264.095C89.3244 263.527 89.4544 263.013 89.7144 262.553C89.9744 262.093 90.3304 261.733 90.7824 261.473C91.2384 261.209 91.7484 261.077 92.3124 261.077C92.8044 261.077 93.2604 261.185 93.6804 261.401C94.1004 261.617 94.4464 261.919 94.7184 262.307L94.0404 262.865C93.8564 262.577 93.6104 262.347 93.3024 262.175C92.9944 262.003 92.6644 261.917 92.3124 261.917C91.9164 261.917 91.5584 262.013 91.2384 262.205C90.9184 262.397 90.6684 262.655 90.4884 262.979C90.3084 263.299 90.2184 263.645 90.2184 264.017V265.343C90.4784 265.027 90.7924 264.779 91.1604 264.599C91.5284 264.415 91.9184 264.323 92.3304 264.323ZM92.2464 269.213C92.6184 269.213 92.9604 269.123 93.2724 268.943C93.5844 268.763 93.8304 268.517 94.0104 268.205C94.1944 267.893 94.2864 267.553 94.2864 267.185C94.2864 266.813 94.1944 266.471 94.0104 266.159C93.8304 265.847 93.5844 265.601 93.2724 265.421C92.9604 265.237 92.6204 265.145 92.2524 265.145C91.8844 265.145 91.5444 265.237 91.2324 265.421C90.9204 265.601 90.6724 265.847 90.4884 266.159C90.3084 266.471 90.2184 266.813 90.2184 267.185C90.2184 267.553 90.3084 267.893 90.4884 268.205C90.6684 268.513 90.9144 268.759 91.2264 268.943C91.5384 269.123 91.8784 269.213 92.2464 269.213ZM100.136 263.249C100.748 263.249 101.248 263.397 101.636 263.693C102.024 263.989 102.304 264.371 102.476 264.839C102.648 265.303 102.734 265.799 102.734 266.327V269.891H101.846V266.585C101.846 265.821 101.694 265.215 101.39 264.767C101.086 264.315 100.612 264.089 99.9678 264.089C99.3518 264.089 98.8778 264.295 98.5458 264.707C98.2138 265.119 98.0478 265.695 98.0478 266.435V269.891H97.1598V261.251H97.9578V264.311C98.1978 263.963 98.5038 263.699 98.8758 263.519C99.2478 263.339 99.6678 263.249 100.136 263.249Z" fill="#B0B2B7"/>
<path d="M196.724 269.891H195.83V262.235L194.204 263.213V262.223L195.83 261.251H196.724V269.891ZM200.504 269.039H204.8V269.885H199.16L199.166 269.081L203.072 265.553C203.388 265.269 203.606 264.991 203.726 264.719C203.846 264.447 203.906 264.149 203.906 263.825C203.906 263.473 203.822 263.153 203.654 262.865C203.49 262.573 203.264 262.343 202.976 262.175C202.688 262.003 202.37 261.917 202.022 261.917C201.662 261.917 201.336 262.005 201.044 262.181C200.752 262.353 200.522 262.585 200.354 262.877C200.19 263.169 200.11 263.483 200.114 263.819H199.214C199.214 263.303 199.336 262.835 199.58 262.415C199.828 261.995 200.166 261.667 200.594 261.431C201.026 261.191 201.506 261.071 202.034 261.071C202.55 261.071 203.018 261.193 203.438 261.437C203.862 261.681 204.194 262.015 204.434 262.439C204.678 262.859 204.8 263.323 204.8 263.831C204.8 264.187 204.756 264.501 204.668 264.773C204.584 265.041 204.454 265.291 204.278 265.523C204.106 265.755 203.872 266.003 203.576 266.267L200.504 269.039ZM209.614 263.249C210.226 263.249 210.726 263.397 211.114 263.693C211.502 263.989 211.782 264.371 211.954 264.839C212.126 265.303 212.212 265.799 212.212 266.327V269.891H211.324V266.585C211.324 265.821 211.172 265.215 210.868 264.767C210.564 264.315 210.09 264.089 209.446 264.089C208.83 264.089 208.356 264.295 208.024 264.707C207.692 265.119 207.526 265.695 207.526 266.435V269.891H206.638V261.251H207.436V264.311C207.676 263.963 207.982 263.699 208.354 263.519C208.726 263.339 209.146 263.249 209.614 263.249Z" fill="#B0B2B7"/>
<path d="M306.724 269.891H305.83V262.235L304.204 263.213V262.223L305.83 261.251H306.724V269.891ZM313.588 265.271C313.984 265.503 314.286 265.809 314.494 266.189C314.702 266.569 314.806 266.995 314.806 267.467C314.806 267.987 314.688 268.443 314.452 268.835C314.22 269.227 313.894 269.531 313.474 269.747C313.054 269.963 312.574 270.071 312.034 270.071C311.498 270.071 311.02 269.963 310.6 269.747C310.184 269.531 309.86 269.227 309.628 268.835C309.396 268.443 309.28 267.987 309.28 267.467C309.28 266.987 309.38 266.557 309.58 266.177C309.784 265.797 310.088 265.493 310.492 265.265C310.164 265.069 309.914 264.807 309.742 264.479C309.57 264.151 309.484 263.789 309.484 263.393C309.484 262.921 309.592 262.511 309.808 262.163C310.024 261.811 310.324 261.541 310.708 261.353C311.096 261.165 311.538 261.071 312.034 261.071C312.53 261.071 312.97 261.165 313.354 261.353C313.742 261.541 314.044 261.811 314.26 262.163C314.48 262.511 314.59 262.921 314.59 263.393C314.59 263.793 314.504 264.159 314.332 264.491C314.164 264.819 313.916 265.079 313.588 265.271ZM312.034 261.941C311.538 261.941 311.144 262.065 310.852 262.313C310.564 262.561 310.42 262.921 310.42 263.393C310.42 263.865 310.566 264.227 310.858 264.479C311.15 264.731 311.542 264.857 312.034 264.857C312.53 264.857 312.924 264.731 313.216 264.479C313.508 264.227 313.654 263.865 313.654 263.393C313.654 262.921 313.508 262.561 313.216 262.313C312.924 262.065 312.53 261.941 312.034 261.941ZM312.034 269.225C312.402 269.225 312.724 269.157 313 269.021C313.276 268.885 313.49 268.685 313.642 268.421C313.794 268.157 313.87 267.839 313.87 267.467C313.87 266.903 313.704 266.469 313.372 266.165C313.044 265.861 312.598 265.709 312.034 265.709C311.47 265.709 311.024 265.861 310.696 266.165C310.372 266.469 310.21 266.903 310.21 267.467C310.21 267.839 310.286 268.157 310.438 268.421C310.59 268.685 310.802 268.885 311.074 269.021C311.35 269.157 311.67 269.225 312.034 269.225ZM319.731 263.249C320.343 263.249 320.843 263.397 321.231 263.693C321.619 263.989 321.899 264.371 322.071 264.839C322.243 265.303 322.329 265.799 322.329 266.327V269.891H321.441V266.585C321.441 265.821 321.289 265.215 320.985 264.767C320.681 264.315 320.207 264.089 319.563 264.089C318.947 264.089 318.473 264.295 318.141 264.707C317.809 265.119 317.643 265.695 317.643 266.435V269.891H316.755V261.251H317.553V264.311C317.793 263.963 318.099 263.699 318.471 263.519C318.843 263.339 319.263 263.249 319.731 263.249Z" fill="#B0B2B7"/>
<path d="M415.428 269.039H419.724V269.885H414.084L414.09 269.081L417.996 265.553C418.312 265.269 418.53 264.991 418.65 264.719C418.77 264.447 418.83 264.149 418.83 263.825C418.83 263.473 418.746 263.153 418.578 262.865C418.414 262.573 418.188 262.343 417.9 262.175C417.612 262.003 417.294 261.917 416.946 261.917C416.586 261.917 416.26 262.005 415.968 262.181C415.676 262.353 415.446 262.585 415.278 262.877C415.114 263.169 415.034 263.483 415.038 263.819H414.138C414.138 263.303 414.26 262.835 414.504 262.415C414.752 261.995 415.09 261.667 415.518 261.431C415.95 261.191 416.43 261.071 416.958 261.071C417.474 261.071 417.942 261.193 418.362 261.437C418.786 261.681 419.118 262.015 419.358 262.439C419.602 262.859 419.724 263.323 419.724 263.831C419.724 264.187 419.68 264.501 419.592 264.773C419.508 265.041 419.378 265.291 419.202 265.523C419.03 265.755 418.796 266.003 418.5 266.267L415.428 269.039ZM426.026 269.891H425.138V268.217H421.094V267.377L423.986 261.251H424.976L422.084 267.377H425.138V264.857H426.026V267.377H426.968V268.217H426.026V269.891ZM431.782 263.249C432.394 263.249 432.894 263.397 433.282 263.693C433.67 263.989 433.95 264.371 434.122 264.839C434.294 265.303 434.38 265.799 434.38 266.327V269.891H433.492V266.585C433.492 265.821 433.34 265.215 433.036 264.767C432.732 264.315 432.258 264.089 431.614 264.089C430.998 264.089 430.524 264.295 430.192 264.707C429.86 265.119 429.694 265.695 429.694 266.435V269.891H428.806V261.251H429.604V264.311C429.844 263.963 430.15 263.699 430.522 263.519C430.894 263.339 431.314 263.249 431.782 263.249Z" fill="#B0B2B7"/>
<path d="M8.282 204.636C8.798 204.632 9.256 204.746 9.656 204.978C10.056 205.206 10.366 205.528 10.586 205.944C10.806 206.36 10.916 206.834 10.916 207.366C10.916 207.91 10.798 208.396 10.562 208.824C10.326 209.248 9.998 209.58 9.578 209.82C9.158 210.056 8.686 210.174 8.162 210.174C7.738 210.174 7.344 210.098 6.98 209.946C6.62 209.794 6.31 209.576 6.05 209.292C5.79 209.008 5.6 208.672 5.48 208.284L6.32 208.032C6.46 208.444 6.688 208.762 7.004 208.986C7.324 209.21 7.69 209.322 8.102 209.322C8.49 209.322 8.826 209.242 9.11 209.082C9.398 208.918 9.618 208.688 9.77 208.392C9.926 208.096 10.004 207.754 10.004 207.366C10.004 206.978 9.926 206.636 9.77 206.34C9.614 206.044 9.394 205.816 9.11 205.656C8.83 205.492 8.506 205.41 8.138 205.41C7.986 205.41 7.822 205.432 7.646 205.476C7.474 205.52 7.314 205.578 7.166 205.65L6.722 204.948L9.692 202.206H5.822V201.36H10.814V202.218L8.282 204.636ZM15.6928 210.18C15.1648 210.18 14.6848 210.058 14.2528 209.814C13.8248 209.566 13.4868 209.228 13.2388 208.8C12.9948 208.368 12.8728 207.888 12.8728 207.36V204C12.8728 203.472 12.9948 202.994 13.2388 202.566C13.4868 202.134 13.8248 201.796 14.2528 201.552C14.6848 201.304 15.1648 201.18 15.6928 201.18C16.2208 201.18 16.6988 201.304 17.1268 201.552C17.5588 201.796 17.8968 202.134 18.1408 202.566C18.3888 202.994 18.5128 203.472 18.5128 204V207.36C18.5128 207.888 18.3888 208.368 18.1408 208.8C17.8968 209.228 17.5588 209.566 17.1268 209.814C16.6988 210.058 16.2208 210.18 15.6928 210.18ZM15.6928 209.328C16.0408 209.328 16.3628 209.242 16.6588 209.07C16.9548 208.898 17.1888 208.664 17.3608 208.368C17.5328 208.072 17.6188 207.75 17.6188 207.402V203.958C17.6188 203.606 17.5328 203.284 17.3608 202.992C17.1888 202.696 16.9548 202.462 16.6588 202.29C16.3628 202.114 16.0408 202.026 15.6928 202.026C15.3448 202.026 15.0228 202.114 14.7268 202.29C14.4308 202.462 14.1968 202.696 14.0248 202.992C13.8528 203.284 13.7668 203.606 13.7668 203.958V207.402C13.7668 207.75 13.8528 208.072 14.0248 208.368C14.1968 208.664 14.4308 208.898 14.7268 209.07C15.0228 209.242 15.3448 209.328 15.6928 209.328Z" fill="#B0B2B7"/>
<path d="M7.846 168.432C8.37 168.432 8.85 168.56 9.286 168.816C9.722 169.068 10.064 169.412 10.312 169.848C10.564 170.284 10.69 170.766 10.69 171.294C10.69 171.818 10.558 172.302 10.294 172.746C10.03 173.186 9.672 173.536 9.22 173.796C8.772 174.052 8.286 174.18 7.762 174.18C7.226 174.18 6.734 174.05 6.286 173.79C5.842 173.526 5.49 173.166 5.23 172.71C4.97 172.254 4.84 171.75 4.84 171.198V168.204C4.84 167.636 4.97 167.122 5.23 166.662C5.49 166.202 5.846 165.842 6.298 165.582C6.754 165.318 7.264 165.186 7.828 165.186C8.32 165.186 8.776 165.294 9.196 165.51C9.616 165.726 9.962 166.028 10.234 166.416L9.556 166.974C9.372 166.686 9.126 166.456 8.818 166.284C8.51 166.112 8.18 166.026 7.828 166.026C7.432 166.026 7.074 166.122 6.754 166.314C6.434 166.506 6.184 166.764 6.004 167.088C5.824 167.408 5.734 167.754 5.734 168.126V169.452C5.994 169.136 6.308 168.888 6.676 168.708C7.044 168.524 7.434 168.432 7.846 168.432ZM7.762 173.322C8.134 173.322 8.476 173.232 8.788 173.052C9.1 172.872 9.346 172.626 9.526 172.314C9.71 172.002 9.802 171.662 9.802 171.294C9.802 170.922 9.71 170.58 9.526 170.268C9.346 169.956 9.1 169.71 8.788 169.53C8.476 169.346 8.136 169.254 7.768 169.254C7.4 169.254 7.06 169.346 6.748 169.53C6.436 169.71 6.188 169.956 6.004 170.268C5.824 170.58 5.734 170.922 5.734 171.294C5.734 171.662 5.824 172.002 6.004 172.314C6.184 172.622 6.43 172.868 6.742 173.052C7.054 173.232 7.394 173.322 7.762 173.322ZM15.5014 174.18C14.9734 174.18 14.4934 174.058 14.0614 173.814C13.6334 173.566 13.2954 173.228 13.0474 172.8C12.8034 172.368 12.6814 171.888 12.6814 171.36V168C12.6814 167.472 12.8034 166.994 13.0474 166.566C13.2954 166.134 13.6334 165.796 14.0614 165.552C14.4934 165.304 14.9734 165.18 15.5014 165.18C16.0294 165.18 16.5074 165.304 16.9354 165.552C17.3674 165.796 17.7054 166.134 17.9494 166.566C18.1974 166.994 18.3214 167.472 18.3214 168V171.36C18.3214 171.888 18.1974 172.368 17.9494 172.8C17.7054 173.228 17.3674 173.566 16.9354 173.814C16.5074 174.058 16.0294 174.18 15.5014 174.18ZM15.5014 173.328C15.8494 173.328 16.1714 173.242 16.4674 173.07C16.7634 172.898 16.9974 172.664 17.1694 172.368C17.3414 172.072 17.4274 171.75 17.4274 171.402V167.958C17.4274 167.606 17.3414 167.284 17.1694 166.992C16.9974 166.696 16.7634 166.462 16.4674 166.29C16.1714 166.114 15.8494 166.026 15.5014 166.026C15.1534 166.026 14.8314 166.114 14.5354 166.29C14.2394 166.462 14.0054 166.696 13.8334 166.992C13.6614 167.284 13.5754 167.606 13.5754 167.958V171.402C13.5754 171.75 13.6614 172.072 13.8334 172.368C14.0054 172.664 14.2394 172.898 14.5354 173.07C14.8314 173.242 15.1534 173.328 15.5014 173.328Z" fill="#B0B2B7"/>
<path d="M7.684 129.186C8.22 129.186 8.71 129.318 9.154 129.582C9.602 129.842 9.956 130.2 10.216 130.656C10.476 131.112 10.606 131.616 10.606 132.168V135.162C10.606 135.73 10.476 136.244 10.216 136.704C9.956 137.164 9.598 137.526 9.142 137.79C8.69 138.05 8.182 138.18 7.618 138.18C7.126 138.18 6.67 138.072 6.25 137.856C5.83 137.64 5.484 137.338 5.212 136.95L5.89 136.392C6.074 136.68 6.32 136.91 6.628 137.082C6.936 137.254 7.266 137.34 7.618 137.34C8.014 137.34 8.372 137.244 8.692 137.052C9.012 136.86 9.262 136.604 9.442 136.284C9.622 135.96 9.712 135.612 9.712 135.24V133.914C9.452 134.23 9.138 134.48 8.77 134.664C8.402 134.844 8.012 134.934 7.6 134.934C7.076 134.934 6.596 134.808 6.16 134.556C5.724 134.3 5.38 133.954 5.128 133.518C4.88 133.082 4.756 132.6 4.756 132.072C4.756 131.548 4.888 131.066 5.152 130.626C5.416 130.182 5.772 129.832 6.22 129.576C6.672 129.316 7.16 129.186 7.684 129.186ZM7.678 134.112C8.046 134.112 8.386 134.022 8.698 133.842C9.01 133.658 9.256 133.41 9.436 133.098C9.62 132.786 9.712 132.444 9.712 132.072C9.712 131.704 9.622 131.366 9.442 131.058C9.262 130.746 9.016 130.5 8.704 130.32C8.392 130.136 8.052 130.044 7.684 130.044C7.312 130.044 6.97 130.134 6.658 130.314C6.346 130.494 6.098 130.74 5.914 131.052C5.734 131.364 5.644 131.704 5.644 132.072C5.644 132.444 5.734 132.786 5.914 133.098C6.098 133.41 6.346 133.658 6.658 133.842C6.97 134.022 7.31 134.112 7.678 134.112ZM15.5014 138.18C14.9734 138.18 14.4934 138.058 14.0614 137.814C13.6334 137.566 13.2954 137.228 13.0474 136.8C12.8034 136.368 12.6814 135.888 12.6814 135.36V132C12.6814 131.472 12.8034 130.994 13.0474 130.566C13.2954 130.134 13.6334 129.796 14.0614 129.552C14.4934 129.304 14.9734 129.18 15.5014 129.18C16.0294 129.18 16.5074 129.304 16.9354 129.552C17.3674 129.796 17.7054 130.134 17.9494 130.566C18.1974 130.994 18.3214 131.472 18.3214 132V135.36C18.3214 135.888 18.1974 136.368 17.9494 136.8C17.7054 137.228 17.3674 137.566 16.9354 137.814C16.5074 138.058 16.0294 138.18 15.5014 138.18ZM15.5014 137.328C15.8494 137.328 16.1714 137.242 16.4674 137.07C16.7634 136.898 16.9974 136.664 17.1694 136.368C17.3414 136.072 17.4274 135.75 17.4274 135.402V131.958C17.4274 131.606 17.3414 131.284 17.1694 130.992C16.9974 130.696 16.7634 130.462 16.4674 130.29C16.1714 130.114 15.8494 130.026 15.5014 130.026C15.1534 130.026 14.8314 130.114 14.5354 130.29C14.2394 130.462 14.0054 130.696 13.8334 130.992C13.6614 131.284 13.5754 131.606 13.5754 131.958V135.402C13.5754 135.75 13.6614 136.072 13.8334 136.368C14.0054 136.664 14.2394 136.898 14.5354 137.07C14.8314 137.242 15.1534 137.328 15.5014 137.328Z" fill="#B0B2B7"/>
<path d="M3.24 102H2.346V94.344L0.72 95.322V94.332L2.346 93.36H3.24V102ZM7.01978 101.148H11.3158V101.994H5.67578L5.68178 101.19L9.58778 97.662C9.90378 97.378 10.1218 97.1 10.2418 96.828C10.3618 96.556 10.4218 96.258 10.4218 95.934C10.4218 95.582 10.3378 95.262 10.1698 94.974C10.0058 94.682 9.77978 94.452 9.49178 94.284C9.20378 94.112 8.88578 94.026 8.53778 94.026C8.17778 94.026 7.85178 94.114 7.55978 94.29C7.26778 94.462 7.03778 94.694 6.86978 94.986C6.70578 95.278 6.62578 95.592 6.62978 95.928H5.72978C5.72978 95.412 5.85178 94.944 6.09578 94.524C6.34378 94.104 6.68178 93.776 7.10978 93.54C7.54178 93.3 8.02178 93.18 8.54978 93.18C9.06578 93.18 9.53378 93.302 9.95378 93.546C10.3778 93.79 10.7098 94.124 10.9498 94.548C11.1938 94.968 11.3158 95.432 11.3158 95.94C11.3158 96.296 11.2718 96.61 11.1838 96.882C11.0998 97.15 10.9698 97.4 10.7938 97.632C10.6218 97.864 10.3878 98.112 10.0918 98.376L7.01978 101.148ZM15.9795 102.18C15.4515 102.18 14.9715 102.058 14.5395 101.814C14.1115 101.566 13.7735 101.228 13.5255 100.8C13.2815 100.368 13.1595 99.888 13.1595 99.36V96C13.1595 95.472 13.2815 94.994 13.5255 94.566C13.7735 94.134 14.1115 93.796 14.5395 93.552C14.9715 93.304 15.4515 93.18 15.9795 93.18C16.5075 93.18 16.9855 93.304 17.4135 93.552C17.8455 93.796 18.1835 94.134 18.4275 94.566C18.6755 94.994 18.7995 95.472 18.7995 96V99.36C18.7995 99.888 18.6755 100.368 18.4275 100.8C18.1835 101.228 17.8455 101.566 17.4135 101.814C16.9855 102.058 16.5075 102.18 15.9795 102.18ZM15.9795 101.328C16.3275 101.328 16.6495 101.242 16.9455 101.07C17.2415 100.898 17.4755 100.664 17.6475 100.368C17.8195 100.072 17.9055 99.75 17.9055 99.402V95.958C17.9055 95.606 17.8195 95.284 17.6475 94.992C17.4755 94.696 17.2415 94.462 16.9455 94.29C16.6495 94.114 16.3275 94.026 15.9795 94.026C15.6315 94.026 15.3095 94.114 15.0135 94.29C14.7175 94.462 14.4835 94.696 14.3115 94.992C14.1395 95.284 14.0535 95.606 14.0535 95.958V99.402C14.0535 99.75 14.1395 100.072 14.3115 100.368C14.4835 100.664 14.7175 100.898 15.0135 101.07C15.3095 101.242 15.6315 101.328 15.9795 101.328Z" fill="#B0B2B7"/>
<mask id="mask0_5065_14287" style="mask-type:alpha" maskUnits="userSpaceOnUse" x="30" y="117" width="407" height="131">
<path d="M30 117H437V247.063H30V117Z" fill="#D9D9D9"/>
</mask>
<g mask="url(#mask0_5065_14287)">
<path d="M36.7763 246.608L32.8179 247.319H436.581V131.59L432.623 138.255C428.664 144.92 420.748 158.251 412.831 153.317C404.914 148.383 396.997 125.184 389.08 122.075C381.163 118.965 373.246 135.945 365.329 138.453C357.412 140.961 349.495 128.997 341.578 125.3C333.661 121.603 325.744 126.173 317.827 132.472C309.91 138.77 301.994 146.797 294.077 154.176C286.16 161.555 278.243 168.285 270.326 174.04C262.409 179.796 254.492 184.576 246.575 185.311C238.658 186.047 230.741 182.737 222.824 186.036C214.907 189.336 206.99 199.244 199.073 196.508C191.157 193.772 183.24 178.392 175.323 171.861C167.406 165.33 159.489 167.648 151.572 178.203C143.655 188.758 135.738 207.549 127.821 218.161C119.904 228.772 111.987 231.203 104.07 228.801C96.1533 226.399 88.2364 219.165 80.3195 220.735C72.4025 222.305 64.4856 232.679 56.5687 238.577C48.6517 244.475 40.7348 245.897 36.7763 246.608Z" fill="url(#paint0_linear_5065_14287)"/>
<g filter="url(#filter0_i_5065_14287)">
<path fill-rule="evenodd" clip-rule="evenodd" d="M373.626 136.819C371.619 138.725 369.217 140.674 366.488 141.53C363.513 142.464 360.665 141.976 358.206 140.959C355.814 139.969 353.571 138.392 351.549 136.803C350.522 135.996 349.503 135.145 348.518 134.319L348.247 134.093C347.347 133.338 346.477 132.607 345.607 131.91C343.669 130.356 341.935 129.129 340.327 128.386C337.383 127.023 334.435 127.112 331.128 128.327C327.684 129.592 324.056 132.016 320.156 135.09C314.529 139.527 308.935 144.816 303.232 150.209C301.058 152.265 298.868 154.335 296.654 156.38C288.706 163.72 280.721 170.45 272.703 176.225C264.843 181.887 256.307 187.135 247.394 187.955C244.024 188.266 240.548 187.915 237.494 187.608C236.606 187.518 235.753 187.432 234.948 187.367C231.163 187.061 227.897 187.113 224.713 188.428C223.057 189.112 221.302 190.183 219.361 191.495C218.703 191.94 218.001 192.429 217.279 192.932C215.998 193.824 214.651 194.761 213.374 195.576C209.472 198.064 204.234 200.774 198.595 198.843C195.951 197.938 193.591 196.109 191.522 194.11C189.411 192.072 187.346 189.601 185.363 187.118C184.621 186.188 183.893 185.263 183.177 184.352C179.93 180.221 176.925 176.398 173.944 173.962C170.535 171.175 167.7 170.67 165.122 171.368C162.206 172.158 158.759 174.696 154.933 179.749C151.132 184.772 147.283 191.825 143.306 199.136L143.195 199.34C139.316 206.471 135.311 213.833 131.263 219.21C127.145 224.679 122.813 228.335 118.166 230.235C113.413 232.179 108.63 232.164 104.018 230.778C101.77 230.102 99.599 229.111 97.5804 228.11C96.6513 227.648 95.8053 227.212 94.9839 226.789C93.8923 226.226 92.8443 225.685 91.7029 225.139C87.7952 223.268 84.7582 222.355 82.0235 222.892C80.6278 223.166 79.049 223.867 77.2539 225.023C75.4712 226.17 73.6285 227.664 71.6954 229.37C70.5288 230.4 69.3079 231.531 68.0555 232.692C65.3276 235.219 62.4501 237.885 59.658 239.946C51.1668 246.214 42.6471 247.73 38.5802 248.453L34.6125 249.159L33.3809 243.947L37.3267 243.245C41.1601 242.563 48.4083 241.264 55.6851 235.893C58.2152 234.025 60.6655 231.752 63.2483 229.357C64.5627 228.137 65.9114 226.886 67.3225 225.64C69.3353 223.863 71.4384 222.141 73.6015 220.749C75.7522 219.365 78.1193 218.204 80.6694 217.703C85.8262 216.689 90.6808 218.573 94.6647 220.48C95.823 221.034 97.0828 221.682 98.2887 222.302C99.1085 222.724 99.9035 223.133 100.625 223.491C102.552 224.447 104.327 225.24 106.025 225.75C109.305 226.736 112.413 226.706 115.552 225.422C118.796 224.096 122.356 221.311 126.13 216.299C129.934 211.247 133.783 204.177 137.761 196.865L137.797 196.8C141.7 189.625 145.731 182.214 149.809 176.828C153.875 171.456 158.319 167.637 163.295 166.289C168.609 164.849 173.665 166.424 178.148 170.088C181.667 172.965 185.161 177.419 188.406 181.556C189.083 182.419 189.75 183.269 190.403 184.087C192.366 186.546 194.247 188.782 196.082 190.554C197.958 192.365 199.544 193.448 200.846 193.894C203.099 194.665 205.752 193.833 209.743 191.289C210.94 190.525 212.074 189.734 213.263 188.905C214.008 188.385 214.775 187.85 215.593 187.298C217.597 185.943 219.788 184.569 222.078 183.623C226.786 181.68 231.412 181.737 235.517 182.069C236.63 182.159 237.68 182.264 238.685 182.364C241.585 182.654 244.118 182.906 246.747 182.664C253.617 182.032 260.864 177.838 268.787 172.131C276.553 166.537 284.351 159.972 292.186 152.736C294.279 150.803 296.395 148.802 298.526 146.787C304.298 141.329 310.183 135.763 316.034 131.152C320.026 128.005 324.289 125.061 328.737 123.427C333.322 121.743 338.265 121.402 343.212 123.69C345.55 124.772 347.762 126.392 349.77 128.003C350.693 128.743 351.614 129.516 352.506 130.264L352.778 130.493C353.766 131.321 354.72 132.117 355.665 132.859C357.589 134.372 359.292 135.513 360.846 136.156C362.333 136.771 363.43 136.832 364.402 136.527C365.619 136.145 367.162 135.069 369.101 133.229C370.371 132.023 371.601 130.703 372.896 129.314C373.551 128.612 374.223 127.891 374.925 127.159C376.896 125.102 379.105 122.954 381.462 121.545C383.875 120.103 387.019 119.119 390.374 120.425C391.889 121.014 393.204 121.992 394.335 123.058C395.483 124.141 396.576 125.444 397.615 126.843C399.686 129.63 401.726 133.055 403.689 136.397C403.875 136.715 404.061 137.033 404.247 137.349C406.043 140.412 407.781 143.378 409.511 145.905C411.476 148.775 413.172 150.678 414.572 151.542C415.654 152.21 416.529 152.232 417.53 151.891C418.751 151.474 420.206 150.465 421.808 148.839C424.991 145.607 427.794 140.958 429.804 137.606L433.749 131.023L439.189 133.478L435.179 140.168C433.239 143.406 430.151 148.558 426.469 152.296C424.618 154.175 422.374 155.956 419.773 156.843C416.951 157.805 413.88 157.645 411.017 155.877C408.471 154.305 406.221 151.516 404.24 148.623C402.4 145.936 400.568 142.809 398.792 139.78C398.603 139.456 398.414 139.134 398.225 138.813C396.242 135.434 394.337 132.25 392.461 129.725C391.527 128.468 390.648 127.439 389.823 126.662C388.981 125.868 388.323 125.458 387.865 125.28C387.275 125.05 386.472 125.011 384.94 125.927C383.351 126.876 381.614 128.5 379.64 130.561C379.056 131.17 378.446 131.824 377.82 132.494C376.456 133.957 375.02 135.496 373.626 136.819Z" fill="#12D15F"/>
</g>
<g filter="url(#filter1_d_5065_14287)">
<circle cx="319" cy="130" r="6" fill="#49DD95"/>
<circle cx="319" cy="130" r="4.5" stroke="#000511" stroke-width="3"/>
</g>
</g>
<path d="M30 92.5V248H437.5" stroke="#B0B2B7" stroke-linecap="round"/>
<rect x="287.484" y="84.8906" width="60" height="30" rx="5" fill="#333946"/>
<path d="M300.261 102.147C300.261 102.697 300.133 103.187 299.876 103.617C299.624 104.046 299.263 104.389 298.791 104.646C298.325 104.898 297.779 105.045 297.153 105.087V106.27H296.124V105.059C295.569 104.989 295.07 104.828 294.626 104.576C294.183 104.324 293.817 103.995 293.527 103.589C293.243 103.183 293.051 102.718 292.953 102.196L293.954 102.021C294.057 102.45 294.239 102.823 294.5 103.141C294.766 103.453 295.095 103.694 295.487 103.862C295.884 104.03 296.323 104.114 296.803 104.114C297.289 104.114 297.716 104.032 298.084 103.869C298.458 103.705 298.747 103.479 298.952 103.19C299.158 102.896 299.26 102.557 299.26 102.175C299.26 101.75 299.132 101.409 298.875 101.153C298.623 100.891 298.199 100.67 297.601 100.488L295.361 99.7876C294.699 99.5823 294.195 99.2766 293.849 98.8706C293.504 98.46 293.331 97.963 293.331 97.3796C293.331 96.8803 293.446 96.4323 293.674 96.0356C293.903 95.639 294.227 95.3193 294.647 95.0766C295.072 94.8293 295.564 94.68 296.124 94.6286V93.4176H297.153V94.6426C297.97 94.7453 298.647 95.0533 299.183 95.5666C299.725 96.0753 300.068 96.7356 300.212 97.5476L299.183 97.7436C299.118 97.319 298.966 96.9433 298.728 96.6166C298.49 96.29 298.185 96.038 297.811 95.8606C297.438 95.6786 297.025 95.5876 296.572 95.5876C296.152 95.5876 295.774 95.6623 295.438 95.8116C295.102 95.961 294.839 96.171 294.647 96.4416C294.456 96.7076 294.36 97.0063 294.36 97.3376C294.36 97.7156 294.493 98.033 294.759 98.2896C295.03 98.5463 295.457 98.7633 296.04 98.9406L297.965 99.5216C298.511 99.685 298.952 99.8833 299.288 100.117C299.624 100.35 299.869 100.632 300.023 100.964C300.182 101.295 300.261 101.689 300.261 102.147ZM308.329 94.6076C308.955 94.6076 309.526 94.7616 310.044 95.0696C310.567 95.373 310.98 95.7906 311.283 96.3226C311.587 96.8546 311.738 97.4426 311.738 98.0866V101.58C311.738 102.242 311.587 102.842 311.283 103.379C310.98 103.915 310.562 104.338 310.03 104.646C309.503 104.949 308.91 105.101 308.252 105.101C307.678 105.101 307.146 104.975 306.656 104.723C306.166 104.471 305.763 104.118 305.445 103.666L306.236 103.015C306.451 103.351 306.738 103.619 307.097 103.82C307.457 104.02 307.842 104.121 308.252 104.121C308.714 104.121 309.132 104.009 309.505 103.785C309.879 103.561 310.17 103.262 310.38 102.889C310.59 102.511 310.695 102.105 310.695 101.671V100.124C310.392 100.492 310.026 100.784 309.596 100.999C309.167 101.209 308.712 101.314 308.231 101.314C307.62 101.314 307.06 101.167 306.551 100.873C306.043 100.574 305.641 100.17 305.347 99.6616C305.058 99.153 304.913 98.5906 304.913 97.9746C304.913 97.3633 305.067 96.801 305.375 96.2876C305.683 95.7696 306.099 95.3613 306.621 95.0626C307.149 94.7593 307.718 94.6076 308.329 94.6076ZM308.322 100.355C308.752 100.355 309.148 100.25 309.512 100.04C309.876 99.825 310.163 99.5356 310.373 99.1716C310.588 98.8076 310.695 98.4086 310.695 97.9746C310.695 97.5453 310.59 97.151 310.38 96.7916C310.17 96.4276 309.883 96.1406 309.519 95.9306C309.155 95.716 308.759 95.6086 308.329 95.6086C307.895 95.6086 307.496 95.7136 307.132 95.9236C306.768 96.1336 306.479 96.4206 306.264 96.7846C306.054 97.1486 305.949 97.5453 305.949 97.9746C305.949 98.4086 306.054 98.8076 306.264 99.1716C306.479 99.5356 306.768 99.825 307.132 100.04C307.496 100.25 307.893 100.355 308.322 100.355ZM316.792 98.6326C317.394 98.628 317.928 98.761 318.395 99.0316C318.862 99.2976 319.223 99.6733 319.48 100.159C319.737 100.644 319.865 101.197 319.865 101.818C319.865 102.452 319.727 103.019 319.452 103.519C319.177 104.013 318.794 104.401 318.304 104.681C317.814 104.956 317.263 105.094 316.652 105.094C316.157 105.094 315.698 105.005 315.273 104.828C314.853 104.65 314.491 104.396 314.188 104.065C313.885 103.733 313.663 103.341 313.523 102.889L314.503 102.595C314.666 103.075 314.932 103.446 315.301 103.708C315.674 103.969 316.101 104.1 316.582 104.1C317.035 104.1 317.427 104.006 317.758 103.82C318.094 103.628 318.351 103.36 318.528 103.015C318.71 102.669 318.801 102.27 318.801 101.818C318.801 101.365 318.71 100.966 318.528 100.621C318.346 100.275 318.089 100.009 317.758 99.8226C317.431 99.6313 317.053 99.5356 316.624 99.5356C316.447 99.5356 316.255 99.5613 316.05 99.6126C315.849 99.664 315.663 99.7316 315.49 99.8156L314.972 98.9966L318.437 95.7976H313.922V94.8106H319.746V95.8116L316.792 98.6326ZM322.722 104.968C322.522 104.968 322.351 104.9 322.211 104.765C322.076 104.629 322.008 104.461 322.008 104.261C322.008 104.055 322.076 103.885 322.211 103.75C322.351 103.614 322.522 103.547 322.722 103.547C322.928 103.547 323.098 103.617 323.233 103.757C323.373 103.892 323.443 104.06 323.443 104.261C323.443 104.461 323.373 104.629 323.233 104.765C323.098 104.9 322.928 104.968 322.722 104.968ZM327.024 103.897H332.036V104.884H325.456L325.463 103.946L330.02 99.8296C330.389 99.4983 330.643 99.174 330.783 98.8566C330.923 98.5393 330.993 98.1916 330.993 97.8136C330.993 97.403 330.895 97.0296 330.699 96.6936C330.508 96.353 330.244 96.0846 329.908 95.8886C329.572 95.688 329.201 95.5876 328.795 95.5876C328.375 95.5876 327.995 95.6903 327.654 95.8956C327.313 96.0963 327.045 96.367 326.849 96.7076C326.658 97.0483 326.564 97.4146 326.569 97.8066H325.519C325.519 97.2046 325.661 96.6586 325.946 96.1686C326.235 95.6786 326.63 95.296 327.129 95.0206C327.633 94.7406 328.193 94.6006 328.809 94.6006C329.411 94.6006 329.957 94.743 330.447 95.0276C330.942 95.3123 331.329 95.702 331.609 96.1966C331.894 96.6866 332.036 97.228 332.036 97.8206C332.036 98.236 331.985 98.6023 331.882 98.9196C331.784 99.2323 331.632 99.524 331.427 99.7946C331.226 100.065 330.953 100.355 330.608 100.663L327.024 103.897ZM337.26 105.101C336.644 105.101 336.084 104.958 335.58 104.674C335.081 104.384 334.687 103.99 334.397 103.491C334.113 102.987 333.97 102.427 333.97 101.811V97.8906C333.97 97.2746 334.113 96.717 334.397 96.2176C334.687 95.7136 335.081 95.3193 335.58 95.0346C336.084 94.7453 336.644 94.6006 337.26 94.6006C337.876 94.6006 338.434 94.7453 338.933 95.0346C339.437 95.3193 339.832 95.7136 340.116 96.2176C340.406 96.717 340.55 97.2746 340.55 97.8906V101.811C340.55 102.427 340.406 102.987 340.116 103.491C339.832 103.99 339.437 104.384 338.933 104.674C338.434 104.958 337.876 105.101 337.26 105.101ZM337.26 104.107C337.666 104.107 338.042 104.006 338.387 103.806C338.733 103.605 339.006 103.332 339.206 102.987C339.407 102.641 339.507 102.266 339.507 101.86V97.8416C339.507 97.431 339.407 97.0553 339.206 96.7146C339.006 96.3693 338.733 96.0963 338.387 95.8956C338.042 95.6903 337.666 95.5876 337.26 95.5876C336.854 95.5876 336.479 95.6903 336.133 95.8956C335.788 96.0963 335.515 96.3693 335.314 96.7146C335.114 97.0553 335.013 97.431 335.013 97.8416V101.86C335.013 102.266 335.114 102.641 335.314 102.987C335.515 103.332 335.788 103.605 336.133 103.806C336.479 104.006 336.854 104.107 337.26 104.107Z" fill="#E6E6E8"/>
<path d="M316.618 123.391C317.003 124.057 317.966 124.057 318.35 123.391L325.712 110.641C325.904 110.307 325.664 109.891 325.279 109.891H309.69C309.305 109.891 309.065 110.307 309.257 110.641L316.618 123.391Z" fill="#333946"/>
<line x1="94.5" y1="249.5" x2="94.5" y2="253.5" stroke="#B0B2B7" stroke-linecap="round"/>
<line x1="206.5" y1="249.5" x2="206.5" y2="253.5" stroke="#B0B2B7" stroke-linecap="round"/>
<line x1="318.5" y1="249.5" x2="318.5" y2="253.5" stroke="#B0B2B7" stroke-linecap="round"/>
<line x1="430.5" y1="249.5" x2="430.5" y2="253.5" stroke="#B0B2B7" stroke-linecap="round"/>
<line x1="26.5" y1="206.5" x2="30.5" y2="206.5" stroke="#B0B2B7" stroke-linecap="round"/>
<line x1="26.5" y1="171.5" x2="30.5" y2="171.5" stroke="#B0B2B7" stroke-linecap="round"/>
<line x1="26.5" y1="136.5" x2="30.5" y2="136.5" stroke="#B0B2B7" stroke-linecap="round"/>
<line x1="26.5" y1="101.5" x2="30.5" y2="101.5" stroke="#B0B2B7" stroke-linecap="round"/>
<defs>
<filter id="filter0_i_5065_14287" x="30.562" y="119.814" width="408.627" height="132.164" filterUnits="userSpaceOnUse" color-interpolation-filters="sRGB">
<feFlood flood-opacity="0" result="BackgroundImageFix"/>
<feBlend mode="normal" in="SourceGraphic" in2="BackgroundImageFix" result="shape"/>
<feColorMatrix in="SourceAlpha" type="matrix" values="0 0 0 0 0 0 0 0 0 0 0 0 0 0 0 0 0 0 127 0" result="hardAlpha"/>
<feOffset dx="-2.81886" dy="2.81886"/>
<feGaussianBlur stdDeviation="1.87924"/>
<feComposite in2="hardAlpha" operator="arithmetic" k2="-1" k3="1"/>
<feColorMatrix type="matrix" values="0 0 0 0 0.501875 0 0 0 0 0.825 0 0 0 0 0.74745 0 0 0 1 0"/>
<feBlend mode="normal" in2="shape" result="effect1_innerShadow_5065_14287"/>
</filter>
<filter id="filter1_d_5065_14287" x="311.121" y="124" width="15.7585" height="15.7585" filterUnits="userSpaceOnUse" color-interpolation-filters="sRGB">
<feFlood flood-opacity="0" result="BackgroundImageFix"/>
<feColorMatrix in="SourceAlpha" type="matrix" values="0 0 0 0 0 0 0 0 0 0 0 0 0 0 0 0 0 0 127 0" result="hardAlpha"/>
<feOffset dy="1.87924"/>
<feGaussianBlur stdDeviation="0.939619"/>
<feComposite in2="hardAlpha" operator="out"/>
<feColorMatrix type="matrix" values="0 0 0 0 0.320992 0 0 0 0 0.4375 0 0 0 0 0.309896 0 0 0 1 0"/>
<feBlend mode="normal" in2="BackgroundImageFix" result="effect1_dropShadow_5065_14287"/>
<feBlend mode="normal" in="SourceGraphic" in2="effect1_dropShadow_5065_14287" result="shape"/>
</filter>
<linearGradient id="paint0_linear_5065_14287" x1="129.821" y1="53.776" x2="240.096" y2="253.875" gradientUnits="userSpaceOnUse">
<stop stop-color="#0EB11E"/>
<stop offset="0.958341" stop-color="#209A0C" stop-opacity="0.12"/>
</linearGradient>
</defs>
</svg>
