<svg width="19" height="18" viewBox="0 0 19 18" fill="none" xmlns="http://www.w3.org/2000/svg">
<path d="M17.9964 6.29487L12.6409 5.47982L10.2468 0.397328C10.1814 0.258173 10.0739 0.145523 9.94097 0.0770495C9.6077 -0.0952382 9.20271 0.0483349 9.03608 0.397328L6.64201 5.47982L1.28648 6.29487C1.13883 6.31696 1.00383 6.38985 0.900477 6.50029C0.775525 6.63478 0.706671 6.81571 0.709044 7.00333C0.711417 7.19095 0.784823 7.36991 0.913132 7.50088L4.78793 11.4569L3.87249 17.043C3.85102 17.1729 3.86476 17.3066 3.91213 17.4288C3.9595 17.5509 4.03862 17.6568 4.14052 17.7343C4.24241 17.8118 4.363 17.8578 4.48862 17.8672C4.61423 17.8766 4.73985 17.8489 4.85121 17.7873L9.64145 15.15L14.4317 17.7873C14.5625 17.8602 14.7143 17.8845 14.8599 17.858C15.2269 17.7918 15.4737 17.4273 15.4104 17.043L14.495 11.4569L18.3698 7.50088C18.4752 7.39265 18.5448 7.25129 18.5659 7.09667C18.6229 6.71013 18.3655 6.3523 17.9964 6.29487Z" fill="#F49D37"/>
</svg>
