<svg width="48" height="48" viewBox="0 0 48 48" fill="none" xmlns="http://www.w3.org/2000/svg">
<circle cx="24" cy="24" r="24" fill="#1BD47B"/>
<path d="M17.004 19.0001H16.975C16.6679 19.0193 16.3602 18.9749 16.0711 18.8696C15.782 18.7644 15.5178 18.6006 15.2949 18.3885C15.072 18.1765 14.8953 17.9206 14.7759 17.6371C14.6565 17.3536 14.5968 17.0485 14.6008 16.7408C14.6047 16.4332 14.6721 16.1297 14.7988 15.8493C14.9254 15.569 15.1086 15.3178 15.3368 15.1114C15.565 14.9051 15.8334 14.7482 16.1251 14.6504C16.4168 14.5526 16.7255 14.516 17.032 14.5431C17.3391 14.5216 17.6472 14.5638 17.9372 14.667C18.2272 14.7703 18.4928 14.9323 18.7172 15.1429C18.9417 15.3535 19.1202 15.6083 19.2416 15.8911C19.363 16.174 19.4246 16.4789 19.4227 16.7867C19.4208 17.0945 19.3553 17.3986 19.2303 17.6799C19.1054 17.9612 18.9237 18.2136 18.6966 18.4215C18.4695 18.6293 18.202 18.7879 17.9107 18.8875C17.6195 18.987 17.3108 19.0254 17.004 19.0001ZM15.018 22.0001H19.018V34.0001H15.018V22.0001ZM29.518 22.0001C28.844 22.0019 28.1791 22.156 27.5731 22.4509C26.967 22.7458 26.4354 23.1739 26.018 23.7031V22.0001H22.018V34.0001H26.018V28.5001C26.018 27.9696 26.2287 27.4609 26.6038 27.0859C26.9789 26.7108 27.4876 26.5001 28.018 26.5001C28.5484 26.5001 29.0571 26.7108 29.4322 27.0859C29.8073 27.4609 30.018 27.9696 30.018 28.5001V34.0001H34.018V26.5001C34.018 25.3066 33.5439 24.162 32.7 23.3181C31.8561 22.4742 30.7115 22.0001 29.518 22.0001Z" fill="white"/>
</svg>
