<svg width="208" height="31" viewBox="0 0 208 31" fill="none" xmlns="http://www.w3.org/2000/svg">
<path d="M12.4339 13.2947L12.6252 6.85459H12.3383L8.03422 18.3002L3.73017 6.85459H3.44324L3.63453 13.2947V23.5926H0V1.33904H4.97356L8.0661 9.53267H8.28928L11.4137 1.33904H16.0684V23.5926H12.4339V13.2947Z" fill="white"/>
<path d="M31.6462 7.14153H35.7908L27.916 26.5257C27.4697 27.6522 26.8746 28.5024 26.1306 29.0762C25.3867 29.6714 24.3346 29.9689 22.9743 29.9689H19.9774V26.7488H23.8989L25.1423 23.4331L18.5109 7.14153H22.8468L25.3655 14.028L27.119 19.2566H27.3421L29.0957 14.028L31.6462 7.14153Z" fill="white"/>
<path d="M46.0124 23.9751C44.0995 23.9751 42.4629 23.6457 41.1026 22.9868C39.7636 22.3279 38.669 21.4565 37.8188 20.3725L40.3375 17.7582C41.1664 18.7146 42.0591 19.4267 43.0156 19.8943C43.9933 20.3406 45.0347 20.5638 46.14 20.5638C47.4152 20.5638 48.393 20.2768 49.0731 19.703C49.7532 19.1291 50.0933 18.3002 50.0933 17.2162C50.0933 16.3235 49.8383 15.654 49.3282 15.2076C48.818 14.74 47.9572 14.4106 46.7457 14.2193L44.3865 13.8367C42.3248 13.4754 40.8582 12.7315 39.9868 11.605C39.1153 10.4572 38.6796 9.10757 38.6796 7.55599C38.6796 5.43054 39.3704 3.80456 40.7519 2.67807C42.1335 1.53033 44.0464 0.956454 46.4907 0.956454C48.2335 0.956454 49.732 1.23276 50.986 1.78538C52.2613 2.338 53.2815 3.09254 54.0467 4.04899L51.5918 6.6633C50.9966 5.9619 50.2846 5.40928 49.4557 5.00545C48.6268 4.58035 47.649 4.36781 46.5226 4.36781C44.0995 4.36781 42.888 5.36677 42.888 7.3647C42.888 8.21488 43.1431 8.86315 43.6532 9.30949C44.1633 9.75584 45.0347 10.0853 46.2675 10.2978L48.5949 10.7123C50.529 11.0736 51.9637 11.7856 52.8989 12.8484C53.8341 13.9111 54.3017 15.2714 54.3017 16.9292C54.3017 17.9707 54.1211 18.9272 53.7597 19.7986C53.3984 20.6488 52.867 21.3927 52.1656 22.0303C51.4642 22.6467 50.5928 23.1249 49.5513 23.465C48.5311 23.8051 47.3515 23.9751 46.0124 23.9751Z" fill="white"/>
<path d="M66.5 23.5926C64.9272 23.5926 63.7688 23.1781 63.0249 22.3492C62.281 21.5202 61.909 20.4469 61.909 19.1291V10.3616H57.1268V7.14153H60.3787C61.0376 7.14153 61.5052 7.014 61.7815 6.75895C62.0578 6.48264 62.196 6.00441 62.196 5.32426V1.33904H65.9899V7.14153H72.6851V10.3616H65.9899V20.3725H72.6851V23.5926H66.5Z" fill="white"/>
<path d="M84.5008 23.9751C83.2468 23.9751 82.1203 23.7732 81.1213 23.3694C80.1436 22.9655 79.304 22.3917 78.6026 21.6478C77.9225 20.9039 77.3911 20.0005 77.0086 18.9378C76.6472 17.8751 76.4666 16.6848 76.4666 15.367C76.4666 14.0493 76.6472 12.859 77.0086 11.7963C77.3911 10.7335 77.9225 9.83023 78.6026 9.08632C79.304 8.34241 80.1436 7.76854 81.1213 7.3647C82.1203 6.96087 83.2468 6.75895 84.5008 6.75895C85.7335 6.75895 86.8494 6.96087 87.8484 7.3647C88.8473 7.76854 89.6869 8.34241 90.367 9.08632C91.0684 9.83023 91.5998 10.7335 91.9611 11.7963C92.3437 12.859 92.535 14.0493 92.535 15.367C92.535 16.6848 92.3437 17.8751 91.9611 18.9378C91.5998 20.0005 91.0684 20.9039 90.367 21.6478C89.6869 22.3917 88.8473 22.9655 87.8484 23.3694C86.8494 23.7732 85.7335 23.9751 84.5008 23.9751ZM84.5008 20.8507C85.6698 20.8507 86.5944 20.5 87.2745 19.7986C87.9546 19.076 88.2947 18.0239 88.2947 16.6423V14.0918C88.2947 12.7102 87.9546 11.6687 87.2745 10.9673C86.5944 10.2447 85.6698 9.88337 84.5008 9.88337C83.3318 9.88337 82.4072 10.2447 81.7271 10.9673C81.0469 11.6687 80.7068 12.7102 80.7068 14.0918V16.6423C80.7068 18.0239 81.0469 19.076 81.7271 19.7986C82.4072 20.5 83.3318 20.8507 84.5008 20.8507Z" fill="white"/>
<path d="M104.255 23.9751C103.001 23.9751 101.875 23.7732 100.876 23.3694C99.8766 22.9655 99.0264 22.3917 98.325 21.6478C97.6449 20.9039 97.1135 20.0005 96.7309 18.9378C96.3696 17.8751 96.189 16.6848 96.189 15.367C96.189 14.0493 96.3696 12.859 96.7309 11.7963C97.1135 10.7335 97.6449 9.83023 98.325 9.08632C99.0264 8.34241 99.866 7.76854 100.844 7.3647C101.843 6.96087 102.969 6.75895 104.223 6.75895C105.966 6.75895 107.369 7.12027 108.432 7.84293C109.494 8.56558 110.302 9.52204 110.855 10.7123L107.698 12.4339C107.401 11.7325 106.976 11.1693 106.423 10.7442C105.892 10.2978 105.158 10.0747 104.223 10.0747C103.012 10.0747 102.076 10.4254 101.418 11.1268C100.78 11.8282 100.461 12.7846 100.461 13.9961V16.738C100.461 17.9282 100.78 18.8847 101.418 19.6073C102.076 20.3087 103.033 20.6594 104.287 20.6594C105.265 20.6594 106.04 20.4362 106.614 19.9899C107.209 19.5436 107.688 18.9484 108.049 18.2045L111.11 20.0218C110.557 21.1908 109.717 22.1472 108.591 22.8911C107.486 23.6138 106.04 23.9751 104.255 23.9751Z" fill="white"/>
<path d="M115.624 0H119.705V13.8367H119.897L122.288 11.2224L126.337 7.14153H131.087L124.551 13.6135L131.788 23.5926H126.911L121.65 15.9409L119.705 17.7901V23.5926H115.624V0Z" fill="white"/>
<path d="M134.837 23.5926V1.33904H143.285C145.453 1.33904 147.111 1.95542 148.259 3.18818C149.407 4.42095 149.981 6.10006 149.981 8.22551C149.981 10.351 149.407 12.0301 148.259 13.2628C147.111 14.4956 145.453 15.112 143.285 15.112H139.013V23.5926H134.837ZM139.013 11.7006H142.425C143.551 11.7006 144.359 11.4775 144.848 11.0311C145.336 10.5635 145.581 9.83023 145.581 8.83126V7.61975C145.581 6.62079 145.336 5.89814 144.848 5.45179C144.359 4.98419 143.551 4.75039 142.425 4.75039H139.013V11.7006Z" fill="white"/>
<path d="M153.698 20.3725H158.927V3.22006H153.698V0H163.008V20.3725H168.268V23.5926H153.698V20.3725Z" fill="white"/>
<path d="M183.177 20.6913H183.017C182.656 21.584 182.093 22.3598 181.327 23.0187C180.583 23.6563 179.542 23.9751 178.203 23.9751C176.588 23.9751 175.27 23.4438 174.25 22.381C173.251 21.2971 172.751 19.7561 172.751 17.7582V7.14153H176.832V17.1843C176.832 19.5648 177.863 20.7551 179.925 20.7551C180.328 20.7551 180.722 20.7019 181.104 20.5957C181.508 20.4894 181.859 20.33 182.156 20.1174C182.475 19.8836 182.72 19.6073 182.89 19.2885C183.081 18.9697 183.177 18.5871 183.177 18.1408V7.14153H187.257V23.5926H183.177V20.6913Z" fill="white"/>
<path d="M208 25.3142C208 27.0358 207.277 28.3004 205.832 29.1081C204.408 29.937 202.176 30.3515 199.137 30.3515C197.649 30.3515 196.406 30.2559 195.407 30.0646C194.408 29.8945 193.6 29.6395 192.984 29.2994C192.389 28.9593 191.963 28.5449 191.708 28.056C191.453 27.5884 191.326 27.057 191.326 26.4619C191.326 25.548 191.591 24.8466 192.123 24.3577C192.654 23.8689 193.398 23.5075 194.355 23.2737V23.0187C193.717 22.8061 193.207 22.5086 192.824 22.126C192.463 21.7434 192.282 21.212 192.282 20.5319C192.282 19.7242 192.548 19.1185 193.079 18.7146C193.632 18.3108 194.355 18.0026 195.247 17.7901V17.6306C194.27 17.163 193.504 16.5042 192.952 15.654C192.399 14.8038 192.123 13.7729 192.123 12.5614C192.123 11.6475 192.282 10.8398 192.601 10.1384C192.941 9.41576 193.409 8.81001 194.004 8.32116C194.62 7.81105 195.354 7.42846 196.204 7.17341C197.054 6.8971 198 6.75895 199.041 6.75895C200.146 6.75895 201.145 6.90773 202.038 7.20529V6.50389C202.038 5.86625 202.24 5.33489 202.644 4.9098C203.069 4.48471 203.653 4.27216 204.397 4.27216H207.362V7.33282H203.473V7.87481C204.28 8.36366 204.897 9.0013 205.322 9.78772C205.768 10.5529 205.991 11.4775 205.991 12.5614C205.991 13.4754 205.821 14.2937 205.481 15.0163C205.163 15.739 204.695 16.3447 204.079 16.8336C203.483 17.3225 202.75 17.705 201.879 17.9813C201.029 18.2364 200.083 18.3639 199.041 18.3639C198.616 18.3639 198.202 18.3533 197.798 18.332C197.415 18.2895 197.043 18.2151 196.682 18.1089C196.384 18.2151 196.097 18.3852 195.821 18.619C195.545 18.8528 195.407 19.161 195.407 19.5436C195.407 20.0537 195.651 20.3725 196.14 20.5C196.629 20.6063 197.213 20.6594 197.893 20.6594H201.624C202.771 20.6594 203.749 20.7763 204.557 21.0101C205.364 21.2227 206.023 21.5415 206.533 21.9666C207.044 22.3704 207.415 22.8593 207.649 23.4331C207.883 24.007 208 24.634 208 25.3142ZM204.174 25.6011C204.174 25.1122 203.972 24.719 203.568 24.4215C203.186 24.1452 202.463 24.007 201.4 24.007H195.725C195.088 24.3683 194.769 24.8997 194.769 25.6011C194.769 26.175 195.003 26.6532 195.47 27.0358C195.959 27.4184 196.778 27.6097 197.925 27.6097H200.572C202.973 27.6097 204.174 26.9401 204.174 25.6011ZM199.041 15.6859C200.083 15.6859 200.848 15.4414 201.337 14.9526C201.826 14.4425 202.07 13.7836 202.07 12.9759V12.147C202.07 11.3393 201.826 10.691 201.337 10.2022C200.848 9.69207 200.083 9.43702 199.041 9.43702C198.021 9.43702 197.266 9.69207 196.778 10.2022C196.289 10.691 196.044 11.3393 196.044 12.147V12.9759C196.044 13.7836 196.289 14.4425 196.778 14.9526C197.266 15.4414 198.021 15.6859 199.041 15.6859Z" fill="white"/>
</svg>
