<svg width="54" height="48" viewBox="0 0 54 48" fill="none" xmlns="http://www.w3.org/2000/svg">
<path fill-rule="evenodd" clip-rule="evenodd" d="M6.5819 10.9438H16.2851C16.7509 10.9438 17.1365 11.3223 17.1365 11.7796V41.1577C17.1365 41.615 16.7509 41.9934 16.2851 41.9934H6.5819C6.11602 41.9934 5.73047 41.615 5.73047 41.1577V11.7796C5.73047 11.3223 6.11602 10.9438 6.5819 10.9438ZM35.6271 0H45.3302C45.7961 0 46.1817 0.378461 46.1817 0.835769V25.2938C46.1817 25.7511 45.7158 25.8615 45.3302 26.1296L35.6271 33.1469C35.2576 33.415 34.7757 32.7684 34.7757 32.3111V0.835769C34.7757 0.362692 35.1612 0 35.6271 0ZM21.1045 5.92923H30.8077C31.2735 5.92923 31.6591 6.30769 31.6591 6.765V34.8027C31.6591 35.2758 31.2253 35.4177 30.8077 35.6384L21.1045 40.8265C20.6868 41.0315 20.2531 40.4481 20.2531 39.9907V6.765C20.2531 6.30769 20.6386 5.92923 21.1045 5.92923Z" fill="white"/>
<path fill-rule="evenodd" clip-rule="evenodd" d="M0.0116519 46.2993C-0.422098 49.7527 11.3052 48.1758 26.6471 39.4554C37.2338 33.4473 46.6799 26.3197 51.7243 20.8477L52.7846 21.9043L53.2505 20.217L53.7324 18.5297L51.9974 18.9712L50.2785 19.4127L51.4351 20.5639C45.0735 26.7927 35.049 32.3435 29.2817 35.1977C16.5905 41.4581 5.90744 43.2716 5.79499 39.9443L5.73073 37.9731C5.73073 37.8943 0.57392 41.8366 0.0116519 46.2993Z" fill="#1BD47B"/>
</svg>
