<svg width="167" height="29" viewBox="0 0 167 29" fill="none" xmlns="http://www.w3.org/2000/svg">
<rect y="9" width="9" height="20" fill="white"/>
<rect x="12" y="5" width="9" height="24" fill="white"/>
<rect x="24" width="9" height="29" fill="white"/>
<path d="M49.73 22.8C48.6833 22.8 47.7367 22.6167 46.89 22.25C46.0433 21.8833 45.3467 21.3567 44.8 20.67C44.26 19.9833 43.9167 19.1733 43.77 18.24L46.27 17.86C46.41 18.42 46.6533 18.9033 47 19.31C47.3467 19.71 47.7667 20.0167 48.26 20.23C48.76 20.4367 49.3 20.54 49.88 20.54C50.4067 20.54 50.8967 20.46 51.35 20.3C51.8033 20.1333 52.1667 19.8933 52.44 19.58C52.72 19.2667 52.86 18.8967 52.86 18.47C52.86 18.07 52.73 17.7367 52.47 17.47C52.21 17.1967 51.8067 16.9767 51.26 16.81L47.54 15.71C46.98 15.55 46.47 15.3433 46.01 15.09C45.55 14.8367 45.1533 14.46 44.82 13.96C44.4933 13.4533 44.33 12.81 44.33 12.03C44.33 11.1367 44.5567 10.3733 45.01 9.74C45.47 9.10667 46.09 8.63 46.87 8.31C47.6567 7.98333 48.5433 7.82 49.53 7.82C50.5233 7.82 51.4133 7.98333 52.2 8.31C52.9867 8.63667 53.64 9.11667 54.16 9.75C54.6867 10.3767 55.0567 11.1367 55.27 12.03L52.68 12.48C52.5733 11.98 52.3633 11.55 52.05 11.19C51.7433 10.8233 51.3633 10.5467 50.91 10.36C50.4633 10.1667 49.9867 10.07 49.48 10.07C49.0067 10.07 48.57 10.15 48.17 10.31C47.77 10.4633 47.45 10.68 47.21 10.96C46.9767 11.2333 46.86 11.55 46.86 11.91C46.86 12.39 47.0467 12.7567 47.42 13.01C47.8 13.2567 48.3067 13.4633 48.94 13.63L51.52 14.35C52.2 14.5367 52.8067 14.7567 53.34 15.01C53.8733 15.2567 54.3467 15.65 54.76 16.19C55.1733 16.73 55.38 17.4367 55.38 18.31C55.38 19.27 55.12 20.09 54.6 20.77C54.0867 21.4433 53.4 21.95 52.54 22.29C51.68 22.63 50.7433 22.8 49.73 22.8ZM60.7045 13.59V17.95V18.52C60.7045 18.8667 60.7179 19.1467 60.7445 19.36C60.7712 19.5733 60.8312 19.75 60.9245 19.89C61.0779 20.1433 61.2912 20.3233 61.5645 20.43C61.8445 20.5367 62.1879 20.59 62.5945 20.59C62.9679 20.59 63.3945 20.5533 63.8745 20.48V22.5C63.2212 22.6267 62.6112 22.69 62.0445 22.69C61.2712 22.69 60.5945 22.57 60.0145 22.33C59.4345 22.0833 59.0012 21.6967 58.7145 21.17C58.5412 20.8567 58.4279 20.5333 58.3745 20.2C58.3212 19.8667 58.2945 19.47 58.2945 19.01L58.3045 18.09V13.59H56.3445V11.7H58.3045V8.7H60.7045V11.7H63.8745V13.59H60.7045ZM70.42 22.8C69.3533 22.8 68.4133 22.56 67.6 22.08C66.7867 21.5933 66.1567 20.92 65.71 20.06C65.27 19.1933 65.05 18.2067 65.05 17.1C65.05 15.98 65.2733 14.99 65.72 14.13C66.1733 13.2633 66.8067 12.5933 67.62 12.12C68.4333 11.64 69.3667 11.4 70.42 11.4C71.4933 11.4 72.4367 11.6433 73.25 12.13C74.0633 12.61 74.6933 13.2833 75.14 14.15C75.5867 15.01 75.81 15.9933 75.81 17.1C75.81 18.2133 75.5833 19.2033 75.13 20.07C74.6833 20.93 74.05 21.6 73.23 22.08C72.4167 22.56 71.48 22.8 70.42 22.8ZM70.42 20.54C71.3467 20.54 72.05 20.23 72.53 19.61C73.0167 18.99 73.26 18.1533 73.26 17.1C73.26 16.0333 73.0167 15.1933 72.53 14.58C72.05 13.9667 71.3467 13.66 70.42 13.66C69.48 13.66 68.7733 13.97 68.3 14.59C67.8333 15.2033 67.6 16.04 67.6 17.1C67.6 18.1733 67.84 19.0167 68.32 19.63C68.8067 20.2367 69.5067 20.54 70.42 20.54ZM82.7033 22.8C81.6166 22.8 80.6733 22.5567 79.8733 22.07C79.0799 21.5767 78.4733 20.9 78.0533 20.04C77.6333 19.1733 77.4199 18.1933 77.4133 17.1C77.4133 16 77.6299 15.02 78.0633 14.16C78.4966 13.2933 79.1133 12.6167 79.9133 12.13C80.7199 11.6433 81.6599 11.4 82.7333 11.4C83.5466 11.4 84.2833 11.54 84.9433 11.82C85.6033 12.1 86.1533 12.5 86.5933 13.02C87.0399 13.5333 87.3466 14.1433 87.5133 14.85L85.1133 15.5C84.9333 14.9267 84.6233 14.4767 84.1833 14.15C83.7499 13.8233 83.2566 13.66 82.7033 13.66C81.7966 13.66 81.1133 13.9733 80.6533 14.6C80.1999 15.2267 79.9699 16.06 79.9633 17.1C79.9699 18.16 80.2066 19 80.6733 19.62C81.1399 20.2333 81.8166 20.54 82.7033 20.54C83.3299 20.54 83.8299 20.4 84.2033 20.12C84.5766 19.8333 84.8599 19.4033 85.0533 18.83L87.5133 19.38C87.1799 20.48 86.5966 21.3267 85.7633 21.92C84.9299 22.5067 83.9099 22.8 82.7033 22.8ZM99.1172 22.5H96.4972L92.8472 17.71L91.7872 18.78V22.5H89.4972L89.5172 8.1H91.7872V15.82L95.9672 11.7H98.7972L94.3272 16.21L99.1172 22.5ZM105.939 11.39C107.146 11.39 108.062 11.6967 108.689 12.31C109.316 12.9167 109.722 13.5933 109.909 14.34C110.096 15.0867 110.189 15.7967 110.189 16.47V22.5H107.749V17.3C107.749 14.8733 106.909 13.66 105.229 13.66C104.502 13.66 103.899 13.91 103.419 14.41C102.939 14.9033 102.699 15.75 102.699 16.95V22.5H100.259V11.7H102.409V12.9C102.816 12.42 103.316 12.05 103.909 11.79C104.502 11.5233 105.179 11.39 105.939 11.39ZM121.308 13.41C121.482 13.7567 121.592 14.1167 121.638 14.49C121.692 14.8567 121.718 15.3167 121.718 15.87V22.5H119.608V21.05C119.148 21.6567 118.615 22.1 118.008 22.38C117.402 22.66 116.672 22.8 115.818 22.8C115.058 22.8 114.405 22.6567 113.858 22.37C113.318 22.0767 112.905 21.6833 112.618 21.19C112.338 20.6967 112.198 20.1467 112.198 19.54C112.198 18.7467 112.395 18.0833 112.788 17.55C113.188 17.0167 113.812 16.6033 114.658 16.31C115.132 16.1567 115.675 16.0267 116.288 15.92C116.908 15.8067 117.792 15.6633 118.938 15.49L119.358 15.43C119.312 14.8033 119.112 14.3433 118.758 14.05C118.412 13.7567 117.875 13.61 117.148 13.61C116.615 13.61 116.128 13.7333 115.688 13.98C115.255 14.2267 114.955 14.6067 114.788 15.12L112.588 14.43C112.862 13.4833 113.382 12.7433 114.148 12.21C114.915 11.67 115.915 11.4 117.148 11.4C118.148 11.4 119.005 11.5633 119.718 11.89C120.438 12.2167 120.968 12.7233 121.308 13.41ZM119.088 19.09C119.235 18.7367 119.315 18.1767 119.328 17.41C118.282 17.5767 117.528 17.7033 117.068 17.79C116.615 17.87 116.215 17.97 115.868 18.09C115.435 18.25 115.108 18.4433 114.888 18.67C114.668 18.8967 114.558 19.1767 114.558 19.51C114.558 19.9167 114.708 20.2467 115.008 20.5C115.315 20.7533 115.745 20.88 116.298 20.88C116.812 20.88 117.262 20.79 117.648 20.61C118.042 20.4233 118.358 20.1933 118.598 19.92C118.838 19.6467 119.002 19.37 119.088 19.09ZM126.932 22.5H124.522V7.8H126.932V22.5ZM134.287 19.43L137.217 11.7H139.627L133.607 27.3H131.347L133.127 22.42L128.757 11.7H131.267L134.287 19.43ZM145.289 22.8C143.955 22.8 142.872 22.5 142.039 21.9C141.205 21.3 140.699 20.4567 140.519 19.37L142.979 18.99C143.099 19.53 143.375 19.9533 143.809 20.26C144.249 20.56 144.799 20.71 145.459 20.71C146.032 20.71 146.479 20.5967 146.799 20.37C147.119 20.1367 147.279 19.82 147.279 19.42C147.279 19.16 147.215 18.96 147.089 18.82C146.969 18.68 146.725 18.5433 146.359 18.41C145.992 18.27 145.382 18.0867 144.529 17.86C143.615 17.62 142.892 17.3633 142.359 17.09C141.832 16.81 141.452 16.4833 141.219 16.11C140.985 15.73 140.869 15.2667 140.869 14.72C140.869 14.0533 141.042 13.47 141.389 12.97C141.742 12.47 142.239 12.0833 142.879 11.81C143.525 11.5367 144.272 11.4 145.119 11.4C145.952 11.4 146.695 11.53 147.349 11.79C148.002 12.05 148.529 12.4233 148.929 12.91C149.335 13.39 149.582 13.95 149.669 14.59L147.209 15.03C147.142 14.57 146.929 14.2067 146.569 13.94C146.215 13.6733 145.745 13.5233 145.159 13.49C144.592 13.4633 144.135 13.5533 143.789 13.76C143.442 13.96 143.269 14.24 143.269 14.6C143.269 14.82 143.339 15 143.479 15.14C143.625 15.28 143.902 15.4233 144.309 15.57C144.715 15.71 145.352 15.89 146.219 16.11C147.092 16.3367 147.782 16.59 148.289 16.87C148.802 17.15 149.172 17.4867 149.399 17.88C149.632 18.2667 149.749 18.7433 149.749 19.31C149.749 20.03 149.569 20.6533 149.209 21.18C148.855 21.7 148.342 22.1 147.669 22.38C147.002 22.66 146.209 22.8 145.289 22.8ZM154.549 22.5H152.139V11.7H154.549V22.5ZM153.339 10.4C153.072 10.4 152.829 10.3367 152.609 10.21C152.389 10.0833 152.216 9.91 152.089 9.69C151.962 9.47 151.899 9.22667 151.899 8.96C151.899 8.69333 151.962 8.45 152.089 8.23C152.216 8.01 152.389 7.83667 152.609 7.71C152.829 7.58333 153.072 7.52 153.339 7.52C153.612 7.52 153.859 7.58333 154.079 7.71C154.299 7.83667 154.472 8.01 154.599 8.23C154.726 8.45 154.789 8.69333 154.789 8.96C154.789 9.22667 154.726 9.47 154.599 9.69C154.472 9.91 154.299 10.0833 154.079 10.21C153.859 10.3367 153.612 10.4 153.339 10.4ZM161.715 22.8C160.381 22.8 159.298 22.5 158.465 21.9C157.631 21.3 157.125 20.4567 156.945 19.37L159.405 18.99C159.525 19.53 159.801 19.9533 160.235 20.26C160.675 20.56 161.225 20.71 161.885 20.71C162.458 20.71 162.905 20.5967 163.225 20.37C163.545 20.1367 163.705 19.82 163.705 19.42C163.705 19.16 163.641 18.96 163.515 18.82C163.395 18.68 163.151 18.5433 162.785 18.41C162.418 18.27 161.808 18.0867 160.955 17.86C160.041 17.62 159.318 17.3633 158.785 17.09C158.258 16.81 157.878 16.4833 157.645 16.11C157.411 15.73 157.295 15.2667 157.295 14.72C157.295 14.0533 157.468 13.47 157.815 12.97C158.168 12.47 158.665 12.0833 159.305 11.81C159.951 11.5367 160.698 11.4 161.545 11.4C162.378 11.4 163.121 11.53 163.775 11.79C164.428 12.05 164.955 12.4233 165.355 12.91C165.761 13.39 166.008 13.95 166.095 14.59L163.635 15.03C163.568 14.57 163.355 14.2067 162.995 13.94C162.641 13.6733 162.171 13.5233 161.585 13.49C161.018 13.4633 160.561 13.5533 160.215 13.76C159.868 13.96 159.695 14.24 159.695 14.6C159.695 14.82 159.765 15 159.905 15.14C160.051 15.28 160.328 15.4233 160.735 15.57C161.141 15.71 161.778 15.89 162.645 16.11C163.518 16.3367 164.208 16.59 164.715 16.87C165.228 17.15 165.598 17.4867 165.825 17.88C166.058 18.2667 166.175 18.7433 166.175 19.31C166.175 20.03 165.995 20.6533 165.635 21.18C165.281 21.7 164.768 22.1 164.095 22.38C163.428 22.66 162.635 22.8 161.715 22.8Z" fill="white"/>
</svg>
