<svg width="38" height="34" viewBox="0 0 38 34" fill="none" xmlns="http://www.w3.org/2000/svg">
<path d="M37.3803 16.9919C37.3803 14.7687 35.576 12.9643 33.3528 12.9643C32.2573 12.9643 31.2907 13.3832 30.5818 14.0921C27.8431 12.1266 24.0411 10.8378 19.8525 10.6767L21.689 2.07388L27.6498 3.33047C27.7142 4.84483 28.9708 6.0692 30.5174 6.0692C32.0962 6.0692 33.385 4.78039 33.385 3.20159C33.385 1.6228 32.0962 0.333984 30.5174 0.333984C29.3897 0.333984 28.4231 0.97839 27.972 1.945L21.3024 0.527307C21.1091 0.495087 20.9157 0.527307 20.7546 0.623968C20.5935 0.720629 20.4969 0.881729 20.4324 1.07505L18.4025 10.6767C14.1173 10.8056 10.283 12.0622 7.5121 14.0921C6.80325 13.4154 5.80443 12.9643 4.74116 12.9643C2.51796 12.9643 0.713623 14.7687 0.713623 16.9919C0.713623 18.6351 1.68023 20.0206 3.09792 20.665C3.03348 21.0516 3.00126 21.4705 3.00126 21.8894C3.00126 28.0757 10.1864 33.0698 19.0792 33.0698C27.972 33.0698 35.1571 28.0757 35.1571 21.8894C35.1571 21.4705 35.1249 21.0839 35.0604 20.6972C36.3815 20.0528 37.3803 18.6351 37.3803 16.9919ZM9.83196 19.8595C9.83196 18.2807 11.1208 16.9919 12.6996 16.9919C14.2784 16.9919 15.5672 18.2807 15.5672 19.8595C15.5672 21.4383 14.2784 22.7271 12.6996 22.7271C11.1208 22.7271 9.83196 21.4383 9.83196 19.8595ZM25.8454 27.4313C23.88 29.3967 20.1424 29.5256 19.047 29.5256C17.9515 29.5256 14.1817 29.3645 12.2485 27.4313C11.9585 27.1413 11.9585 26.658 12.2485 26.368C12.5385 26.078 13.0218 26.078 13.3117 26.368C14.5361 27.5924 17.1782 28.0434 19.0792 28.0434C20.9802 28.0434 23.59 27.5924 24.8466 26.368C25.1366 26.078 25.6199 26.078 25.9099 26.368C26.1354 26.6902 26.1354 27.1413 25.8454 27.4313ZM25.3299 22.7271C23.7511 22.7271 22.4623 21.4383 22.4623 19.8595C22.4623 18.2807 23.7511 16.9919 25.3299 16.9919C26.9087 16.9919 28.1975 18.2807 28.1975 19.8595C28.1975 21.4383 26.9087 22.7271 25.3299 22.7271Z" fill="#333946"/>
</svg>
