<svg width="30" height="30" viewBox="0 0 30 30" fill="none" xmlns="http://www.w3.org/2000/svg">
<g clip-path="url(#clip0_7699_520)">
<path d="M5 3.75H25C25.3315 3.75 25.6495 3.8817 25.8839 4.11612C26.1183 4.35054 26.25 4.66848 26.25 5V25C26.25 25.3315 26.1183 25.6495 25.8839 25.8839C25.6495 26.1183 25.3315 26.25 25 26.25H5C4.66848 26.25 4.35054 26.1183 4.11612 25.8839C3.8817 25.6495 3.75 25.3315 3.75 25V5C3.75 4.66848 3.8817 4.35054 4.11612 4.11612C4.35054 3.8817 4.66848 3.75 5 3.75ZM6.25 6.25V23.75H23.75V6.25H6.25ZM9.375 11.25C8.87772 11.25 8.40081 11.0525 8.04917 10.7008C7.69754 10.3492 7.5 9.87228 7.5 9.375C7.5 8.87772 7.69754 8.40081 8.04917 8.04917C8.40081 7.69754 8.87772 7.5 9.375 7.5C9.87228 7.5 10.3492 7.69754 10.7008 8.04917C11.0525 8.40081 11.25 8.87772 11.25 9.375C11.25 9.87228 11.0525 10.3492 10.7008 10.7008C10.3492 11.0525 9.87228 11.25 9.375 11.25ZM8.125 12.5H10.625V21.875H8.125V12.5ZM15 13.0375C15.73 12.3313 16.5825 11.875 17.5 11.875C20.0888 11.875 21.875 13.9738 21.875 16.5625V21.875H19.375V16.5625C19.375 15.9823 19.1445 15.4259 18.7343 15.0157C18.3241 14.6055 17.7677 14.375 17.1875 14.375C16.6073 14.375 16.0509 14.6055 15.6407 15.0157C15.2305 15.4259 15 15.9823 15 16.5625V21.875H12.5V12.5H15V13.0375Z" fill="white"/>
</g>
<defs>
<clipPath id="clip0_7699_520">
<rect width="30" height="30" fill="white"/>
</clipPath>
</defs>
</svg>
