<svg width="30" height="30" viewBox="0 0 30 30" fill="none" xmlns="http://www.w3.org/2000/svg">
<g clip-path="url(#clip0_7699_524)">
<path d="M13.8777 9.76902L14.8165 5.34902C14.8848 5.02783 15.0157 4.72324 15.2018 4.45266C15.3878 4.18208 15.6254 3.9508 15.9008 3.77204C16.1763 3.59328 16.4843 3.47054 16.8072 3.41082C17.1301 3.35111 17.4616 3.35559 17.7827 3.42402L21.7777 4.27402C22.146 3.86505 22.6389 3.58902 23.1801 3.48876C23.7212 3.38851 24.2803 3.46961 24.7707 3.71951C25.261 3.9694 25.6552 4.37411 25.8921 4.87088C26.129 5.36764 26.1953 5.92868 26.0808 6.467C25.9663 7.00531 25.6774 7.4908 25.2589 7.84816C24.8403 8.20553 24.3156 8.41481 23.766 8.44352C23.2164 8.47224 22.6727 8.3188 22.2191 8.007C21.7656 7.6952 21.4277 7.24247 21.2577 6.71902L17.2627 5.86902L16.4302 9.78777C18.6602 9.95902 20.8765 10.7003 22.884 11.9128C23.4805 11.5811 24.1522 11.408 24.8347 11.41C25.5173 11.412 26.1879 11.5891 26.7825 11.9243C27.3771 12.2596 27.8757 12.7417 28.2307 13.3247C28.5857 13.9076 28.7853 14.5719 28.8102 15.254V15.2803C28.8198 15.8917 28.6887 16.4971 28.4271 17.0498C28.1655 17.6024 27.7804 18.0876 27.3015 18.4678C27.2993 18.5191 27.2959 18.5703 27.2915 18.6215C27.2915 23.619 21.729 27.409 15.0427 27.409C8.37773 27.409 2.90773 23.629 2.91148 18.7178C2.90602 18.6424 2.90186 18.567 2.89898 18.4915C2.09162 17.8855 1.54398 16.996 1.36642 16.0023C1.18886 15.0085 1.39457 13.9844 1.94211 13.1363C2.48965 12.2882 3.3383 11.6792 4.31705 11.432C5.29579 11.1847 6.33187 11.3177 7.21648 11.804C9.23536 10.5873 11.5236 9.88828 13.8777 9.76902ZM25.4852 16.6765C25.9952 16.4228 26.3152 15.9015 26.3115 15.3328C26.2985 15.0468 26.2033 14.7706 26.0375 14.5372C25.8716 14.3038 25.642 14.1232 25.3762 14.0169C25.1103 13.9106 24.8195 13.8832 24.5384 13.9379C24.2574 13.9926 23.9981 14.1271 23.7915 14.3253L23.0602 15.0253L22.2227 14.4565C20.204 13.084 17.9077 12.3003 15.6852 12.2515H14.4277C12.084 12.2878 9.86398 13.0015 7.88148 14.3453L7.05273 14.9078L6.32273 14.2203C6.1653 14.0725 5.97765 13.9607 5.77275 13.8926C5.56785 13.8246 5.3506 13.8019 5.13605 13.826C4.9215 13.8502 4.71477 13.9208 4.53017 14.0327C4.34558 14.1447 4.18752 14.2955 4.06695 14.4746C3.94638 14.6537 3.86618 14.8569 3.8319 15.0701C3.79761 15.2832 3.81007 15.5013 3.8684 15.7092C3.92673 15.9171 4.02954 16.1098 4.16971 16.274C4.30989 16.4382 4.48408 16.57 4.68023 16.6603L5.47148 17.0228L5.40398 17.8915C5.38773 18.104 5.38773 18.3153 5.40773 18.6215C5.40773 22.009 9.60273 24.909 15.0427 24.909C20.5065 24.909 24.7915 21.989 24.7952 18.5265C24.8115 18.3152 24.8115 18.1029 24.7952 17.8915L24.7302 17.0515L25.4852 16.6765ZM8.75023 16.8753C8.75023 16.378 8.94777 15.9011 9.2994 15.5494C9.65103 15.1978 10.1279 15.0003 10.6252 15.0003C11.1225 15.0003 11.5994 15.1978 11.9511 15.5494C12.3027 15.9011 12.5002 16.378 12.5002 16.8753C12.5002 17.3726 12.3027 17.8495 11.9511 18.2011C11.5994 18.5527 11.1225 18.7503 10.6252 18.7503C10.1279 18.7503 9.65103 18.5527 9.2994 18.2011C8.94777 17.8495 8.75023 17.3726 8.75023 16.8753ZM17.5002 16.8753C17.5002 16.378 17.6978 15.9011 18.0494 15.5494C18.401 15.1978 18.8779 15.0003 19.3752 15.0003C19.8725 15.0003 20.3494 15.1978 20.7011 15.5494C21.0527 15.9011 21.2502 16.378 21.2502 16.8753C21.2502 17.3726 21.0527 17.8495 20.7011 18.2011C20.3494 18.5527 19.8725 18.7503 19.3752 18.7503C18.8779 18.7503 18.401 18.5527 18.0494 18.2011C17.6978 17.8495 17.5002 17.3726 17.5002 16.8753ZM15.0202 23.254C13.274 23.254 11.5615 22.7915 10.1677 21.7415C10.0835 21.6399 10.0403 21.5105 10.0465 21.3786C10.0527 21.2468 10.1078 21.122 10.2011 21.0287C10.2945 20.9353 10.4192 20.8802 10.5511 20.874C10.6829 20.8678 10.8123 20.9111 10.914 20.9953C12.0952 21.8615 13.5677 22.2328 15.0002 22.2328C16.4327 22.2328 17.9127 21.889 19.1052 21.034C19.1742 20.9667 19.2596 20.9188 19.353 20.895C19.4464 20.8713 19.5443 20.8725 19.6371 20.8986C19.7298 20.9247 19.814 20.9747 19.8813 21.0437C19.9486 21.1127 19.9965 21.1982 20.0202 21.2915C20.0405 21.3851 20.0375 21.4822 20.0116 21.5744C19.9857 21.6666 19.9376 21.751 19.8715 21.8203C19.0165 22.8165 16.7665 23.254 15.0202 23.254Z" fill="white"/>
</g>
<defs>
<clipPath id="clip0_7699_524">
<rect width="30" height="30" fill="white"/>
</clipPath>
</defs>
</svg>
