<svg width="30" height="30" viewBox="0 0 30 30" fill="none" xmlns="http://www.w3.org/2000/svg">
<g clip-path="url(#clip0_7699_528)">
<path d="M19.1249 6.93716C18.1749 6.937 17.2627 7.30981 16.5848 7.97536C15.9068 8.64092 15.5173 9.54602 15.4999 10.4959L15.4649 12.4647C15.4629 12.5704 15.4385 12.6744 15.3934 12.7701C15.3483 12.8657 15.2835 12.9507 15.2032 13.0195C15.1229 13.0883 15.029 13.1394 14.9276 13.1694C14.8263 13.1993 14.7197 13.2075 14.6149 13.1934L12.6637 12.9284C10.0962 12.5784 7.63615 11.3959 5.27615 9.42966C4.52865 13.5672 5.98865 16.4334 9.5049 18.6447L11.6887 20.0172C11.7924 20.0824 11.8786 20.172 11.9397 20.2782C12.0008 20.3844 12.035 20.504 12.0391 20.6265C12.0433 20.749 12.0175 20.8706 11.9638 20.9808C11.9101 21.0909 11.8302 21.1863 11.7312 21.2584L9.74115 22.7122C10.9249 22.7859 12.0487 22.7334 12.9812 22.5484C18.8787 21.3709 22.7999 16.9334 22.7999 9.6134C22.7999 9.0159 21.5349 6.93716 19.1249 6.93716ZM12.9999 10.4497C13.0217 9.24472 13.3985 8.07299 14.0831 7.08118C14.7677 6.08937 15.7297 5.32155 16.8485 4.87386C17.9674 4.42617 19.1935 4.3185 20.3733 4.56434C21.5531 4.81017 22.6342 5.39859 23.4812 6.2559C24.3699 6.24965 25.1262 6.47465 26.8174 5.44966C26.3987 7.49966 26.1924 8.38965 25.2999 9.6134C25.2999 19.1659 19.4287 23.8109 13.4712 24.9997C9.38615 25.8147 3.44615 24.4759 1.74365 22.6984C2.61115 22.6309 6.13615 22.2522 8.17365 20.7609C6.4499 19.6247 -0.411348 15.5872 4.0974 4.73215C6.21365 7.2034 8.3599 8.8859 10.5349 9.7784C11.9824 10.3722 12.3374 10.3597 13.0012 10.4509L12.9999 10.4497Z" fill="white"/>
</g>
<defs>
<clipPath id="clip0_7699_528">
<rect width="30" height="30" fill="white"/>
</clipPath>
</defs>
</svg>
