<svg width="130" height="130" viewBox="0 0 130 130" fill="none" xmlns="http://www.w3.org/2000/svg">
<path fill-rule="evenodd" clip-rule="evenodd" d="M65 125C98.1371 125 125 98.1371 125 65C125 31.8629 98.1371 5 65 5C31.8629 5 5 31.8629 5 65C5 98.1371 31.8629 125 65 125ZM65 130C100.899 130 130 100.899 130 65C130 29.1015 100.899 0 65 0C29.1015 0 0 29.1015 0 65C0 100.899 29.1015 130 65 130Z" fill="#E84E4E"/>
<path d="M93.5 41.9L88.6 37L65.5 60.1L42.4 37L37.5 41.9L60.6 65L37.5 88.1L42.4 93L65.5 69.9L88.6 93L93.5 88.1L70.4 65L93.5 41.9Z" fill="#E84E4E"/>
</svg>
