<svg width="79" height="37" viewBox="0 0 79 37" fill="none" xmlns="http://www.w3.org/2000/svg">
<path fill-rule="evenodd" clip-rule="evenodd" d="M69.8849 18.8576C69.8849 14.6006 67.7917 11.2415 63.7911 11.2415C59.7735 11.2415 57.3428 14.6006 57.3428 18.8244C57.3428 23.8298 60.2124 26.3574 64.3312 26.3574C66.34 26.3574 67.8592 25.9084 69.0071 25.2765V21.9507C67.8592 22.5161 66.5426 22.8653 64.8714 22.8653C63.234 22.8653 61.7823 22.2999 61.5966 20.3376H69.8511C69.8511 20.1215 69.8849 19.2567 69.8849 18.8576ZM61.546 17.2779C61.546 15.3988 62.7107 14.6172 63.7742 14.6172C64.8039 14.6172 65.9011 15.3988 65.9011 17.2779H61.546Z" fill="#525A65"/>
<path fill-rule="evenodd" clip-rule="evenodd" d="M50.8266 11.2415C49.1724 11.2415 48.1089 12.0064 47.5181 12.5385L47.2986 11.5075H43.585V30.8972L47.805 30.0158L47.8219 25.3098C48.4296 25.7421 49.3243 26.3574 50.8097 26.3574C53.8313 26.3574 56.5828 23.9628 56.5828 18.6913C56.5659 13.8689 53.7807 11.2415 50.8266 11.2415ZM49.8138 22.699C48.8179 22.699 48.2271 22.3498 47.8219 21.9174L47.805 15.748C48.2439 15.2657 48.8516 14.9331 49.8138 14.9331C51.3499 14.9331 52.4134 16.6293 52.4134 18.8077C52.4134 21.0361 51.3668 22.699 49.8138 22.699Z" fill="#525A65"/>
<path fill-rule="evenodd" clip-rule="evenodd" d="M37.7783 10.2603L42.0153 9.3623V5.98657L37.7783 6.86792V10.2603Z" fill="#525A65"/>
<path d="M42.0153 11.5242H37.7783V26.0747H42.0153V11.5242Z" fill="#525A65"/>
<path fill-rule="evenodd" clip-rule="evenodd" d="M33.2375 12.7547L32.9674 11.5242H29.3213V26.0747H33.5414V16.2136C34.5373 14.9332 36.2253 15.166 36.7486 15.3489V11.5242C36.2085 11.3246 34.2335 10.9588 33.2375 12.7547Z" fill="#525A65"/>
<path fill-rule="evenodd" clip-rule="evenodd" d="M24.7968 7.91553L20.678 8.78025L20.6611 22.1002C20.6611 24.5614 22.5349 26.374 25.0331 26.374C26.4173 26.374 27.4302 26.1245 27.9872 25.8252V22.4495C27.447 22.6656 24.7799 23.4306 24.7799 20.9695V15.0661H27.9872V11.5241H24.7799L24.7968 7.91553Z" fill="#525A65"/>
<path fill-rule="evenodd" clip-rule="evenodd" d="M13.386 15.748C13.386 15.0994 13.9261 14.85 14.8208 14.85C16.1037 14.85 17.7242 15.2325 19.0071 15.9143V12.0064C17.606 11.4576 16.2219 11.2415 14.8208 11.2415C11.3941 11.2415 9.11523 13.0042 9.11523 15.9475C9.11523 20.5372 15.5298 19.8055 15.5298 21.7844C15.5298 22.5493 14.8546 22.7988 13.9093 22.7988C12.5082 22.7988 10.7189 22.2334 9.30092 21.4684V25.4262C10.8708 26.0913 12.4575 26.374 13.9093 26.374C17.4204 26.374 19.8343 24.6612 19.8343 21.6846C19.8174 16.7291 13.386 17.6104 13.386 15.748Z" fill="#525A65"/>
</svg>
