<svg width="130" height="130" viewBox="0 0 130 130" fill="none" xmlns="http://www.w3.org/2000/svg">
<path fill-rule="evenodd" clip-rule="evenodd" d="M65 125C98.1371 125 125 98.1371 125 65C125 31.8629 98.1371 5 65 5C31.8629 5 5 31.8629 5 65C5 98.1371 31.8629 125 65 125ZM65 130C100.899 130 130 100.899 130 65C130 29.1015 100.899 0 65 0C29.1015 0 0 29.1015 0 65C0 100.899 29.1015 130 65 130Z" fill="#2D955D"/>
<path d="M89.0006 51.6667L57.0007 83.6667L42.334 69.0001L46.094 65.2401L57.0007 76.1201L85.2407 47.9067L89.0006 51.6667Z" fill="#2D955D"/>
</svg>
